G04 ================== begin FILE IDENTIFICATION RECORD ==================*
G04 Layout Name:  EI_ARROW_IMX8M_HMI_PLATFORM_17_00666_02.brd*
G04 Film Name:    L6_PWR1.gbr*
G04 File Format:  Gerber RS274X*
G04 File Origin:  Cadence Allegro 17.2-P019*
G04 Origin Date:  Mon Feb 11 12:30:40 2019*
G04 *
G04 Layer:  DRAWING FORMAT/L6*
G04 Layer:  DRAWING FORMAT/FILM_LABEL_OUTLINE*
G04 Layer:  VIA CLASS/L6_PWR1*
G04 Layer:  PIN/L6_PWR1*
G04 Layer:  ETCH/L6_PWR1*
G04 Layer:  DRAWING FORMAT/FILM_TITLE_BLOCK*
G04 Layer:  BOARD GEOMETRY/OUTLINE*
G04 *
G04 Offset:    (0.00 0.00)*
G04 Mirror:    No*
G04 Mode:      Positive*
G04 Rotation:  0*
G04 FullContactRelief:  No*
G04 UndefLineWidth:     5.00*
G04 ================== end FILE IDENTIFICATION RECORD ====================*
%FSLAX25Y25*MOIN*%
%IR0*IPPOS*OFA0.00000B0.00000*MIA0B0*SFA1.00000B1.00000*%
%ADD11O,.103X.052*%
%ADD13C,.06*%
%ADD16C,.016*%
%ADD10C,.034*%
%ADD12C,.044*%
%ADD15C,.03937*%
%ADD14R,.03937X.03937*%
%ADD17C,.01*%
%ADD18C,.004*%
%ADD19C,.005*%
%ADD20C,.0035*%
%ADD37C,.02104*%
%ADD36C,.02204*%
%ADD38C,.05004*%
%ADD28C,.02404*%
%ADD22C,.06004*%
%ADD33C,.07104*%
%ADD27C,.07204*%
%ADD29C,.02804*%
%ADD31C,.06604*%
%ADD25C,.07604*%
%ADD23C,.06704*%
%ADD26C,.08604*%
%ADD34C,.07904*%
%ADD35C,.09904*%
%ADD24C,.13604*%
%ADD32C,.14604*%
%ADD30C,.14704*%
%ADD21O,.05934X.06524*%
G75*
%LPD*%
G75*
G36*
G01X129770Y6368D02*
G03X129235Y7124I-801J0D01*
G02X129107Y7602I100J283D01*
G03X128608Y11656I-2107J1798D01*
G02Y12144I174J244D01*
G03X125392I-1608J2256D01*
G02Y11656I-174J-244D01*
G03X124893Y7602I1608J-2256D01*
G02X124765Y7124I-228J-195D01*
G03X124230Y6368I266J-756D01*
G01Y2432D01*
G03Y2409I802J-12D01*
G02X123930Y2100I-300J-9D01*
G01X7600D01*
X2200Y7500D01*
Y25497D01*
G02X2740Y25677I300J0D01*
G03Y27123I960J723D01*
G02X2200Y27303I-240J180D01*
G01Y154464D01*
G02X2714Y154673I300J-1D01*
G03X5147Y153650I2432J2379D01*
G01X10247D01*
G03Y160452I0J3401D01*
G01X5147D01*
G03X2714Y159429I-1J-3402D01*
G02X2200Y159638I-214J210D01*
G01Y173362D01*
G02X2714Y173571I300J-1D01*
G03X5147Y172548I2432J2379D01*
G01X10247D01*
G03Y179350I0J3401D01*
G01X5147D01*
G03X2714Y178327I-1J-3402D01*
G02X2200Y178536I-214J210D01*
G01Y209898D01*
X39170D01*
Y221210D01*
G02X39696Y221408I300J0D01*
G03Y222992I904J792D01*
G02X39170Y223190I-226J198D01*
G01Y224806D01*
G02X39676Y225025I300J1D01*
G03Y226775I824J875D01*
G02X39170Y226994I-206J218D01*
G01Y228820D01*
G02X39656Y229056I300J0D01*
G03Y230944I744J944D01*
G02X39170Y231180I-186J236D01*
G01Y232520D01*
G02X39656Y232756I300J0D01*
G03Y234644I744J944D01*
G02X39170Y234880I-186J236D01*
G01Y235848D01*
G02X39636Y236098I300J0D01*
G03Y238102I664J1002D01*
G02X39170Y238352I-166J250D01*
G01Y239748D01*
G02X39636Y239998I300J0D01*
G03Y242002I664J1002D01*
G02X39170Y242252I-166J250D01*
G01Y289002D01*
X2200D01*
Y343755D01*
G02X2659Y344010I300J1D01*
G03Y346390I741J1190D01*
G02X2200Y346645I-159J254D01*
G01Y354336D01*
G02X2779Y354446I300J0D01*
G03Y359848I6838J2701D01*
G02X2200Y359958I-279J110D01*
G01Y391700D01*
X152009D01*
G02X152252Y391223I1J-300D01*
G03X151642Y389357I2554J-1868D01*
G01Y386601D01*
G03X154806Y383438I3164J1D01*
G01X161416D01*
Y391700D01*
X162197D01*
G02X162377Y391160I0J-300D01*
G03X163823I723J-960D01*
G02X164003Y391700I180J240D01*
G01X177598D01*
G02X177838Y391220I0J-300D01*
G03X179748Y389761I962J-720D01*
G02X180284Y389577I236J-185D01*
G01Y383438D01*
X186894D01*
G03X190058Y386601I0J3164D01*
G01Y389357D01*
G03X189448Y391223I-3164J-2D01*
G02X189691Y391700I242J177D01*
G01X259598D01*
G02X259838Y391220I0J-300D01*
G03X261762I962J-720D01*
G02X262002Y391700I240J180D01*
G01X287552D01*
G02X287831Y391290I0J-300D01*
G03X288335Y389817I1119J-440D01*
G02X288345Y389308I-153J-258D01*
G03X290100Y387815I655J-1008D01*
G02X290639Y387835I274J-121D01*
G03X292431Y389354I1061J565D01*
G02X292411Y389813I183J238D01*
G03X292663Y391260I-811J887D01*
G02X292929Y391700I266J140D01*
G01X325500D01*
X329200Y388000D01*
Y376293D01*
G02X328794Y376012I-300J0D01*
G03Y373388I-494J-1312D01*
G02X329200Y373107I106J-281D01*
G01Y344100D01*
X325751Y340651D01*
X325717Y340639D01*
G03X324961Y339883I383J-1139D01*
G01X324949Y339849D01*
X323050Y337950D01*
X320150D01*
X320130Y337956D01*
G03X319470I-330J-1156D01*
G01X319450Y337950D01*
X284050D01*
X280700Y341300D01*
Y353700D01*
X272846Y361554D01*
G02X272871Y362002I212J213D01*
G03X271315Y364323I-871J1098D01*
G02X270874Y364529I-146J262D01*
G03X269162Y365381I-1181J-226D01*
G01X269066Y365334D01*
X268924Y365476D01*
G03X268313Y366748I-4131J-1202D01*
G02X268506Y367216I245J173D01*
G03X267101Y368480I-206J1184D01*
G02X266801Y368200I-299J20D01*
G01X266552D01*
X266523Y368213D01*
G03X260826Y365938I-1730J-3939D01*
G02X260420Y365784I-276J116D01*
G03X259003Y365500I-520J-1084D01*
G01X245751D01*
G03X243649I-1051J-584D01*
G01X239593D01*
G03X237407I-1093J-500D01*
G01X236371D01*
G03X235205I-583J-1051D01*
G01X230669D01*
X230633Y365600D01*
G03X228367I-1133J-400D01*
G01X228331Y365500D01*
X222004D01*
X221981Y365622D01*
G03X219619I-1181J-222D01*
G01X219596Y365500D01*
X211831D01*
G03X203583I-4124J-1226D01*
G01X161477D01*
G02X161202Y365920I0J300D01*
G03X158998I-1102J480D01*
G02X158723Y365500I-275J-120D01*
G01X152500D01*
X151174Y364174D01*
G02X150710Y364223I-212J212D01*
G03X149048Y362561I-1010J-652D01*
G02X149097Y362097I-163J-252D01*
G01X145360Y358360D01*
G02X144854Y358512I-212J212D01*
G03X136184Y349842I-7205J-1465D01*
G02X136336Y349336I-60J-294D01*
G01X131169Y344169D01*
G02X130671Y344288I-213J212D01*
G03X128205Y346499I-3140J-1021D01*
G02X128042Y346991I62J294D01*
G03X124889Y345941I-2478J2182D01*
G02X125052Y345449I-62J-294D01*
G03X128144Y340022I2479J-2182D01*
G02X128500Y339728I56J-295D01*
G01Y336350D01*
X128397Y336316D01*
G03Y334034I378J-1141D01*
G01X128500Y334000D01*
Y323425D01*
G02X128034Y323175I-300J0D01*
G03Y321173I-665J-1001D01*
G02X128500Y320923I166J-250D01*
G01Y310000D01*
X130200Y308300D01*
Y300000D01*
X115000Y284800D01*
Y260600D01*
X112000Y257600D01*
X92700D01*
X87800Y252700D01*
Y184300D01*
X104200Y167900D01*
Y154200D01*
X97500Y147500D01*
X73172D01*
G03X72759Y147675I-667J-1000D01*
G01X72716Y147684D01*
X71600Y148800D01*
Y152200D01*
X70400Y153400D01*
X60300D01*
X50400Y143500D01*
Y135030D01*
G02X49919Y134791I-300J0D01*
G03Y132555I-846J-1118D01*
G02X50400Y132316I181J-239D01*
G01Y131700D01*
X52000Y130100D01*
X52858D01*
G03X54942I1042J600D01*
G01X56000D01*
X56600Y129500D01*
Y67814D01*
G02X56200Y67531I-300J0D01*
G03Y60359I-1263J-3586D01*
G02X56600Y60076I100J-283D01*
G01Y54300D01*
X62000Y48900D01*
X66635D01*
G03X66765I65J1200D01*
G01X147300D01*
X164400Y66000D01*
X185827D01*
G03X187099I636J900D01*
G01X189133D01*
G02X189404Y65572I0J-300D01*
G03X191396I996J-472D01*
G02X191667Y66000I271J128D01*
G01X213426D01*
G02X213725Y65713I-1J-300D01*
G03X214199Y64724I1401J63D01*
G02X214194Y64270I-198J-225D01*
G03X216027Y64252I906J-1070D01*
G02X216032Y64706I198J225D01*
G03X216527Y65713I-906J1070D01*
G02X216826Y66000I300J-13D01*
G01X221100D01*
X242578Y87478D01*
G02X243051Y87412I211J-213D01*
G03X244688Y89049I1049J588D01*
G02X244622Y89522I147J262D01*
G01X246657Y91557D01*
G02X247155Y91435I212J-212D01*
G03X248665Y92945I1145J365D01*
G02X248543Y93443I90J286D01*
G01X255701Y100601D01*
G02X256213Y100409I213J-212D01*
G03X256242Y100211I1200J75D01*
G02X255991Y99844I-292J-70D01*
G03X255572Y97601I162J-1191D01*
G02X255661Y97151I-145J-262D01*
G03X257181Y97452I939J-751D01*
G02X257092Y97902I145J262D01*
G03X257323Y98930I-939J751D01*
G02X257574Y99297I292J70D01*
G03X258410Y99818I-162J1191D01*
G02X258896Y99836I250J-167D01*
G03X258770Y101373I1104J864D01*
G02X258288Y101311I-263J143D01*
G03X257618Y101672I-876J-823D01*
G02X257472Y102194I51J296D01*
G03X257854Y102736I-922J1056D01*
G01X257865Y102765D01*
X258409Y103309D01*
X258479Y103303D01*
G03X259400Y105851I121J1397D01*
G01Y109561D01*
G02X259848Y109822I300J0D01*
G03Y112260I693J1219D01*
G02X259400Y112521I-148J261D01*
G01Y156406D01*
G03X260818Y158783I-1283J2377D01*
G01Y159183D01*
G03X260316Y160751I-2702J-1D01*
G02X260412Y161186I244J174D01*
G03X260818Y161883I-395J697D01*
G01Y166083D01*
G03X260016Y166884I-801J0D01*
G01X259400D01*
Y167700D01*
X262700Y171000D01*
X304098D01*
G02X304363Y170559I0J-300D01*
G03X306837I1237J-659D01*
G02X307102Y171000I265J141D01*
G01X325900D01*
X332600Y164300D01*
Y148846D01*
X320820D01*
Y118922D01*
X321184D01*
G02X321434Y118455I0J-300D01*
G03X323222Y116882I1001J-664D01*
G02X323659Y116834I196J-227D01*
G03X325697Y117014I963J719D01*
G02X326204Y117061I268J-135D01*
G03X328161Y118455I956J729D01*
G02X328411Y118922I250J167D01*
G01X332600D01*
Y118068D01*
G02X332053Y117897I-300J0D01*
G03X329907Y116110I-1153J-797D01*
G02X329713Y115599I-213J-212D01*
G03X330793Y115190I88J-1399D01*
G02X330987Y115701I213J212D01*
G03X332053Y116303I-87J1399D01*
G02X332600Y116132I247J-171D01*
G01Y106103D01*
G02X332060Y105923I-300J0D01*
G03Y104477I-960J-723D01*
G02X332600Y104297I240J-180D01*
G01Y85756D01*
G02X332145Y85500I-300J0D01*
G03X330083Y83874I-726J-1200D01*
G02X329801Y83482I-286J-92D01*
G03X327581Y82276I30J-2701D01*
G02X327081I-250J166D01*
G03X322581I-2250J-1495D01*
G02X322081I-250J166D01*
G03X317581I-2250J-1495D01*
G02X317081I-250J166D01*
G03X312581I-2250J-1495D01*
G02X312081I-250J166D01*
G03X307130Y80781I-2250J-1495D01*
G01Y80381D01*
G03X307631Y78813I2701J-1D01*
G02X307535Y78378I-244J-174D01*
G03X307130Y77681I397J-697D01*
G01Y73481D01*
G03X307931Y72680I801J0D01*
G01X311731D01*
G03X312532Y73481I0J801D01*
G01Y73656D01*
X312751D01*
X312795Y73605D01*
G03X317081Y73886I2036J1776D01*
G02X317581I250J-166D01*
G03X322081I2250J1495D01*
G02X322581I250J-166D01*
G03X327081I2250J1495D01*
G02X327581I250J-166D01*
G03X329685Y72683I2251J1495D01*
G02X329956Y72299I-17J-299D01*
G03X332124Y70766I1344J-399D01*
G02X332600Y70523I176J-243D01*
G01Y37551D01*
G02X332150Y37291I-300J0D01*
G03Y35209I-600J-1041D01*
G02X332600Y34949I150J-260D01*
G01Y6900D01*
X327800Y2100D01*
X130070D01*
G02X129770Y2409I0J300D01*
G03Y2432I-802J11D01*
G01Y6368D01*
G37*
G36*
G01X62700Y52200D02*
X60200Y54700D01*
Y131700D01*
X62300Y133800D01*
Y139500D01*
X67400Y144600D01*
X96900D01*
X121800Y169500D01*
X179328D01*
G02X179622Y169140I0J-300D01*
G03X181978I1178J-240D01*
G02X182272Y169500I294J60D01*
G01X184192D01*
G02X184484Y169131I0J-300D01*
G03X186824I1170J-277D01*
G02X187116Y169500I292J69D01*
G01X232900D01*
X234200Y168200D01*
Y157800D01*
X236600Y155400D01*
X252300D01*
X255200Y152500D01*
Y126352D01*
G03X255067Y125975I1051J-583D01*
G02X254677Y125741I-296J51D01*
G03X254780Y123498I-377J-1141D01*
G02X255200Y123223I120J-275D01*
G01Y105500D01*
X249889Y100189D01*
G02X249402Y100281I-212J212D01*
G03X247819Y98698I-1102J-481D01*
G02X247911Y98211I-120J-275D01*
G01X245718Y96018D01*
G02X245225Y96124I-212J212D01*
G03X243676Y94575I-1125J-424D01*
G02X243782Y94082I-106J-281D01*
G01X241399Y91699D01*
G02X240890Y91869I-212J212D01*
G03X239531Y90510I-1190J-169D01*
G02X239701Y90001I-42J-297D01*
G01X220000Y70300D01*
X200010D01*
X199994Y70432D01*
G03X199344Y71309I-1094J-132D01*
G02X199259Y71801I121J274D01*
G03X199602Y72599I-759J799D01*
G02X200004Y72881I300J0D01*
G03X199091Y74011I476J1319D01*
G02X198731Y73678I-297J-40D01*
G03X198056Y71591I-232J-1078D01*
G02X198141Y71099I-121J-274D01*
G03X197806Y70432I759J-799D01*
G01X197790Y70300D01*
X194357D01*
G02X194064Y70666I0J300D01*
G03X191914I-1075J241D01*
G02X191621Y70300I-293J-66D01*
G01X164400D01*
X160904Y66804D01*
X160799Y66898D01*
G03X159040Y66723I-799J-898D01*
G02X158560I-240J180D01*
G03Y65277I-960J-723D01*
G02X159040I240J-180D01*
G03X159102Y65201I962J721D01*
G01X159196Y65096D01*
X158603Y64503D01*
X158545Y64501D01*
G03X157399Y63355I55J-1201D01*
G01X157397Y63297D01*
X146300Y52200D01*
X62700D01*
G37*
G36*
G01X103100Y172300D02*
X89500Y185900D01*
Y251700D01*
X92800Y255000D01*
X111500D01*
X113100Y256600D01*
X115400D01*
X115500Y256500D01*
Y248202D01*
G02X115059Y247937I-300J0D01*
G03X113366Y245753I-659J-1237D01*
G02Y245347I-221J-203D01*
G03X115059Y243163I1034J-947D01*
G02X115500Y242898I141J-265D01*
G01Y235100D01*
X124900Y225700D01*
X145800D01*
X152700Y218800D01*
X162000D01*
X166900Y223700D01*
Y232813D01*
G02X167240Y233111I300J1D01*
G03X168332Y235572I188J1389D01*
G02X168313Y236013I193J229D01*
G01X173700Y241400D01*
Y245300D01*
X177200Y248800D01*
X208500D01*
X209526Y249826D01*
G02X210027Y249693I212J-212D01*
G03X211141Y251086I1063J292D01*
G01X211083Y251089D01*
X210936Y251236D01*
X211142Y251442D01*
X211196Y251447D01*
G03X212187Y252438I-106J1097D01*
G01X212192Y252492D01*
X213700Y254000D01*
X213754Y254005D01*
G03X214746Y254997I-105J1097D01*
G01X214751Y255051D01*
X216260Y256560D01*
X216314Y256565D01*
G03X217305Y257556I-106J1097D01*
G01X217310Y257610D01*
X218200Y258500D01*
X221600D01*
X222871Y257229D01*
X222883Y257204D01*
G03X224766Y257000I1002J458D01*
G01X225562D01*
G03X227324I881J662D01*
G01X228122D01*
G03X229884I881J662D01*
G01X230681D01*
G03X232443I881J662D01*
G01X235798D01*
G03X237560I881J662D01*
G01X238357D01*
G03X239966Y256834I881J662D01*
G01X240918Y255882D01*
G03X242476Y254324I779J-779D01*
G01X243300Y253500D01*
Y250301D01*
X243294Y250281D01*
G03Y249689I1062J-296D01*
G01X243300Y249669D01*
Y247742D01*
X243294Y247722D01*
G03Y247130I1062J-296D01*
G01X243300Y247110D01*
Y245179D01*
X243295Y245160D01*
G03Y244574I1062J-293D01*
G01X243300Y244555D01*
Y242624D01*
X243294Y242604D01*
G03Y242012I1062J-296D01*
G01X243300Y241992D01*
Y240065D01*
X243294Y240045D01*
G03Y239453I1062J-296D01*
G01X243300Y239433D01*
Y237506D01*
X243294Y237486D01*
G03Y236894I1062J-296D01*
G01X243300Y236874D01*
Y234946D01*
X243294Y234926D01*
G03Y234334I1062J-296D01*
G01X243300Y234314D01*
Y233500D01*
X241800Y232000D01*
Y227290D01*
X241692Y227258D01*
G03Y225142I308J-1058D01*
G01X241800Y225110D01*
Y216100D01*
X238100Y212400D01*
Y201999D01*
G02X237818Y201700I-300J0D01*
G03Y198900I82J-1400D01*
G02X238100Y198601I-18J-299D01*
G01Y194600D01*
X242683Y190017D01*
X242645Y189925D01*
G03X244929Y189734I1112J-457D01*
G02X245222Y190100I293J66D01*
G01X256100D01*
X258352Y187848D01*
X258312Y187754D01*
G03X260154Y185912I1288J-554D01*
G01X260248Y185952D01*
X261700Y184500D01*
Y177300D01*
X256700Y172300D01*
X103100D01*
G37*
G36*
G01X60800Y142165D02*
G03Y139627I596J-1269D01*
G01Y133705D01*
X57930Y130835D01*
X55101D01*
X55075Y130953D01*
G03X52725I-1175J-253D01*
G01X52699Y130835D01*
X52245D01*
X51100Y131980D01*
Y143200D01*
X60500Y152600D01*
X68200D01*
X69500Y151300D01*
Y148500D01*
X68500Y147500D01*
X65000D01*
X60800Y143300D01*
Y142165D01*
G37*
G36*
G01X265800Y210800D02*
X256100Y220500D01*
Y226157D01*
G02X256582Y226395I300J0D01*
G03X257872Y228181I669J876D01*
G02X257851Y228661I169J248D01*
G03X256561Y230443I-700J851D01*
G02X256100Y230696I-161J253D01*
G01Y242300D01*
X257100Y243300D01*
Y243349D01*
X257102Y243351D01*
Y251296D01*
G02X257239Y251446I150J1D01*
G03X257900Y253352I-88J1098D01*
G01Y254295D01*
G03X256442Y255946I-749J808D01*
G02X256036Y255964I-193J230D01*
G01X255400Y256600D01*
X255351D01*
X255349Y256602D01*
X253698D01*
X253056Y257244D01*
X253084Y257330D01*
G03X252600Y258607I-1051J332D01*
G01Y261834D01*
G03Y263724I-567J945D01*
G01Y264393D01*
G03Y266283I-567J945D01*
G01Y266600D01*
X253263Y267263D01*
G02X253715Y267232I213J-212D01*
G03X255259Y268776I878J666D01*
G02X255228Y269228I181J239D01*
G01X255821Y269821D01*
G02X256273Y269790I213J-212D01*
G03X257817Y271334I878J666D01*
G02X257786Y271786I181J239D01*
G01X258800Y272800D01*
Y285500D01*
X255400Y288900D01*
Y290179D01*
G03Y291679I-807J750D01*
G01Y292740D01*
G03Y294238I-808J749D01*
G01Y295500D01*
X233207Y317693D01*
X233275Y317795D01*
G03X231117Y319564I-1168J776D01*
G02X230695I-211J213D01*
G03X228306Y318642I-989J-994D01*
G01X228299Y318500D01*
X224064D01*
X224057Y318642D01*
G03X221668Y319564I-1400J-72D01*
G02X221246I-211J213D01*
G03X218857Y318642I-989J-994D01*
G01X218850Y318500D01*
X214581D01*
X214548Y318606D01*
G03X212219Y319189I-1340J-411D01*
G02X211797I-211J213D01*
G03X209468Y318606I-989J-994D01*
G01X209435Y318500D01*
X204900D01*
X200600Y314200D01*
X185000D01*
X182400Y316800D01*
Y334058D01*
G03Y336378I-788J1160D01*
G01Y343900D01*
X185700Y347200D01*
X189136D01*
X189149Y347064D01*
G03X191534Y346197I1396J127D01*
G02X191956I211J-213D01*
G03X194341Y347064I989J994D01*
G01X194354Y347200D01*
X213095D01*
X213116Y347074D01*
G03X215884I1384J221D01*
G01X215905Y347200D01*
X245200D01*
G02X245500Y346917I0J-300D01*
G03X247900I1200J67D01*
G02X248200Y347200I300J-17D01*
G01X254900D01*
X260006Y342094D01*
G02X259885Y341596I-212J-212D01*
G03X261396Y340085I366J-1145D01*
G02X261894Y340206I286J-91D01*
G01X300700Y301400D01*
X318900D01*
X326200Y294100D01*
Y233000D01*
X304000Y210800D01*
X265800D01*
G37*
G36*
G01X272300Y173000D02*
X263500Y181800D01*
Y185700D01*
X257700Y191500D01*
X243800D01*
X239500Y195800D01*
Y212900D01*
X243500Y216900D01*
Y232849D01*
X243902Y233251D01*
Y235797D01*
G02X244235Y236095I300J0D01*
G03X245155Y237949I121J1095D01*
G01X245055Y238055D01*
X246050Y239050D01*
X246156Y238950D01*
G03X247921Y239300I759J799D01*
G01X248468D01*
G03X250480I1006J449D01*
G01X251027D01*
G03X252240Y238667I1006J449D01*
G01X252318Y238682D01*
X254200Y236800D01*
Y233105D01*
X254115Y233064D01*
G03Y231078I477J-993D01*
G01X254200Y231037D01*
Y230545D01*
X254115Y230504D01*
G03Y228518I477J-993D01*
G01X254200Y228477D01*
Y217400D01*
X263200Y208400D01*
X290296D01*
X290319Y208278D01*
G03X292681I1181J222D01*
G01X292704Y208400D01*
X303800D01*
X326800Y231400D01*
Y232749D01*
X326802Y232751D01*
Y294349D01*
X326800Y294351D01*
Y295100D01*
X319000Y302900D01*
X301400D01*
X292809Y311491D01*
G02X292997Y312002I212J212D01*
G03X291702Y313297I-97J1198D01*
G02X291191Y313109I-299J24D01*
G01X256100Y348200D01*
X239980D01*
G02X239716Y348644I-1J300D01*
G03X237497Y350310I-1230J672D01*
G02X237075I-211J213D01*
G03X234856Y348644I-989J-994D01*
G02X234592Y348200I-263J-144D01*
G01X233599D01*
G02X233370Y348694I0J300D01*
G03X231230Y350506I-1070J906D01*
G02X231018Y350489I-114J97D01*
G03X228929Y348663I-912J-1065D01*
G02X228677Y348200I-252J-163D01*
G01X228002D01*
G02X227737Y348641I0J300D01*
G03X225591Y350368I-1237J659D01*
G02X225199Y350370I-195J228D01*
G03X223045Y348644I-924J-1055D01*
G02X222781Y348200I-263J-144D01*
G01X222263D01*
G02X221999Y348644I-1J300D01*
G03X219780Y350310I-1230J672D01*
G02X219358I-211J213D01*
G03X217139Y348644I-989J-994D01*
G02X216875Y348200I-263J-144D01*
G01X215571D01*
G03X213429I-1071J-905D01*
G01X193918D01*
G03X192013Y348238I-973J-1009D01*
G01X191970Y348200D01*
X191520D01*
X191477Y348238D01*
G03X189572Y348200I-932J-1047D01*
G01X184500D01*
X183413Y347113D01*
G02X182911Y347248I-212J212D01*
G03X180566Y347885I-1356J-357D01*
G02X180144I-211J213D01*
G03Y345897I-989J-994D01*
G02X180566I211J-213D01*
G03X181460Y345492I989J994D01*
G02X181600Y345343I-10J-150D01*
G01Y339100D01*
X179118Y336618D01*
X179065Y336612D01*
G03X177818Y335365I147J-1394D01*
G01X177812Y335312D01*
X177700Y335200D01*
X173307D01*
X173301Y335344D01*
G03X170899I-1201J-44D01*
G01X170893Y335200D01*
X151121D01*
G03X148189Y334302I-924J-2217D01*
G01X143351D01*
X141698Y332649D01*
Y326751D01*
X147500Y320949D01*
Y320800D01*
X167900Y300400D01*
Y299300D01*
X167002Y298402D01*
X163398D01*
X159700Y302100D01*
X152300D01*
X148500Y305900D01*
X134200D01*
X129600Y310500D01*
Y334301D01*
G03Y336049I-825J874D01*
G01Y338200D01*
X140338Y348938D01*
G02X140760Y348940I212J-212D01*
G03X142498Y350599I840J859D01*
G02X142510Y351010I224J199D01*
G01X143697Y352197D01*
G02X144147Y352168I212J-212D01*
G03X145832Y353853I953J732D01*
G02X145803Y354303I183J238D01*
G01X154800Y363300D01*
X159454D01*
X159487Y363197D01*
G03X161773I1143J373D01*
G01X161806Y363300D01*
X203515D01*
X203544Y363188D01*
G03X203823Y362423I4163J1085D01*
G02X203522Y361996I-271J-129D01*
G03X204595Y360666I-122J-1196D01*
G02X205076Y360870I298J-33D01*
G03X209794Y360512I2631J3404D01*
G02X210208Y360382I145J-263D01*
G03X211749Y362023I1078J532D01*
G02X211593Y362429I115J277D01*
G03X211870Y363188I-3885J1848D01*
G01X211899Y363300D01*
X220598D01*
G02X220898Y363000I0J-300D01*
G03X223302I1202J0D01*
G02X223602Y363300I300J0D01*
G01X235434D01*
X235455Y363294D01*
G03X236121I333J1155D01*
G01X236142Y363300D01*
X251583D01*
G02X251846Y362856I0J-300D01*
G03X253954I1054J-578D01*
G02X254217Y363300I263J144D01*
G01X260601D01*
X260630Y363188D01*
G03X268561Y362197I4163J1086D01*
G02X269035Y362265I263J-145D01*
G01X270108Y361192D01*
X270012Y361086D01*
G03X271710Y359388I888J-810D01*
G02X271917Y359383I101J-111D01*
G01X279200Y352100D01*
Y341100D01*
X283300Y337000D01*
X318301D01*
G02X318601Y336720I1J-300D01*
G03X320902Y336319I1199J80D01*
G02X321389Y336411I275J-120D01*
G01X326311Y331489D01*
G02X326219Y331002I-212J-212D01*
G03X327802Y329419I481J-1102D01*
G02X328289Y329511I275J-120D01*
G01X330197Y327603D01*
X330199Y327545D01*
G03X331345Y326399I1201J55D01*
G01X331403Y326397D01*
X332600Y325200D01*
Y289423D01*
G02X332080Y289218I-300J-1D01*
G03Y287582I-880J-818D01*
G02X332600Y287377I220J-204D01*
G01Y251021D01*
G02X332100Y250797I-300J0D01*
G03Y249003I-800J-897D01*
G02X332600Y248779I200J-224D01*
G01Y180800D01*
X324800Y173000D01*
X272300D01*
G37*
G36*
G01X237500Y285075D02*
G03Y286545I-821J735D01*
G01Y287634D01*
G03Y289104I-821J735D01*
G01Y295400D01*
X231300Y301600D01*
X167700D01*
X142300Y327000D01*
Y332400D01*
X143600Y333700D01*
X147527D01*
G02X147824Y333354I1J-300D01*
G03X152570I2373J-371D01*
G02X152867Y333700I296J46D01*
G01X169293D01*
X169299Y333556D01*
G03X171701I1201J44D01*
G01X171707Y333700D01*
X175700D01*
X180950Y328450D01*
Y316450D01*
X184100Y313300D01*
X201000D01*
X204500Y316800D01*
X210668D01*
X210675Y316799D01*
G03X210941I133J1396D01*
G01X210948Y316800D01*
X213068D01*
X213075Y316799D01*
G03X213341I133J1396D01*
G01X213348Y316800D01*
X232700D01*
X254300Y295200D01*
Y294557D01*
X254203Y294520D01*
G03Y292458I389J-1031D01*
G01X254300Y292421D01*
Y291996D01*
X254203Y291960D01*
G03Y289898I390J-1031D01*
G01X254300Y289862D01*
Y289000D01*
X258100Y285200D01*
Y273200D01*
X253392Y268492D01*
G02X252934Y268531I-213J212D01*
G03X251399Y266996I-901J-634D01*
G02X251438Y266538I-173J-245D01*
G01X251200Y266300D01*
Y266061D01*
X251168Y266020D01*
G03X251200Y264617I865J-682D01*
G01Y263500D01*
G03Y262058I833J-721D01*
G01Y258383D01*
G03X251488Y256704I833J-721D01*
G01X251506Y256694D01*
X251627Y256573D01*
G02X251547Y256092I-212J-212D01*
G03X253030Y255572I486J-989D01*
G02X253301Y256000I271J128D01*
G01X255100D01*
X256049Y255051D01*
X256054Y254997D01*
G03X256500Y254214I1097J106D01*
G01Y253433D01*
G03Y251655I651J-889D01*
G01Y243600D01*
X255400Y242500D01*
X251400D01*
X250245Y243655D01*
G02X250247Y244081I212J212D01*
G03X248689Y245639I-773J785D01*
G02X248263Y245637I-214J210D01*
G01X247686Y246214D01*
G02X247688Y246640I212J212D01*
G03X246129Y248199I-773J786D01*
G02X245703Y248197I-214J210D01*
G01X245127Y248773D01*
G02X245129Y249199I212J212D01*
G03X244615Y251056I-773J786D01*
G01X244500Y251084D01*
Y256563D01*
X244615Y256591D01*
G03Y258733I-259J1071D01*
G01X244500Y258761D01*
Y261680D01*
X244615Y261708D01*
G03Y263850I-259J1071D01*
G01X244500Y263878D01*
Y264239D01*
X244615Y264267D01*
G03Y266409I-259J1071D01*
G01X244500Y266437D01*
Y266798D01*
X244615Y266826D01*
G03Y268968I-259J1071D01*
G01X244500Y268996D01*
Y269357D01*
X244615Y269385D01*
G03Y271527I-259J1071D01*
G01X244500Y271555D01*
Y272000D01*
X239768Y276732D01*
G02X239822Y277198I213J212D01*
G03X238303Y278717I-584J935D01*
G02X237837Y278663I-254J159D01*
G01X237500Y279000D01*
Y279957D01*
G03Y281427I-821J735D01*
G01Y282516D01*
G03Y283986I-821J735D01*
G01Y285075D01*
G37*
G36*
G01X152200Y221000D02*
X149600Y223600D01*
Y259100D01*
X152983Y262483D01*
X153012Y262494D01*
G03X153707Y263189I-428J1123D01*
G01X153718Y263218D01*
X156289Y265789D01*
G02X156717Y265784I212J-213D01*
G03X158417Y267484I867J833D01*
G02X158412Y267912I208J216D01*
G01X162200Y271700D01*
X164900D01*
X165450Y271150D01*
X165461Y271128D01*
G03X166001Y270588I1076J536D01*
G01X166023Y270577D01*
X168000Y268600D01*
X170800D01*
X173900Y271700D01*
X201717D01*
G02X201928Y271186I1J-300D01*
G03X203472I772J-786D01*
G02X203683Y271700I210J214D01*
G01X207494D01*
G02X207715Y271198I-1J-300D01*
G03X209345I815J-742D01*
G02X209566Y271700I222J202D01*
G01X217731D01*
G02X217952Y271198I-1J-300D01*
G03X219867Y270382I815J-742D01*
G01X219870Y270438D01*
X220016Y270584D01*
X220226Y270374D01*
X220232Y270323D01*
G03X221193Y269362I1094J133D01*
G01X221244Y269356D01*
X222785Y267815D01*
X222791Y267764D01*
G03X224979Y267768I1094J134D01*
G01X224995Y267900D01*
X225334D01*
X225350Y267768D01*
G03X227538I1094J129D01*
G01X227554Y267900D01*
X227893D01*
X227909Y267768D01*
G03X230097I1094J129D01*
G01X230113Y267900D01*
X231900D01*
X235300Y271300D01*
Y273400D01*
X236405Y274505D01*
X236482Y274491D01*
G03X237462Y274800I197J1084D01*
G01X240400D01*
X243559Y271641D01*
G02X243563Y271221I-212J-212D01*
G03X243800Y269505I793J-765D01*
G01Y268848D01*
G03Y266946I556J-951D01*
G01Y266289D01*
G03Y264387I556J-951D01*
G01Y263730D01*
G03Y261828I556J-951D01*
G01Y260100D01*
X242331Y258631D01*
X242238Y258672D01*
G03X241081Y258500I-441J-1010D01*
G01X239954D01*
G03X238522I-716J-838D01*
G01X237395D01*
G03X235963I-716J-838D01*
G01X232278D01*
G03X230846I-716J-838D01*
G01X229719D01*
G03X228287I-716J-838D01*
G01X227159D01*
G03X225727I-716J-838D01*
G01X224601D01*
G03X223169I-716J-838D01*
G01X222600D01*
X221900Y259200D01*
X218000D01*
X217323Y258523D01*
G02X216917Y258505I-213J212D01*
G03X215365Y256953I-709J-843D01*
G02X215347Y256547I-230J-193D01*
G01X214763Y255963D01*
G02X214358Y255946I-212J212D01*
G03X212805Y254393I-709J-844D01*
G02X212788Y253988I-229J-193D01*
G01X212205Y253405D01*
G02X211799Y253387I-213J212D01*
G03X210247Y251835I-709J-843D01*
G02X210229Y251429I-230J-193D01*
G01X208900Y250100D01*
X207074D01*
X207048Y250218D01*
G03X204894I-1077J-234D01*
G01X204868Y250100D01*
X204515D01*
X204489Y250218D01*
G03X202335I-1077J-234D01*
G01X202309Y250100D01*
X177500D01*
X172700Y245300D01*
Y241500D01*
X167051Y235851D01*
X167015Y235840D01*
G03X166439Y235494I413J-1340D01*
G02X166017I-211J213D01*
G03X165664Y233251I-989J-994D01*
G02X166100Y232983I136J-268D01*
G01Y223800D01*
X163300Y221000D01*
X152200D01*
G37*
G36*
G01X125800Y227000D02*
X117100Y235700D01*
Y270198D01*
G02X117398Y270498I300J0D01*
G03Y273302I-9J1402D01*
G02X117100Y273602I2J300D01*
G01Y284700D01*
X133784Y301384D01*
X133813Y301395D01*
G03X134605Y302187I-513J1305D01*
G01X134616Y302216D01*
X137100Y304700D01*
X148300D01*
X152150Y300850D01*
X159050D01*
X162100Y297800D01*
X168500D01*
X171000Y300300D01*
X227432D01*
G02X227603Y299753I0J-300D01*
G03X229197I797J-1153D01*
G02X229368Y300300I171J247D01*
G01X229900D01*
X236500Y293700D01*
Y289462D01*
X236389Y289432D01*
G03Y287306I290J-1063D01*
G01X236500Y287276D01*
Y286903D01*
X236389Y286873D01*
G03Y284747I290J-1063D01*
G01X236500Y284717D01*
Y284344D01*
X236389Y284314D01*
G03Y282188I290J-1063D01*
G01X236500Y282158D01*
Y281785D01*
X236389Y281755D01*
G03Y279629I290J-1063D01*
G01X236500Y279599D01*
Y279226D01*
X236389Y279196D01*
G03Y277070I290J-1063D01*
G01X236500Y277040D01*
Y276668D01*
X236389Y276638D01*
G03X235706Y275057I290J-1063D01*
G01X235759Y274959D01*
X234600Y273800D01*
Y271700D01*
X232100Y269200D01*
X223500D01*
X222800Y269900D01*
Y272700D01*
X222428Y273072D01*
X222422Y273125D01*
G03X220230Y273134I-1096J-110D01*
G01X220216Y273000D01*
X219877D01*
X219863Y273134D01*
G03X217671I-1096J-118D01*
G01X217657Y273000D01*
X217318D01*
X217304Y273134D01*
G03X215112I-1096J-119D01*
G01X215098Y273000D01*
X214759D01*
X214745Y273134D01*
G03X212553I-1096J-119D01*
G01X212539Y273000D01*
X212200D01*
X212186Y273134D01*
G03X209994I-1096J-119D01*
G01X209980Y273000D01*
X209640D01*
X209626Y273134D01*
G03X207434I-1096J-119D01*
G01X207420Y273000D01*
X207081D01*
X207067Y273134D01*
G03X204875I-1096J-119D01*
G01X204861Y273000D01*
X204522D01*
X204508Y273134D01*
G03X202316I-1096J-119D01*
G01X202302Y273000D01*
X161700D01*
X156209Y267509D01*
G02X155698Y267697I-212J212D01*
G03X154403Y266402I-1198J-97D01*
G02X154591Y265891I-24J-299D01*
G01X153290Y264590D01*
G03X151548Y263007I-706J-973D01*
G01X151607Y262907D01*
X148200Y259500D01*
Y228200D01*
X147000Y227000D01*
X125800D01*
G37*
%LPC*%
G75*
G36*
G01X36364Y31267D02*
Y39567D01*
G02X37165Y40368I801J0D01*
G01X42365D01*
G02X43166Y39567I0J-801D01*
G01Y31267D01*
G02X42365Y30466I-801J0D01*
G01X37165D01*
G02X36364Y31267I0J801D01*
G37*
G36*
G01Y42684D02*
Y50984D01*
G02X37165Y51786I801J1D01*
G01X42365D01*
G02X43166Y50984I-1J-802D01*
G01Y42684D01*
G02X42365Y41882I-801J-1D01*
G01X37165D01*
G02X36364Y42684I1J802D01*
G37*
G36*
G01X49750D02*
Y50984D01*
G02X50551Y51786I801J1D01*
G01X55751D01*
G02X56552Y50984I-1J-802D01*
G01Y42684D01*
G02X55751Y41882I-801J-1D01*
G01X50551D01*
G02X49750Y42684I1J802D01*
G37*
G36*
G01X30701Y133198D02*
X16699D01*
X15798Y134099D01*
Y139801D01*
X16399Y140402D01*
X30701D01*
X31202Y139901D01*
Y133699D01*
X30701Y133198D01*
G37*
G36*
G01X182531Y375353D02*
G03X182841Y375001I295J-53D01*
G02X181792Y373335I59J-1201D01*
G03X181340Y373463I-277J-116D01*
G02X176643Y375873I-1730J2410D01*
G01Y376463D01*
G02X182577I2967J0D01*
G01Y375873D01*
G02X182531Y375353I-2967J0D01*
G37*
G36*
G01X197619Y371307D02*
G03X197144Y371289I-231J-192D01*
G02X197081Y372993I-1144J811D01*
G03X197556Y373011I231J192D01*
G02X197619Y371307I1144J-811D01*
G37*
G36*
G01X179429Y369295D02*
G03X178984Y369181I-175J-244D01*
G02X178599Y370678I-1084J519D01*
G03X179044Y370792I175J244D01*
G02X179429Y369295I1084J-519D01*
G37*
G36*
G01X111857Y364938D02*
G03X111377I-240J-180D01*
G02Y366384I-960J723D01*
G03X111857I240J180D01*
G02Y364938I960J-723D01*
G37*
G36*
G01X35723Y362938D02*
G03X35243I-240J-180D01*
G02Y364384I-960J723D01*
G03X35723I240J180D01*
G02Y362938I960J-723D01*
G37*
G36*
G01X82924Y350332D02*
G03X82502Y350066I-122J-274D01*
G02X80804Y351195I-1202J34D01*
G03X80885Y351687I-124J273D01*
G02X82924Y350332I5032J5360D01*
G37*
G36*
G01X19061Y346599D02*
G03X19224Y347091I-62J294D01*
G02X22377Y346041I2478J2182D01*
G03X22214Y345549I62J-294D01*
G02X19061Y346599I-2478J-2182D01*
G37*
G36*
G01X56585Y335726D02*
G03X56461Y335285I125J-273D01*
G02X54715Y335774I-1161J-785D01*
G03X54839Y336215I-125J273D01*
G02X56585Y335726I1161J785D01*
G37*
G36*
G01X78451Y333487D02*
G03X77971I-240J-180D01*
G02Y334933I-960J723D01*
G03X78451I240J180D01*
G02Y333487I960J-723D01*
G37*
G36*
G01X64277Y333080D02*
G03X63797I-240J-180D01*
G02Y334526I-960J723D01*
G03X64277I240J180D01*
G02X66167Y334564I960J-723D01*
G03X66632I233J190D01*
G02X68522Y334526I930J-761D01*
G03X69002I240J180D01*
G02Y333080I960J-723D01*
G03X68522I-240J-180D01*
G02X66632Y333042I-960J723D01*
G03X66167I-233J-190D01*
G02X64277Y333080I-930J761D01*
G37*
G36*
G01X99737Y331360D02*
G03X99749Y331148I112J-100D01*
G02X97775Y331039I-932J-1047D01*
G03X97763Y331251I-112J100D01*
G02X99737Y331360I932J1047D01*
G37*
G36*
G01X113254Y331688D02*
G03Y331212I182J-238D01*
G02X111546I-854J-1112D01*
G03Y331688I-182J238D01*
G02X113254I854J1112D01*
G37*
G36*
G01X37609Y317377D02*
G03Y316897I180J-240D01*
G02X36163I-723J-960D01*
G03Y317377I-180J240D01*
G02X37609I723J960D01*
G37*
G36*
G01X46762Y302390D02*
G03Y301910I180J-240D01*
G02X45316I-723J-960D01*
G03Y302390I-180J240D01*
G02X46762I723J960D01*
G37*
G36*
G01X92375Y284002D02*
G02Y285998I-985J998D01*
G02X94345I985J-998D01*
G02X96315I985J-998D01*
G02Y284002I985J-998D01*
G02X94345I-985J998D01*
G02X92375I-985J998D01*
G37*
G36*
G01X71447Y274726D02*
G03X71579Y274289I253J-162D01*
G02X70085Y273835I-481J-1101D01*
G03X69953Y274272I-253J162D01*
G02X69870Y276434I481J1101D01*
G03X69983Y276859I-141J265D01*
G02X70143Y278343I1017J641D01*
G03X70123Y278783I-213J211D01*
G02X71757Y278857I777J917D01*
G03X71777Y278417I213J-211D01*
G02X71564Y276439I-777J-917D01*
G03X71451Y276014I141J-265D01*
G02X71447Y274726I-1017J-641D01*
G37*
G36*
G01X76804Y176278D02*
G03X76820Y176726I-192J231D01*
G02X78516Y176761I830J869D01*
G03X78550Y176315I216J-208D01*
G02X76804Y176278I-850J-1115D01*
G37*
G36*
G01X83788Y169947D02*
G03X83971Y169543I276J-119D01*
G02X82449Y168746I-371J-1143D01*
G03X82221Y169126I-287J86D01*
G02X83788Y169947I279J1374D01*
G37*
G36*
G01X63513Y156116D02*
G03X63072Y156097I-212J-213D01*
G02X62987Y157996I-1072J903D01*
G03X63428Y158015I212J213D01*
G02X63513Y156116I1072J-903D01*
G37*
G36*
G01X4339Y136942D02*
G03X4338Y137334I-228J195D01*
G02X6459Y137336I1060J918D01*
G03X6460Y136944I228J-195D01*
G02X4339Y136942I-1060J-918D01*
G37*
G36*
G01X265732Y128498D02*
G03X265453Y128111I8J-300D01*
G02X264080Y129102I-1341J-411D01*
G03X264359Y129489I-8J300D01*
G02X267102Y129880I1341J410D01*
G03X267454Y129580I300J-5D01*
G02X266298Y128220I246J-1380D01*
G03X265946Y128520I-300J5D01*
G02X265732Y128498I-250J1380D01*
G37*
G36*
G01X50179Y124290D02*
G03X50197Y124078I114J-97D01*
G02X48233Y123910I-897J-1078D01*
G03X48215Y124122I-114J97D01*
G02X50179Y124290I897J1078D01*
G37*
G36*
G01X304912Y109360D02*
G03X305192Y109000I294J-60D01*
G02X303752Y107880I-66J-1400D01*
G03X303472Y108240I-294J60D01*
G02X304912Y109360I66J1400D01*
G37*
G36*
G01X44731Y61307D02*
X44600Y61291D01*
Y61000D01*
X44503Y60903D01*
X44577Y60800D01*
G02X42419Y60322I-977J-700D01*
G01X42421Y60336D01*
Y60500D01*
X42147D01*
X42111Y60479D01*
G02X41455Y60313I-611J1035D01*
G03X41156Y59931I-11J-300D01*
G02X38843Y59924I-1156J-331D01*
G03X38583Y60304I-289J81D01*
G02X39597Y62300I117J1196D01*
G01X40591D01*
G02X42409I909J-786D01*
G01X43083D01*
G03X43383Y62580I1J300D01*
G02X44731Y61307I1199J-80D01*
G37*
G36*
G01X278505Y62687D02*
G03X278731Y62283I279J-109D01*
G02X274646Y57960I-631J-3496D01*
G03X274186Y58139I-292J-70D01*
G02X274418Y60264I-786J1161D01*
G03X274905Y60340I217J207D01*
G02X276151Y61756I3194J-1554D01*
G03X276200Y62217I-165J251D01*
G02X275800Y63283I1000J983D01*
G03X275518Y63600I-299J18D01*
G02X274960Y63753I84J1400D01*
G03X274537Y63577I-137J-267D01*
G02X272145Y64923I-1337J423D01*
G03X272011Y65406I-226J197D01*
G02X271698Y72051I1089J3381D01*
G03X271812Y72515I-119J275D01*
G02X274060Y72613I1088J885D01*
G03X274214Y72160I248J-168D01*
G02X276006Y66745I-1114J-3373D01*
G03X276137Y66295I245J-173D01*
G02X277000Y64917I-537J-1295D01*
G03X277282Y64600I299J-18D01*
G02X278505Y62687I-82J-1400D01*
G37*
G36*
G01X171808Y42094D02*
G03X171364I-222J-201D01*
G02Y43706I-892J806D01*
G03X171808I222J201D01*
G02Y42094I892J-806D01*
G37*
G36*
G01X54522Y343097D02*
G02X48752Y345549I-3291J270D01*
G03X48589Y346041I-225J198D01*
G02X51742Y347091I675J3232D01*
G03X51905Y346599I225J-198D01*
G02X54178Y344857I-673J-3233D01*
G03X54719Y344870I267J136D01*
G02X55029Y343289I1281J-570D01*
G03X54522Y343097I-208J-216D01*
G37*
G36*
G01X98514Y345449D02*
G02X92745Y343545I-2479J-2182D01*
G03X92314Y343840I-299J25D01*
G02X93032Y345537I-614J1260D01*
G03X93543Y345434I285J94D01*
G02X95361Y346499I2491J-2168D01*
G03X95524Y346991I-62J294D01*
G02X98677Y345941I2478J2182D01*
G03X98514Y345449I62J-294D01*
G37*
G36*
G01X108555Y325382D02*
G02Y326818I-964J718D01*
G03X109036I240J179D01*
G02Y325382I964J-718D01*
G03X108555I-240J-179D01*
G37*
G36*
G01X86349Y326064D02*
G02X85842Y327006I-1201J-39D01*
G03X86315Y327260I173J245D01*
G02X86822Y326318I1201J39D01*
G03X86349Y326064I-173J-245D01*
G37*
G36*
G01X80800Y305675D02*
G02X80316Y304376I900J-1075D01*
G03X79846Y304572I-296J-48D01*
G02X80316Y305834I-698J979D01*
G03X80800Y305675I291J71D01*
G37*
G36*
G01X52923Y289133D02*
G02X52556Y287846I777J-917D01*
G03X52077Y287983I-285J-92D01*
G02X50137Y288597I-777J917D01*
G03X49638Y288736I-290J-76D01*
G02X49963Y289901I-838J862D01*
G03X50462Y289762I290J76D01*
G02X52444Y289270I838J-862D01*
G03X52923Y289133I285J92D01*
G37*
G36*
G01X109882Y278845D02*
G02X108825Y280179I-1402J-25D01*
G03X109198Y280475I73J291D01*
G02Y280530I1402J28D01*
G03X108775Y280809I-300J6D01*
G02X108693Y283401I-575J1279D01*
G03X109098Y283685I105J281D01*
G02X110007Y282387I1402J15D01*
G03X109602Y282103I-105J-281D01*
G02Y282058I-1402J-23D01*
G03X110025Y281779I300J-6D01*
G02X110255Y279141I575J-1279D01*
G03X109882Y278845I-73J-291D01*
G37*
G36*
G01X62939Y269565D02*
G02X62900Y268515I1061J-565D01*
G03X62361Y268535I-274J-121D01*
G02X62400Y269585I-1061J565D01*
G03X62939Y269565I274J121D01*
G37*
G36*
G01X57339D02*
G02X57300Y268515I1061J-565D01*
G03X56761Y268535I-274J-121D01*
G02X56800Y269585I-1061J565D01*
G03X57339Y269565I274J121D01*
G37*
G36*
G01X73676Y269925D02*
G02X72923Y268555I424J-1125D01*
G03X72524Y268775I-294J-61D01*
G02X71443Y268893I-424J1125D01*
G03X70984Y268693I-164J-251D01*
G02X70457Y269907I-1184J207D01*
G03X70916Y270107I164J251D01*
G02X73277Y270145I1184J-207D01*
G03X73676Y269925I294J61D01*
G37*
G36*
G01X48470Y267723D02*
G02X47971Y268997I-1170J277D01*
G03X48430Y269177I167J249D01*
G02X48929Y267903I1170J-277D01*
G03X48470Y267723I-167J-249D01*
G37*
G36*
G01X112595Y264254D02*
G02X111174Y264167I-651J-1010D01*
G03X111122Y264662I-193J230D01*
G02X110433Y266288I658J1238D01*
G03X110156Y266671I-288J83D01*
G02X109947Y269047I44J1201D01*
G03X110167Y269440I-63J293D01*
G02X110163Y270231I1133J401D01*
G03X109929Y270624I-284J97D01*
G02X111266Y271419I200J1185D01*
G03X111500Y271026I284J-97D01*
G02X111553Y268666I-200J-1185D01*
G03X111333Y268273I63J-293D01*
G02X111382Y267653I-1133J-401D01*
G03X111695Y267299I295J-54D01*
G02X112585Y264752I85J-1399D01*
G03X112595Y264254I172J-246D01*
G37*
G36*
G01X52902Y255763D02*
G02X51738Y255437I-302J-1163D01*
G03X51598Y255937I-215J209D01*
G02X52762Y256263I302J1163D01*
G03X52902Y255763I215J-209D01*
G37*
G36*
G01X45902Y255440D02*
G02X44698I-602J-1040D01*
G03Y255960I-150J260D01*
G02X44595Y257974I602J1040D01*
G03X44575Y258473I-176J243D01*
G02X45905Y258526I625J1027D01*
G03X45925Y258027I176J-243D01*
G02X45902Y255960I-625J-1027D01*
G03Y255440I150J-260D01*
G37*
G36*
G01X44663Y211040D02*
G02X44617Y212240I-1063J560D01*
G03X45137Y212260I254J160D01*
G02X46710Y212789I1064J-560D01*
G03X47129Y213128I127J272D01*
G02X47790Y212311I1171J272D01*
G03X47371Y211972I-127J-272D01*
G02X45183Y211060I-1171J-272D01*
G03X44663Y211040I-254J-160D01*
G37*
G36*
G01X77854Y211336D02*
G02X76907Y212184I-1154J-336D01*
G03X77246Y212564I51J296D01*
G02X78193Y211716I1154J336D01*
G03X77854Y211336I-51J-296D01*
G37*
G36*
G01X254965Y82863D02*
G02X254985Y81500I1235J-664D01*
G03X254472Y81512I-260J-149D01*
G02X254452Y82836I-1013J647D01*
G03X254965Y82863I248J169D01*
G37*
G36*
G01X268468Y62320D02*
G02X265993Y61647I-368J-3533D01*
G03X266007Y62120I-177J242D01*
G02X265500Y63119I892J1081D01*
G03X265007Y63331I-299J-17D01*
G02X262783Y64879I-907J1069D01*
G03X262547Y65278I-282J102D01*
G02X265119Y65864I553J3509D01*
G03X265080Y65403I170J-247D01*
G02X265500Y64481I-980J-1003D01*
G03X265993Y64269I299J17D01*
G02X268218Y62721I907J-1069D01*
G03X268468Y62320I282J-103D01*
G37*
G36*
G01X288483Y41079D02*
G02X286721Y40958I-384J-7292D01*
G03X286831Y41501I-57J294D01*
G02X288300Y41602I669J999D01*
G03X288483Y41079I199J-224D01*
G37*
G36*
G01X193317Y163727D02*
G03X193142Y163621I-31J-147D01*
G02X190693Y163138I-1348J385D01*
G03X190236Y163155I-236J-185D01*
G02X190301Y164968I-1036J945D01*
G03X190758Y164951I236J185D01*
G02X192077Y165379I1036J-945D01*
G03X192252Y165485I31J147D01*
G02X193317Y163727I1348J-385D01*
G37*
G36*
G01X202112Y154471D02*
G03X202392Y154101I292J-70D01*
G02X200974Y153029I-55J-1401D01*
G03X200694Y153399I-292J70D01*
G02X202112Y154471I55J1401D01*
G37*
G36*
G01X234407Y151687D02*
G03X234002Y151405I-105J-281D01*
G02X233093Y152713I-1402J-5D01*
G03X233498Y152995I105J281D01*
G02X234407Y151687I1402J5D01*
G37*
G36*
G01X196286Y149313D02*
G03X196241Y148893I189J-233D01*
G02X194434Y148969I-937J-753D01*
G03X194425Y149392I-217J207D01*
G02X196286Y149313I975J1008D01*
G37*
G36*
G01X110372Y148956D02*
G03X110394Y149415I-182J239D01*
G02X111938Y149342I815J883D01*
G03X111916Y148883I182J-239D01*
G02X110372Y148956I-815J-883D01*
G37*
G36*
G01X220781Y124028D02*
G03X221200Y123951I248J169D01*
G02X220842Y122010I800J-1151D01*
G03X220423Y122087I-248J-169D01*
G02X218260Y123565I-800J1151D01*
G03X218034Y123928I-292J70D01*
G02X219494Y124965I266J1172D01*
G03X219763Y124633I298J-33D01*
G02X220781Y124028I-140J-1395D01*
G37*
G36*
G01X63956Y119613D02*
G03X63527Y119520I-171J-246D01*
G02X63180Y121120I-1034J613D01*
G03X63609Y121213I171J246D01*
G02X63956Y119613I1034J-613D01*
G37*
G36*
G01X234398Y112260D02*
G03X234005Y112009I-95J-284D01*
G02X233191Y113281I-1195J132D01*
G03X233584Y113532I95J284D01*
G02X235920Y113779I1195J-132D01*
G03X236363Y113619I285J95D01*
G02X235859Y112221I637J-1019D01*
G03X235416Y112381I-285J-95D01*
G02X234398Y112260I-637J1019D01*
G37*
G36*
G01X245809Y113485D02*
G03X246202Y113248I296J47D01*
G02X245402Y111925I388J-1138D01*
G03X245009Y112162I-296J-47D01*
G02X244213Y112169I-388J1138D01*
G03X243820Y111959I-102J-282D01*
G02X241637Y111605I-1167J288D01*
G03X241205Y111686I-254J-160D01*
G02X241506Y113295I-715J966D01*
G03X241938Y113214I254J160D01*
G02X243061Y113378I715J-967D01*
G03X243454Y113588I102J282D01*
G02X245809Y113485I1167J-288D01*
G37*
G36*
G01X253842Y110457D02*
G03X253722Y110032I136J-268D01*
G02X252158Y110473I-1022J-632D01*
G03X252278Y110898I-136J268D01*
G02X253842Y110457I1022J632D01*
G37*
G36*
G01X184976Y90975D02*
G03X184577Y90755I-105J-281D01*
G02X183824Y92125I-1177J245D01*
G03X184223Y92345I105J281D01*
G02X184976Y90975I1177J-245D01*
G37*
G36*
G01X145130Y60091D02*
G03X145469Y59752I297J-42D01*
G02X144448Y58731I169J-1190D01*
G03X144109Y59070I-297J42D01*
G02X145130Y60091I-169J1190D01*
G37*
G36*
G01X105103Y148095D02*
G02X103688Y148002I-644J-1015D01*
G03X103656Y148485I-193J230D01*
G02X105071Y148578I644J1015D01*
G03X105103Y148095I193J-230D01*
G37*
G36*
G01X238887Y148164D02*
G02X238407Y146942I913J-1064D01*
G03X237913Y147136I-298J-33D01*
G02X238393Y148358I-913J1064D01*
G03X238887Y148164I298J33D01*
G37*
G36*
G01X125780Y135182D02*
G02Y136818I-880J818D01*
G03X126220I220J205D01*
G02X126823Y137170I881J-817D01*
G03X127003Y137629I-69J292D01*
G02X128277Y137130I997J671D01*
G03X128097Y136671I69J-292D01*
G02X126220Y135182I-997J-671D01*
G03X125780I-220J-205D01*
G37*
G36*
G01X65180Y132973D02*
G02Y134027I-1080J527D01*
G03X65720I270J131D01*
G02Y132973I1080J-527D01*
G03X65180I-270J-131D01*
G37*
G36*
G01X127400Y112434D02*
G02X125289Y112642I-1000J666D01*
G03X124889Y112802I-278J-114D01*
G02X123321Y114429I-489J1098D01*
G03X123254Y114629I-135J66D01*
G02X123160Y116717I546J1071D01*
G03X123140Y117237I-160J254D01*
G02X123098Y119340I560J1063D01*
G03Y119860I-150J260D01*
G02X124740Y121502I602J1040D01*
G03X125260I260J150D01*
G02X127380Y121427I1040J-602D01*
G03X127920I270J131D01*
G02X130040Y121502I1080J-527D01*
G03X130560I260J150D01*
G02X132202Y119860I1040J-602D01*
G03Y119340I150J-260D01*
G02X132160Y117237I-602J-1040D01*
G03X132140Y116717I140J-266D01*
G02X132102Y114660I-640J-1017D01*
G03Y114140I150J-260D01*
G02X130460Y112498I-602J-1040D01*
G03X129940I-260J-150D01*
G02X127900Y112434I-1040J602D01*
G03X127400I-250J-167D01*
G37*
G36*
G01X72140Y107498D02*
G02X70498Y109140I-1040J602D01*
G03Y109660I-150J260D01*
G02X70395Y111674I602J1040D01*
G03X70375Y112173I-176J243D01*
G02X70398Y114240I625J1027D01*
G03Y114760I-150J260D01*
G02X70100Y116597I602J1040D01*
G01Y117198D01*
G02X71294Y119334I0J1402D01*
G03X71806I256J157D01*
G02X73844Y117480I1194J-734D01*
G03X73940Y116953I181J-239D01*
G02X74617Y116440I-341J-1153D01*
G03X75137Y116460I254J160D01*
G02X77240Y116502I1063J-560D01*
G03X77760I260J150D01*
G02X79402Y114860I1040J-602D01*
G03Y114340I150J-260D01*
G02Y112260I-602J-1040D01*
G03Y111740I150J-260D01*
G02Y109660I-602J-1040D01*
G03Y109140I150J-260D01*
G02X77760Y107498I-602J-1040D01*
G03X77240I-260J-150D01*
G02X75200Y107434I-1040J602D01*
G03X74700I-250J-167D01*
G02X72660Y107498I-1000J666D01*
G03X72140I-260J-150D01*
G37*
G36*
G01X68133Y95600D02*
G02X67067Y94800I67J-1200D01*
G03X66767Y95200I-283J100D01*
G02X66140Y97463I-66J1200D01*
G03X66160Y97983I-140J266D01*
G02X67360Y97937I640J1017D01*
G03X67340Y97417I140J-266D01*
G02X67522Y97277I-638J-1018D01*
G03X68022Y97437I206J219D01*
G02X68378Y96323I1178J-237D01*
G03X67878Y96163I-206J-219D01*
G02X67833Y96000I-1178J238D01*
G03X68133Y95600I283J-100D01*
G37*
G36*
G01X120702Y93722D02*
G02X120139Y94718I-1202J-22D01*
G03X120598Y94978I159J254D01*
G02X121161Y93982I1202J22D01*
G03X120702Y93722I-159J-254D01*
G37*
G36*
G01X195994Y245611D02*
G03Y245189I213J-211D01*
G02X194006I-994J-989D01*
G03Y245611I-213J211D01*
G02X195994I994J989D01*
G37*
G36*
G01X112698Y241804D02*
G03X112714Y241363I211J-213D01*
G02X110814Y241296I-914J-1063D01*
G03X110798Y241737I-211J213D01*
G02X112698Y241804I914J1063D01*
G37*
G36*
G01X170240Y229870D02*
G03X169838Y229867I-199J-224D01*
G02X169822Y231948I-948J1033D01*
G03X170224Y231951I199J224D01*
G02X170240Y229870I948J-1033D01*
G37*
G36*
G01X182821Y223527D02*
G03X182399I-211J-213D01*
G02Y225515I-989J994D01*
G03X182821I211J213D01*
G02Y223527I989J-994D01*
G37*
G36*
G01X93164Y219507D02*
G03X93623Y219417I266J139D01*
G02X93336Y217940I777J-917D01*
G03X92877Y218030I-266J-139D01*
G02X93164Y219507I-777J917D01*
G37*
G36*
G01X229802Y217422D02*
G03X229806Y217018I224J-200D01*
G02X227732Y216995I-1027J-955D01*
G03X227728Y217399I-224J200D01*
G02X229802Y217422I1027J955D01*
G37*
G36*
G01X201507Y214975D02*
G03X201930Y214967I216J209D01*
G02X201893Y212980I970J-1012D01*
G03X201470Y212988I-216J-209D01*
G02X201507Y214975I-970J1012D01*
G37*
G36*
G01X228781Y205198D02*
G03X228478Y204885I-3J-300D01*
G02X227096Y206225I-1401J-62D01*
G03X227399Y206538I3J300D01*
G02X228781Y205198I1401J62D01*
G37*
G36*
G01X220667Y204990D02*
G03X220743Y204537I228J-195D01*
G02X219144Y204180I-608J-1037D01*
G03X219021Y204623I-247J170D01*
G02X220667Y204990I579J1277D01*
G37*
G36*
G01X125227Y201941D02*
G03X124824Y201774I-123J-274D01*
G02X124059Y203347I-1124J426D01*
G03X124440Y203561I90J286D01*
G02X125227Y201941I1360J-340D01*
G37*
G36*
G01X187858Y201458D02*
G03X187846Y201897I-210J214D01*
G02X189481Y201942I793J903D01*
G03X189493Y201503I210J-214D01*
G02X187858Y201458I-793J-903D01*
G37*
G36*
G01X199995Y192600D02*
G03X200337Y192324I299J21D01*
G02X199137Y190840I199J-1388D01*
G03X198795Y191116I-299J-21D01*
G02X199995Y192600I-199J1388D01*
G37*
G36*
G01X171190Y189034D02*
G03X170714Y188910I-195J-228D01*
G02X168018Y189637I-1314J489D01*
G03X167707Y189987I-296J50D01*
G02X166328Y191898I-73J1400D01*
G03X166059Y192307I-279J109D01*
G02X167414Y193197I49J1401D01*
G03X167683Y192788I279J-109D01*
G02X168234Y192654I-49J-1401D01*
G03X168634Y192798I128J271D01*
G02X169084Y193341I1270J-594D01*
G03X169119Y193799I-175J244D01*
G02X170920Y193663I981J1001D01*
G03X170885Y193205I175J-244D01*
G02X171244Y191792I-981J-1001D01*
G03X171631Y191421I287J-88D01*
G02X171190Y189034I469J-1321D01*
G37*
G36*
G01X235811Y188268D02*
G03X235495Y187939I-18J-299D01*
G02X232751Y187419I-1395J-138D01*
G03X232577Y187526I-145J-40D01*
G02X233649Y189281I-277J1374D01*
G03X233823Y189174I145J40D01*
G02X234332Y189183I279J-1374D01*
G03X234681Y189476I49J296D01*
G02X235811Y188268I1202J-8D01*
G37*
G36*
G01X255964Y187409D02*
G03X256309Y187210I285J95D01*
G02X255259Y185393I280J-1374D01*
G03X254914Y185592I-285J-95D01*
G02X255964Y187409I-280J1374D01*
G37*
G36*
G01X253190Y183537D02*
G03X253522Y183278I297J39D01*
G02X252292Y181705I160J-1393D01*
G03X251960Y181964I-297J-39D01*
G02X253190Y183537I-160J1393D01*
G37*
G36*
G01X173180Y182738D02*
G03X173130Y182329I192J-231D01*
G02X171254Y182687I-1130J-829D01*
G03X171358Y183085I-159J254D01*
G02X173180Y182738I1054J577D01*
G37*
G36*
G01X208670Y180904D02*
G03X208486Y181272I-287J86D01*
G02X208211Y181415I412J1129D01*
G03X207800Y181349I-171J-246D01*
G02X205915Y183368I-1120J844D01*
G03X205959Y183575I-82J126D01*
G02X205739Y184223I1177J761D01*
G03X205433Y184498I-299J-25D01*
G02X206797Y186013I-33J1402D01*
G03X207103Y185738I299J25D01*
G02X208491Y183975I33J-1402D01*
G03X208804Y183598I290J-78D01*
G02X210087Y182210I96J-1198D01*
G03X210318Y181869I296J-48D01*
G02X211346Y180934I-305J-1368D01*
G03X211535Y180838I143J47D01*
G02X210635Y179071I433J-1333D01*
G03X210446Y179167I-143J-47D01*
G02X208670Y180904I-433J1334D01*
G37*
G36*
G01X201221Y241043D02*
G02X200081I-570J-943D01*
G03Y241557I-155J257D01*
G02X201221I570J943D01*
G03Y241043I155J-257D01*
G37*
G36*
G01X108631Y236574D02*
G02X108580Y235109I1169J-774D01*
G03X108069Y235126I-261J-148D01*
G02X108120Y236591I-1169J774D01*
G03X108631Y236574I261J148D01*
G37*
G36*
G01X204780Y228595D02*
G02X204527Y229928I-980J505D01*
G03X204991Y230017I197J226D01*
G02X205244Y228684I980J-505D01*
G03X204780Y228595I-197J-226D01*
G37*
G36*
G01X110869Y229497D02*
G02X110387Y227598I731J-1196D01*
G03X109971Y227703I-259J-151D01*
G02X108692Y230191I-731J1197D01*
G03X108782Y230684I-117J276D01*
G02X108679Y230793I966J1016D01*
G03X108177Y230722I-229J-195D01*
G02X107969Y232207I-1277J578D01*
G03X108471Y232278I229J195D01*
G02X110296Y230409I1277J-578D01*
G03X110206Y229916I117J-276D01*
G02X110453Y229602I-967J-1015D01*
G03X110869Y229497I259J151D01*
G37*
G36*
G01X205009Y223746D02*
G02Y225054I-1009J654D01*
G03X205504Y225042I252J163D01*
G02Y223758I896J-642D01*
G03X205009Y223746I-243J-175D01*
G37*
G36*
G01X139318Y204283D02*
G02X137074Y203719I-1202J35D01*
G03X136631Y203807I-260J-150D01*
G02X136942Y205360I-731J954D01*
G03X137385Y205272I260J150D01*
G02X138502Y205456I731J-954D01*
G03X138898Y205732I96J284D01*
G02X139006Y206194I1201J-37D01*
G03X138762Y206617I-273J124D01*
G02X140120Y207320I139J1395D01*
G03X140325Y206878I261J-148D01*
G02X141256Y206026I-225J-1181D01*
G03X141649Y205826I289J81D01*
G02X140913Y204371I420J-1126D01*
G03X140520Y204571I-289J-81D01*
G02X139714Y204559I-420J1126D01*
G03X139318Y204283I-96J-284D01*
G37*
G36*
G01X100156Y202069D02*
G02X99685Y203388I-1156J331D01*
G03X100144Y203552I171J246D01*
G02X100615Y202233I1156J-331D01*
G03X100156Y202069I-171J-246D01*
G37*
G36*
G01X144670Y196371D02*
G02X144084Y195025I580J-1053D01*
G03X143573Y195155I-291J-73D01*
G02X143470Y198650I-1841J1695D01*
G03X143962Y198769I208J216D01*
G02X144644Y197270I1138J-387D01*
G03X144231Y196977I-113J-278D01*
G02X144227Y196657I-2499J-129D01*
G03X144670Y196371I299J-23D01*
G37*
G36*
G01X100600Y195457D02*
G02X99543Y195988I-1099J-870D01*
G03X99798Y196459I9J300D01*
G02X100196Y198191I988J685D01*
G03X100299Y198619I-147J262D01*
G02X101890Y198237I1001J665D01*
G03X101787Y197809I147J-262D01*
G02X100825Y195943I-1001J-665D01*
G03X100600Y195457I10J-300D01*
G37*
G36*
G01X160404Y195677D02*
G02X159181Y195445I-377J-1350D01*
G03X159100Y195967I-181J239D01*
G02X160288Y196193I400J1133D01*
G03X160404Y195677I197J-227D01*
G37*
G36*
G01X133719Y189930D02*
G02X132397Y189875I-619J-1030D01*
G03X132377Y190376I-175J244D01*
G02X131812Y191611I619J1030D01*
G03X131433Y191950I-296J51D01*
G02X132284Y192900I-333J1155D01*
G03X132663Y192561I296J-51D01*
G02X133699Y190431I333J-1155D01*
G03X133719Y189930I175J-244D01*
G37*
G36*
G01X244603Y177205D02*
G02X244582Y178394I-1280J572D01*
G03X245125Y178404I269J132D01*
G02X245146Y177215I1280J-572D01*
G03X244603Y177205I-269J-132D01*
G37*
G36*
G01X179285Y174965D02*
G02X179259Y173580I969J-711D01*
G03X178769Y173589I-248J-169D01*
G02X178795Y174974I-969J711D01*
G03X179285Y174965I248J169D01*
G37*
G36*
G01X197866Y341055D02*
G03X197444I-211J-213D01*
G02Y343043I-989J994D01*
G03X197866I211J213D01*
G02Y341055I989J-994D01*
G37*
G36*
G01X216758Y340922D02*
G03X216336I-211J-213D01*
G02Y342910I-989J994D01*
G03X216758I211J213D01*
G02Y340922I989J-994D01*
G37*
G36*
G01X210848D02*
G03X210426I-211J-213D01*
G02Y342910I-989J994D01*
G03X210848I211J213D01*
G02Y340922I989J-994D01*
G37*
G36*
G01X197978Y333575D02*
G03X197556I-211J-213D01*
G02Y335563I-989J994D01*
G03X197978I211J213D01*
G02Y333575I989J-994D01*
G37*
G36*
G01X216870Y332942D02*
G03X216448I-211J-213D01*
G02Y334930I-989J994D01*
G03X216870I211J213D01*
G02Y332942I989J-994D01*
G37*
G36*
G01X229312Y332863D02*
G03X228896I-208J-216D01*
G02Y334883I-972J1010D01*
G03X229312I208J216D01*
G02Y332863I972J-1010D01*
G37*
G36*
G01X223402D02*
G03X222986I-208J-216D01*
G02Y334883I-972J1010D01*
G03X223402I208J216D01*
G02Y332863I972J-1010D01*
G37*
G36*
G01X210848Y332854D02*
G03X210426I-211J-213D01*
G02Y334842I-989J994D01*
G03X210848I211J213D01*
G02Y332854I989J-994D01*
G37*
G36*
G01X242448Y332085D02*
G03X242026I-211J-213D01*
G02Y334073I-989J994D01*
G03X242448I211J213D01*
G02Y332085I989J-994D01*
G37*
G36*
G01X248358Y331351D02*
G03X247936I-211J-213D01*
G02Y333339I-989J994D01*
G03X248358I211J213D01*
G02Y331351I989J-994D01*
G37*
G36*
G01X187048Y323788D02*
G03X186626I-211J-213D01*
G02Y325776I-989J994D01*
G03X187048I211J213D01*
G02Y323788I989J-994D01*
G37*
G36*
G01X212158Y323608D02*
G03X211736I-211J-213D01*
G02Y325596I-989J994D01*
G03X212158I211J213D01*
G02Y323608I989J-994D01*
G37*
G36*
G01X250015Y317576D02*
G03X249593I-211J-213D01*
G02Y319564I-989J994D01*
G03X250015I211J213D01*
G02Y317576I989J-994D01*
G37*
G36*
G01X240566D02*
G03X240144I-211J-213D01*
G02Y319564I-989J994D01*
G03X240566I211J213D01*
G02Y317576I989J-994D01*
G37*
G36*
G01X187023Y316376D02*
G03X186601I-211J-213D01*
G02Y318364I-989J994D01*
G03X187023I211J213D01*
G02Y316376I989J-994D01*
G37*
G36*
G01X264499Y296203D02*
G03X264458Y296626I-231J191D01*
G02X266238I890J1083D01*
G03X266197Y296203I190J-232D01*
G02X264499I-849J-703D01*
G37*
G36*
G01X271735Y280017D02*
G03X271265I-235J-186D01*
G02Y281383I-865J683D01*
G03X271735I235J186D01*
G02Y280017I865J-683D01*
G37*
G36*
G01X282592Y275684D02*
G03X282151Y275602I-184J-237D01*
G02X281884Y277043I-943J571D01*
G03X282325Y277125I184J237D01*
G02X282592Y275684I943J-571D01*
G37*
G36*
G01X268609Y274806D02*
G03X268179I-215J-208D01*
G02Y276342I-791J768D01*
G03X268609I215J208D01*
G02Y274806I791J-768D01*
G37*
G36*
G01X266116Y226714D02*
G03Y226286I211J-214D01*
G02X264572I-772J-786D01*
G03Y226714I-211J214D01*
G02X266116I772J786D01*
G37*
G36*
G01X248252Y339941D02*
G02X246866Y339894I-652J-1241D01*
G03X246848Y340416I-157J256D01*
G02X248234Y340463I652J1241D01*
G03X248252Y339941I157J-256D01*
G37*
G36*
G01X191534Y333557D02*
G02Y335545I-989J994D01*
G03X191956I211J213D01*
G02X192951Y335953I989J-994D01*
G03X193211Y336405I1J300D01*
G02X194412Y335716I1207J713D01*
G03X194152Y335264I-1J-300D01*
G02X191956Y333557I-1207J-713D01*
G03X191534I-211J-213D01*
G37*
G36*
G01X258049Y333422D02*
G02X258209Y331897I3172J-438D01*
G03X257662Y331936I-282J-102D01*
G02X257522Y333271I-1062J563D01*
G03X258049Y333422I230J193D01*
G37*
G36*
G01X273223Y313993D02*
G02X271095Y312221I-923J-1055D01*
G03X270584Y312229I-258J-153D01*
G02X270605Y313697I-1184J751D01*
G03X271116Y313689I258J153D01*
G02X271377Y313993I1183J-752D01*
G03Y314445I-198J226D01*
G02X273223I923J1055D01*
G03Y313993I198J-226D01*
G37*
G36*
G01X272962Y247978D02*
G02X272952Y246838I938J-578D01*
G03X272438Y246842I-258J-153D01*
G02X272448Y247982I-938J578D01*
G03X272962Y247978I258J153D01*
G37*
G36*
G01X296894Y245249D02*
G02X296893Y246442I-927J596D01*
G03X297398I253J162D01*
G02X297399Y245249I927J-596D01*
G03X296894I-252J-162D01*
G37*
G36*
G01X172803Y358216D02*
G03X172323I-240J-180D01*
G02Y359662I-960J723D01*
G03X172803I240J180D01*
G02Y358216I960J-723D01*
G37*
G36*
G01X246793Y349259D02*
G03X246404Y349222I-173J-245D01*
G02X246202Y351341I-1009J973D01*
G03X246591Y351378I173J245D01*
G02X246793Y349259I1009J-973D01*
G37*
G36*
G01X152866Y308029D02*
G03X152656Y308431I-279J110D01*
G02X154052Y309159I278J1169D01*
G03X154262Y308757I279J-110D01*
G02X152866Y308029I-278J-1169D01*
G37*
G36*
G01X291520Y329110D02*
G02X290562Y328539I180J-1390D01*
G03X290298Y329014I-243J176D01*
G02X290063Y331406I-85J1199D01*
G03X290279Y331863I-38J297D01*
G02X291446Y331311I1017J641D01*
G03X291230Y330854I38J-297D01*
G02X291228Y329569I-1017J-641D01*
G03X291520Y329110I253J-161D01*
G37*
G36*
G01X175474Y328530D02*
G03X175052I-211J-213D01*
G02Y330518I-989J994D01*
G03X175474I211J213D01*
G02Y328530I989J-994D01*
G37*
G36*
G01X169564Y323588D02*
G03X169142I-211J-213D01*
G02Y325576I-989J994D01*
G03X169564I211J213D01*
G02Y323588I989J-994D01*
G37*
G36*
G01X177574Y315576D02*
G03X177152I-211J-213D01*
G02Y317564I-989J994D01*
G03X177574I211J213D01*
G02Y315576I989J-994D01*
G37*
G36*
G01X208302Y313899D02*
G03X208619Y313600I300J0D01*
G02X207298Y312201I81J-1400D01*
G03X206981Y312500I-300J0D01*
G02X208302Y313899I-81J1400D01*
G37*
G36*
G01X170237Y311602D02*
G03X169950Y311894I-300J-7D01*
G02X168605Y313285I57J1401D01*
G03X168453Y313434I-150J-1D01*
G02X167105Y315277I-17J1402D01*
G03X166802Y315671I-285J95D01*
G02X167703Y318064I-88J1399D01*
G03X168125I211J213D01*
G02X170342Y317747I989J-994D01*
G03X170744Y317626I263J145D01*
G02X170334Y315854I561J-1063D01*
G03X169920Y315923I-242J-177D01*
G02X169811Y315854I-803J1149D01*
G03X169692Y315460I149J-260D01*
G02X169838Y314846I-1256J-623D01*
G03X169990Y314697I150J1D01*
G02X171409Y313332I17J-1402D01*
G03X171696Y313040I300J7D01*
G02X170237Y311602I-57J-1401D01*
G37*
G36*
G01X222005Y312271D02*
G03X222396Y312275I193J229D01*
G02X222455Y312324I925J-1054D01*
G03X222474Y312778I-186J235D01*
G02X224302Y312699I960J1022D01*
G03X224283Y312245I186J-235D01*
G02X222418Y310152I-960J-1022D01*
G03X222027Y310148I-193J-229D01*
G02X222005Y312271I-927J1052D01*
G37*
G36*
G01X170346Y260033D02*
G03X170205Y259563I95J-285D01*
G02X168654Y260029I-1105J-863D01*
G03X168795Y260499I-95J285D01*
G02X170346Y260033I1105J863D01*
G37*
G36*
G01X158801Y230706D02*
G03X158379I-211J-213D01*
G02Y232694I-989J994D01*
G03X158801I211J213D01*
G02Y230706I989J-994D01*
G37*
G36*
G01X154726Y227202D02*
G03X154304I-211J-214D01*
G02Y229198I-984J998D01*
G03X154726I211J214D01*
G02Y227202I984J-998D01*
G37*
G36*
G01X162429Y226962D02*
G03X162007I-211J-213D01*
G02Y228950I-989J994D01*
G03X162429I211J213D01*
G02Y226962I989J-994D01*
G37*
G36*
G01X150346Y296108D02*
G03X150493Y295682I261J-148D01*
G02X148991Y295162I-456J-1112D01*
G03X148844Y295588I-261J148D01*
G02X150346Y296108I456J1112D01*
G37*
G36*
G01X139413Y295739D02*
G03X139802Y295534I290J78D01*
G02X139040Y294086I398J-1134D01*
G03X138651Y294291I-290J-78D01*
G02X139413Y295739I-398J1134D01*
G37*
G36*
G01X196927Y276846D02*
G03X196963Y276405I220J-204D01*
G02X195073Y276254I-863J-1105D01*
G03X195037Y276695I-220J204D01*
G02X194911Y278794I863J1105D01*
G03Y279006I-106J106D01*
G02X196889I989J994D01*
G03Y278794I106J-106D01*
G02X196927Y276846I-989J-994D01*
G37*
G36*
G01X139389Y272061D02*
X139500Y272091D01*
Y273409D01*
X139389Y273439D01*
G02Y275761I311J1161D01*
G01X139500Y275791D01*
Y276909D01*
X139389Y276939D01*
G02Y279261I311J1161D01*
G01X139500Y279291D01*
Y280409D01*
X139389Y280439D01*
G02X140793Y282100I311J1161D01*
G01X142107D01*
G02X144293I1093J-500D01*
G01X145983D01*
G02X148185I1101J-483D01*
G01X149907D01*
G02X152093I1093J-500D01*
G01X153407D01*
G02X154900Y280467I1093J-500D01*
G01X154800Y280431D01*
Y279269D01*
X154900Y279233D01*
G02Y276967I-400J-1133D01*
G01X154800Y276931D01*
Y275769D01*
X154900Y275733D01*
G02Y273467I-400J-1133D01*
G01X154800Y273431D01*
Y272069D01*
X154900Y272033D01*
G02X153319Y270678I-400J-1133D01*
G01X153296Y270800D01*
X152204D01*
X152181Y270678D01*
G02X149819I-1181J222D01*
G01X149796Y270800D01*
X148287D01*
X148262Y270680D01*
G02X145906I-1178J237D01*
G01X145881Y270800D01*
X144404D01*
X144381Y270678D01*
G02X142019I-1181J222D01*
G01X141996Y270800D01*
X140904D01*
X140881Y270678D01*
G02X139389Y272061I-1181J222D01*
G37*
G36*
G01X127807Y270041D02*
G03X127815Y269571I190J-232D01*
G02X126319Y269544I-731J-954D01*
G03X126311Y270014I-190J232D01*
G02X127807Y270041I731J954D01*
G37*
G36*
G01X120624Y265769D02*
G03Y265317I198J-226D01*
G02X118776I-924J-1054D01*
G03Y265769I-198J226D01*
G02X118722Y267828I924J1054D01*
G03Y268257I-209J214D01*
G02X120678I978J1005D01*
G03Y267828I209J-215D01*
G02X120624Y265769I-978J-1005D01*
G37*
G36*
G01X120423Y258351D02*
G03X120458Y257909I219J-205D01*
G02X118579Y257761I-858J-1109D01*
G03X118544Y258203I-219J205D01*
G02X120423Y258351I858J1109D01*
G37*
G36*
G01X137951Y254752D02*
G03X137601Y254445I-50J-296D01*
G02X136601Y255585I-1201J-45D01*
G03X136951Y255892I50J296D01*
G02X139342Y256107I1201J45D01*
G03X139703Y255857I297J43D01*
G02X138771Y254513I258J-1174D01*
G03X138410Y254763I-297J-43D01*
G02X137951Y254752I-258J1174D01*
G37*
G36*
G01X144140Y295772D02*
G02X143044Y295082I-9J-1202D01*
G03X142775Y295510I-271J128D01*
G02X143871Y296200I9J1202D01*
G03X144140Y295772I271J-128D01*
G37*
G36*
G01X128004Y285282D02*
G02X126884Y285204I-486J-1099D01*
G03X126847Y285734I-158J255D01*
G02X127967Y285812I486J1099D01*
G03X128004Y285282I158J-255D01*
G37*
G36*
G01X166689Y283841D02*
G02X165314Y284261I-1039J-941D01*
G03X165481Y284735I-71J292D01*
G02X166545Y286664I953J732D01*
G03X166868Y287013I27J299D01*
G02X169647Y287137I1382J237D01*
G03X169974Y286814I299J-24D01*
G02X168881Y285588I109J-1197D01*
G03X168523Y285875I-300J-7D01*
G02X167988Y285873I-273J1375D01*
G03X167633Y285556I-56J-295D01*
G02X166816Y284327I-1199J-89D01*
G03X166689Y283841I95J-284D01*
G37*
G36*
G01X138148Y261511D02*
G02X135912Y262285I-1048J589D01*
G03X135544Y262623I-296J47D01*
G02X136229Y264498I-287J1167D01*
G03X136756Y264582I242J177D01*
G02X139052Y263868I1144J-370D01*
G03X139388Y263486I287J-86D01*
G02X138644Y261551I196J-1186D01*
G03X138148Y261511I-235J-187D01*
G37*
G54D37*
X288849Y284231D03*
X285700Y286790D03*
X295717Y253523D03*
X289568D03*
X264829Y270457D03*
G54D36*
X215525Y160139D03*
X217922Y161149D03*
X241797Y252544D03*
Y249984D03*
Y247426D03*
X236679Y234630D03*
X205971Y232070D03*
X211090Y237190D03*
X208530Y242308D03*
X211090D03*
X203412Y237189D03*
X205971D03*
X203137Y234571D03*
X205971Y234629D03*
X208530Y237190D03*
X221326Y239749D03*
X211090D03*
X208530D03*
X218767Y244867D03*
X231562Y234630D03*
Y247426D03*
X216208D03*
X218767Y249985D03*
X216208D03*
X206200Y245100D03*
X208530Y234629D03*
X236679Y237190D03*
X239238Y239749D03*
X216300Y228800D03*
X236679Y239749D03*
X241797D03*
X239238Y237190D03*
X229003Y244867D03*
X231568Y239755D03*
X229003Y239749D03*
X231562Y242308D03*
X200100Y228500D03*
X226444Y239749D03*
Y237190D03*
Y242308D03*
X236679Y244867D03*
X241797Y237189D03*
Y234630D03*
X231562Y237190D03*
Y244867D03*
X226444D03*
X218767Y239749D03*
X221326Y242308D03*
X229003D03*
X223885Y237190D03*
X239238Y247426D03*
X236679Y249985D03*
X239238Y252544D03*
X236679Y255103D03*
X231562Y249985D03*
X229003D03*
X226444Y247426D03*
Y249985D03*
X221326Y247426D03*
Y249985D03*
X216207Y252544D03*
X239238Y234630D03*
X229003D03*
X216208Y242308D03*
X213649Y247426D03*
X216208Y244867D03*
X267431D03*
X314172Y253523D03*
X286418Y268877D03*
X311023Y266318D03*
X259711Y270456D03*
X295867Y268877D03*
Y240627D03*
X259710Y229511D03*
X295867Y235609D03*
X289567Y238168D03*
X267977Y237413D03*
X289568Y268877D03*
X264829Y239749D03*
X286418Y245845D03*
X317322Y268877D03*
X259710Y262779D03*
X271900Y277000D03*
X314172Y268877D03*
X269888Y285811D03*
X289568Y273995D03*
X289567Y243286D03*
X285700Y284231D03*
X264829Y288370D03*
X297070Y231000D03*
X264829Y252544D03*
X289568Y250963D03*
X295867Y256082D03*
X262270Y255103D03*
X307873Y250964D03*
X295893Y276555D03*
X267641Y234489D03*
X285976Y240727D03*
X292126Y243286D03*
X295893Y286791D03*
X259710Y293489D03*
X311023Y256082D03*
X299017D03*
X269900Y257000D03*
X298893Y279114D03*
X299626Y243286D03*
X271247Y234529D03*
X285976Y235609D03*
X267483Y280733D03*
X286046Y276554D03*
X262270Y249985D03*
X292717Y253523D03*
Y271436D03*
X264829Y273015D03*
X289202Y276559D03*
X257151Y293489D03*
X295893Y284232D03*
X271400Y241500D03*
X289577Y245845D03*
X291999Y279113D03*
X264829Y255103D03*
X295867Y266318D03*
X264829Y267897D03*
X320472Y248405D03*
Y273995D03*
X311623D03*
X295867Y271430D03*
X311023Y248405D03*
X283200Y248400D03*
X295367Y250964D03*
X264829Y244867D03*
X314172Y250964D03*
X311023Y253523D03*
Y268878D03*
X262270Y278133D03*
X267388Y267897D03*
X299322Y264822D03*
X264829Y285811D03*
X267388Y249985D03*
X286400Y250970D03*
X307874Y268877D03*
X288849Y279113D03*
X269100Y278500D03*
X314172Y271436D03*
X311023D03*
X307940Y253589D03*
X257151Y257662D03*
X257145Y260227D03*
X262270Y262779D03*
X257151D03*
X264829D03*
X257151Y290929D03*
X259710D03*
X257151Y265338D03*
X259710D03*
X262270D03*
X314173Y233051D03*
X321400Y239000D03*
X320472Y245846D03*
X314173Y248405D03*
X317322D03*
X311023Y240728D03*
X304123Y243287D03*
X304723Y248405D03*
X307873Y240728D03*
X292817Y240727D03*
X314173Y256082D03*
X320472Y253523D03*
X317322Y256082D03*
X311523Y258641D03*
X292717Y250964D03*
X292718Y256082D03*
X316400Y260400D03*
X314173Y266318D03*
X320472Y268877D03*
X311523Y263759D03*
X292717Y266318D03*
X286418D03*
X314173Y273995D03*
X317322D03*
X320472Y276554D03*
X320523Y281662D03*
X305023Y271436D03*
X299900D03*
X314273Y289349D03*
X308600Y291700D03*
X300400Y285500D03*
X288849Y289349D03*
X322824Y236324D03*
X262270Y252544D03*
X249474Y237190D03*
X246915D03*
X252033Y232071D03*
Y229512D03*
X244356Y278133D03*
X246915Y280692D03*
X244356Y283251D03*
X252033D03*
X246915D03*
X249474Y280692D03*
Y249985D03*
X252033Y280693D03*
X244356Y280692D03*
X239238Y283251D03*
Y285810D03*
X246915Y278133D03*
X239238Y290929D03*
X241797Y280692D03*
X249474Y283251D03*
X246915Y288370D03*
X244356D03*
X239239D03*
X241797D03*
X249474Y285811D03*
Y288370D03*
Y278133D03*
X252033Y247426D03*
X246915Y252544D03*
X241797Y278133D03*
X246915Y273015D03*
Y275574D03*
X252033D03*
Y278133D03*
X246915Y270456D03*
X244356Y275574D03*
X252033Y252544D03*
Y249985D03*
X254592Y273015D03*
X246915Y285810D03*
X239238Y280692D03*
X241797Y285811D03*
X203000Y263300D03*
X226443Y262779D03*
X229003D03*
X231562D03*
X241797Y267897D03*
Y265338D03*
X239238Y262779D03*
X241797D03*
X229003Y265338D03*
X236680Y262779D03*
X241797Y270456D03*
X236679Y265338D03*
X218767Y267898D03*
X216208Y267897D03*
X221326Y265338D03*
X218767Y265339D03*
X216208Y265338D03*
X208530Y252544D03*
X203412Y252543D03*
X205971D03*
X203412Y255102D03*
X205971D03*
X213649Y265338D03*
X211090Y262779D03*
Y265338D03*
X208530D03*
X213649Y262779D03*
X223885Y265338D03*
X211090Y255103D03*
X208530Y262779D03*
X213649Y267897D03*
X211090D03*
X203905Y260710D03*
X208563Y293888D03*
X208580Y290879D03*
X223885Y283251D03*
X216208Y278133D03*
X221326Y280693D03*
Y285810D03*
X218767Y283251D03*
X231562Y280692D03*
X229003D03*
X231562Y288370D03*
X213649D03*
X211090Y275574D03*
X216208Y283251D03*
X205600Y293900D03*
X223885Y278133D03*
X221326D03*
X211090D03*
X213649Y275574D03*
X203412D03*
X205971D03*
X218767Y278133D03*
X205850Y286150D03*
X216208Y288370D03*
X221270Y292580D03*
X229003Y285810D03*
X218766Y275574D03*
X211090Y283251D03*
X205964Y283258D03*
X208530Y283251D03*
X211090Y285810D03*
Y280692D03*
Y288370D03*
X213649Y278133D03*
X208530Y280692D03*
X231562Y278133D03*
X223885Y280692D03*
X226443Y278133D03*
X216208Y275574D03*
X218767Y280692D03*
X213649D03*
X226444Y285810D03*
X229003Y283251D03*
X231562D03*
X223885Y275574D03*
X226444D03*
X229003D03*
X203126Y291026D03*
X226444Y288370D03*
X213649Y285810D03*
X203600Y288200D03*
X208530Y278133D03*
X229003D03*
X226444Y280692D03*
Y283251D03*
X221326D03*
G54D38*
X299212Y196850D03*
G54D28*
X83050Y207850D03*
X53816Y112984D03*
X70950Y191550D03*
X36684Y91616D03*
X13284Y92016D03*
X65945Y200555D03*
X83000Y204200D03*
X154150Y38150D03*
X158912Y20312D03*
X178312D03*
X174084Y50784D03*
X39633Y151933D03*
X118320Y25520D03*
X118400Y38080D03*
X15367Y181067D03*
X87300Y156800D03*
X86300Y153600D03*
X83600Y152900D03*
X177064Y63200D03*
X27800Y103000D03*
X4800Y102800D03*
X132500Y40900D03*
X130600Y43600D03*
X133800D03*
X137100D03*
X138900Y41200D03*
X135700Y41000D03*
X80400Y33500D03*
X99500D03*
X164700Y42750D03*
X73992Y205908D03*
X19700Y45700D03*
X19800Y51400D03*
X16400Y60700D03*
X23100Y61200D03*
X32700Y26800D03*
X27900Y22900D03*
X23500Y24800D03*
X28300Y28700D03*
X34100Y22600D03*
X38900Y26500D03*
X32700Y19600D03*
X37500Y23500D03*
X20400Y83200D03*
X11400Y82400D03*
X6900Y54500D03*
X9800Y26300D03*
X7200Y43900D03*
X77650Y197400D03*
X59800Y200700D03*
X48666Y187565D03*
X35800Y61514D03*
X57700Y168500D03*
X61500D03*
X54000D03*
X65100D03*
X61500Y172100D03*
X57700D03*
X65100D03*
X54000D03*
X61500Y175700D03*
X57700D03*
X65100D03*
X54000D03*
X61500Y164900D03*
X57700D03*
X65100D03*
X54000D03*
X41000Y90200D03*
X4800D03*
X68500Y47100D03*
X68300Y40000D03*
X66700Y43500D03*
X180315Y32115D03*
X197500Y30900D03*
X184000Y44600D03*
X195300Y46000D03*
X168900Y54187D03*
X171600Y54400D03*
X84100Y177600D03*
X50400Y215500D03*
X54200Y215900D03*
X51800Y213000D03*
X56400D03*
X61150Y213200D03*
X66500Y212588D03*
X72200Y213200D03*
X72000Y216600D03*
X64180Y216466D03*
X44644Y68200D03*
Y65300D03*
X40800Y211500D03*
X49100Y210800D03*
X185200Y5000D03*
X105000Y4400D03*
X61300Y4800D03*
X21600Y6300D03*
X67100Y20100D03*
X4400Y150800D03*
X33500Y202800D03*
X24000Y207000D03*
X4500Y206600D03*
X93900Y43800D03*
X90700Y45500D03*
X3800Y185200D03*
X39800Y181300D03*
X46489Y145404D03*
X48380Y109520D03*
X26200Y109100D03*
X47060Y160388D03*
X165000Y382200D03*
X31200Y298700D03*
X21400Y294300D03*
X107957Y384584D03*
X85391Y302226D03*
X32416Y366016D03*
X99500Y289367D03*
X98625Y264956D03*
X35140Y297760D03*
X79100Y339200D03*
X144300Y385100D03*
X147791Y385081D03*
X168724Y373315D03*
X28600Y295400D03*
X107351Y294600D03*
X185700Y380500D03*
X43949Y389165D03*
X48765D03*
X97949Y374301D03*
X84241Y388323D03*
X37507Y389093D03*
X79151Y324449D03*
X75879Y302300D03*
X55300Y296252D03*
X47000Y306700D03*
X86093Y310374D03*
X53900Y311800D03*
X93684Y324700D03*
X79250Y318150D03*
X121714Y330953D03*
X53652Y321300D03*
X66400Y327748D03*
X75849D03*
X63152Y302300D03*
X84700Y333300D03*
X124213Y335587D03*
X185500Y370200D03*
X69490Y221321D03*
X114779Y326479D03*
X78129Y288073D03*
X4200Y364700D03*
X3800Y389200D03*
X13600Y389300D03*
X17800Y376000D03*
X25400Y366900D03*
X85900Y367200D03*
X79800Y366700D03*
X8700Y389400D03*
X91500Y389600D03*
X87800Y382300D03*
X92200Y364200D03*
X46300Y361000D03*
X25000Y359000D03*
X4000Y376700D03*
X99500Y389700D03*
X106900Y389600D03*
X113700Y389700D03*
X120600D03*
X127400Y389800D03*
X134400D03*
X141500D03*
X148200Y389900D03*
X157900Y380500D03*
X155500Y375800D03*
X192100Y389900D03*
X192000Y382900D03*
X191900Y376620D03*
X142700Y365100D03*
X145600Y362500D03*
X66400Y315000D03*
X71400D03*
X61400D03*
X75900D03*
X71400Y319700D03*
X61400D03*
X56900D03*
X75900D03*
X66400D03*
X71400Y324400D03*
X61400D03*
X56900D03*
X75900D03*
X66400D03*
X71400Y310300D03*
X61400D03*
X56900D03*
X75900D03*
X66400D03*
X71500Y306200D03*
X61700Y306412D03*
X57500Y306200D03*
X75700D03*
X66300D03*
X95684Y305900D03*
X117500Y377800D03*
Y374100D03*
X49800Y372900D03*
Y369600D03*
X83400Y345200D03*
X78433Y349100D03*
Y345700D03*
X112891Y315755D03*
X116200Y310700D03*
X109600D03*
X116000Y318900D03*
X109800Y318800D03*
X8450Y300350D03*
X14350D03*
X26000Y302296D03*
X46171Y286971D03*
X56300Y289598D03*
X86666Y282439D03*
X102020D03*
Y277321D03*
X96902D03*
X91784D03*
X86666D03*
Y272203D03*
X91784D03*
X96902D03*
X102020D03*
X86666Y267085D03*
X103100Y268200D03*
X80957Y259557D03*
X66700Y268800D03*
X52600Y269000D03*
X45800Y265700D03*
X45200Y249000D03*
X44300Y245100D03*
X52100Y245200D03*
Y248900D03*
Y241700D03*
X44400D03*
X43900Y238700D03*
X52100Y238600D03*
Y234900D03*
X44400D03*
X43900Y231600D03*
X52100Y231700D03*
Y227800D03*
X43900D03*
X44400Y224400D03*
X52200D03*
X52100Y221200D03*
X43900Y221300D03*
X40700Y218900D03*
X51700Y218100D03*
X52100Y251700D03*
X52000Y260900D03*
X54600Y262900D03*
X58100Y263000D03*
X62500Y263100D03*
X66400Y262900D03*
X70200D03*
X73700Y263000D03*
X77200Y263100D03*
X41600Y247000D03*
X42300Y251800D03*
X41600Y256700D03*
X42200Y262200D03*
X41600Y267500D03*
X44400Y269400D03*
X47800Y272500D03*
X51500Y272700D03*
X54700Y272800D03*
X58000Y273100D03*
X62700Y272700D03*
X67100Y272400D03*
X66300Y276300D03*
X64200Y279400D03*
X59300Y280800D03*
X55900Y277300D03*
X50400Y280500D03*
X47600Y276800D03*
X43000Y280000D03*
X41000Y275900D03*
X55400Y258700D03*
X60300Y259100D03*
X64700Y259300D03*
X68600Y259600D03*
X72300Y259800D03*
X76200D03*
X62100Y256000D03*
X57800Y255700D03*
X55000Y251900D03*
X54800Y247100D03*
X54900Y243400D03*
X54800Y240200D03*
X54600Y236800D03*
Y232900D03*
X55400Y229700D03*
Y226000D03*
Y222700D03*
X55300Y219800D03*
X76900Y218500D03*
X62600Y227300D03*
X29300Y358900D03*
X42800Y359200D03*
X105700Y361100D03*
X117100Y363000D03*
X79148Y308701D03*
X85200Y306026D03*
X50600Y297002D03*
X85208Y317740D03*
X58700Y302300D03*
X74100Y252200D03*
X71086Y251314D03*
X67700Y251100D03*
X63700Y247800D03*
X100400Y305999D03*
X198900Y389900D03*
X198600Y378200D03*
X327800Y27100D03*
X303200Y65500D03*
X285514Y143254D03*
Y138530D03*
Y133800D03*
Y129081D03*
X329200Y44400D03*
X318400Y36500D03*
X310623Y37677D03*
X304880Y40300D03*
X248300Y88100D03*
X204900Y62100D03*
X211500Y56700D03*
X214750Y56600D03*
X209600Y54300D03*
X330884Y162900D03*
X283100D03*
X314600Y59400D03*
X327800Y58500D03*
X293600Y168800D03*
X295600Y139000D03*
X310400Y139400D03*
X330300Y100300D03*
X330500Y65300D03*
X320600Y55300D03*
X311400Y5000D03*
X280900Y5300D03*
X224700D03*
X220700Y34000D03*
X266800Y39000D03*
X284700Y77200D03*
X243300Y62700D03*
X228700Y69800D03*
X318900Y149900D03*
X288000Y149100D03*
X288100Y118100D03*
X317300Y118600D03*
X302900Y118300D03*
X310500Y118400D03*
X317300Y128700D03*
X317100Y139400D03*
X310000Y149500D03*
X302800Y149300D03*
X288000Y127900D03*
X302900Y139300D03*
X303000Y128000D03*
X310600Y128400D03*
X295700Y128000D03*
X295900Y118200D03*
X288300Y138700D03*
X237500Y4600D03*
X247500Y4700D03*
X257500Y4600D03*
X267500Y4700D03*
X277500Y4600D03*
X287500D03*
X227500Y10000D03*
X237500D03*
X247500D03*
X257500D03*
X267500D03*
X277500D03*
X287500D03*
X292500D03*
X227500Y15000D03*
X257500Y17500D03*
X267500D03*
X227500Y40000D03*
Y35000D03*
Y30000D03*
Y25000D03*
X257500Y27500D03*
Y32500D03*
Y42500D03*
Y47500D03*
X267500Y32500D03*
Y42500D03*
Y47500D03*
X277500Y32500D03*
Y42500D03*
Y47500D03*
X296200Y28400D03*
X296300Y37900D03*
X300200Y40400D03*
X267200Y24300D03*
X247500Y42400D03*
X227500Y45000D03*
X235272Y386900D03*
X251272D03*
X219972Y386800D03*
X260328Y374000D03*
X242728Y389459D03*
X263100Y371441D03*
X226728Y389459D03*
X258414Y378842D03*
X308602Y378571D03*
X317301Y372438D03*
X282200Y377080D03*
X286500Y377000D03*
X288707Y374057D03*
X314200Y339600D03*
X312900Y378796D03*
X326000D03*
X321637Y378800D03*
X304300Y378696D03*
X299900Y378500D03*
X295600Y378696D03*
X275883Y361467D03*
X276000Y382800D03*
X301600Y390100D03*
X310700D03*
X306200Y390000D03*
X315700Y390100D03*
X306600Y385600D03*
X302100D03*
X202300Y368100D03*
X270700Y376256D03*
X270200Y389500D03*
X217228Y389600D03*
X248528Y389800D03*
X232528Y389700D03*
X257900Y389600D03*
X208600Y390000D03*
X259500Y386500D03*
X155337Y163553D03*
X83507Y134000D03*
X107900Y148700D03*
X114500Y148500D03*
X88384Y114500D03*
X146900Y149300D03*
X147800Y146400D03*
X151900Y145800D03*
X156200Y145900D03*
X158900Y148300D03*
X187518Y93946D03*
X164950Y113430D03*
X178000Y113900D03*
X85800Y77200D03*
X80500Y55500D03*
X85300Y55600D03*
X145900Y73100D03*
X168500Y133400D03*
X148400Y63400D03*
X143803Y81989D03*
X148744Y60051D03*
X150900Y61900D03*
X181700Y82000D03*
X64551Y110949D03*
X104700Y98600D03*
X71991Y101539D03*
X168200Y79995D03*
X62868Y115000D03*
X62951Y103500D03*
X166416Y87784D03*
X193700Y116800D03*
X197380Y156172D03*
X142400Y159400D03*
X142600Y156600D03*
X92984Y125290D03*
X190600Y104500D03*
X190585Y107973D03*
Y100973D03*
X194000Y104500D03*
Y107900D03*
Y100900D03*
X186900Y104600D03*
Y108200D03*
Y100800D03*
X158485Y99073D03*
X154800Y99100D03*
X162200D03*
Y102700D03*
X154800D03*
X158485Y102673D03*
X162200Y95300D03*
X154800D03*
X158485Y95273D03*
X125300Y141900D03*
X134400Y142100D03*
X129500Y141900D03*
X185300Y157000D03*
X186000Y151963D03*
X186900Y159454D03*
X189000Y157100D03*
X191500Y154000D03*
X183261Y166400D03*
X180800Y163800D03*
X185654Y163754D03*
X183300Y159454D03*
X180100D03*
X173156Y76588D03*
X164567Y116400D03*
X123300Y92300D03*
X72600Y133500D03*
X69602Y130199D03*
X69600Y133500D03*
X182200Y114720D03*
X229400Y146400D03*
X224400Y79600D03*
X220284Y86200D03*
X200130Y118160D03*
X222100Y81400D03*
X219900Y77900D03*
X217600Y85400D03*
X200200Y131886D03*
X239700Y95700D03*
Y103700D03*
Y99700D03*
X235100Y103600D03*
Y87900D03*
Y91600D03*
Y99600D03*
Y95600D03*
X230800Y103500D03*
Y87800D03*
Y91500D03*
Y99500D03*
Y95500D03*
X244100Y103700D03*
Y99700D03*
X248300Y103800D03*
X208851Y81200D03*
X223259Y90779D03*
X248558Y114400D03*
X100700Y207900D03*
X131313Y208012D03*
X186800Y214800D03*
X149300Y199625D03*
X151400Y177126D03*
X156200Y196900D03*
X105342Y184861D03*
X127400Y184800D03*
X132700Y204300D03*
X116200Y198300D03*
X108700D03*
X123700D03*
X112200D03*
X120300D03*
Y202200D03*
X112200D03*
X108700D03*
X116200D03*
X120300Y205800D03*
X123700D03*
X112200D03*
X108700D03*
X116200D03*
X120300Y194700D03*
X123700D03*
X112200D03*
X108700D03*
X116200D03*
X120300Y190900D03*
X123700D03*
X112200D03*
X108700D03*
X116200D03*
X116100Y181300D03*
X99800Y231500D03*
X93300Y236200D03*
X173000Y237200D03*
X136572Y220600D03*
X114400Y221800D03*
X114700Y228600D03*
X114300Y231300D03*
X228009Y190500D03*
X202088Y219085D03*
X232400Y221100D03*
X247700Y314700D03*
X250100Y336100D03*
X282100Y312900D03*
X251500Y306700D03*
X302600Y219550D03*
X277680Y313700D03*
X139500Y324200D03*
X133416Y331245D03*
X131487Y328887D03*
X134900Y308900D03*
X177000Y358684D03*
X183716Y358900D03*
X330300Y184600D03*
X302499Y184500D03*
X302800Y203400D03*
X330900Y209800D03*
X329400Y188900D03*
X309400Y186200D03*
X302700Y318143D03*
X297700Y325700D03*
X306900Y321800D03*
X285600Y326420D03*
X245840Y222550D03*
X257000Y350300D03*
X311269Y313236D03*
X270943Y350243D03*
X303400Y325500D03*
X331000Y318600D03*
X330900Y236500D03*
X320800Y309200D03*
X270000Y357000D03*
X276513Y352500D03*
X190500Y304400D03*
X236234Y302660D03*
X152005Y254196D03*
X155942Y254259D03*
X166584Y264617D03*
X156716Y249800D03*
X161584Y254117D03*
X164084Y257117D03*
X128408Y273595D03*
X146100Y254117D03*
X166584Y278617D03*
X132300Y259400D03*
X123512Y277100D03*
X125600Y230775D03*
X159660Y286000D03*
X151000Y267600D03*
X143200D03*
X139700D03*
X147084Y267617D03*
X157584Y271617D03*
Y277117D03*
X136584Y282117D03*
Y277570D03*
X157584Y282117D03*
X153974Y285727D03*
X136584Y285617D03*
X145584Y285833D03*
X120310Y285388D03*
G54D22*
X25808Y166500D03*
X7697D03*
G54D33*
X243100Y68787D03*
X253100D03*
X283100D03*
X248100Y58787D03*
X258100D03*
X288100D03*
G54D27*
X95863Y23993D03*
X103737D03*
X64937Y63945D03*
G54D29*
X47000Y170400D03*
X199900Y5100D03*
X160200Y5200D03*
X80500Y5800D03*
X82800Y18400D03*
X56000Y31300D03*
X26800Y94500D03*
X16600Y95200D03*
X24300Y143200D03*
X46100Y203000D03*
X45900Y81000D03*
X31400Y122700D03*
Y118000D03*
X191600Y49400D03*
X184600Y50600D03*
X176400Y42600D03*
X190800Y56400D03*
X195100Y60700D03*
X198000Y55300D03*
X71500Y174700D03*
X74800Y163400D03*
X71600Y166400D03*
X76000Y168800D03*
X91097Y177503D03*
X53720Y156900D03*
X35800Y157000D03*
X49112Y128400D03*
X55100Y151784D03*
X13400Y344900D03*
X89819Y302281D03*
X70476Y286300D03*
X192800Y372100D03*
X113300Y287500D03*
X50000Y330800D03*
X68198Y296602D03*
X73300Y297000D03*
X77600Y297200D03*
X79755Y327345D03*
X102600Y317800D03*
X11300Y341100D03*
X4400Y330700D03*
X5200Y317700D03*
X23500Y312100D03*
X9300Y307200D03*
X5800Y293100D03*
X28000Y292000D03*
X71700Y339100D03*
X76600Y337600D03*
X33300Y307100D03*
X100338Y300192D03*
X93704Y301596D03*
X284800Y168784D03*
X281600Y159200D03*
X276800Y133200D03*
X234779Y76721D03*
X268691Y117291D03*
X318700Y157500D03*
X329600Y156400D03*
X298400Y154900D03*
X313000Y143100D03*
X300900Y131800D03*
X315000Y101800D03*
X313700Y88600D03*
X320200Y66700D03*
X297100Y7100D03*
X327900Y5400D03*
X329900Y19700D03*
X254400Y5400D03*
X246400Y47400D03*
X319900Y94400D03*
X265000Y104700D03*
X262300Y103000D03*
X261600Y82300D03*
X269600Y76700D03*
X266000Y80400D03*
X203720Y56800D03*
X274527Y116027D03*
X325908Y114292D03*
X321637Y371516D03*
X299937Y371316D03*
X325937Y371416D03*
X295577Y371176D03*
X304237Y371416D03*
X321900Y362600D03*
X326500Y353900D03*
X310200Y385200D03*
X168900Y164584D03*
X172600Y167600D03*
X157100Y156200D03*
X187700Y133000D03*
X191600Y142600D03*
X101400Y130900D03*
X161000Y131600D03*
X97400Y99500D03*
X170300Y156700D03*
X114400Y59600D03*
X198900Y81200D03*
X79500Y128610D03*
X252013Y148588D03*
X250478Y128222D03*
X231500Y121400D03*
X235900Y121210D03*
X244935Y132100D03*
X238300Y127000D03*
X240900Y132600D03*
X243500Y144300D03*
X253000Y120200D03*
X245000Y120700D03*
X206800Y74200D03*
X204860Y87600D03*
X218012Y109400D03*
X229300Y117300D03*
X250285Y117185D03*
X228742Y142712D03*
X176500Y188512D03*
X111279Y183679D03*
X121121Y182421D03*
X168550Y175550D03*
X194100Y174600D03*
X166200Y198200D03*
X186100Y182381D03*
X122500Y221700D03*
X125000Y223700D03*
X126800Y221100D03*
X195216Y218484D03*
X104400Y219500D03*
X116100Y224700D03*
X112000Y224300D03*
X121100Y225900D03*
X232355Y198100D03*
X229704Y195804D03*
X205377Y216123D03*
X234500Y217500D03*
X236200Y214100D03*
Y194000D03*
X256845Y178045D03*
X230400Y211100D03*
X222723Y195577D03*
X224520Y208800D03*
X210970Y218100D03*
X227300Y222500D03*
X193900Y326700D03*
X272600Y268400D03*
X265500Y319500D03*
X272500Y319000D03*
X260296Y307304D03*
X218600Y322000D03*
X244028Y341828D03*
X226300Y322100D03*
X257200Y329200D03*
X164814Y350686D03*
X277700Y178800D03*
X266450Y203250D03*
X248746Y203946D03*
X288012Y197800D03*
X289600Y193400D03*
X291253Y197900D03*
X294461Y197968D03*
X292841Y193400D03*
X282500Y205700D03*
X278600Y205900D03*
X245358Y195455D03*
X279200Y201488D03*
X278385Y184073D03*
X294700Y175720D03*
X299947Y182653D03*
X298353Y190047D03*
X249663Y211000D03*
X274200Y350600D03*
X317200Y331100D03*
X303400D03*
X149400Y324800D03*
X152505Y324309D03*
X205200Y311300D03*
X215277Y307977D03*
X191600Y268300D03*
X197200Y261362D03*
X142200Y301800D03*
X156100Y298800D03*
X171751Y281285D03*
X155804Y288200D03*
X201001Y296072D03*
G54D31*
X43357Y343367D03*
X35483D03*
X27609D03*
X31546Y349273D03*
X39420D03*
X119657Y343267D03*
X111783D03*
X103909D03*
X107846Y349173D03*
X115720D03*
G54D25*
X91421Y164680D03*
G54D23*
X43308Y15732D03*
X59057D03*
G54D26*
X152756Y29726D03*
X150394Y10435D03*
X209842Y29726D03*
X212205Y10435D03*
X267155Y383565D03*
X205344D03*
G54D34*
X249458Y17803D03*
X281781D03*
X239439D03*
X291840D03*
G54D35*
X234675Y45795D03*
X296500D03*
G54D24*
X15748Y196850D03*
Y15748D03*
Y320866D03*
X318898Y15748D03*
Y196850D03*
Y320866D03*
G54D32*
X243100Y33787D03*
G54D30*
X61349Y357147D03*
G54D21*
X162090Y376168D03*
%LPD*%
G75*
G54D10*
X141732Y196850D03*
X299212D03*
G54D20*
G01X237500Y256500D02*
X237321D01*
X237208Y256387D01*
X235913D01*
G01X240500Y261800D02*
Y262237D01*
X240513Y262250D01*
Y263787D01*
G01X237900Y261600D02*
Y262195D01*
X237955Y262250D01*
Y263945D01*
G54D11*
X7697Y175949D03*
Y157051D03*
G54D12*
X25808Y166500D03*
X7697D03*
G54D13*
X64937Y63945D03*
G54D14*
X127000Y4400D03*
G54D15*
Y14400D03*
Y9400D03*
G54D16*
X138900Y208012D03*
X160027Y194327D03*
X172100Y190100D03*
X176500Y188512D03*
X191794Y164006D03*
X111279Y183679D03*
X121121Y182421D03*
X168550Y175550D03*
X194100Y174600D03*
X193600Y165100D03*
X172000Y181500D03*
X170100Y194800D03*
X169904Y192204D03*
X189200Y164100D03*
X168900Y164584D03*
X166200Y198200D03*
X195400Y150400D03*
X64500Y157112D03*
X47000Y170400D03*
X99500Y194587D03*
X172600Y167600D03*
X108100Y165100D03*
X186463Y66900D03*
X192989Y70907D03*
X125800Y203221D03*
X92800Y149500D03*
X95500D03*
X159100Y57200D03*
X98200Y149500D03*
X35017Y184000D03*
X69100Y80200D03*
X74064Y78333D03*
X75000Y68900D03*
X75200Y73500D03*
X139400Y167353D03*
X134100Y132700D03*
Y130000D03*
X83200Y127011D03*
X103400Y90900D03*
X82879Y123621D03*
X80700Y123100D03*
X78500D03*
X132700Y128200D03*
X139400Y164900D03*
X138000Y101700D03*
X137700Y96100D03*
X138300Y98700D03*
X136900Y104300D03*
X85364Y99833D03*
X86300Y90400D03*
X86500Y95000D03*
X88700Y91600D03*
X88500Y87000D03*
X81700Y85400D03*
X81500Y80800D03*
X84900Y87300D03*
X84700Y82700D03*
X190400Y65100D03*
X157100Y156200D03*
X187700Y133000D03*
X186100Y182381D03*
X166108Y193708D03*
X169400Y189400D03*
X167634Y191387D03*
X191600Y142600D03*
X199900Y5100D03*
X160200Y5200D03*
X80500Y5800D03*
X82800Y18400D03*
X56000Y31300D03*
X26800Y94500D03*
X16600Y95200D03*
X101400Y130900D03*
X161000Y131600D03*
X97400Y99500D03*
X24300Y143200D03*
X46100Y203000D03*
X170300Y156700D03*
X45900Y81000D03*
X114400Y59600D03*
X49073Y133673D03*
X31400Y122700D03*
Y118000D03*
X49300Y123000D03*
X191600Y49400D03*
X184600Y50600D03*
X176400Y42600D03*
X190800Y56400D03*
X195100Y60700D03*
X198000Y55300D03*
X198900Y81200D03*
X77700Y175200D03*
X71500Y174700D03*
X82500Y170500D03*
X74800Y163400D03*
X71600Y166400D03*
X76000Y168800D03*
X91097Y177503D03*
X62000Y157000D03*
X53720Y156900D03*
X35800Y157000D03*
X198596Y192504D03*
X79500Y128610D03*
X61396Y140896D03*
X73000Y118600D03*
X70100D03*
X65200Y145700D03*
X5400Y136026D03*
X49112Y128400D03*
X5398Y138252D03*
X49112Y125200D03*
X55100Y151784D03*
X66600Y150016D03*
X55180Y132500D03*
Y134700D03*
X119700Y266823D03*
Y269262D03*
X193900Y326700D03*
X164814Y350686D03*
X186800Y315100D03*
X183700Y318900D03*
X186700Y319500D03*
X122500Y221700D03*
X125000Y223700D03*
X126800Y221100D03*
X166186Y299638D03*
X191600Y268300D03*
X168153Y324582D03*
X170553D03*
X185637Y324782D03*
X174063Y329524D03*
X188037Y324782D03*
X176463Y329524D03*
X114400Y244400D03*
X142200Y301800D03*
X119700Y264263D03*
X119600Y256800D03*
X195216Y218484D03*
X196100Y275300D03*
X195900Y280000D03*
Y277800D03*
X183810Y224521D03*
X119402Y259312D03*
X181410Y224521D03*
X110600Y280500D03*
X109240Y228900D03*
X110500Y283700D03*
X111600Y228300D03*
X194418Y337118D03*
X89819Y302281D03*
X70476Y286300D03*
X156100Y298800D03*
X114400Y246700D03*
X171751Y281285D03*
X165650Y282900D03*
X168250Y287250D03*
X198700Y372200D03*
X196000Y372100D03*
X192800D03*
X133300Y302700D03*
X104400Y219500D03*
X116100Y224700D03*
X112000Y224300D03*
X121100Y225900D03*
X109748Y231700D03*
X108480Y278820D03*
X106900Y231300D03*
X108200Y282088D03*
X113300Y287500D03*
X32040Y301540D03*
X125701Y302812D03*
X127400Y301500D03*
X128900Y302812D03*
X80700Y370800D03*
X72942Y370213D03*
X77600Y221822D03*
X86100Y225500D03*
X63960Y286800D03*
X153100Y378329D03*
X153320Y228200D03*
X159790Y231700D03*
X157390D03*
X163418Y227956D03*
X196455Y342049D03*
X181555Y346891D03*
X171172Y230918D03*
X148900Y328807D03*
X151600D03*
X197350Y305150D03*
X144405Y328800D03*
X144399Y326600D03*
X155710Y228200D03*
X91390Y285000D03*
X93360D03*
X95330D03*
X97300D03*
X197200Y261362D03*
X169900D03*
X190545Y347191D03*
X167428Y234500D03*
X114420Y249100D03*
Y251300D03*
Y253600D03*
X176214Y246559D03*
X114400Y255600D03*
X152320Y233300D03*
X152400Y236000D03*
X152425Y222600D03*
X152320Y231100D03*
X142300Y235680D03*
X143584Y254117D03*
X144600Y235680D03*
X142300Y233480D03*
Y231280D03*
X144700Y233500D03*
Y231300D03*
X161018Y227956D03*
X198855Y342049D03*
X179155Y346891D03*
X168890Y230900D03*
X165028Y234500D03*
X192945Y347191D03*
X50000Y330800D03*
X68198Y296602D03*
X73300Y297000D03*
X77600Y297200D03*
X79755Y327345D03*
X56000Y337000D03*
X55300Y334500D03*
X117389Y271900D03*
X155804Y288200D03*
X111780Y265900D03*
X111712Y242800D03*
X109800Y235800D03*
X111800Y240300D03*
X106900Y235900D03*
X149400Y324800D03*
X102600Y317800D03*
X168436Y314836D03*
X170007Y313295D03*
X171639Y311639D03*
X11300Y341100D03*
X4400Y330700D03*
X5200Y317700D03*
X23500Y312100D03*
X9300Y307200D03*
X5800Y293100D03*
X28000Y292000D03*
X112400Y330100D03*
Y332800D03*
X98817Y330101D03*
X98695Y332298D03*
X56000Y344300D03*
X91700Y345100D03*
X71700Y339100D03*
X76600Y337600D03*
X3400Y345200D03*
X13400Y344900D03*
X169100Y258700D03*
X152505Y324309D03*
X81700Y304600D03*
X33300Y307100D03*
X100338Y300192D03*
X93704Y301596D03*
X200500Y214000D03*
X277700Y178800D03*
X266450Y203250D03*
X248746Y203946D03*
X232355Y198100D03*
X246405Y177832D03*
X288012Y197800D03*
X228780Y216063D03*
X289600Y193400D03*
X291253Y197900D03*
X294461Y197968D03*
X292841Y193400D03*
X232300Y188900D03*
X229704Y195804D03*
X241970Y206300D03*
X234900Y153000D03*
X237900Y200300D03*
X265700Y129900D03*
X267700Y128200D03*
X284800Y168784D03*
X205377Y216123D03*
X263200Y178000D03*
X202900Y213955D03*
X281600Y159200D03*
X239800Y147100D03*
X282500Y205700D03*
X234100Y187800D03*
X234500Y217500D03*
X219623Y123238D03*
X215126Y65776D03*
X278600Y205900D03*
X236200Y214100D03*
Y194000D03*
X222000Y122800D03*
X215100Y63200D03*
X256589Y185836D03*
X253682Y181885D03*
X251800Y183357D03*
X259600Y187200D03*
X263765Y175435D03*
X261750Y174720D03*
X256845Y178045D03*
X252013Y148588D03*
X260541Y111041D03*
X279200Y201488D03*
X237000Y148200D03*
X276800Y133200D03*
X210013Y180501D03*
X211968Y179504D03*
X278385Y184073D03*
X234779Y76721D03*
X254634Y186966D03*
X240900Y132600D03*
X218800Y64900D03*
X217900Y62600D03*
X312200Y24300D03*
X274200Y140900D03*
X310584Y105800D03*
X298700Y83400D03*
X272200Y82100D03*
X230400Y211100D03*
X200536Y190936D03*
X243500Y144300D03*
X202337Y152700D03*
X227077Y204823D03*
X228800Y206600D03*
X205400Y185900D03*
X206680Y182193D03*
X200749Y154800D03*
X215525Y160139D03*
X256549Y103249D03*
X264112Y127700D03*
X268691Y117291D03*
X253000Y120200D03*
X305126Y107600D03*
X303538Y109640D03*
X243323Y177777D03*
X207136Y184336D03*
X217922Y161149D03*
X318700Y157500D03*
X329600Y156400D03*
X305600Y169900D03*
X329900Y169800D03*
X298400Y154900D03*
X313000Y143100D03*
X300900Y131800D03*
X329800Y114200D03*
X330900Y117100D03*
X315000Y101800D03*
X313700Y88600D03*
X320200Y66700D03*
X297100Y7100D03*
X327900Y5400D03*
X329900Y19700D03*
X254400Y5400D03*
X245000Y120700D03*
X246400Y47400D03*
X319900Y94400D03*
X265000Y104700D03*
X258600D03*
X260000Y100700D03*
X262300Y103000D03*
X256200Y82200D03*
X261600Y82300D03*
X272900Y73400D03*
X269600Y76700D03*
X266000Y80400D03*
X264100Y64400D03*
X266900Y63200D03*
X203720Y56800D03*
X206800Y74200D03*
X200480D03*
X204860Y87600D03*
X218012Y109400D03*
X229300Y117300D03*
X274527Y116027D03*
X250285Y117185D03*
X273200Y64000D03*
X275600Y65000D03*
X277200Y63200D03*
X273400Y59300D03*
X331419Y84300D03*
X331300Y71900D03*
X325908Y114292D03*
X228742Y142712D03*
X232600Y151400D03*
X294700Y175720D03*
X299947Y182653D03*
X298353Y190047D03*
X249663Y211000D03*
X222723Y195577D03*
X224520Y208800D03*
X219600Y205900D03*
X254592Y265338D03*
Y262779D03*
Y257662D03*
X257151Y267897D03*
X262270D03*
X259710D03*
Y275574D03*
X259712Y273016D03*
X262271Y280692D03*
X259711D03*
Y242308D03*
X277400Y268500D03*
X304600Y245846D03*
X301923Y243302D03*
X300700Y245846D03*
X289570Y248405D03*
X314173Y258641D03*
X304400Y253535D03*
X289567Y256082D03*
X283268Y250964D03*
X314173Y263759D03*
X304723Y268877D03*
X283268D03*
X289567Y266318D03*
X308573Y276554D03*
X304723Y281672D03*
X299900Y273995D03*
X292717D03*
X288849Y286790D03*
X324900Y241500D03*
X321400D03*
X320472Y256082D03*
Y250964D03*
Y266318D03*
X320493Y279103D03*
X320472Y271436D03*
X320750Y263000D03*
X320700Y259300D03*
X262271Y242308D03*
X277400Y234500D03*
X259710Y234630D03*
X257150D03*
X259710Y288370D03*
X257150D03*
X314173Y235610D03*
X293400Y230500D03*
X298771Y235614D03*
X289567Y235610D03*
X307873Y243287D03*
X283070Y240728D03*
X301517Y279113D03*
X314373Y286790D03*
X305023D03*
X307873D03*
X294270Y290500D03*
X300400Y283500D03*
X259711Y252544D03*
X264829Y249985D03*
X262270Y257662D03*
X259711Y255103D03*
X277400Y275600D03*
X278497Y254108D03*
X277600Y244600D03*
X299735Y252974D03*
X301300Y268757D03*
X283268Y256082D03*
Y266318D03*
Y281672D03*
X314173Y245846D03*
Y276554D03*
X308173Y235610D03*
X323900Y289200D03*
Y284300D03*
X265500Y319500D03*
X272300Y312938D03*
X272500Y319000D03*
X269400Y312980D03*
X272300Y315500D03*
X252033Y234629D03*
X244356Y234630D03*
X242000Y226200D03*
X222014Y333873D03*
X230284D03*
X246947Y332345D03*
X249347D03*
X241037Y333079D03*
X243437D03*
X227924Y333873D03*
X213147Y324602D03*
X210747D03*
X205600Y293900D03*
X223434Y313800D03*
X202700Y270400D03*
X228754Y218354D03*
X201001Y296072D03*
X205850Y286150D03*
X221270Y292580D03*
X206200Y245100D03*
X224374Y333873D03*
X260296Y307304D03*
X223323Y311223D03*
X221100Y311200D03*
X247500Y341657D03*
X218600Y322000D03*
X214500Y347295D03*
X244028Y341828D03*
X208700Y312200D03*
X206900Y313900D03*
X205200Y311300D03*
X216300Y228800D03*
X206400Y224400D03*
X210970Y218100D03*
X228400Y298600D03*
X247600Y338700D03*
X291400Y349000D03*
X284300Y339600D03*
X226300Y322100D03*
X217747Y341916D03*
X215277Y307977D03*
X211837Y341916D03*
X209437D03*
X249474Y273015D03*
Y270456D03*
Y267897D03*
Y265338D03*
X246915D03*
X249474Y262779D03*
X246915D03*
X249474Y255103D03*
Y257662D03*
X246915Y255103D03*
Y257662D03*
X252033Y270456D03*
X254592Y275574D03*
Y278133D03*
Y249985D03*
Y255103D03*
Y252544D03*
Y244867D03*
X215347Y341916D03*
X257200Y329200D03*
X291700Y327720D03*
X231562Y252544D03*
Y255103D03*
X229003Y252544D03*
Y255103D03*
X223885Y252544D03*
Y255103D03*
X221326D03*
X218766D03*
X226444D03*
Y252544D03*
X218766Y257662D03*
X221325D03*
X236679Y273015D03*
X239238Y273016D03*
X236679Y270456D03*
X239238Y270457D03*
X231561Y265338D03*
X223885Y270456D03*
X226444D03*
X229003D03*
Y273015D03*
X231562Y270456D03*
Y273015D03*
X226444D03*
X223885D03*
X219000Y293000D03*
X213200Y299200D03*
X203600Y288200D03*
X328300Y374700D03*
X321900Y362600D03*
X326500Y353900D03*
X329800Y340700D03*
X272000Y363100D03*
X317200Y331100D03*
X303400D03*
X227300Y222500D03*
X203905Y260710D03*
X310200Y385200D03*
G54D17*
G01X-88521Y-43540D02*
Y-139740D01*
G01D02*
X386979D01*
G01X-88521Y-118740D02*
X405279D01*
G01X-88521Y-98740D02*
X405279D01*
G01X-88521Y-78740D02*
X405279D01*
G01X-88521Y-59540D02*
X405279D01*
G01X-88521Y-43540D02*
X386979D01*
G01X64937Y60193D02*
Y63945D01*
G01D02*
Y67697D01*
G01X61185Y63945D02*
X64937D01*
G01D02*
X68689D01*
G01X386179Y-139740D02*
X405279D01*
Y-43540D01*
X385879D01*
G54D18*
G01X-81492Y-134850D02*
Y-124850D01*
X-76742D01*
G01X-78492Y-129683D02*
X-81492D01*
G01X-70617Y-124850D02*
X-67617D01*
G01X-69117D02*
Y-134850D01*
G01X-70617D02*
X-67617D01*
G01X-61617Y-124850D02*
Y-134850D01*
X-56617D01*
G01X-52367D02*
Y-124850D01*
X-49117Y-133183D01*
X-45867Y-124850D01*
Y-134850D01*
G01X-31617Y-124850D02*
Y-134850D01*
X-26617D01*
G01X-22242D02*
X-19117Y-124850D01*
X-15992Y-134850D01*
G01X-17117Y-131350D02*
X-21117D01*
G01X-9117Y-134850D02*
Y-130350D01*
X-11617Y-124850D01*
G01X-6617D02*
X-9117Y-130350D01*
G01X3383Y-134850D02*
X-1617D01*
Y-124850D01*
X3383D01*
G01X1383Y-129683D02*
X-1617D01*
G01X8383Y-134850D02*
Y-124850D01*
X11508D01*
X12508Y-125350D01*
X13133Y-126017D01*
X13383Y-127350D01*
X13133Y-128683D01*
X12383Y-129517D01*
X11508Y-130017D01*
X8383D01*
G01X11508D02*
X13383Y-134850D01*
G01X30883Y-135183D02*
X30633Y-135017D01*
Y-134683D01*
X30883Y-134517D01*
X31133Y-134683D01*
Y-135017D01*
X30883Y-135183D01*
G01Y-130684D02*
X30633Y-130517D01*
Y-130183D01*
X30883Y-130017D01*
X31133Y-130183D01*
Y-130517D01*
X30883Y-130684D01*
G01X48383Y-124850D02*
Y-134850D01*
X53383D01*
G01X57758D02*
X60883Y-124850D01*
X64008Y-134850D01*
G01X62883Y-131350D02*
X58883D01*
G01X70883Y-134850D02*
Y-130350D01*
X68383Y-124850D01*
G01X73383D02*
X70883Y-130350D01*
G01X83383Y-134850D02*
X78383D01*
Y-124850D01*
X83383D01*
G01X81383Y-129683D02*
X78383D01*
G01X88383Y-134850D02*
Y-124850D01*
X91508D01*
X92508Y-125350D01*
X93133Y-126017D01*
X93383Y-127350D01*
X93133Y-128683D01*
X92383Y-129517D01*
X91508Y-130017D01*
X88383D01*
G01X91508D02*
X93383Y-134850D01*
G01X110883Y-124850D02*
X109883Y-125183D01*
X109133Y-126017D01*
X108633Y-127017D01*
X108258Y-128350D01*
X108133Y-129850D01*
X108258Y-131350D01*
X108633Y-132683D01*
X109133Y-133684D01*
X109883Y-134517D01*
X110883Y-134850D01*
X111883Y-134517D01*
X112633Y-133684D01*
X113133Y-132683D01*
X113508Y-131350D01*
X113633Y-129850D01*
X113508Y-128350D01*
X113133Y-127017D01*
X112633Y-126017D01*
X111883Y-125183D01*
X110883Y-124850D01*
G01X118508Y-130684D02*
X119383Y-129517D01*
X120133Y-128850D01*
X121133Y-128517D01*
X122008Y-128850D01*
X122633Y-129517D01*
X123133Y-130517D01*
X123258Y-131683D01*
X123133Y-132683D01*
X122633Y-133684D01*
X121883Y-134517D01*
X121008Y-134850D01*
X120008Y-134517D01*
X119133Y-133517D01*
X118633Y-132017D01*
X118508Y-130350D01*
X118758Y-128184D01*
X119133Y-127017D01*
X119758Y-125850D01*
X120633Y-125017D01*
X121508Y-124850D01*
X122383Y-125183D01*
X123008Y-126017D01*
G01X127133Y-138183D02*
X134633D01*
G01X138383Y-134850D02*
Y-124850D01*
X141383D01*
X142383Y-125350D01*
X143133Y-126517D01*
X143383Y-127850D01*
X143133Y-129183D01*
X142508Y-130183D01*
X141383Y-130684D01*
X138383D01*
G01X147133Y-124850D02*
X148883Y-134850D01*
X150883Y-124850D01*
X152883Y-134850D01*
X154633Y-124850D01*
G01X158383Y-134850D02*
Y-124850D01*
X161508D01*
X162508Y-125350D01*
X163133Y-126017D01*
X163383Y-127350D01*
X163133Y-128683D01*
X162383Y-129517D01*
X161508Y-130017D01*
X158383D01*
G01X161508D02*
X163383Y-134850D01*
G01X170883D02*
Y-124850D01*
X169383Y-126850D01*
G01Y-134850D02*
X172383D01*
G01X-82771Y-114040D02*
Y-104040D01*
X-79771D01*
X-78771Y-104540D01*
X-78021Y-105707D01*
X-77771Y-107040D01*
X-78021Y-108373D01*
X-78646Y-109373D01*
X-79771Y-109874D01*
X-82771D01*
G01X-73396Y-114040D02*
X-70271Y-104040D01*
X-67146Y-114040D01*
G01X-68271Y-110540D02*
X-72271D01*
G01X-62771Y-114040D02*
Y-104040D01*
X-59646D01*
X-58646Y-104540D01*
X-58021Y-105207D01*
X-57771Y-106540D01*
X-58021Y-107873D01*
X-58771Y-108707D01*
X-59646Y-109207D01*
X-62771D01*
G01X-59646D02*
X-57771Y-114040D01*
G01X-50271Y-104040D02*
Y-114040D01*
G01X-53146Y-104040D02*
X-47396D01*
G01X-33146Y-114040D02*
Y-104040D01*
X-27396Y-114040D01*
Y-104040D01*
G01X-20271Y-114040D02*
X-21271Y-113873D01*
X-22146Y-113207D01*
X-22896Y-112207D01*
X-23396Y-111040D01*
X-23646Y-109707D01*
Y-108373D01*
X-23396Y-107040D01*
X-22896Y-105873D01*
X-22146Y-104873D01*
X-21271Y-104207D01*
X-20271Y-104040D01*
X-19271Y-104207D01*
X-18396Y-104873D01*
X-17646Y-105873D01*
X-17146Y-107040D01*
X-16896Y-108373D01*
Y-109707D01*
X-17146Y-111040D01*
X-17646Y-112207D01*
X-18396Y-113207D01*
X-19271Y-113873D01*
X-20271Y-114040D01*
G01X-12521Y-114373D02*
X-8021Y-104040D01*
G01X2479Y-104873D02*
X1729Y-104373D01*
X854Y-104040D01*
X-146D01*
X-1271Y-104540D01*
X-2146Y-105373D01*
X-2771Y-106373D01*
X-3271Y-108040D01*
X-3396Y-109540D01*
X-3146Y-111040D01*
X-2771Y-112040D01*
X-2021Y-113040D01*
X-1146Y-113707D01*
X-271Y-114040D01*
X604D01*
X1479Y-113707D01*
X2229Y-113207D01*
X2854Y-112540D01*
G01X6604Y-114040D02*
X9729Y-104040D01*
X12854Y-114040D01*
G01X11729Y-110540D02*
X7729D01*
G01X17229Y-114040D02*
Y-104040D01*
X20354D01*
X21354Y-104540D01*
X21979Y-105207D01*
X22229Y-106540D01*
X21979Y-107873D01*
X21229Y-108707D01*
X20354Y-109207D01*
X17229D01*
G01X20354D02*
X22229Y-114040D01*
G01X26979D02*
Y-104040D01*
X29479D01*
X30479Y-104540D01*
X31229Y-105207D01*
X31854Y-106207D01*
X32354Y-107374D01*
X32479Y-109040D01*
X32354Y-110707D01*
X31854Y-111873D01*
X31229Y-112874D01*
X30479Y-113540D01*
X29479Y-114040D01*
X26979D01*
G01X47229D02*
Y-104040D01*
X50354D01*
X51354Y-104540D01*
X51979Y-105207D01*
X52229Y-106540D01*
X51979Y-107873D01*
X51229Y-108707D01*
X50354Y-109207D01*
X47229D01*
G01X50354D02*
X52229Y-114040D01*
G01X62229D02*
X57229D01*
Y-104040D01*
X62229D01*
G01X60229Y-108873D02*
X57229D01*
G01X67354Y-114040D02*
Y-104040D01*
X72104D01*
G01X70354Y-108873D02*
X67354D01*
G01X79729Y-114373D02*
X79479Y-114207D01*
Y-113873D01*
X79729Y-113707D01*
X79979Y-113873D01*
Y-114207D01*
X79729Y-114373D01*
G01Y-109874D02*
X79479Y-109707D01*
Y-109373D01*
X79729Y-109207D01*
X79979Y-109373D01*
Y-109707D01*
X79729Y-109874D01*
G01X86604Y-114040D02*
X89729Y-104040D01*
X92854Y-114040D01*
G01X91729Y-110540D02*
X87729D01*
G01X97229Y-114040D02*
Y-104040D01*
X100354D01*
X101354Y-104540D01*
X101979Y-105207D01*
X102229Y-106540D01*
X101979Y-107873D01*
X101229Y-108707D01*
X100354Y-109207D01*
X97229D01*
G01X100354D02*
X102229Y-114040D01*
G01X107229D02*
Y-104040D01*
X110354D01*
X111354Y-104540D01*
X111979Y-105207D01*
X112229Y-106540D01*
X111979Y-107873D01*
X111229Y-108707D01*
X110354Y-109207D01*
X107229D01*
G01X110354D02*
X112229Y-114040D01*
G01X119729D02*
X118729Y-113873D01*
X117854Y-113207D01*
X117104Y-112207D01*
X116604Y-111040D01*
X116354Y-109707D01*
Y-108373D01*
X116604Y-107040D01*
X117104Y-105873D01*
X117854Y-104873D01*
X118729Y-104207D01*
X119729Y-104040D01*
X120729Y-104207D01*
X121604Y-104873D01*
X122354Y-105873D01*
X122854Y-107040D01*
X123104Y-108373D01*
Y-109707D01*
X122854Y-111040D01*
X122354Y-112207D01*
X121604Y-113207D01*
X120729Y-113873D01*
X119729Y-114040D01*
G01X125979Y-104040D02*
X127729Y-114040D01*
X129729Y-104040D01*
X131729Y-114040D01*
X133479Y-104040D01*
G01X135979Y-117373D02*
X143479D01*
G01X148229Y-104040D02*
X151229D01*
G01X149729D02*
Y-114040D01*
G01X148229D02*
X151229D01*
G01X156479D02*
Y-104040D01*
X159729Y-112373D01*
X162979Y-104040D01*
Y-114040D01*
G01X167104D02*
X172354Y-104040D01*
G01X167104D02*
X172354Y-114040D01*
G01X179729D02*
X180604Y-113873D01*
X181604Y-113373D01*
X182229Y-112540D01*
X182479Y-111373D01*
X182229Y-110207D01*
X181479Y-109207D01*
X180354Y-108707D01*
X179104D01*
X178354Y-108373D01*
X177729Y-107540D01*
X177479Y-106373D01*
X177854Y-105207D01*
X178729Y-104373D01*
X179729Y-104040D01*
X180729Y-104373D01*
X181604Y-105207D01*
X181979Y-106373D01*
X181729Y-107540D01*
X181104Y-108373D01*
X180354Y-108707D01*
X179104D01*
X177979Y-109207D01*
X177229Y-110207D01*
X176979Y-111373D01*
X177229Y-112540D01*
X177854Y-113373D01*
X178854Y-113873D01*
X179729Y-114040D01*
G01X186479D02*
Y-104040D01*
X189729Y-112373D01*
X192979Y-104040D01*
Y-114040D01*
G01X195979Y-117373D02*
X203479D01*
G01X207104Y-114040D02*
Y-104040D01*
G01X212354D02*
Y-114040D01*
G01Y-109040D02*
X207104D01*
G01X216479Y-114040D02*
Y-104040D01*
X219729Y-112373D01*
X222979Y-104040D01*
Y-114040D01*
G01X228229Y-104040D02*
X231229D01*
G01X229729D02*
Y-114040D01*
G01X228229D02*
X231229D01*
G01X235979Y-117373D02*
X243479D01*
G01X247229Y-114040D02*
Y-104040D01*
X250229D01*
X251229Y-104540D01*
X251979Y-105707D01*
X252229Y-107040D01*
X251979Y-108373D01*
X251354Y-109373D01*
X250229Y-109874D01*
X247229D01*
G01X257229Y-104040D02*
Y-114040D01*
X262229D01*
G01X266604D02*
X269729Y-104040D01*
X272854Y-114040D01*
G01X271729Y-110540D02*
X267729D01*
G01X279729Y-104040D02*
Y-114040D01*
G01X276854Y-104040D02*
X282604D01*
G01X287354Y-114040D02*
Y-104040D01*
X292104D01*
G01X290354Y-108873D02*
X287354D01*
G01X299729Y-114040D02*
X298729Y-113873D01*
X297854Y-113207D01*
X297104Y-112207D01*
X296604Y-111040D01*
X296354Y-109707D01*
Y-108373D01*
X296604Y-107040D01*
X297104Y-105873D01*
X297854Y-104873D01*
X298729Y-104207D01*
X299729Y-104040D01*
X300729Y-104207D01*
X301604Y-104873D01*
X302354Y-105873D01*
X302854Y-107040D01*
X303104Y-108373D01*
Y-109707D01*
X302854Y-111040D01*
X302354Y-112207D01*
X301604Y-113207D01*
X300729Y-113873D01*
X299729Y-114040D01*
G01X307229D02*
Y-104040D01*
X310354D01*
X311354Y-104540D01*
X311979Y-105207D01*
X312229Y-106540D01*
X311979Y-107873D01*
X311229Y-108707D01*
X310354Y-109207D01*
X307229D01*
G01X310354D02*
X312229Y-114040D01*
G01X316479D02*
Y-104040D01*
X319729Y-112373D01*
X322979Y-104040D01*
Y-114040D01*
G01X340729Y-108707D02*
X341229Y-108207D01*
X341604Y-107374D01*
X341854Y-106207D01*
X341604Y-105207D01*
X341104Y-104540D01*
X340229Y-104040D01*
X336854D01*
Y-114040D01*
X340979D01*
X341854Y-113373D01*
X342354Y-112373D01*
X342604Y-111207D01*
X342354Y-110040D01*
X341604Y-109040D01*
X340729Y-108707D01*
X336854D01*
G01X349729Y-114040D02*
X348729Y-113873D01*
X347854Y-113207D01*
X347104Y-112207D01*
X346604Y-111040D01*
X346354Y-109707D01*
Y-108373D01*
X346604Y-107040D01*
X347104Y-105873D01*
X347854Y-104873D01*
X348729Y-104207D01*
X349729Y-104040D01*
X350729Y-104207D01*
X351604Y-104873D01*
X352354Y-105873D01*
X352854Y-107040D01*
X353104Y-108373D01*
Y-109707D01*
X352854Y-111040D01*
X352354Y-112207D01*
X351604Y-113207D01*
X350729Y-113873D01*
X349729Y-114040D01*
G01X356604D02*
X359729Y-104040D01*
X362854Y-114040D01*
G01X361729Y-110540D02*
X357729D01*
G01X367229Y-114040D02*
Y-104040D01*
X370354D01*
X371354Y-104540D01*
X371979Y-105207D01*
X372229Y-106540D01*
X371979Y-107873D01*
X371229Y-108707D01*
X370354Y-109207D01*
X367229D01*
G01X370354D02*
X372229Y-114040D01*
G01X376979D02*
Y-104040D01*
X379479D01*
X380479Y-104540D01*
X381229Y-105207D01*
X381854Y-106207D01*
X382354Y-107374D01*
X382479Y-109040D01*
X382354Y-110707D01*
X381854Y-111873D01*
X381229Y-112874D01*
X380479Y-113540D01*
X379479Y-114040D01*
X376979D01*
G01X-83021Y-94040D02*
Y-84040D01*
X-80521D01*
X-79521Y-84540D01*
X-78771Y-85207D01*
X-78146Y-86207D01*
X-77646Y-87374D01*
X-77521Y-89040D01*
X-77646Y-90707D01*
X-78146Y-91873D01*
X-78771Y-92874D01*
X-79521Y-93540D01*
X-80521Y-94040D01*
X-83021D01*
G01X-67771D02*
X-72771D01*
Y-84040D01*
X-67771D01*
G01X-69771Y-88873D02*
X-72771D01*
G01X-62896Y-92707D02*
X-61896Y-93540D01*
X-60771Y-94040D01*
X-59771D01*
X-58771Y-93540D01*
X-58021Y-92707D01*
X-57646Y-91540D01*
X-57896Y-90374D01*
X-58521Y-89373D01*
X-59646Y-88707D01*
X-61146Y-88373D01*
X-62021Y-87707D01*
X-62396Y-86540D01*
X-62146Y-85373D01*
X-61521Y-84540D01*
X-60646Y-84040D01*
X-59771D01*
X-58896Y-84373D01*
X-58146Y-85207D01*
G01X-51771Y-84040D02*
X-48771D01*
G01X-50271D02*
Y-94040D01*
G01X-51771D02*
X-48771D01*
G01X-39521Y-89040D02*
X-37021D01*
Y-92040D01*
X-37771Y-93040D01*
X-38646Y-93707D01*
X-39896Y-94040D01*
X-41146Y-93707D01*
X-42021Y-93040D01*
X-42771Y-92040D01*
X-43271Y-90873D01*
X-43521Y-89540D01*
Y-88373D01*
X-43271Y-87374D01*
X-42771Y-86207D01*
X-42021Y-85207D01*
X-41271Y-84540D01*
X-40271Y-84040D01*
X-39396D01*
X-38396Y-84373D01*
X-37646Y-85040D01*
G01X-33146Y-94040D02*
Y-84040D01*
X-27396Y-94040D01*
Y-84040D01*
G01X-17771Y-94040D02*
X-22771D01*
Y-84040D01*
X-17771D01*
G01X-19771Y-88873D02*
X-22771D01*
G01X-13021Y-94040D02*
Y-84040D01*
X-10521D01*
X-9521Y-84540D01*
X-8771Y-85207D01*
X-8146Y-86207D01*
X-7646Y-87374D01*
X-7521Y-89040D01*
X-7646Y-90707D01*
X-8146Y-91873D01*
X-8771Y-92874D01*
X-9521Y-93540D01*
X-10521Y-94040D01*
X-13021D01*
G01X6604D02*
X9729Y-84040D01*
X12854Y-94040D01*
G01X11729Y-90540D02*
X7729D01*
G01X19729Y-84040D02*
Y-94040D01*
G01X16854Y-84040D02*
X22604D01*
G01X29729Y-94373D02*
X29479Y-94207D01*
Y-93873D01*
X29729Y-93707D01*
X29979Y-93873D01*
Y-94207D01*
X29729Y-94373D01*
G01Y-89874D02*
X29479Y-89707D01*
Y-89373D01*
X29729Y-89207D01*
X29979Y-89373D01*
Y-89707D01*
X29729Y-89874D01*
G01X47854Y-89540D02*
X51854D01*
X51479Y-88373D01*
X50854Y-87707D01*
X49979Y-87374D01*
X49104Y-87540D01*
X48354Y-88040D01*
X47854Y-89207D01*
X47604Y-90207D01*
Y-91207D01*
X47854Y-92207D01*
X48479Y-93207D01*
X49229Y-93873D01*
X50104Y-94040D01*
X50979Y-93707D01*
X51854Y-92707D01*
G01X58229Y-84040D02*
X61229D01*
G01X59729D02*
Y-94040D01*
G01X58229D02*
X61229D01*
G01X66854D02*
Y-84040D01*
X72604Y-94040D01*
Y-84040D01*
G01X77354Y-94040D02*
Y-84040D01*
X82104D01*
G01X80354Y-88873D02*
X77354D01*
G01X89729Y-94040D02*
X88729Y-93873D01*
X87854Y-93207D01*
X87104Y-92207D01*
X86604Y-91040D01*
X86354Y-89707D01*
Y-88373D01*
X86604Y-87040D01*
X87104Y-85873D01*
X87854Y-84873D01*
X88729Y-84207D01*
X89729Y-84040D01*
X90729Y-84207D01*
X91604Y-84873D01*
X92354Y-85873D01*
X92854Y-87040D01*
X93104Y-88373D01*
Y-89707D01*
X92854Y-91040D01*
X92354Y-92207D01*
X91604Y-93207D01*
X90729Y-93873D01*
X89729Y-94040D01*
G01X102479Y-84873D02*
X101729Y-84373D01*
X100854Y-84040D01*
X99854D01*
X98729Y-84540D01*
X97854Y-85373D01*
X97229Y-86373D01*
X96729Y-88040D01*
X96604Y-89540D01*
X96854Y-91040D01*
X97229Y-92040D01*
X97979Y-93040D01*
X98854Y-93707D01*
X99729Y-94040D01*
X100604D01*
X101479Y-93707D01*
X102229Y-93207D01*
X102854Y-92540D01*
G01X107104Y-94040D02*
Y-84040D01*
G01X112354D02*
Y-94040D01*
G01Y-89040D02*
X107104D01*
G01X118229Y-84040D02*
X121229D01*
G01X119729D02*
Y-94040D01*
G01X118229D02*
X121229D01*
G01X127229D02*
Y-84040D01*
X130229D01*
X131229Y-84540D01*
X131979Y-85707D01*
X132229Y-87040D01*
X131979Y-88373D01*
X131354Y-89373D01*
X130229Y-89874D01*
X127229D01*
G01X137104Y-92707D02*
X138104Y-93540D01*
X139229Y-94040D01*
X140229D01*
X141229Y-93540D01*
X141979Y-92707D01*
X142354Y-91540D01*
X142104Y-90374D01*
X141479Y-89373D01*
X140354Y-88707D01*
X138854Y-88373D01*
X137979Y-87707D01*
X137604Y-86540D01*
X137854Y-85373D01*
X138479Y-84540D01*
X139354Y-84040D01*
X140229D01*
X141104Y-84373D01*
X141854Y-85207D01*
G01X-82850Y-75234D02*
Y-65234D01*
X-80350D01*
X-79350Y-65734D01*
X-78600Y-66401D01*
X-77975Y-67401D01*
X-77475Y-68568D01*
X-77350Y-70234D01*
X-77475Y-71901D01*
X-77975Y-73067D01*
X-78600Y-74068D01*
X-79350Y-74734D01*
X-80350Y-75234D01*
X-82850D01*
G01X-73225D02*
X-70100Y-65234D01*
X-66975Y-75234D01*
G01X-68100Y-71734D02*
X-72100D01*
G01X-60100Y-65234D02*
Y-75234D01*
G01X-62975Y-65234D02*
X-57225D01*
G01X-47600Y-75234D02*
X-52600D01*
Y-65234D01*
X-47600D01*
G01X-49600Y-70067D02*
X-52600D01*
G01X-40100Y-75567D02*
X-40350Y-75401D01*
Y-75067D01*
X-40100Y-74901D01*
X-39850Y-75067D01*
Y-75401D01*
X-40100Y-75567D01*
G01Y-71068D02*
X-40350Y-70901D01*
Y-70567D01*
X-40100Y-70401D01*
X-39850Y-70567D01*
Y-70901D01*
X-40100Y-71068D01*
G01X-20100Y-75234D02*
Y-65234D01*
X-21600Y-67234D01*
G01Y-75234D02*
X-18600D01*
G01X-10100D02*
Y-65234D01*
X-11600Y-67234D01*
G01Y-75234D02*
X-8600D01*
G01X-2350Y-75567D02*
X2150Y-65234D01*
G01X9900D02*
X8900Y-65567D01*
X8150Y-66401D01*
X7650Y-67401D01*
X7275Y-68734D01*
X7150Y-70234D01*
X7275Y-71734D01*
X7650Y-73067D01*
X8150Y-74068D01*
X8900Y-74901D01*
X9900Y-75234D01*
X10900Y-74901D01*
X11650Y-74068D01*
X12150Y-73067D01*
X12525Y-71734D01*
X12650Y-70234D01*
X12525Y-68734D01*
X12150Y-67401D01*
X11650Y-66401D01*
X10900Y-65567D01*
X9900Y-65234D01*
G01X17525Y-66901D02*
X18275Y-65901D01*
X19150Y-65401D01*
X20150Y-65234D01*
X21400Y-65567D01*
X22275Y-66401D01*
X22525Y-67401D01*
X22400Y-68401D01*
X21900Y-69234D01*
X19400Y-70901D01*
X18275Y-72067D01*
X17525Y-73734D01*
X17275Y-75234D01*
X22525D01*
G01X27650Y-75567D02*
X32150Y-65234D01*
G01X37525Y-66901D02*
X38275Y-65901D01*
X39150Y-65401D01*
X40150Y-65234D01*
X41400Y-65567D01*
X42275Y-66401D01*
X42525Y-67401D01*
X42400Y-68401D01*
X41900Y-69234D01*
X39400Y-70901D01*
X38275Y-72067D01*
X37525Y-73734D01*
X37275Y-75234D01*
X42525D01*
G01X49900Y-65234D02*
X48900Y-65567D01*
X48150Y-66401D01*
X47650Y-67401D01*
X47275Y-68734D01*
X47150Y-70234D01*
X47275Y-71734D01*
X47650Y-73067D01*
X48150Y-74068D01*
X48900Y-74901D01*
X49900Y-75234D01*
X50900Y-74901D01*
X51650Y-74068D01*
X52150Y-73067D01*
X52525Y-71734D01*
X52650Y-70234D01*
X52525Y-68734D01*
X52150Y-67401D01*
X51650Y-66401D01*
X50900Y-65567D01*
X49900Y-65234D01*
G01X59900Y-75234D02*
Y-65234D01*
X58400Y-67234D01*
G01Y-75234D02*
X61400D01*
G01X67775Y-74068D02*
X68650Y-74901D01*
X69650Y-75234D01*
X70650Y-74901D01*
X71525Y-73901D01*
X72150Y-72401D01*
X72400Y-70901D01*
Y-69067D01*
X72150Y-67567D01*
X71525Y-66234D01*
X70775Y-65567D01*
X69900Y-65234D01*
X68900Y-65567D01*
X68150Y-66234D01*
X67650Y-67234D01*
X67400Y-68568D01*
X67650Y-69734D01*
X68275Y-70901D01*
X69025Y-71568D01*
X69900Y-71734D01*
X70900Y-71401D01*
X71650Y-70567D01*
X72400Y-69067D01*
G01X59804Y-52540D02*
X63804D01*
X63429Y-51373D01*
X62804Y-50707D01*
X61929Y-50374D01*
X61054Y-50540D01*
X60304Y-51040D01*
X59804Y-52207D01*
X59554Y-53207D01*
Y-54207D01*
X59804Y-55207D01*
X60429Y-56207D01*
X61179Y-56873D01*
X62054Y-57040D01*
X62929Y-56707D01*
X63804Y-55707D01*
G01X70179Y-47040D02*
X73179D01*
G01X71679D02*
Y-57040D01*
G01X70179D02*
X73179D01*
G01X78804D02*
Y-47040D01*
X84554Y-57040D01*
Y-47040D01*
G01X89304Y-57040D02*
Y-47040D01*
X94054D01*
G01X92304Y-51873D02*
X89304D01*
G01X101679Y-57040D02*
X100679Y-56873D01*
X99804Y-56207D01*
X99054Y-55207D01*
X98554Y-54040D01*
X98304Y-52707D01*
Y-51373D01*
X98554Y-50040D01*
X99054Y-48873D01*
X99804Y-47873D01*
X100679Y-47207D01*
X101679Y-47040D01*
X102679Y-47207D01*
X103554Y-47873D01*
X104304Y-48873D01*
X104804Y-50040D01*
X105054Y-51373D01*
Y-52707D01*
X104804Y-54040D01*
X104304Y-55207D01*
X103554Y-56207D01*
X102679Y-56873D01*
X101679Y-57040D01*
G01X114429Y-47873D02*
X113679Y-47373D01*
X112804Y-47040D01*
X111804D01*
X110679Y-47540D01*
X109804Y-48373D01*
X109179Y-49373D01*
X108679Y-51040D01*
X108554Y-52540D01*
X108804Y-54040D01*
X109179Y-55040D01*
X109929Y-56040D01*
X110804Y-56707D01*
X111679Y-57040D01*
X112554D01*
X113429Y-56707D01*
X114179Y-56207D01*
X114804Y-55540D01*
G01X119054Y-57040D02*
Y-47040D01*
G01X124304D02*
Y-57040D01*
G01Y-52040D02*
X119054D01*
G01X130179Y-47040D02*
X133179D01*
G01X131679D02*
Y-57040D01*
G01X130179D02*
X133179D01*
G01X139179D02*
Y-47040D01*
X142179D01*
X143179Y-47540D01*
X143929Y-48707D01*
X144179Y-50040D01*
X143929Y-51373D01*
X143304Y-52373D01*
X142179Y-52874D01*
X139179D01*
G01X149054Y-55707D02*
X150054Y-56540D01*
X151179Y-57040D01*
X152179D01*
X153179Y-56540D01*
X153929Y-55707D01*
X154304Y-54540D01*
X154054Y-53374D01*
X153429Y-52373D01*
X152304Y-51707D01*
X150804Y-51373D01*
X149929Y-50707D01*
X149554Y-49540D01*
X149804Y-48373D01*
X150429Y-47540D01*
X151304Y-47040D01*
X152179D01*
X153054Y-47373D01*
X153804Y-48207D01*
G01X318200Y-92634D02*
Y-82634D01*
X321325D01*
X322325Y-83134D01*
X322950Y-83801D01*
X323200Y-85134D01*
X322950Y-86467D01*
X322200Y-87301D01*
X321325Y-87801D01*
X318200D01*
G01X321325D02*
X323200Y-92634D01*
G01X333200D02*
X328200D01*
Y-82634D01*
X333200D01*
G01X331200Y-87467D02*
X328200D01*
G01X337575Y-82634D02*
X340700Y-92634D01*
X343825Y-82634D01*
G01X350700Y-92967D02*
X350450Y-92801D01*
Y-92467D01*
X350700Y-92301D01*
X350950Y-92467D01*
Y-92801D01*
X350700Y-92967D01*
G01Y-88468D02*
X350450Y-88301D01*
Y-87967D01*
X350700Y-87801D01*
X350950Y-87967D01*
Y-88301D01*
X350700Y-88468D01*
G01X358325Y-84301D02*
X359075Y-83301D01*
X359950Y-82801D01*
X360950Y-82634D01*
X362200Y-82967D01*
X363075Y-83801D01*
X363325Y-84801D01*
X363200Y-85801D01*
X362700Y-86634D01*
X360200Y-88301D01*
X359075Y-89467D01*
X358325Y-91134D01*
X358075Y-92634D01*
X363325D01*
G01X370700Y-92967D02*
X370450Y-92801D01*
Y-92467D01*
X370700Y-92301D01*
X370950Y-92467D01*
Y-92801D01*
X370700Y-92967D01*
G01X380700Y-82634D02*
X379700Y-82967D01*
X378950Y-83801D01*
X378450Y-84801D01*
X378075Y-86134D01*
X377950Y-87634D01*
X378075Y-89134D01*
X378450Y-90467D01*
X378950Y-91468D01*
X379700Y-92301D01*
X380700Y-92634D01*
X381700Y-92301D01*
X382450Y-91468D01*
X382950Y-90467D01*
X383325Y-89134D01*
X383450Y-87634D01*
X383325Y-86134D01*
X382950Y-84801D01*
X382450Y-83801D01*
X381700Y-82967D01*
X380700Y-82634D01*
G54D19*
G01X0Y0D02*
Y393701D01*
X334646D01*
Y0D01*
X0D01*
M02*
