G04 ================== begin FILE IDENTIFICATION RECORD ==================*
G04 Layout Name:  EI_ARROW_IMX8M_HMI_PLATFORM_17_00666_02.brd*
G04 Film Name:    L11_GND4.gbr*
G04 File Format:  Gerber RS274X*
G04 File Origin:  Cadence Allegro 17.2-P019*
G04 Origin Date:  Mon Feb 11 12:30:39 2019*
G04 *
G04 Layer:  DRAWING FORMAT/L11*
G04 Layer:  DRAWING FORMAT/FILM_LABEL_OUTLINE*
G04 Layer:  VIA CLASS/L11_GND4*
G04 Layer:  PIN/L11_GND4*
G04 Layer:  ETCH/L11_GND4*
G04 Layer:  DRAWING FORMAT/FILM_TITLE_BLOCK*
G04 Layer:  BOARD GEOMETRY/OUTLINE*
G04 *
G04 Offset:    (0.00 0.00)*
G04 Mirror:    No*
G04 Mode:      Positive*
G04 Rotation:  0*
G04 FullContactRelief:  No*
G04 UndefLineWidth:     5.00*
G04 ================== end FILE IDENTIFICATION RECORD ====================*
%FSLAX25Y25*MOIN*%
%IR0*IPPOS*OFA0.00000B0.00000*MIA0B0*SFA1.00000B1.00000*%
%ADD11O,.103X.052*%
%ADD17C,.012*%
%ADD19C,.05*%
%ADD14C,.06*%
%ADD18C,.016*%
%ADD10C,.034*%
%ADD12C,.044*%
%ADD21C,.055*%
%ADD16C,.03937*%
%ADD15R,.03937X.03937*%
%ADD13C,.12*%
%ADD20O,.038X.042*%
%ADD22C,.01*%
%ADD23C,.02*%
%ADD24C,.04*%
%ADD25C,.025*%
%ADD26C,.004*%
%ADD27C,.005*%
%ADD47C,.02104*%
%ADD48C,.02204*%
%ADD29C,.05004*%
%ADD36C,.02404*%
%ADD30C,.06004*%
%ADD42C,.07104*%
%ADD40C,.06204*%
%ADD46C,.01804*%
%ADD34C,.07204*%
%ADD45C,.02804*%
%ADD39C,.06604*%
%ADD37C,.04804*%
%ADD32C,.07604*%
%ADD31C,.06704*%
%ADD35C,.08604*%
%ADD43C,.07904*%
%ADD44C,.09904*%
%ADD33C,.13204*%
%ADD41C,.14604*%
%ADD38C,.14704*%
%ADD28O,.05934X.06524*%
G75*
%LPD*%
G75*
G36*
G01X129770Y6368D02*
G03X129235Y7124I-801J0D01*
G02X129107Y7602I100J283D01*
G03X128446Y11763I-2107J1798D01*
G02X128435Y12268I156J256D01*
G03X125565I-1435J2132D01*
G02X125554Y11763I-167J-249D01*
G03X124893Y7602I1446J-2363D01*
G02X124765Y7124I-228J-195D01*
G03X124230Y6368I266J-756D01*
G01Y2432D01*
G03X124236Y2337I801J3D01*
G02X123938Y2001I-298J-36D01*
G01X2001D01*
Y134781D01*
G02X2523Y134982I300J-1D01*
G03X4055Y136806I891J807D01*
G02X4052Y137312I160J254D01*
G03X2520Y139141I-653J1009D01*
G02X2001Y139346I-219J205D01*
G01Y154684D01*
G02X2532Y154876I300J0D01*
G03X5147Y153650I2615J2176D01*
G01X10247D01*
G03Y160452I0J3401D01*
G01X5147D01*
G03X2532Y159226I0J-3402D01*
G02X2001Y159418I-231J192D01*
G01Y173582D01*
G02X2532Y173774I300J0D01*
G03X5147Y172548I2615J2176D01*
G01X10247D01*
G03Y179350I0J3401D01*
G01X5147D01*
G03X2532Y178124I0J-3402D01*
G02X2001Y178316I-231J192D01*
G01Y209898D01*
X39170D01*
Y289002D01*
X2001D01*
Y354905D01*
G02X2588Y354993I300J0D01*
G03Y359301I7029J2154D01*
G02X2001Y359389I-287J88D01*
G01Y391700D01*
X152009D01*
G02X152252Y391223I1J-300D01*
G03X151642Y389357I2554J-1868D01*
G01Y386601D01*
G03X154806Y383438I3164J1D01*
G01X161416D01*
Y391700D01*
X162197D01*
G02X162377Y391160I0J-300D01*
G03X163823I723J-960D01*
G02X164003Y391700I180J240D01*
G01X177598D01*
G02X177838Y391220I0J-300D01*
G03X179748Y389761I962J-720D01*
G02X180284Y389577I236J-185D01*
G01Y383438D01*
X186894D01*
G03X190058Y386601I0J3164D01*
G01Y389357D01*
G03X189448Y391223I-3164J-2D01*
G02X189691Y391700I242J177D01*
G01X259598D01*
G02X259838Y391220I0J-300D01*
G03X261762I962J-720D01*
G02X262002Y391700I240J180D01*
G01X287552D01*
G02X287831Y391290I0J-300D01*
G03X288335Y389817I1119J-440D01*
G02X288345Y389308I-153J-258D01*
G03X290100Y387815I655J-1008D01*
G02X290639Y387835I274J-121D01*
G03X292431Y389354I1061J565D01*
G02X292411Y389813I183J238D01*
G03X292663Y391260I-811J887D01*
G02X292929Y391700I266J140D01*
G01X332645D01*
Y148846D01*
X320820D01*
Y118922D01*
X321184D01*
G02X321434Y118455I0J-300D01*
G03X323222Y116882I1001J-664D01*
G02X323659Y116834I196J-227D01*
G03X325697Y117014I963J719D01*
G02X326204Y117061I268J-135D01*
G03X328161Y118455I956J729D01*
G02X328411Y118922I250J167D01*
G01X332645D01*
Y82421D01*
G02X332094Y82257I-300J0D01*
G03X327581Y82276I-2263J-1476D01*
G02X327081I-250J166D01*
G03X322581I-2250J-1495D01*
G02X322081I-250J166D01*
G03X317581I-2250J-1495D01*
G02X317081I-250J166D01*
G03X312476Y82105I-2250J-1495D01*
G02X311960Y82095I-261J148D01*
G03X307330Y80781I-2129J-1314D01*
G01Y80381D01*
G03X307815Y78900I2501J-1D01*
G02X307671Y78439I-242J-177D01*
G03X307130Y77681I261J-758D01*
G01Y73481D01*
G03X307931Y72680I801J0D01*
G01X311731D01*
G03X312532Y73481I0J801D01*
G01Y73656D01*
X312751D01*
X312795Y73605D01*
G03X317081Y73886I2036J1776D01*
G02X317581I250J-166D01*
G03X322081I2250J1495D01*
G02X322581I250J-166D01*
G03X327081I2250J1495D01*
G02X327581I250J-166D01*
G03X332094Y73905I2250J1495D01*
G02X332645Y73741I251J-164D01*
G01Y2001D01*
X130062D01*
G02X129764Y2337I0J300D01*
G03X129770Y2432I-795J98D01*
G01Y6368D01*
G37*
%LPC*%
G75*
G36*
G01X36364Y31267D02*
Y39567D01*
G02X37165Y40368I801J0D01*
G01X42365D01*
G02X43166Y39567I0J-801D01*
G01Y31267D01*
G02X42365Y30466I-801J0D01*
G01X37165D01*
G02X36364Y31267I0J801D01*
G37*
G36*
G01Y42684D02*
Y50984D01*
G02X37165Y51786I801J1D01*
G01X42365D01*
G02X43166Y50984I-1J-802D01*
G01Y42684D01*
G02X42365Y41882I-801J-1D01*
G01X37165D01*
G02X36364Y42684I1J802D01*
G37*
G36*
G01X49750D02*
Y50984D01*
G02X50551Y51786I801J1D01*
G01X55751D01*
G02X56552Y50984I-1J-802D01*
G01Y42684D01*
G02X55751Y41882I-801J-1D01*
G01X50551D01*
G02X49750Y42684I1J802D01*
G37*
G36*
G01X30701Y133198D02*
X16699D01*
X15798Y134099D01*
Y139801D01*
X16399Y140402D01*
X30701D01*
X31202Y139901D01*
Y133699D01*
X30701Y133198D01*
G37*
G36*
G01X182531Y375353D02*
G03X182841Y375001I295J-53D01*
G02X181792Y373335I59J-1201D01*
G03X181340Y373463I-277J-116D01*
G02X176643Y375873I-1730J2410D01*
G01Y376463D01*
G02X182577I2967J0D01*
G01Y375873D01*
G02X182531Y375353I-2967J0D01*
G37*
G36*
G01X179429Y369295D02*
G03X178984Y369181I-175J-244D01*
G02X178599Y370678I-1084J519D01*
G03X179044Y370792I175J244D01*
G02X179429Y369295I1084J-519D01*
G37*
G36*
G01X111857Y364938D02*
G03X111377I-240J-180D01*
G02Y366384I-960J723D01*
G03X111857I240J180D01*
G02Y364938I960J-723D01*
G37*
G36*
G01X35723Y362938D02*
G03X35243I-240J-180D01*
G02Y364384I-960J723D01*
G03X35723I240J180D01*
G02Y362938I960J-723D01*
G37*
G36*
G01X269284Y363173D02*
G03X268896Y362981I-102J-282D01*
G02X260598Y363320I-4103J1293D01*
G03X260225Y363543I-293J-66D01*
G02X260420Y365784I-325J1157D01*
G03X260826Y365938I130J270D01*
G02X266667Y368146I3967J-1664D01*
G03X267098Y368413I131J270D01*
G02X268506Y367216I1202J-13D01*
G03X268313Y366748I52J-295D01*
G02X268880Y365616I-3521J-2472D01*
G03X269271Y365428I285J93D01*
G02X269284Y363173I422J-1125D01*
G37*
G36*
G01X172803Y358216D02*
G03X172323I-240J-180D01*
G02Y359662I-960J723D01*
G03X172803I240J180D01*
G02Y358216I960J-723D01*
G37*
G36*
G01X82924Y350332D02*
G03X82502Y350066I-122J-274D01*
G02X80804Y351195I-1202J34D01*
G03X80885Y351687I-124J273D01*
G02X82924Y350332I5032J5360D01*
G37*
G36*
G01X246793Y349259D02*
G03X246404Y349222I-173J-245D01*
G02X246202Y351341I-1009J973D01*
G03X246591Y351378I173J245D01*
G02X246793Y349259I1009J-973D01*
G37*
G36*
G01X143978Y352468D02*
G03X143461Y352545I-280J-107D01*
G02X142229Y351296I-5813J4501D01*
G03X142253Y350809I187J-235D01*
G02X140398Y349798I-653J-1009D01*
G03X140002Y350082I-300J0D01*
G02X144538Y354480I-2353J6965D01*
G03X144876Y354081I281J-104D01*
G02X143978Y352468I224J-1181D01*
G37*
G36*
G01X231388Y348535D02*
G03X231176Y348518I-98J-114D01*
G02X231018Y350489I-1070J906D01*
G03X231230Y350506I98J114D01*
G02X231388Y348535I1070J-906D01*
G37*
G36*
G01X237497Y348322D02*
G03X237075I-211J-213D01*
G02Y350310I-989J994D01*
G03X237497I211J213D01*
G02Y348322I989J-994D01*
G37*
G36*
G01X219780D02*
G03X219358I-211J-213D01*
G02Y350310I-989J994D01*
G03X219780I211J213D01*
G02Y348322I989J-994D01*
G37*
G36*
G01X225199Y350370D02*
G03X225591Y350368I197J226D01*
G02X225576Y348246I909J-1067D01*
G03X225184Y348248I-197J-226D01*
G02X225199Y350370I-909J1067D01*
G37*
G36*
G01X180552Y343413D02*
G03X180158I-197J-227D01*
G02Y345227I-788J907D01*
G03X180552I197J227D01*
G02Y343413I788J-907D01*
G37*
G36*
G01X197852Y343213D02*
G03X197458I-197J-227D01*
G02Y345027I-788J907D01*
G03X197852I197J227D01*
G02Y343213I788J-907D01*
G37*
G36*
G01X191942D02*
G03X191548I-197J-227D01*
G02Y345027I-788J907D01*
G03X191942I197J227D01*
G02Y343213I788J-907D01*
G37*
G36*
G01X216744Y343080D02*
G03X216350I-197J-227D01*
G02Y344894I-788J907D01*
G03X216744I197J227D01*
G02Y343080I788J-907D01*
G37*
G36*
G01X210834D02*
G03X210440I-197J-227D01*
G02Y344894I-788J907D01*
G03X210834I197J227D01*
G02Y343080I788J-907D01*
G37*
G36*
G01X48752Y345549D02*
G03X48589Y346041I-225J198D01*
G02X51742Y347091I675J3232D01*
G03X51905Y346599I225J-198D01*
G02X48752Y345549I-675J-3232D01*
G37*
G36*
G01X19275Y346637D02*
G03X19451Y347140I-42J297D01*
G02X22226Y346215I2253J2133D01*
G03X22065Y345707I50J-295D01*
G02X19275Y346637I-2330J-2340D01*
G37*
G36*
G01X125052Y345449D02*
G03X124889Y345941I-225J198D01*
G02X128042Y346991I675J3232D01*
G03X128205Y346499I225J-198D01*
G02X125052Y345449I-675J-3232D01*
G37*
G36*
G01X98526Y346115D02*
G03X98365Y345607I50J-295D01*
G02X95575Y346537I-2330J-2340D01*
G03X95751Y347040I-42J297D01*
G02X98526Y346115I2253J2133D01*
G37*
G36*
G01X108470Y339546D02*
G03X108870I200J224D01*
G02Y337752I800J-897D01*
G03X108470I-200J-224D01*
G02Y339546I-800J897D01*
G37*
G36*
G01X31970Y338246D02*
G03X32370I200J224D01*
G02Y336452I800J-897D01*
G03X31970I-200J-224D01*
G02Y338246I-800J897D01*
G37*
G36*
G01X102665Y338186D02*
G03X103065I200J224D01*
G02Y336392I800J-897D01*
G03X102665I-200J-224D01*
G02Y338186I-800J897D01*
G37*
G36*
G01X26165D02*
G03X26565I200J224D01*
G02Y336392I800J-897D01*
G03X26165I-200J-224D01*
G02Y338186I-800J897D01*
G37*
G36*
G01X56957Y336471D02*
G03X57106Y336831I-136J267D01*
G02X58795Y336129I1144J369D01*
G03X58646Y335769I136J-267D01*
G02X56957Y336471I-1144J-369D01*
G37*
G36*
G01X180623Y334224D02*
G03X180201I-211J-213D01*
G02Y336212I-989J994D01*
G03X180623I211J213D01*
G02Y334224I989J-994D01*
G37*
G36*
G01X197978Y333575D02*
G03X197556I-211J-213D01*
G02Y335563I-989J994D01*
G03X197978I211J213D01*
G02Y333575I989J-994D01*
G37*
G36*
G01X191956Y333557D02*
G03X191534I-211J-213D01*
G02Y335545I-989J994D01*
G03X191956I211J213D01*
G02Y333557I989J-994D01*
G37*
G36*
G01X78451Y333487D02*
G03X77971I-240J-180D01*
G02Y334933I-960J723D01*
G03X78451I240J180D01*
G02Y333487I960J-723D01*
G37*
G36*
G01X64277Y333080D02*
G03X63797I-240J-180D01*
G02Y334526I-960J723D01*
G03X64277I240J180D01*
G02X66167Y334564I960J-723D01*
G03X66632I233J190D01*
G02X68522Y334526I930J-761D01*
G03X69002I240J180D01*
G02Y333080I960J-723D01*
G03X68522I-240J-180D01*
G02X66632Y333042I-960J723D01*
G03X66167I-233J-190D01*
G02X64277Y333080I-930J761D01*
G37*
G36*
G01X216870Y332942D02*
G03X216448I-211J-213D01*
G02Y334930I-989J994D01*
G03X216870I211J213D01*
G02Y332942I989J-994D01*
G37*
G36*
G01X210848Y332854D02*
G03X210426I-211J-213D01*
G02Y334842I-989J994D01*
G03X210848I211J213D01*
G02Y332854I989J-994D01*
G37*
G36*
G01X172011Y334101D02*
G03X171691Y333762I-23J-299D01*
G02X170589Y334799I-1191J-162D01*
G03X170909Y335138I23J299D01*
G02X172011Y334101I1191J162D01*
G37*
G36*
G01X118467Y329645D02*
G03X118113Y329485I-83J-288D01*
G02X117360Y331155I-1086J515D01*
G03X117714Y331315I83J288D01*
G02X118467Y329645I1086J-515D01*
G37*
G36*
G01X248344Y328267D02*
G03X247950I-197J-227D01*
G02Y330081I-788J907D01*
G03X248344I197J227D01*
G02Y328267I788J-907D01*
G37*
G36*
G01X242434D02*
G03X242040I-197J-227D01*
G02Y330081I-788J907D01*
G03X242434I197J227D01*
G02Y328267I788J-907D01*
G37*
G36*
G01X229321D02*
G03X228927I-197J-227D01*
G02Y330081I-788J907D01*
G03X229321I197J227D01*
G02Y328267I788J-907D01*
G37*
G36*
G01X223411D02*
G03X223017I-197J-227D01*
G02Y330081I-788J907D01*
G03X223411I197J227D01*
G02Y328267I788J-907D01*
G37*
G36*
G01X212144Y326046D02*
G03X211750I-197J-227D01*
G02Y327860I-788J907D01*
G03X212144I197J227D01*
G02Y326046I788J-907D01*
G37*
G36*
G01X187034D02*
G03X186640I-197J-227D01*
G02Y327860I-788J907D01*
G03X187034I197J227D01*
G02Y326046I788J-907D01*
G37*
G36*
G01X175460D02*
G03X175066I-197J-227D01*
G02Y327860I-788J907D01*
G03X175460I197J227D01*
G02Y326046I788J-907D01*
G37*
G36*
G01X169550D02*
G03X169156I-197J-227D01*
G02Y327860I-788J907D01*
G03X169550I197J227D01*
G02Y326046I788J-907D01*
G37*
G36*
G01X145221Y327917D02*
G03X145220Y327478I204J-220D01*
G02X143583Y327483I-821J-878D01*
G03X143584Y327922I-204J220D01*
G02X145221Y327917I821J878D01*
G37*
G36*
G01X102665Y327391D02*
G03X103065I200J224D01*
G02Y325597I800J-897D01*
G03X102665I-200J-224D01*
G02Y327391I-800J897D01*
G37*
G36*
G01X32070D02*
G03X32470I200J224D01*
G02Y325597I800J-897D01*
G03X32070I-200J-224D01*
G02Y327391I-800J897D01*
G37*
G36*
G01X26165D02*
G03X26565I200J224D01*
G02Y325597I800J-897D01*
G03X26165I-200J-224D01*
G02Y327391I-800J897D01*
G37*
G36*
G01X250015Y317576D02*
G03X249593I-211J-213D01*
G02Y319564I-989J994D01*
G03X250015I211J213D01*
G02Y317576I989J-994D01*
G37*
G36*
G01X240566D02*
G03X240144I-211J-213D01*
G02Y319564I-989J994D01*
G03X240566I211J213D01*
G02Y317576I989J-994D01*
G37*
G36*
G01X231117D02*
G03X230695I-211J-213D01*
G02Y319564I-989J994D01*
G03X231117I211J213D01*
G02Y317576I989J-994D01*
G37*
G36*
G01X221668D02*
G03X221246I-211J-213D01*
G02Y319564I-989J994D01*
G03X221668I211J213D01*
G02Y317576I989J-994D01*
G37*
G36*
G01X212219Y317201D02*
G03X211797I-211J-213D01*
G02Y319189I-989J994D01*
G03X212219I211J213D01*
G02Y317201I989J-994D01*
G37*
G36*
G01X187023Y316376D02*
G03X186601I-211J-213D01*
G02Y318364I-989J994D01*
G03X187023I211J213D01*
G02Y316376I989J-994D01*
G37*
G36*
G01X177574Y315576D02*
G03X177152I-211J-213D01*
G02Y317564I-989J994D01*
G03X177574I211J213D01*
G02Y315576I989J-994D01*
G37*
G36*
G01X37609Y317377D02*
G03Y316897I180J-240D01*
G02X36163I-723J-960D01*
G03Y317377I-180J240D01*
G02X37609I723J960D01*
G37*
G36*
G01X152866Y308029D02*
G03X152656Y308431I-279J110D01*
G02X154052Y309159I278J1169D01*
G03X154262Y308757I279J-110D01*
G02X152866Y308029I-278J-1169D01*
G37*
G36*
G01X241944Y305791D02*
G03X241938Y305597I111J-101D01*
G02X240111Y305654I-938J-752D01*
G03X240117Y305848I-111J101D01*
G02X241944Y305791I938J752D01*
G37*
G36*
G01X248696Y304797D02*
G03X249096I200J224D01*
G02Y303003I800J-897D01*
G03X248696I-200J-224D01*
G02Y304797I-800J897D01*
G37*
G36*
G01X126206Y301359D02*
G03X125867Y301622I-298J-34D01*
G02X126895Y302953I-166J1190D01*
G03X127234Y302690I298J34D01*
G02X127408Y302702I169J-1190D01*
G03X127708Y302964I2J300D01*
G02X128892Y301610I1192J-152D01*
G03X128592Y301348I-2J-300D01*
G02X126206Y301359I-1192J152D01*
G37*
G36*
G01X46762Y302390D02*
G03Y301910I180J-240D01*
G02X45316I-723J-960D01*
G03Y302390I-180J240D01*
G02X46762I723J960D01*
G37*
G36*
G01X210802Y300465D02*
G03X211163Y300167I300J-4D01*
G02X210205Y299010I244J-1177D01*
G03X209844Y299308I-300J4D01*
G02X208398Y300498I-244J1177D01*
G03X208079Y300801I-300J4D01*
G02X209202Y301987I-79J1199D01*
G03X209521Y301684I300J-4D01*
G02X210802Y300465I79J-1199D01*
G37*
G36*
G01X266238Y296626D02*
G03X266197Y296203I190J-232D01*
G02X264499I-849J-703D01*
G03X264458Y296626I-231J191D01*
G02X266238I890J1083D01*
G37*
G36*
G01X127466Y296202D02*
G03Y295998I110J-102D01*
G02X125700I-883J-815D01*
G03Y296202I-110J102D01*
G02X127466I883J815D01*
G37*
G36*
G01X150346Y296108D02*
G03X150493Y295682I261J-148D01*
G02X148991Y295162I-456J-1112D01*
G03X148844Y295588I-261J148D01*
G02X150346Y296108I456J1112D01*
G37*
G36*
G01X139413Y295739D02*
G03X139802Y295534I290J78D01*
G02X139040Y294086I398J-1134D01*
G03X138651Y294291I-290J-78D01*
G02X139413Y295739I-398J1134D01*
G37*
G36*
G01X213316Y295034D02*
G03X213259Y294608I179J-241D01*
G02X211871Y294643I-709J-558D01*
G03X211836Y295072I-226J197D01*
G02X212438Y297191I764J928D01*
G03X212698Y297490I-40J297D01*
G02X214062Y296304I1202J5D01*
G03X213802Y296005I40J-297D01*
G02X213316Y295034I-1202J-5D01*
G37*
G36*
G01X71447Y274726D02*
G03X71579Y274289I253J-162D01*
G02X70085Y273835I-481J-1101D01*
G03X69953Y274272I-253J162D01*
G02X69870Y276434I481J1101D01*
G03X69983Y276859I-141J265D01*
G02X70143Y278343I1017J641D01*
G03X70123Y278783I-213J211D01*
G02X71757Y278857I777J917D01*
G03X71777Y278417I213J-211D01*
G02X71564Y276439I-777J-917D01*
G03X71451Y276014I141J-265D01*
G02X71447Y274726I-1017J-641D01*
G37*
G36*
G01X170230Y269502D02*
G03X169791Y269379I-167J-249D01*
G02X169370Y270882I-1091J505D01*
G03X169809Y271005I167J249D01*
G02X170230Y269502I1091J-505D01*
G37*
G36*
G01X198048Y270350D02*
G03Y269950I224J-200D01*
G02X196254I-897J-800D01*
G03Y270350I-224J200D01*
G02X198048I897J800D01*
G37*
G36*
G01X127807Y270041D02*
G03X127815Y269571I190J-232D01*
G02X126319Y269544I-731J-954D01*
G03X126311Y270014I-190J232D01*
G02X127807Y270041I731J954D01*
G37*
G36*
G01X111553Y268666D02*
G03X111333Y268273I63J-293D01*
G02X109947Y269047I-1133J-401D01*
G03X110167Y269440I-63J293D01*
G02X110163Y270231I1133J401D01*
G03X109929Y270624I-284J97D01*
G02X111266Y271419I200J1185D01*
G03X111500Y271026I284J-97D01*
G02X111553Y268666I-200J-1185D01*
G37*
G36*
G01X199852Y262725D02*
G03X199413Y262680I-199J-225D01*
G02Y264120I-963J720D01*
G03X199852Y264075I240J180D01*
G02Y262725I598J-675D01*
G37*
G36*
G01X137951Y254752D02*
G03X137601Y254445I-50J-296D01*
G02X136601Y255585I-1201J-45D01*
G03X136951Y255892I50J296D01*
G02X139342Y256107I1201J45D01*
G03X139703Y255857I297J43D01*
G02X138771Y254513I258J-1174D01*
G03X138410Y254763I-297J-43D01*
G02X137951Y254752I-258J1174D01*
G37*
G36*
G01X113515Y254391D02*
G03X113511Y254791I-226J198D01*
G02X115305Y254809I889J809D01*
G03X115309Y254409I226J-198D01*
G02X115193Y252680I-889J-809D01*
G03Y252220I193J-230D01*
G02X115238Y250420I-773J-920D01*
G03Y249980I205J-220D01*
G02X113602I-818J-880D01*
G03Y250420I-205J220D01*
G02X113647Y252220I818J880D01*
G03Y252680I-193J230D01*
G02X113515Y254391I773J920D01*
G37*
G36*
G01X159324Y239425D02*
G03X159679Y239241I280J107D01*
G02X158855Y237652I300J-1164D01*
G03X158500Y237836I-280J-107D01*
G02X159324Y239425I-300J1164D01*
G37*
G36*
G01X143746Y230569D02*
G03X143266Y230565I-238J-182D01*
G02X141482Y232160I-967J714D01*
G03Y232600I-205J220D01*
G02Y234360I818J880D01*
G03Y234800I-205J220D01*
G02X143220Y236453I818J880D01*
G03X143680I230J193D01*
G02X145465Y234846I920J-773D01*
G03X145485Y234410I216J-209D01*
G02X145518Y232620I-785J-910D01*
G03Y232180I205J-220D01*
G02X143746Y230569I-817J-881D01*
G37*
G36*
G01X193670Y229110D02*
G03X193278Y229078I-178J-242D01*
G02X193128Y230888I-860J840D01*
G03X193520Y230920I178J242D01*
G02X193670Y229110I860J-840D01*
G37*
G36*
G01X266116Y226714D02*
G03Y226286I211J-214D01*
G02X264572I-772J-786D01*
G03Y226714I-211J214D01*
G02X266116I772J786D01*
G37*
G36*
G01X93164Y219507D02*
G03X93623Y219417I266J139D01*
G02X93336Y217940I777J-917D01*
G03X92877Y218030I-266J-139D01*
G02X93164Y219507I-777J917D01*
G37*
G36*
G01X211302Y213998D02*
G02X212498Y215302I-2J1202D01*
G02X213701Y214146I2J-1202D01*
G03X213833Y214002I150J5D01*
G02X214715Y213437I-143J-1193D01*
G03X215176Y213375I256J157D01*
G02X214975Y211872I824J-875D01*
G03X214514Y211934I-256J-157D01*
G02X212489Y212763I-824J875D01*
G03X212357Y212907I-150J-5D01*
G02X211302Y213998I143J1193D01*
G37*
G36*
G01X172000Y205203D02*
G03X171800I-100J-112D01*
G02Y206997I-800J897D01*
G03X172000I100J112D01*
G02Y205203I800J-897D01*
G37*
G36*
G01X187858Y201458D02*
G03X187846Y201897I-210J214D01*
G02X189481Y201942I793J903D01*
G03X189493Y201503I210J-214D01*
G02X187858Y201458I-793J-903D01*
G37*
G36*
G01X76388Y198350D02*
G03X76842Y198290I252J162D01*
G02X76639Y196750I808J-890D01*
G03X76185Y196810I-252J-162D01*
G02X76388Y198350I-808J890D01*
G37*
G36*
G01X101890Y198237D02*
G03X101787Y197809I147J-262D01*
G02X100196Y198191I-1001J-665D01*
G03X100299Y198619I-147J262D01*
G02X101890Y198237I1001J665D01*
G37*
G36*
G01X166600Y188503D02*
G03X166400I-100J-112D01*
G02Y190297I-800J897D01*
G03X166600I100J112D01*
G02Y188503I800J-897D01*
G37*
G36*
G01X48122Y188637D02*
G03X48229Y189081I-136J268D01*
G02X49744Y188717I971J708D01*
G03X49637Y188273I136J-268D01*
G02X48122Y188637I-971J-708D01*
G37*
G36*
G01X199164Y171939D02*
G03X199441Y171599I297J-41D01*
G02X198170Y170563I-80J-1199D01*
G03X197893Y170903I-297J41D01*
G02X199164Y171939I80J1199D01*
G37*
G36*
G01X50764Y168628D02*
G03Y168235I226J-196D01*
G02X48948I-908J-788D01*
G03Y168628I-226J196D01*
G02X50764I908J788D01*
G37*
G36*
G01X59797Y159748D02*
G03X59403I-197J-227D01*
G02Y161564I-787J908D01*
G03X59797I197J227D01*
G02Y159748I787J-908D01*
G37*
G36*
G01X268212Y159233D02*
G03X268037Y159144I-36J-146D01*
G02X265970Y158870I-1112J456D01*
G02X266305Y160630I-620J1030D01*
G02X267213Y160767I620J-1030D01*
G03X267388Y160856I36J146D01*
G02X268212Y159233I1112J-456D01*
G37*
G36*
G01X260818Y166083D02*
Y161883D01*
G02X260412Y161186I-801J0D01*
G03X260316Y160751I148J-261D01*
G02X260818Y159183I-2200J-1569D01*
G01Y158783D01*
G02X255866Y157288I-2702J0D01*
G03X255366I-250J-166D01*
G02X250866I-2250J1495D01*
G03X250366I-250J-166D01*
G02X245866I-2250J1495D01*
G03X245366I-250J-166D01*
G02X240866I-2250J1495D01*
G03X240366I-250J-166D01*
G02X235414Y158783I-2250J1495D01*
G01Y159183D01*
G02X236380Y161253I2701J0D01*
G03Y161713I-192J230D01*
G02X235414Y163783I1735J2070D01*
G01Y164183D01*
G02X240366Y165678I2702J0D01*
G03X240866I250J166D01*
G02X245471Y165507I2250J-1495D01*
G03X245987Y165497I261J148D01*
G02X250348Y165312I2129J-1314D01*
G03X250884I268J135D01*
G02X255143Y165649I2232J-1129D01*
G01X255188Y165587D01*
X255414D01*
Y166083D01*
G02X256216Y166884I802J-1D01*
G01X260016D01*
G02X260818Y166083I1J-801D01*
G37*
G36*
G01X110372Y148956D02*
G03X110394Y149415I-182J239D01*
G02X111938Y149342I815J883D01*
G03X111916Y148883I182J-239D01*
G02X110372Y148956I-815J-883D01*
G37*
G36*
G01X55332Y131308D02*
G03X55076Y130948I38J-298D01*
G02X53748Y131892I-1176J-248D01*
G03X54004Y132252I-38J298D01*
G02X54362Y133380I1176J248D01*
G03Y133820I-205J220D01*
G02X55998I818J880D01*
G03Y133380I205J-220D01*
G02X55332Y131308I-818J-880D01*
G37*
G36*
G01X255874Y124628D02*
G03X255484Y124394I-94J-285D01*
G02X254677Y125741I-1184J206D01*
G03X255067Y125975I94J285D01*
G02X255874Y124628I1184J-206D01*
G37*
G36*
G01X79820Y122282D02*
G03X79380I-220J-205D01*
G02Y123918I-880J818D01*
G03X79820I220J205D01*
G02X81386Y124087I880J-818D01*
G03X81821Y124191I171J247D01*
G02X82193Y122634I1058J-570D01*
G03X81758Y122530I-171J-247D01*
G02X79820Y122282I-1058J570D01*
G37*
G36*
G01X73700Y119903D02*
G03X73490Y119892I-99J-112D01*
G02X73400Y121597I-890J808D01*
G03X73610Y121608I99J112D01*
G02X73700Y119903I890J-808D01*
G37*
G36*
G01X63956Y119613D02*
G03X63527Y119520I-171J-246D01*
G02X63180Y121120I-1034J613D01*
G03X63609Y121213I171J246D01*
G02X63956Y119613I1034J-613D01*
G37*
G36*
G01X234398Y112260D02*
G03X234005Y112009I-95J-284D01*
G02X233191Y113281I-1195J132D01*
G03X233584Y113532I95J284D01*
G02X235920Y113779I1195J-132D01*
G03X236363Y113619I285J95D01*
G02X235859Y112221I637J-1019D01*
G03X235416Y112381I-285J-95D01*
G02X234398Y112260I-637J1019D01*
G37*
G36*
G01X245809Y113485D02*
G03X246202Y113248I296J47D01*
G02X245402Y111925I388J-1138D01*
G03X245009Y112162I-296J-47D01*
G02X244213Y112169I-388J1138D01*
G03X243820Y111959I-102J-282D01*
G02X241637Y111605I-1167J288D01*
G03X241205Y111686I-254J-160D01*
G02X241506Y113295I-715J966D01*
G03X241938Y113214I254J160D01*
G02X243061Y113378I715J-967D01*
G03X243454Y113588I102J282D01*
G02X245809Y113485I1167J-288D01*
G37*
G36*
G01X252158Y110473D02*
G03X252278Y110898I-136J268D01*
G02X253842Y110457I1022J632D01*
G03X253722Y110032I136J-268D01*
G02X252158Y110473I-1022J-632D01*
G37*
G36*
G01X230054Y108333D02*
G03X229661I-196J-226D01*
G02Y110149I-788J908D01*
G03X230054I196J226D01*
G02Y108333I788J-908D01*
G37*
G36*
G01X257092Y97902D02*
G03X257181Y97452I234J-188D01*
G02X255661Y97151I-581J-1052D01*
G03X255572Y97601I-234J188D01*
G02X255991Y99844I581J1052D01*
G03X256242Y100211I-41J297D01*
G02X257574Y99297I1170J277D01*
G03X257323Y98930I41J-297D01*
G02X257092Y97902I-1170J-277D01*
G37*
G36*
G01X227067Y95897D02*
G03Y95503I227J-197D01*
G02X225251I-908J-787D01*
G03Y95897I-227J197D01*
G02Y97472I908J787D01*
G03Y97865I-226J196D01*
G02Y99440I908J787D01*
G03Y99834I-227J197D01*
G02Y101409I908J788D01*
G03Y101802I-226J196D01*
G02Y103377I908J788D01*
G03Y103771I-227J197D01*
G02X227067I908J787D01*
G03Y103377I227J-197D01*
G02Y101802I-908J-788D01*
G03Y101409I226J-196D01*
G02Y99834I-908J-788D01*
G03Y99440I227J-197D01*
G02Y97865I-908J-787D01*
G03Y97472I226J-197D01*
G02Y95897I-908J-787D01*
G37*
G36*
G01X184976Y90975D02*
G03X184577Y90755I-105J-281D01*
G02X183824Y92125I-1177J245D01*
G03X184223Y92345I105J281D01*
G02X184976Y90975I1177J-245D01*
G37*
G36*
G01X236186Y78236D02*
G03X235776Y78150I-161J-253D01*
G02X233781Y78151I-997J671D01*
G03X233371Y78236I-249J-168D01*
G02X231925Y78353I-646J1014D01*
G03X231725I-100J-112D01*
G02Y80147I-800J897D01*
G03X231925I100J112D01*
G02X233723Y79920I800J-897D01*
G03X234133Y79835I249J168D01*
G02X235424I645J-1014D01*
G03X235834Y79921I161J253D01*
G02X237631Y80147I997J-671D01*
G03X237831I100J112D01*
G02X239486Y80095I800J-897D01*
G03X239913I213J211D01*
G02X241568Y80147I855J-845D01*
G03X241768I100J112D01*
G02Y78353I800J-897D01*
G03X241568I-100J-112D01*
G02X239913Y78405I-800J897D01*
G03X239486I-213J-211D01*
G02X237831Y78353I-855J845D01*
G03X237631I-100J-112D01*
G02X236186Y78236I-800J897D01*
G37*
G36*
G01X247673Y77153D02*
G03X247474I-99J-112D01*
G02Y78947I-800J897D01*
G03X247673I100J112D01*
G02Y77153I800J-897D01*
G37*
G36*
G01X159040Y65277D02*
G03X158560I-240J-180D01*
G02Y66723I-960J723D01*
G03X159040I240J180D01*
G02Y65277I960J-723D01*
G37*
G36*
G01X130902Y85202D02*
Y44768D01*
X131001Y44733D01*
G02X129498Y44079I-401J-1133D01*
G03X129222Y44498I-275J119D01*
G01X101998D01*
Y85202D01*
X130902D01*
G37*
G36*
G01X171808Y42094D02*
G03X171364I-222J-201D01*
G02Y43706I-892J806D01*
G03X171808I222J201D01*
G02Y42094I892J-806D01*
G37*
G36*
G01X307298Y27408D02*
G02Y25592I787J-908D01*
G02Y27408I-788J908D01*
G37*
G36*
G01X220589Y366583D02*
G02X219650Y365750I211J-1183D01*
G03X219311Y366133I-287J87D01*
G02X220250Y366966I-211J1183D01*
G03X220589Y366583I287J-87D01*
G37*
G36*
G01X204595Y360666D02*
G02X203522Y361996I-1195J134D01*
G03X203823Y362423I30J298D01*
G02X211593Y362429I3884J1851D01*
G03X211749Y362023I271J-129D01*
G02X210208Y360382I-463J-1109D01*
G03X209794Y360512I-269J-133D01*
G02X205076Y360870I-2087J3762D01*
G03X204595Y360666I-183J-237D01*
G37*
G36*
G01X258049Y333422D02*
G02X258209Y331897I3172J-438D01*
G03X257662Y331936I-282J-102D01*
G02X257522Y333271I-1062J563D01*
G03X258049Y333422I230J193D01*
G37*
G36*
G01X291230Y330854D02*
G02X290063Y331406I-1017J-641D01*
G03X290279Y331863I-38J297D01*
G02X291446Y331311I1017J641D01*
G03X291230Y330854I38J-297D01*
G37*
G36*
G01X149980Y328280D02*
G02Y329334I-1080J527D01*
G03X150520I270J131D01*
G02Y328280I1080J-527D01*
G03X149980I-270J-131D01*
G37*
G36*
G01X108555Y325382D02*
G02Y326818I-964J718D01*
G03X109036I240J179D01*
G02Y325382I964J-718D01*
G03X108555I-240J-179D01*
G37*
G36*
G01X86349Y326064D02*
G02X85842Y327006I-1201J-39D01*
G03X86315Y327260I173J245D01*
G02X86822Y326318I1201J39D01*
G03X86349Y326064I-173J-245D01*
G37*
G36*
G01X287259Y326426D02*
G02X286785Y325259I712J-969D01*
G03X286312Y325451I-296J-50D01*
G02X286786Y326618I-712J969D01*
G03X287259Y326426I296J50D01*
G37*
G36*
G01X172248Y315215D02*
G02X170956Y314956I-448J-1115D01*
G03X170857Y315448I-211J214D01*
G02X170334Y315854I447J1116D01*
G03X169920Y315923I-242J-177D01*
G02X168125Y316076I-806J1147D01*
G03X167703I-211J-213D01*
G02Y318064I-989J994D01*
G03X168125I211J213D01*
G02X170342Y317747I989J-994D01*
G03X170744Y317626I263J145D01*
G02X172149Y315707I561J-1063D01*
G03X172248Y315215I211J-214D01*
G37*
G36*
G01X99537Y303262D02*
G02X98902Y302098I563J-1062D01*
G03X98463Y302338I-299J-25D01*
G02X99098Y303502I-563J1062D01*
G03X99537Y303262I299J25D01*
G37*
G36*
G01X185653Y299360D02*
G02X184713Y298375I247J-1176D01*
G03X184355Y298716I-296J47D01*
G02X185295Y299701I-247J1176D01*
G03X185653Y299360I296J-47D01*
G37*
G36*
G01X244545Y295778D02*
G02X244538Y294803I755J-493D01*
G03X244033Y294807I-254J-160D01*
G02X244040Y295782I-755J493D01*
G03X244545Y295778I254J160D01*
G37*
G36*
G01X144140Y295772D02*
G02X143044Y295082I-9J-1202D01*
G03X142775Y295510I-271J128D01*
G02X143871Y296200I9J1202D01*
G03X144140Y295772I271J-128D01*
G37*
G36*
G01X128004Y285282D02*
G02X126884Y285204I-486J-1099D01*
G03X126847Y285734I-158J255D01*
G02X127967Y285812I486J1099D01*
G03X128004Y285282I158J-255D01*
G37*
G36*
G01X183285Y273751D02*
G02X182174Y273151I-69J-1200D01*
G03X181931Y273600I-260J150D01*
G02X180849Y275147I69J1200D01*
G03X180772Y275325I-143J44D01*
G02X180107Y276552I528J1080D01*
G03X179985Y276717I-149J18D01*
G02X181393Y277753I215J1183D01*
G03X181515Y277588I149J-18D01*
G02X182451Y276058I-215J-1183D01*
G03X182528Y275880I143J-44D01*
G02X183042Y274200I-528J-1080D01*
G03X183285Y273751I260J-150D01*
G37*
G36*
G01X138148Y261511D02*
G02X135912Y262285I-1048J589D01*
G03X135544Y262623I-296J47D01*
G02X136445Y263605I-287J1167D01*
G03X136813Y263267I296J-47D01*
G02X138040Y262849I287J-1167D01*
G03X138536Y262889I235J187D01*
G02X138644Y261551I1048J-589D01*
G03X138148Y261511I-235J-187D01*
G37*
G36*
G01X144591Y253460D02*
G02Y254774I-1007J657D01*
G03X145093I251J164D01*
G02Y253460I1007J-657D01*
G03X144591I-251J-164D01*
G37*
G36*
G01X272962Y247978D02*
G02X272952Y246838I938J-578D01*
G03X272438Y246842I-258J-153D01*
G02X272448Y247982I-938J578D01*
G03X272962Y247978I258J153D01*
G37*
G36*
G01X195994Y245189D02*
G02X194006I-994J-989D01*
G03Y245611I-213J211D01*
G02X195896Y247679I994J989D01*
G03X196369Y247808I191J231D01*
G02X196603Y248200I1130J-409D01*
G03Y248600I-224J200D01*
G02X198397I897J800D01*
G03Y248200I224J-200D01*
G02X196816Y246412I-897J-800D01*
G03X196355Y246242I-171J-247D01*
G02X195994Y245611I-1356J357D01*
G03Y245189I213J-211D01*
G37*
G36*
G01X300533Y242660D02*
G02X300524Y243924I-907J626D01*
G03X301016Y243928I245J174D01*
G02X301025Y242664I907J-626D01*
G03X300533Y242660I-245J-174D01*
G37*
G36*
G01X201221Y241043D02*
G02X200081I-570J-943D01*
G03Y241557I-155J257D01*
G02X201221I570J943D01*
G03Y241043I155J-257D01*
G37*
G36*
G01X139318Y204283D02*
G02X137074Y203719I-1202J35D01*
G03X136631Y203807I-260J-150D01*
G02X136942Y205360I-731J954D01*
G03X137385Y205272I260J150D01*
G02X138502Y205456I731J-954D01*
G03X138898Y205732I96J284D01*
G02X141256Y206026I1202J-35D01*
G03X141649Y205826I289J81D01*
G02X140913Y204371I420J-1126D01*
G03X140520Y204571I-289J-81D01*
G02X139714Y204559I-420J1126D01*
G03X139318Y204283I-96J-284D01*
G37*
G36*
G01X100156Y202069D02*
G02X99685Y203388I-1156J331D01*
G03X100144Y203552I171J246D01*
G02X100615Y202233I1156J-331D01*
G03X100156Y202069I-171J-246D01*
G37*
G36*
G01X133719Y189930D02*
G02X132397Y189875I-619J-1030D01*
G03X132377Y190376I-175J244D01*
G02X131812Y191611I619J1030D01*
G03X131433Y191950I-296J51D01*
G02X132284Y192900I-333J1155D01*
G03X132663Y192561I296J-51D01*
G02X133699Y190431I333J-1155D01*
G03X133719Y189930I175J-244D01*
G37*
G36*
G01X140094Y165882D02*
G02X138706I-694J-982D01*
G03Y166371I-173J245D01*
G02X140094I694J982D01*
G03Y165882I173J-244D01*
G37*
G36*
G01X93880Y148973D02*
G02Y150027I-1080J527D01*
G03X94420I270J131D01*
G02X96580I1080J-527D01*
G03X97120I270J131D01*
G02Y148973I1080J-527D01*
G03X96580I-270J-131D01*
G02X94420I-1080J527D01*
G03X93880I-270J-131D01*
G37*
G36*
G01X105103Y148095D02*
G02X103688Y148002I-644J-1015D01*
G03X103656Y148485I-193J230D01*
G02X105071Y148578I644J1015D01*
G03X105103Y148095I193J-230D01*
G37*
G36*
G01X71858Y147513D02*
G02X71308Y146608I647J-1013D01*
G03X70847Y146887I-299J27D01*
G02X71397Y147792I-647J1013D01*
G03X71858Y147513I299J-27D01*
G37*
G36*
G01X133878Y128440D02*
G02X132643Y129401I-1178J-240D01*
G03X132922Y129760I-15J299D01*
G02X133573Y131080I1178J240D01*
G03Y131620I-131J270D01*
G02X134627I527J1080D01*
G03Y131080I131J-270D01*
G02X134157Y128799I-527J-1080D01*
G03X133878Y128440I15J-299D01*
G37*
G36*
G01X240135Y127211D02*
G02X239768Y125880I765J-927D01*
G03X239277Y125994I-282J-101D01*
G02X239654Y127364I-977J1006D01*
G03X240135Y127211I290J78D01*
G37*
G36*
G01X138478Y97016D02*
G02X137402Y97265I-779J-916D01*
G03X137522Y97784I-74J291D01*
G02X138598Y97535I779J916D01*
G03X138478Y97016I74J-291D01*
G37*
G36*
G01X87502Y90397D02*
G02X87019Y91363I-1202J3D01*
G03X87498Y91603I179J241D01*
G02X87981Y90637I1202J-3D01*
G03X87502Y90397I-179J-241D01*
G37*
G36*
G01X199344Y71309D02*
G02X198141Y71099I-444J-1009D01*
G03X198056Y71591I-206J218D01*
G02X199259Y71801I444J1009D01*
G03X199344Y71309I206J-218D01*
G37*
G36*
G01X218897Y63271D02*
G02X217623Y63770I-997J-671D01*
G03X217803Y64229I-69J292D01*
G02X219077Y63730I997J671D01*
G03X218897Y63271I69J-292D01*
G37*
G36*
G01X288483Y41079D02*
G02X286721Y40958I-384J-7292D01*
G03X286831Y41501I-57J294D01*
G02X288300Y41602I669J999D01*
G03X288483Y41079I199J-224D01*
G37*
G36*
G01X105801Y19798D02*
X93699D01*
X91998Y21499D01*
Y25099D01*
X87299Y29798D01*
X84099D01*
X83298Y30599D01*
Y35601D01*
X84299Y36602D01*
X87899D01*
X88398Y37101D01*
Y38301D01*
X90999Y40902D01*
X107601D01*
X112001Y36502D01*
X119499D01*
X121199Y38202D01*
X128701D01*
X130801Y36102D01*
X135999D01*
X146198Y46301D01*
Y53499D01*
X142398Y57299D01*
Y61001D01*
X142999Y61602D01*
X145301D01*
X147030Y59872D01*
G03X147542Y60077I212J212D01*
G02X148770Y58849I1202J-26D01*
G03X148565Y58337I7J-300D01*
G01X149802Y57101D01*
Y33399D01*
X145802Y29399D01*
Y24899D01*
X143501Y22598D01*
X128099D01*
X126799Y23898D01*
X121499D01*
X119997Y25401D01*
G03X119492Y25255I-212J-212D01*
G02X118314Y26722I-1172J265D01*
G01X118376D01*
X118526Y26872D01*
X118299Y27098D01*
X110201D01*
X107702Y24599D01*
Y21699D01*
X105801Y19798D01*
G37*
G54D47*
X288849Y284231D03*
X285700Y286790D03*
X295717Y253523D03*
X289568D03*
X264829Y270457D03*
G54D48*
X252033Y239749D03*
X249474Y244866D03*
X267431Y244867D03*
X314172Y253523D03*
X286418Y268877D03*
X311023Y266318D03*
X259711Y270456D03*
X295867Y268877D03*
Y240627D03*
X257151Y229512D03*
X259710Y229511D03*
X295867Y235609D03*
X289567Y238168D03*
X267977Y237413D03*
X289568Y268877D03*
X264829Y239749D03*
X286418Y245845D03*
X317322Y268877D03*
X259710Y262779D03*
X271900Y277000D03*
X314172Y268877D03*
X269888Y285811D03*
X289568Y273995D03*
X289567Y243286D03*
X254592Y232071D03*
X295967Y245845D03*
X285700Y284231D03*
X264829Y288370D03*
X297070Y231000D03*
X264829Y252544D03*
X289568Y250963D03*
X295867Y256082D03*
X262270Y255103D03*
X307873Y250964D03*
X295893Y276555D03*
X254593Y290929D03*
X267641Y234489D03*
X285976Y240727D03*
X292126Y243286D03*
X295893Y286791D03*
X259710Y293489D03*
X311023Y256082D03*
X299017D03*
X269900Y257000D03*
X298893Y279114D03*
X254592Y293489D03*
Y229511D03*
X271247Y234529D03*
X285976Y235609D03*
X267483Y280733D03*
X286046Y276554D03*
X262270Y249985D03*
X292717Y253523D03*
Y271436D03*
X264829Y273015D03*
X272600Y280700D03*
X289202Y276559D03*
X257151Y293489D03*
X295893Y284232D03*
X271400Y241500D03*
X289577Y245845D03*
X291999Y279113D03*
X264829Y255103D03*
X203000Y263300D03*
X295867Y266318D03*
X264829Y267897D03*
X208563Y293888D03*
X254592Y265338D03*
Y262779D03*
Y257662D03*
X257151Y267897D03*
X262270D03*
X259710D03*
Y275574D03*
X259712Y273016D03*
X262271Y280692D03*
X259711D03*
Y242308D03*
X304600Y245846D03*
X300700D03*
X289570Y248405D03*
X314173Y258641D03*
X304400Y253535D03*
X289567Y256082D03*
X283268Y250964D03*
X314173Y263759D03*
X304723Y268877D03*
X283268D03*
X289567Y266318D03*
X308573Y276554D03*
X304723Y281672D03*
X299900Y273995D03*
X292717D03*
X288849Y286790D03*
X321400Y241500D03*
X320472Y256082D03*
Y250964D03*
Y266318D03*
X320493Y279103D03*
X320472Y271436D03*
X320750Y263000D03*
X320700Y259300D03*
X262271Y242308D03*
X259710Y234630D03*
X257150D03*
X259710Y288370D03*
X257150D03*
X314173Y235610D03*
X293400Y230500D03*
X298771Y235614D03*
X289567Y235610D03*
X307873Y243287D03*
X283070Y240728D03*
X301517Y279113D03*
X314373Y286790D03*
X305023D03*
X307873D03*
X294270Y290500D03*
X300400Y283500D03*
X259711Y252544D03*
X264829Y249985D03*
X262270Y257662D03*
X259711Y255103D03*
X299735Y252974D03*
X301300Y268757D03*
X283268Y256082D03*
Y266318D03*
Y281672D03*
X314173Y245846D03*
Y276554D03*
X308173Y235610D03*
X208580Y290879D03*
X223885Y283251D03*
X244356Y278133D03*
X216208D03*
X246915Y280692D03*
X244356Y283251D03*
X252033D03*
X246915D03*
X221326Y280693D03*
Y285810D03*
X249474Y280692D03*
X218767Y283251D03*
X208530Y270456D03*
X226443Y262779D03*
X229003D03*
X231562D03*
X241797Y267897D03*
Y265338D03*
X239238Y262779D03*
X241797D03*
Y252544D03*
X241697Y255103D03*
X241797Y257662D03*
X229003Y265338D03*
X236680Y262779D03*
X241797Y270456D03*
X252033Y234629D03*
X254593Y267898D03*
X226443Y257662D03*
X249474Y249985D03*
X244356Y234630D03*
Y249985D03*
X241797Y249984D03*
X236679Y265338D03*
X241797Y247426D03*
X231562Y280692D03*
X252033Y280693D03*
X229003Y280692D03*
X244356D03*
X239238Y283251D03*
Y285810D03*
X218767Y267898D03*
X216208Y267897D03*
X221326Y265338D03*
X218767Y265339D03*
X216208Y265338D03*
X246915Y278133D03*
X236679Y234630D03*
X211090Y249985D03*
X239238Y290929D03*
X208530Y252544D03*
X211090D03*
X203412Y249984D03*
X205971Y232070D03*
Y249984D03*
X203412Y252543D03*
X205971D03*
X211090Y237190D03*
X208530Y242308D03*
X211090D03*
X203412Y237189D03*
X205971D03*
X203137Y234571D03*
X205971Y234629D03*
X208530Y237190D03*
X221326Y239749D03*
X211090D03*
X208530D03*
X218767Y244867D03*
X249474Y239749D03*
X236679Y280692D03*
X241797D03*
X249474Y283251D03*
X244356Y247426D03*
X231562Y234630D03*
Y288370D03*
X213649D03*
X211090Y275574D03*
X231562Y247426D03*
X320472Y248405D03*
Y273995D03*
X311623D03*
X295867Y271430D03*
X283268Y276554D03*
X311023Y248405D03*
X216208Y283251D03*
X223885Y278133D03*
X221326D03*
X283200Y248400D03*
X295367Y250964D03*
X203412Y255102D03*
X205971D03*
X213649Y265338D03*
X211090Y262779D03*
Y265338D03*
X208530D03*
X216208Y247426D03*
X218767Y249985D03*
X216208D03*
X246915Y288370D03*
X244356D03*
X211090Y278133D03*
X213649Y275574D03*
X203412D03*
X205971D03*
X213649Y273015D03*
X211090D03*
X218767Y278133D03*
X239239Y288370D03*
X241797D03*
X249474Y285811D03*
Y288370D03*
X264829Y244867D03*
X314172Y250964D03*
X311023Y253523D03*
Y268878D03*
X262270Y278133D03*
X267388Y267897D03*
X299322Y264822D03*
X216208Y288370D03*
X264829Y285811D03*
X267388Y249985D03*
X286400Y250970D03*
X307874Y268877D03*
X288849Y279113D03*
X269100Y278500D03*
X314172Y271436D03*
X229003Y285810D03*
X311023Y271436D03*
X267388Y275574D03*
X307940Y253589D03*
X249474Y237190D03*
Y278133D03*
X208530Y234629D03*
X257151Y257662D03*
X218766Y275574D03*
X216208Y273015D03*
X252033Y247426D03*
X211090Y283251D03*
X205964Y283258D03*
X208530Y283251D03*
X211090Y285810D03*
Y280692D03*
X236679Y278133D03*
Y237190D03*
X239238Y239749D03*
X236679D03*
X241797D03*
X239238Y237190D03*
X229003Y244867D03*
X231568Y239755D03*
X229003Y239749D03*
X211090Y288370D03*
X213649Y278133D03*
X208530Y280692D03*
X231562Y242308D03*
X200100Y228500D03*
X244356Y242308D03*
X246916Y244867D03*
X226444Y239749D03*
Y237190D03*
Y242308D03*
X203800Y229100D03*
X246915Y242308D03*
X244356Y239749D03*
X246915D03*
X231562Y278133D03*
X236679Y244867D03*
X244357D03*
X241797Y237189D03*
X244356Y237190D03*
X257145Y260227D03*
X246915Y237190D03*
X262270Y262779D03*
X241797Y234630D03*
X257151Y262779D03*
X231562Y237190D03*
X223885Y280692D03*
X226443Y278133D03*
X216208Y275574D03*
X246915Y252544D03*
X213649Y255102D03*
X249474Y273015D03*
Y270456D03*
Y267897D03*
Y265338D03*
X246915D03*
X249474Y262779D03*
X246915D03*
X249474Y255103D03*
Y257662D03*
X246915Y255103D03*
Y257662D03*
X252033Y270456D03*
X254592Y275574D03*
Y278133D03*
Y249985D03*
Y255103D03*
Y252544D03*
Y244867D03*
X231562D03*
X249474Y242308D03*
X218767Y280692D03*
X213649D03*
X226444Y285810D03*
X231562Y252544D03*
Y255103D03*
X229003Y252544D03*
Y255103D03*
X223885Y252544D03*
Y255103D03*
X221326D03*
X218766D03*
X226444D03*
Y252544D03*
X218766Y257662D03*
X221325D03*
X236679Y273015D03*
X239238Y273016D03*
X236679Y270456D03*
X239238Y270457D03*
X231561Y265338D03*
X223885Y270456D03*
X226444D03*
X229003D03*
Y273015D03*
X231562Y270456D03*
Y273015D03*
X226444D03*
X223885D03*
X241797Y278133D03*
X236679Y283251D03*
X218767Y270456D03*
X229003Y283251D03*
X231562D03*
X226444Y244867D03*
X218767Y239749D03*
X221326Y242308D03*
X203412Y273015D03*
X205971D03*
X229003Y242308D03*
X223885Y237190D03*
X208530Y278133D03*
X229003D03*
X226444Y280692D03*
X236679Y285810D03*
X239238Y278133D03*
X226444Y283251D03*
X221326D03*
G54D29*
X141732Y196850D03*
X299212D03*
G54D36*
X92792Y203027D03*
X56600Y180150D03*
X58299Y186016D03*
X52100Y186800D03*
X89150Y131450D03*
X65945Y194516D03*
X77650Y177595D03*
X80400Y214341D03*
X155337Y163553D03*
X83507Y134000D03*
X83050Y207850D03*
X92866Y198413D03*
X53816Y112984D03*
X89371Y198684D03*
X97207Y188377D03*
X111279Y186579D03*
X136619Y188103D03*
X121121Y186579D03*
X107900Y148700D03*
X114500Y148500D03*
X70950Y191550D03*
X100700Y207900D03*
X131313Y208012D03*
X88384Y114500D03*
X36684Y91616D03*
X13284Y92016D03*
X65945Y200555D03*
X195216Y216099D03*
X83000Y204200D03*
X88584Y136600D03*
X69245Y194516D03*
X146900Y149300D03*
X147800Y146400D03*
X151900Y145800D03*
X156200Y145900D03*
X158900Y148300D03*
X187518Y93946D03*
X154150Y38150D03*
X158912Y20312D03*
X178312D03*
X164950Y113430D03*
X178000Y113900D03*
X85800Y77200D03*
X80500Y55500D03*
X85300Y55600D03*
X186800Y214800D03*
X104479Y195347D03*
X149300Y199625D03*
X151400Y177126D03*
X174084Y50784D03*
X77800Y164400D03*
X64521Y160656D03*
X33800Y168700D03*
X159500Y197100D03*
X156200Y196900D03*
X39633Y151933D03*
X118400Y38080D03*
X15367Y181067D03*
X44796Y194799D03*
X87300Y156800D03*
X86300Y153600D03*
X83600Y152900D03*
X32700Y165600D03*
X177064Y63200D03*
X177100Y67500D03*
X27800Y103000D03*
X4800Y102800D03*
X127921Y203221D03*
X145900Y73100D03*
X153136Y65532D03*
X144277Y49521D03*
X168500Y133400D03*
X132500Y40900D03*
X133800Y43600D03*
X137100D03*
X138900Y41200D03*
X135700Y41000D03*
X80400Y33500D03*
X148400Y63400D03*
X143803Y81989D03*
X150900Y61900D03*
X159100Y57200D03*
X35017Y184000D03*
X110716Y104700D03*
X69100Y80200D03*
X74064Y78333D03*
X75000Y68900D03*
X75200Y73500D03*
X83200Y127011D03*
X103400Y90900D03*
X138000Y101700D03*
X136900Y104300D03*
X85364Y99833D03*
X86500Y95000D03*
X88500Y87000D03*
X81700Y85400D03*
X81500Y80800D03*
X84900Y87300D03*
X84700Y82700D03*
X105342Y184861D03*
X127400Y184800D03*
X181700Y82000D03*
X132700Y204300D03*
X164700Y42750D03*
X195304Y148140D03*
X64551Y110949D03*
X104700Y98600D03*
X73992Y205908D03*
X19700Y45700D03*
X19800Y51400D03*
X16400Y60700D03*
X23100Y61200D03*
X71991Y101539D03*
X168200Y79995D03*
X32700Y26800D03*
X27900Y22900D03*
X23500Y24800D03*
X28300Y28700D03*
X34100Y22600D03*
X38900Y26500D03*
X32700Y19600D03*
X37500Y23500D03*
X62868Y115000D03*
X62951Y103500D03*
X20400Y83200D03*
X11400Y82400D03*
X6900Y54500D03*
X9800Y26300D03*
X7200Y43900D03*
X3700Y26400D03*
X83600Y168400D03*
X158600Y63300D03*
X166416Y87784D03*
X193700Y116800D03*
X197380Y156172D03*
X142400Y159400D03*
X142600Y156600D03*
X59800Y200700D03*
X92984Y125290D03*
X154900Y203700D03*
X134508Y201517D03*
X135900Y6000D03*
X121504Y9400D03*
X182200Y114720D03*
X114484Y104700D03*
X124690Y109400D03*
X110716Y112701D03*
X124690Y124600D03*
X115300Y134984D03*
X160700Y137900D03*
X108100Y135084D03*
X172412Y183662D03*
X49856Y175321D03*
X73465Y161235D03*
X66284Y154900D03*
X18484Y166000D03*
X19942Y176158D03*
X39800Y181300D03*
X18484Y162200D03*
X12300Y184784D03*
X50500Y130000D03*
X46489Y145404D03*
X79500Y126610D03*
X64600Y143300D03*
X68600Y143200D03*
X62900Y149200D03*
X48380Y109520D03*
X26200Y109100D03*
X47060Y160388D03*
X13200Y148200D03*
Y126100D03*
X189300Y298184D03*
X165000Y382200D03*
X172600Y309700D03*
X190000Y289000D03*
X191616Y286500D03*
X191584Y280100D03*
X184416Y314200D03*
X193000Y298184D03*
X139500Y324200D03*
X170083Y285617D03*
X128408Y273595D03*
X152005Y254196D03*
X166537Y271664D03*
X155942Y254259D03*
X166584Y264617D03*
Y278617D03*
X166434Y285467D03*
X132300Y259400D03*
X31200Y298700D03*
X190500Y304400D03*
X199700Y294295D03*
X183716Y353000D03*
X21400Y294300D03*
X107957Y384584D03*
X85391Y302226D03*
X32416Y366016D03*
X133416Y331245D03*
X123512Y277100D03*
X148891Y230519D03*
X24557Y372103D03*
X28937D03*
X36300Y377888D03*
X90289Y242333D03*
Y238873D03*
X99500Y289367D03*
X98625Y264956D03*
X156716Y249800D03*
X35140Y297760D03*
X79100Y339200D03*
X102757Y359303D03*
X184700Y287400D03*
X184800Y290700D03*
X149700Y363571D03*
X184684Y283100D03*
X144300Y385100D03*
X195800Y355700D03*
X147791Y385081D03*
X168724Y373315D03*
X28600Y295400D03*
X107351Y294600D03*
X114516Y334800D03*
X38216Y333100D03*
X185700Y380500D03*
X38216Y336800D03*
X114516Y338300D03*
X32040Y301540D03*
X80700Y370800D03*
X72942Y370213D03*
X77600Y221822D03*
X86100Y225500D03*
X63960Y286800D03*
X153100Y378329D03*
X43949Y389165D03*
X48765D03*
X97949Y374301D03*
X84241Y388323D03*
X37507Y389093D03*
X197350Y305150D03*
X93000Y303300D03*
X104300Y301500D03*
X79151Y324449D03*
X131487Y328887D03*
X75879Y302300D03*
X176214Y246559D03*
X152425Y222600D03*
X55300Y296252D03*
X125600Y230775D03*
X99800Y231500D03*
X47000Y306700D03*
X86093Y310374D03*
X53900Y311800D03*
X93684Y324700D03*
X79250Y318150D03*
X127369Y322174D03*
X121714Y330953D03*
X128775Y335175D03*
X53652Y321300D03*
X51302Y332100D03*
X66400Y327748D03*
X75849D03*
X63152Y302300D03*
X84700Y333300D03*
X79148Y305551D03*
X124213Y335587D03*
X111944Y263244D03*
X185500Y370200D03*
X184550Y250950D03*
X100915Y267357D03*
X93300Y236200D03*
X69490Y221321D03*
X159901Y327084D03*
X114779Y326479D03*
X134900Y308900D03*
X78129Y288073D03*
X4200Y364700D03*
X3800Y389200D03*
X13600Y389300D03*
X17800Y376000D03*
X25400Y366900D03*
X85900Y367200D03*
X79800Y366700D03*
X8700Y389400D03*
X91500Y389600D03*
X87800Y382300D03*
X92200Y364200D03*
X46300Y361000D03*
X25000Y359000D03*
X4000Y376700D03*
X99500Y389700D03*
X106900Y389600D03*
X113700Y389700D03*
X120600D03*
X127400Y389800D03*
X134400D03*
X141500D03*
X148200Y389900D03*
X157900Y380500D03*
X155500Y375800D03*
X192100Y389900D03*
X192000Y382900D03*
X191900Y376620D03*
X142700Y365100D03*
X145600Y362500D03*
X183200Y245900D03*
X167100Y222600D03*
X189600Y273000D03*
X177000Y358684D03*
X183716Y358900D03*
X159901Y323316D03*
X79148Y308701D03*
X85200Y306026D03*
X50600Y297002D03*
X85208Y317740D03*
X58700Y302300D03*
X38064Y321677D03*
X74100Y252200D03*
X71086Y251314D03*
X67700Y251100D03*
X63700Y247800D03*
X100400Y305999D03*
X198900Y389900D03*
X198600Y378200D03*
X327800Y27100D03*
X214600Y186600D03*
X235883Y189468D03*
X232355Y193284D03*
X243757Y189468D03*
X239686Y192315D03*
X228009Y190500D03*
X272269Y124491D03*
X255400Y114316D03*
X271800Y168784D03*
X229400Y146400D03*
X275216Y162200D03*
X330300Y184600D03*
X235800Y198000D03*
X240300Y198100D03*
X220135Y203500D03*
X271900Y186676D03*
X311363Y179297D03*
X291500Y208500D03*
X263508Y149208D03*
X303200Y65500D03*
X207700Y171100D03*
X222700Y185100D03*
X218300Y125100D03*
X224400Y79600D03*
X226300Y164716D03*
X212700Y168484D03*
X253241Y96684D03*
X260069Y117291D03*
X209300Y168484D03*
X220284Y86200D03*
X280784Y171900D03*
X222900Y168484D03*
X253459Y82159D03*
X228802Y75998D03*
X209300Y164716D03*
X217568Y111768D03*
X200130Y118160D03*
X219500Y168484D03*
X265400Y172400D03*
X254066Y106461D03*
X266516Y106600D03*
X232000Y171300D03*
X266516Y110200D03*
X229316Y168484D03*
X312200Y24300D03*
X274200Y140900D03*
X310584Y105800D03*
X298700Y83400D03*
X276000Y28884D03*
X233300Y28684D03*
X272200Y82100D03*
X285514Y143254D03*
Y138530D03*
Y133800D03*
Y129081D03*
X222100Y81400D03*
X233987Y207412D03*
X232900Y216700D03*
X206598Y212700D03*
X329200Y44400D03*
X222551Y200269D03*
X253900Y134684D03*
X219900Y77900D03*
X318400Y36500D03*
X271131Y151251D03*
X272269Y117291D03*
X217600Y85400D03*
X200200Y131886D03*
X303538Y102300D03*
X310623Y37677D03*
X304880Y40300D03*
X237500Y4600D03*
X247500Y4700D03*
X257500Y4600D03*
X267500Y4700D03*
X277500Y4600D03*
X287500D03*
X227500Y10000D03*
X237500D03*
X247500D03*
X257500D03*
X267500D03*
X277500D03*
X287500D03*
X292500D03*
X227500Y15000D03*
X257500Y17500D03*
X267500D03*
X227500Y40000D03*
Y35000D03*
Y30000D03*
Y25000D03*
X257500Y27500D03*
Y32500D03*
Y42500D03*
Y47500D03*
X267500Y32500D03*
Y42500D03*
Y47500D03*
X277500Y32500D03*
Y42500D03*
Y47500D03*
X296200Y28400D03*
X296300Y37900D03*
X300200Y40400D03*
X267200Y24300D03*
X247500Y42400D03*
X227500Y45000D03*
X201800Y69900D03*
X257500Y108269D03*
X226159Y86842D03*
X238716Y109241D03*
X223259Y90779D03*
X253241Y100621D03*
X208900Y182400D03*
X223200Y205700D03*
X248558Y114400D03*
X245300Y378084D03*
X253300Y377984D03*
X277400Y268500D03*
X324900Y241500D03*
X277400Y234500D03*
Y275600D03*
X278497Y254108D03*
X277600Y244600D03*
X323900Y289200D03*
Y284300D03*
X205600Y303495D03*
X225208Y302708D03*
X215516Y314800D03*
X203300Y304990D03*
X222200Y303300D03*
X205100Y318000D03*
X202088Y219085D03*
X302700Y318143D03*
X297700Y325700D03*
X306900Y321800D03*
X326100Y339500D03*
X235272Y386900D03*
X251272D03*
X219972Y386800D03*
X260328Y374000D03*
X245840Y222550D03*
X225450Y311450D03*
X208800Y218000D03*
X247700Y314700D03*
X257000Y350300D03*
X260251Y340451D03*
X246700Y346984D03*
X249500Y377984D03*
X213900Y378084D03*
X219100D03*
X222500D03*
X227700D03*
X231100D03*
X236300D03*
X239600D03*
X292900Y313200D03*
X311269Y313236D03*
X250100Y336100D03*
X270943Y350243D03*
X236300Y367316D03*
X254172Y384341D03*
X222872Y384241D03*
X242728Y389459D03*
X229500Y365200D03*
X244700Y364916D03*
X263100Y371441D03*
X226728Y389459D03*
X238500Y365000D03*
X258414Y378842D03*
X227700Y367316D03*
X238172Y384341D03*
X312900Y371416D03*
X326700Y329900D03*
X204000Y224400D03*
X282100Y312900D03*
X228495Y295700D03*
X232400Y221100D03*
X243150Y338950D03*
X252900Y362278D03*
X291400Y349000D03*
X284300Y339600D03*
X308602Y378571D03*
X320000Y224140D03*
X236234Y302660D03*
X270000Y357000D03*
X319800Y336800D03*
X312900Y378796D03*
X326000D03*
X321637Y378800D03*
X304300Y378696D03*
X299900Y378500D03*
X295600Y378696D03*
X330700Y354940D03*
X330762Y347750D03*
X275883Y361467D03*
X276000Y382800D03*
X301600Y390100D03*
X310700D03*
X306200Y390000D03*
X315700Y390100D03*
X306600Y385600D03*
X302100D03*
X330671Y380327D03*
X330800Y367900D03*
X276513Y352500D03*
X202300Y368100D03*
X270700Y376256D03*
X270900Y360276D03*
X270200Y389500D03*
X217228Y389600D03*
X248528Y389800D03*
X232528Y389700D03*
X257900Y389600D03*
X208600Y390000D03*
X259500Y386500D03*
G54D30*
X25808Y166500D03*
X7697D03*
G54D42*
X243100Y68787D03*
X253100D03*
X263100D03*
X273100D03*
X283100D03*
X248100Y58787D03*
X258100D03*
X268100D03*
X278100D03*
G54D40*
X35483Y343367D03*
X111783Y343267D03*
G54D46*
X222900Y164716D03*
X216100D03*
X219500D03*
X212700D03*
X254592Y242308D03*
X317322Y245846D03*
X257151Y278133D03*
X309900Y289800D03*
X257151Y285810D03*
X315870Y292000D03*
X257151Y275574D03*
X311023Y276554D03*
X254592Y285810D03*
X320472Y284231D03*
X304723D03*
X257151Y273015D03*
X311023Y245846D03*
X259710Y244867D03*
X317231Y243287D03*
X254592Y234630D03*
X311023Y279113D03*
X262270Y283251D03*
X254592Y288370D03*
X317322Y279113D03*
X309900Y232500D03*
X257151Y244867D03*
Y280692D03*
X314373Y284231D03*
X314173Y279113D03*
X259710Y283251D03*
X257151Y239749D03*
X315862Y230408D03*
X221326Y244867D03*
X200600Y289400D03*
X211090Y290929D03*
X218767Y242308D03*
X221326Y237190D03*
X223885Y242308D03*
Y239749D03*
X206031Y280632D03*
X236679Y290929D03*
Y293488D03*
X246945Y290959D03*
Y293518D03*
X257151Y242308D03*
X314373Y238169D03*
X257151Y247426D03*
X307873Y245846D03*
X304400Y239500D03*
X257151Y249985D03*
X311023Y243287D03*
X262270Y239749D03*
X314173Y243287D03*
X259710Y239749D03*
Y278133D03*
X307873Y279113D03*
X204010Y292821D03*
X208600Y285900D03*
X320472Y235610D03*
X254592Y237190D03*
X218803Y288462D03*
X254592Y280692D03*
X317322Y276554D03*
X208530Y249985D03*
X223885Y285810D03*
X221326Y288370D03*
X218767Y285810D03*
X216208D03*
X231600Y294300D03*
X239239Y242308D03*
X241798Y244867D03*
X236680Y242308D03*
X239239Y244867D03*
X241797Y242307D03*
X236679Y247426D03*
X252063Y244837D03*
X216208Y280692D03*
X202000Y287091D03*
X214928Y294059D03*
G54D34*
X91421Y164680D03*
G54D45*
X245358Y195455D03*
X250478Y128222D03*
X231500Y121400D03*
X235900Y121210D03*
X244935Y132100D03*
X272600Y268400D03*
X274200Y350600D03*
X321637Y371516D03*
X299937Y371316D03*
X325937Y371416D03*
X295577Y371176D03*
X304237Y371416D03*
G54D39*
X43357Y343367D03*
X27609D03*
X31546Y349273D03*
X39420D03*
X119657Y343267D03*
X103909D03*
X107846Y349173D03*
X115720D03*
G54D37*
X150197Y332983D03*
G54D32*
X54937Y63945D03*
X64937D03*
G54D31*
X43308Y15732D03*
X59057D03*
X288100Y58787D03*
G54D35*
X152756Y29726D03*
X150394Y10435D03*
X209842Y29726D03*
X212205Y10435D03*
X267155Y383565D03*
X205344D03*
G54D43*
X249458Y17803D03*
X281781D03*
X239439D03*
X291840D03*
G54D44*
X234675Y45795D03*
X296500D03*
G54D33*
X15748Y196850D03*
Y15748D03*
Y320866D03*
X318898Y15748D03*
Y196850D03*
Y320866D03*
G54D41*
X243100Y33787D03*
G54D38*
X61349Y357147D03*
G54D28*
X162090Y376168D03*
%LPD*%
G75*
G54D10*
X141732Y196850D03*
X299212D03*
G54D20*
X309831Y80581D03*
G54D11*
X7697Y175949D03*
Y157051D03*
G54D21*
X288100Y58787D03*
G54D12*
X25808Y166500D03*
X7697D03*
G54D22*
G01X-88521Y-43540D02*
Y-139740D01*
G01D02*
X386979D01*
G01X-88521Y-118740D02*
X405279D01*
G01X-88521Y-98740D02*
X405279D01*
G01X-88521Y-78740D02*
X405279D01*
G01X-88521Y-59540D02*
X405279D01*
G01X-88521Y-43540D02*
X386979D01*
G01X386179Y-139740D02*
X405279D01*
Y-43540D01*
X385879D01*
G54D13*
X15748Y196850D03*
Y15748D03*
Y320866D03*
X318898Y15748D03*
Y196850D03*
Y320866D03*
G54D23*
G01X127000Y14400D02*
Y17121D01*
G01X124279Y14400D02*
X127000D01*
G01D02*
X129721D01*
G01X288100Y55285D02*
Y58787D01*
G01D02*
Y62289D01*
G01X284598Y58787D02*
X288100D01*
G01D02*
X291602D01*
G01X309831Y80581D02*
Y83433D01*
G01X307179Y80581D02*
X309831D01*
G54D14*
X91421Y164680D03*
G54D24*
G01Y160928D02*
Y164680D01*
G01D02*
Y168432D01*
G01X87669Y164680D02*
X91421D01*
G01D02*
X95173D01*
G01X15748Y8996D02*
Y15748D01*
G01D02*
Y22500D01*
G01X8996Y15748D02*
X15748D01*
G01D02*
X22500D01*
G01X10824Y191926D02*
X15748Y196850D01*
G01D02*
X20672Y201774D01*
G01X10824D02*
X15748Y196850D01*
G01D02*
X20672Y191926D01*
G01X15748Y314114D02*
Y320866D01*
G01D02*
Y327618D01*
G01X8996Y320866D02*
X15748D01*
G01D02*
X22500D01*
G01X318898Y190098D02*
Y196850D01*
G01D02*
Y203602D01*
G01X312146Y196850D02*
X318898D01*
G01D02*
X325650D01*
G01X318898Y8996D02*
Y15748D01*
G01D02*
Y22500D01*
G01X312146Y15748D02*
X318898D01*
G01D02*
X325650D01*
G01X318898Y314114D02*
Y320866D01*
G01D02*
Y327618D01*
G01X312146Y320866D02*
X318898D01*
G01D02*
X325650D01*
G54D15*
X127000Y4400D03*
G54D25*
G01X98003Y349173D02*
Y352425D01*
G01X94751Y349173D02*
X98003D01*
G01D02*
X101255D01*
G01X111783Y340015D02*
Y343267D01*
G01D02*
Y346519D01*
G01X108531Y343267D02*
X111783D01*
G01D02*
X115035D01*
G01X21703Y349273D02*
Y352525D01*
G01X18451Y349273D02*
X21703D01*
G01D02*
X24955D01*
G01X35483Y340115D02*
Y343367D01*
G01D02*
Y346619D01*
G01X32231Y343367D02*
X35483D01*
G01D02*
X38735D01*
G54D16*
X127000Y14400D03*
Y9400D03*
G54D26*
G01X-81092Y-132550D02*
Y-122550D01*
X-76342D01*
G01X-78092Y-127383D02*
X-81092D01*
G01X-70217Y-122550D02*
X-67217D01*
G01X-68717D02*
Y-132550D01*
G01X-70217D02*
X-67217D01*
G01X-61217Y-122550D02*
Y-132550D01*
X-56217D01*
G01X-51967D02*
Y-122550D01*
X-48717Y-130883D01*
X-45467Y-122550D01*
Y-132550D01*
G01X-31217Y-122550D02*
Y-132550D01*
X-26217D01*
G01X-21842D02*
X-18717Y-122550D01*
X-15592Y-132550D01*
G01X-16717Y-129050D02*
X-20717D01*
G01X-8717Y-132550D02*
Y-128050D01*
X-11217Y-122550D01*
G01X-6217D02*
X-8717Y-128050D01*
G01X3783Y-132550D02*
X-1217D01*
Y-122550D01*
X3783D01*
G01X1783Y-127383D02*
X-1217D01*
G01X8783Y-132550D02*
Y-122550D01*
X11908D01*
X12908Y-123050D01*
X13533Y-123717D01*
X13783Y-125050D01*
X13533Y-126383D01*
X12783Y-127217D01*
X11908Y-127717D01*
X8783D01*
G01X11908D02*
X13783Y-132550D01*
G01X31283Y-132883D02*
X31033Y-132717D01*
Y-132383D01*
X31283Y-132217D01*
X31533Y-132383D01*
Y-132717D01*
X31283Y-132883D01*
G01Y-128384D02*
X31033Y-128217D01*
Y-127883D01*
X31283Y-127717D01*
X31533Y-127883D01*
Y-128217D01*
X31283Y-128384D01*
G01X48783Y-122550D02*
Y-132550D01*
X53783D01*
G01X58158D02*
X61283Y-122550D01*
X64408Y-132550D01*
G01X63283Y-129050D02*
X59283D01*
G01X71283Y-132550D02*
Y-128050D01*
X68783Y-122550D01*
G01X73783D02*
X71283Y-128050D01*
G01X83783Y-132550D02*
X78783D01*
Y-122550D01*
X83783D01*
G01X81783Y-127383D02*
X78783D01*
G01X88783Y-132550D02*
Y-122550D01*
X91908D01*
X92908Y-123050D01*
X93533Y-123717D01*
X93783Y-125050D01*
X93533Y-126383D01*
X92783Y-127217D01*
X91908Y-127717D01*
X88783D01*
G01X91908D02*
X93783Y-132550D01*
G01X111283D02*
Y-122550D01*
X109783Y-124550D01*
G01Y-132550D02*
X112783D01*
G01X121283D02*
Y-122550D01*
X119783Y-124550D01*
G01Y-132550D02*
X122783D01*
G01X127533Y-135883D02*
X135033D01*
G01X142033Y-127550D02*
X144533D01*
Y-130550D01*
X143783Y-131550D01*
X142908Y-132217D01*
X141658Y-132550D01*
X140408Y-132217D01*
X139533Y-131550D01*
X138783Y-130550D01*
X138283Y-129383D01*
X138033Y-128050D01*
Y-126883D01*
X138283Y-125884D01*
X138783Y-124717D01*
X139533Y-123717D01*
X140283Y-123050D01*
X141283Y-122550D01*
X142158D01*
X143158Y-122883D01*
X143908Y-123550D01*
G01X148408Y-132550D02*
Y-122550D01*
X154158Y-132550D01*
Y-122550D01*
G01X158533Y-132550D02*
Y-122550D01*
X161033D01*
X162033Y-123050D01*
X162783Y-123717D01*
X163408Y-124717D01*
X163908Y-125884D01*
X164033Y-127550D01*
X163908Y-129217D01*
X163408Y-130383D01*
X162783Y-131384D01*
X162033Y-132050D01*
X161033Y-132550D01*
X158533D01*
G01X172783D02*
Y-122550D01*
X168158Y-129717D01*
X174408D01*
G01X-82771Y-114040D02*
Y-104040D01*
X-79771D01*
X-78771Y-104540D01*
X-78021Y-105707D01*
X-77771Y-107040D01*
X-78021Y-108373D01*
X-78646Y-109373D01*
X-79771Y-109874D01*
X-82771D01*
G01X-73396Y-114040D02*
X-70271Y-104040D01*
X-67146Y-114040D01*
G01X-68271Y-110540D02*
X-72271D01*
G01X-62771Y-114040D02*
Y-104040D01*
X-59646D01*
X-58646Y-104540D01*
X-58021Y-105207D01*
X-57771Y-106540D01*
X-58021Y-107873D01*
X-58771Y-108707D01*
X-59646Y-109207D01*
X-62771D01*
G01X-59646D02*
X-57771Y-114040D01*
G01X-50271Y-104040D02*
Y-114040D01*
G01X-53146Y-104040D02*
X-47396D01*
G01X-33146Y-114040D02*
Y-104040D01*
X-27396Y-114040D01*
Y-104040D01*
G01X-20271Y-114040D02*
X-21271Y-113873D01*
X-22146Y-113207D01*
X-22896Y-112207D01*
X-23396Y-111040D01*
X-23646Y-109707D01*
Y-108373D01*
X-23396Y-107040D01*
X-22896Y-105873D01*
X-22146Y-104873D01*
X-21271Y-104207D01*
X-20271Y-104040D01*
X-19271Y-104207D01*
X-18396Y-104873D01*
X-17646Y-105873D01*
X-17146Y-107040D01*
X-16896Y-108373D01*
Y-109707D01*
X-17146Y-111040D01*
X-17646Y-112207D01*
X-18396Y-113207D01*
X-19271Y-113873D01*
X-20271Y-114040D01*
G01X-12521Y-114373D02*
X-8021Y-104040D01*
G01X2479Y-104873D02*
X1729Y-104373D01*
X854Y-104040D01*
X-146D01*
X-1271Y-104540D01*
X-2146Y-105373D01*
X-2771Y-106373D01*
X-3271Y-108040D01*
X-3396Y-109540D01*
X-3146Y-111040D01*
X-2771Y-112040D01*
X-2021Y-113040D01*
X-1146Y-113707D01*
X-271Y-114040D01*
X604D01*
X1479Y-113707D01*
X2229Y-113207D01*
X2854Y-112540D01*
G01X6604Y-114040D02*
X9729Y-104040D01*
X12854Y-114040D01*
G01X11729Y-110540D02*
X7729D01*
G01X17229Y-114040D02*
Y-104040D01*
X20354D01*
X21354Y-104540D01*
X21979Y-105207D01*
X22229Y-106540D01*
X21979Y-107873D01*
X21229Y-108707D01*
X20354Y-109207D01*
X17229D01*
G01X20354D02*
X22229Y-114040D01*
G01X26979D02*
Y-104040D01*
X29479D01*
X30479Y-104540D01*
X31229Y-105207D01*
X31854Y-106207D01*
X32354Y-107374D01*
X32479Y-109040D01*
X32354Y-110707D01*
X31854Y-111873D01*
X31229Y-112874D01*
X30479Y-113540D01*
X29479Y-114040D01*
X26979D01*
G01X47229D02*
Y-104040D01*
X50354D01*
X51354Y-104540D01*
X51979Y-105207D01*
X52229Y-106540D01*
X51979Y-107873D01*
X51229Y-108707D01*
X50354Y-109207D01*
X47229D01*
G01X50354D02*
X52229Y-114040D01*
G01X62229D02*
X57229D01*
Y-104040D01*
X62229D01*
G01X60229Y-108873D02*
X57229D01*
G01X67354Y-114040D02*
Y-104040D01*
X72104D01*
G01X70354Y-108873D02*
X67354D01*
G01X79729Y-114373D02*
X79479Y-114207D01*
Y-113873D01*
X79729Y-113707D01*
X79979Y-113873D01*
Y-114207D01*
X79729Y-114373D01*
G01Y-109874D02*
X79479Y-109707D01*
Y-109373D01*
X79729Y-109207D01*
X79979Y-109373D01*
Y-109707D01*
X79729Y-109874D01*
G01X86604Y-114040D02*
X89729Y-104040D01*
X92854Y-114040D01*
G01X91729Y-110540D02*
X87729D01*
G01X97229Y-114040D02*
Y-104040D01*
X100354D01*
X101354Y-104540D01*
X101979Y-105207D01*
X102229Y-106540D01*
X101979Y-107873D01*
X101229Y-108707D01*
X100354Y-109207D01*
X97229D01*
G01X100354D02*
X102229Y-114040D01*
G01X107229D02*
Y-104040D01*
X110354D01*
X111354Y-104540D01*
X111979Y-105207D01*
X112229Y-106540D01*
X111979Y-107873D01*
X111229Y-108707D01*
X110354Y-109207D01*
X107229D01*
G01X110354D02*
X112229Y-114040D01*
G01X119729D02*
X118729Y-113873D01*
X117854Y-113207D01*
X117104Y-112207D01*
X116604Y-111040D01*
X116354Y-109707D01*
Y-108373D01*
X116604Y-107040D01*
X117104Y-105873D01*
X117854Y-104873D01*
X118729Y-104207D01*
X119729Y-104040D01*
X120729Y-104207D01*
X121604Y-104873D01*
X122354Y-105873D01*
X122854Y-107040D01*
X123104Y-108373D01*
Y-109707D01*
X122854Y-111040D01*
X122354Y-112207D01*
X121604Y-113207D01*
X120729Y-113873D01*
X119729Y-114040D01*
G01X125979Y-104040D02*
X127729Y-114040D01*
X129729Y-104040D01*
X131729Y-114040D01*
X133479Y-104040D01*
G01X135979Y-117373D02*
X143479D01*
G01X148229Y-104040D02*
X151229D01*
G01X149729D02*
Y-114040D01*
G01X148229D02*
X151229D01*
G01X156479D02*
Y-104040D01*
X159729Y-112373D01*
X162979Y-104040D01*
Y-114040D01*
G01X167104D02*
X172354Y-104040D01*
G01X167104D02*
X172354Y-114040D01*
G01X179729D02*
X180604Y-113873D01*
X181604Y-113373D01*
X182229Y-112540D01*
X182479Y-111373D01*
X182229Y-110207D01*
X181479Y-109207D01*
X180354Y-108707D01*
X179104D01*
X178354Y-108373D01*
X177729Y-107540D01*
X177479Y-106373D01*
X177854Y-105207D01*
X178729Y-104373D01*
X179729Y-104040D01*
X180729Y-104373D01*
X181604Y-105207D01*
X181979Y-106373D01*
X181729Y-107540D01*
X181104Y-108373D01*
X180354Y-108707D01*
X179104D01*
X177979Y-109207D01*
X177229Y-110207D01*
X176979Y-111373D01*
X177229Y-112540D01*
X177854Y-113373D01*
X178854Y-113873D01*
X179729Y-114040D01*
G01X186479D02*
Y-104040D01*
X189729Y-112373D01*
X192979Y-104040D01*
Y-114040D01*
G01X195979Y-117373D02*
X203479D01*
G01X207104Y-114040D02*
Y-104040D01*
G01X212354D02*
Y-114040D01*
G01Y-109040D02*
X207104D01*
G01X216479Y-114040D02*
Y-104040D01*
X219729Y-112373D01*
X222979Y-104040D01*
Y-114040D01*
G01X228229Y-104040D02*
X231229D01*
G01X229729D02*
Y-114040D01*
G01X228229D02*
X231229D01*
G01X235979Y-117373D02*
X243479D01*
G01X247229Y-114040D02*
Y-104040D01*
X250229D01*
X251229Y-104540D01*
X251979Y-105707D01*
X252229Y-107040D01*
X251979Y-108373D01*
X251354Y-109373D01*
X250229Y-109874D01*
X247229D01*
G01X257229Y-104040D02*
Y-114040D01*
X262229D01*
G01X266604D02*
X269729Y-104040D01*
X272854Y-114040D01*
G01X271729Y-110540D02*
X267729D01*
G01X279729Y-104040D02*
Y-114040D01*
G01X276854Y-104040D02*
X282604D01*
G01X287354Y-114040D02*
Y-104040D01*
X292104D01*
G01X290354Y-108873D02*
X287354D01*
G01X299729Y-114040D02*
X298729Y-113873D01*
X297854Y-113207D01*
X297104Y-112207D01*
X296604Y-111040D01*
X296354Y-109707D01*
Y-108373D01*
X296604Y-107040D01*
X297104Y-105873D01*
X297854Y-104873D01*
X298729Y-104207D01*
X299729Y-104040D01*
X300729Y-104207D01*
X301604Y-104873D01*
X302354Y-105873D01*
X302854Y-107040D01*
X303104Y-108373D01*
Y-109707D01*
X302854Y-111040D01*
X302354Y-112207D01*
X301604Y-113207D01*
X300729Y-113873D01*
X299729Y-114040D01*
G01X307229D02*
Y-104040D01*
X310354D01*
X311354Y-104540D01*
X311979Y-105207D01*
X312229Y-106540D01*
X311979Y-107873D01*
X311229Y-108707D01*
X310354Y-109207D01*
X307229D01*
G01X310354D02*
X312229Y-114040D01*
G01X316479D02*
Y-104040D01*
X319729Y-112373D01*
X322979Y-104040D01*
Y-114040D01*
G01X340729Y-108707D02*
X341229Y-108207D01*
X341604Y-107374D01*
X341854Y-106207D01*
X341604Y-105207D01*
X341104Y-104540D01*
X340229Y-104040D01*
X336854D01*
Y-114040D01*
X340979D01*
X341854Y-113373D01*
X342354Y-112373D01*
X342604Y-111207D01*
X342354Y-110040D01*
X341604Y-109040D01*
X340729Y-108707D01*
X336854D01*
G01X349729Y-114040D02*
X348729Y-113873D01*
X347854Y-113207D01*
X347104Y-112207D01*
X346604Y-111040D01*
X346354Y-109707D01*
Y-108373D01*
X346604Y-107040D01*
X347104Y-105873D01*
X347854Y-104873D01*
X348729Y-104207D01*
X349729Y-104040D01*
X350729Y-104207D01*
X351604Y-104873D01*
X352354Y-105873D01*
X352854Y-107040D01*
X353104Y-108373D01*
Y-109707D01*
X352854Y-111040D01*
X352354Y-112207D01*
X351604Y-113207D01*
X350729Y-113873D01*
X349729Y-114040D01*
G01X356604D02*
X359729Y-104040D01*
X362854Y-114040D01*
G01X361729Y-110540D02*
X357729D01*
G01X367229Y-114040D02*
Y-104040D01*
X370354D01*
X371354Y-104540D01*
X371979Y-105207D01*
X372229Y-106540D01*
X371979Y-107873D01*
X371229Y-108707D01*
X370354Y-109207D01*
X367229D01*
G01X370354D02*
X372229Y-114040D01*
G01X376979D02*
Y-104040D01*
X379479D01*
X380479Y-104540D01*
X381229Y-105207D01*
X381854Y-106207D01*
X382354Y-107374D01*
X382479Y-109040D01*
X382354Y-110707D01*
X381854Y-111873D01*
X381229Y-112874D01*
X380479Y-113540D01*
X379479Y-114040D01*
X376979D01*
G01X-83021Y-94040D02*
Y-84040D01*
X-80521D01*
X-79521Y-84540D01*
X-78771Y-85207D01*
X-78146Y-86207D01*
X-77646Y-87374D01*
X-77521Y-89040D01*
X-77646Y-90707D01*
X-78146Y-91873D01*
X-78771Y-92874D01*
X-79521Y-93540D01*
X-80521Y-94040D01*
X-83021D01*
G01X-67771D02*
X-72771D01*
Y-84040D01*
X-67771D01*
G01X-69771Y-88873D02*
X-72771D01*
G01X-62896Y-92707D02*
X-61896Y-93540D01*
X-60771Y-94040D01*
X-59771D01*
X-58771Y-93540D01*
X-58021Y-92707D01*
X-57646Y-91540D01*
X-57896Y-90374D01*
X-58521Y-89373D01*
X-59646Y-88707D01*
X-61146Y-88373D01*
X-62021Y-87707D01*
X-62396Y-86540D01*
X-62146Y-85373D01*
X-61521Y-84540D01*
X-60646Y-84040D01*
X-59771D01*
X-58896Y-84373D01*
X-58146Y-85207D01*
G01X-51771Y-84040D02*
X-48771D01*
G01X-50271D02*
Y-94040D01*
G01X-51771D02*
X-48771D01*
G01X-39521Y-89040D02*
X-37021D01*
Y-92040D01*
X-37771Y-93040D01*
X-38646Y-93707D01*
X-39896Y-94040D01*
X-41146Y-93707D01*
X-42021Y-93040D01*
X-42771Y-92040D01*
X-43271Y-90873D01*
X-43521Y-89540D01*
Y-88373D01*
X-43271Y-87374D01*
X-42771Y-86207D01*
X-42021Y-85207D01*
X-41271Y-84540D01*
X-40271Y-84040D01*
X-39396D01*
X-38396Y-84373D01*
X-37646Y-85040D01*
G01X-33146Y-94040D02*
Y-84040D01*
X-27396Y-94040D01*
Y-84040D01*
G01X-17771Y-94040D02*
X-22771D01*
Y-84040D01*
X-17771D01*
G01X-19771Y-88873D02*
X-22771D01*
G01X-13021Y-94040D02*
Y-84040D01*
X-10521D01*
X-9521Y-84540D01*
X-8771Y-85207D01*
X-8146Y-86207D01*
X-7646Y-87374D01*
X-7521Y-89040D01*
X-7646Y-90707D01*
X-8146Y-91873D01*
X-8771Y-92874D01*
X-9521Y-93540D01*
X-10521Y-94040D01*
X-13021D01*
G01X6604D02*
X9729Y-84040D01*
X12854Y-94040D01*
G01X11729Y-90540D02*
X7729D01*
G01X19729Y-84040D02*
Y-94040D01*
G01X16854Y-84040D02*
X22604D01*
G01X29729Y-94373D02*
X29479Y-94207D01*
Y-93873D01*
X29729Y-93707D01*
X29979Y-93873D01*
Y-94207D01*
X29729Y-94373D01*
G01Y-89874D02*
X29479Y-89707D01*
Y-89373D01*
X29729Y-89207D01*
X29979Y-89373D01*
Y-89707D01*
X29729Y-89874D01*
G01X47854Y-89540D02*
X51854D01*
X51479Y-88373D01*
X50854Y-87707D01*
X49979Y-87374D01*
X49104Y-87540D01*
X48354Y-88040D01*
X47854Y-89207D01*
X47604Y-90207D01*
Y-91207D01*
X47854Y-92207D01*
X48479Y-93207D01*
X49229Y-93873D01*
X50104Y-94040D01*
X50979Y-93707D01*
X51854Y-92707D01*
G01X58229Y-84040D02*
X61229D01*
G01X59729D02*
Y-94040D01*
G01X58229D02*
X61229D01*
G01X66854D02*
Y-84040D01*
X72604Y-94040D01*
Y-84040D01*
G01X77354Y-94040D02*
Y-84040D01*
X82104D01*
G01X80354Y-88873D02*
X77354D01*
G01X89729Y-94040D02*
X88729Y-93873D01*
X87854Y-93207D01*
X87104Y-92207D01*
X86604Y-91040D01*
X86354Y-89707D01*
Y-88373D01*
X86604Y-87040D01*
X87104Y-85873D01*
X87854Y-84873D01*
X88729Y-84207D01*
X89729Y-84040D01*
X90729Y-84207D01*
X91604Y-84873D01*
X92354Y-85873D01*
X92854Y-87040D01*
X93104Y-88373D01*
Y-89707D01*
X92854Y-91040D01*
X92354Y-92207D01*
X91604Y-93207D01*
X90729Y-93873D01*
X89729Y-94040D01*
G01X102479Y-84873D02*
X101729Y-84373D01*
X100854Y-84040D01*
X99854D01*
X98729Y-84540D01*
X97854Y-85373D01*
X97229Y-86373D01*
X96729Y-88040D01*
X96604Y-89540D01*
X96854Y-91040D01*
X97229Y-92040D01*
X97979Y-93040D01*
X98854Y-93707D01*
X99729Y-94040D01*
X100604D01*
X101479Y-93707D01*
X102229Y-93207D01*
X102854Y-92540D01*
G01X107104Y-94040D02*
Y-84040D01*
G01X112354D02*
Y-94040D01*
G01Y-89040D02*
X107104D01*
G01X118229Y-84040D02*
X121229D01*
G01X119729D02*
Y-94040D01*
G01X118229D02*
X121229D01*
G01X127229D02*
Y-84040D01*
X130229D01*
X131229Y-84540D01*
X131979Y-85707D01*
X132229Y-87040D01*
X131979Y-88373D01*
X131354Y-89373D01*
X130229Y-89874D01*
X127229D01*
G01X137104Y-92707D02*
X138104Y-93540D01*
X139229Y-94040D01*
X140229D01*
X141229Y-93540D01*
X141979Y-92707D01*
X142354Y-91540D01*
X142104Y-90374D01*
X141479Y-89373D01*
X140354Y-88707D01*
X138854Y-88373D01*
X137979Y-87707D01*
X137604Y-86540D01*
X137854Y-85373D01*
X138479Y-84540D01*
X139354Y-84040D01*
X140229D01*
X141104Y-84373D01*
X141854Y-85207D01*
G01X-82850Y-75234D02*
Y-65234D01*
X-80350D01*
X-79350Y-65734D01*
X-78600Y-66401D01*
X-77975Y-67401D01*
X-77475Y-68568D01*
X-77350Y-70234D01*
X-77475Y-71901D01*
X-77975Y-73067D01*
X-78600Y-74068D01*
X-79350Y-74734D01*
X-80350Y-75234D01*
X-82850D01*
G01X-73225D02*
X-70100Y-65234D01*
X-66975Y-75234D01*
G01X-68100Y-71734D02*
X-72100D01*
G01X-60100Y-65234D02*
Y-75234D01*
G01X-62975Y-65234D02*
X-57225D01*
G01X-47600Y-75234D02*
X-52600D01*
Y-65234D01*
X-47600D01*
G01X-49600Y-70067D02*
X-52600D01*
G01X-40100Y-75567D02*
X-40350Y-75401D01*
Y-75067D01*
X-40100Y-74901D01*
X-39850Y-75067D01*
Y-75401D01*
X-40100Y-75567D01*
G01Y-71068D02*
X-40350Y-70901D01*
Y-70567D01*
X-40100Y-70401D01*
X-39850Y-70567D01*
Y-70901D01*
X-40100Y-71068D01*
G01X-20100Y-75234D02*
Y-65234D01*
X-21600Y-67234D01*
G01Y-75234D02*
X-18600D01*
G01X-10100D02*
Y-65234D01*
X-11600Y-67234D01*
G01Y-75234D02*
X-8600D01*
G01X-2350Y-75567D02*
X2150Y-65234D01*
G01X9900D02*
X8900Y-65567D01*
X8150Y-66401D01*
X7650Y-67401D01*
X7275Y-68734D01*
X7150Y-70234D01*
X7275Y-71734D01*
X7650Y-73067D01*
X8150Y-74068D01*
X8900Y-74901D01*
X9900Y-75234D01*
X10900Y-74901D01*
X11650Y-74068D01*
X12150Y-73067D01*
X12525Y-71734D01*
X12650Y-70234D01*
X12525Y-68734D01*
X12150Y-67401D01*
X11650Y-66401D01*
X10900Y-65567D01*
X9900Y-65234D01*
G01X17525Y-66901D02*
X18275Y-65901D01*
X19150Y-65401D01*
X20150Y-65234D01*
X21400Y-65567D01*
X22275Y-66401D01*
X22525Y-67401D01*
X22400Y-68401D01*
X21900Y-69234D01*
X19400Y-70901D01*
X18275Y-72067D01*
X17525Y-73734D01*
X17275Y-75234D01*
X22525D01*
G01X27650Y-75567D02*
X32150Y-65234D01*
G01X37525Y-66901D02*
X38275Y-65901D01*
X39150Y-65401D01*
X40150Y-65234D01*
X41400Y-65567D01*
X42275Y-66401D01*
X42525Y-67401D01*
X42400Y-68401D01*
X41900Y-69234D01*
X39400Y-70901D01*
X38275Y-72067D01*
X37525Y-73734D01*
X37275Y-75234D01*
X42525D01*
G01X49900Y-65234D02*
X48900Y-65567D01*
X48150Y-66401D01*
X47650Y-67401D01*
X47275Y-68734D01*
X47150Y-70234D01*
X47275Y-71734D01*
X47650Y-73067D01*
X48150Y-74068D01*
X48900Y-74901D01*
X49900Y-75234D01*
X50900Y-74901D01*
X51650Y-74068D01*
X52150Y-73067D01*
X52525Y-71734D01*
X52650Y-70234D01*
X52525Y-68734D01*
X52150Y-67401D01*
X51650Y-66401D01*
X50900Y-65567D01*
X49900Y-65234D01*
G01X59900Y-75234D02*
Y-65234D01*
X58400Y-67234D01*
G01Y-75234D02*
X61400D01*
G01X67775Y-74068D02*
X68650Y-74901D01*
X69650Y-75234D01*
X70650Y-74901D01*
X71525Y-73901D01*
X72150Y-72401D01*
X72400Y-70901D01*
Y-69067D01*
X72150Y-67567D01*
X71525Y-66234D01*
X70775Y-65567D01*
X69900Y-65234D01*
X68900Y-65567D01*
X68150Y-66234D01*
X67650Y-67234D01*
X67400Y-68568D01*
X67650Y-69734D01*
X68275Y-70901D01*
X69025Y-71568D01*
X69900Y-71734D01*
X70900Y-71401D01*
X71650Y-70567D01*
X72400Y-69067D01*
G01X59804Y-52540D02*
X63804D01*
X63429Y-51373D01*
X62804Y-50707D01*
X61929Y-50374D01*
X61054Y-50540D01*
X60304Y-51040D01*
X59804Y-52207D01*
X59554Y-53207D01*
Y-54207D01*
X59804Y-55207D01*
X60429Y-56207D01*
X61179Y-56873D01*
X62054Y-57040D01*
X62929Y-56707D01*
X63804Y-55707D01*
G01X70179Y-47040D02*
X73179D01*
G01X71679D02*
Y-57040D01*
G01X70179D02*
X73179D01*
G01X78804D02*
Y-47040D01*
X84554Y-57040D01*
Y-47040D01*
G01X89304Y-57040D02*
Y-47040D01*
X94054D01*
G01X92304Y-51873D02*
X89304D01*
G01X101679Y-57040D02*
X100679Y-56873D01*
X99804Y-56207D01*
X99054Y-55207D01*
X98554Y-54040D01*
X98304Y-52707D01*
Y-51373D01*
X98554Y-50040D01*
X99054Y-48873D01*
X99804Y-47873D01*
X100679Y-47207D01*
X101679Y-47040D01*
X102679Y-47207D01*
X103554Y-47873D01*
X104304Y-48873D01*
X104804Y-50040D01*
X105054Y-51373D01*
Y-52707D01*
X104804Y-54040D01*
X104304Y-55207D01*
X103554Y-56207D01*
X102679Y-56873D01*
X101679Y-57040D01*
G01X114429Y-47873D02*
X113679Y-47373D01*
X112804Y-47040D01*
X111804D01*
X110679Y-47540D01*
X109804Y-48373D01*
X109179Y-49373D01*
X108679Y-51040D01*
X108554Y-52540D01*
X108804Y-54040D01*
X109179Y-55040D01*
X109929Y-56040D01*
X110804Y-56707D01*
X111679Y-57040D01*
X112554D01*
X113429Y-56707D01*
X114179Y-56207D01*
X114804Y-55540D01*
G01X119054Y-57040D02*
Y-47040D01*
G01X124304D02*
Y-57040D01*
G01Y-52040D02*
X119054D01*
G01X130179Y-47040D02*
X133179D01*
G01X131679D02*
Y-57040D01*
G01X130179D02*
X133179D01*
G01X139179D02*
Y-47040D01*
X142179D01*
X143179Y-47540D01*
X143929Y-48707D01*
X144179Y-50040D01*
X143929Y-51373D01*
X143304Y-52373D01*
X142179Y-52874D01*
X139179D01*
G01X149054Y-55707D02*
X150054Y-56540D01*
X151179Y-57040D01*
X152179D01*
X153179Y-56540D01*
X153929Y-55707D01*
X154304Y-54540D01*
X154054Y-53374D01*
X153429Y-52373D01*
X152304Y-51707D01*
X150804Y-51373D01*
X149929Y-50707D01*
X149554Y-49540D01*
X149804Y-48373D01*
X150429Y-47540D01*
X151304Y-47040D01*
X152179D01*
X153054Y-47373D01*
X153804Y-48207D01*
G01X318200Y-92634D02*
Y-82634D01*
X321325D01*
X322325Y-83134D01*
X322950Y-83801D01*
X323200Y-85134D01*
X322950Y-86467D01*
X322200Y-87301D01*
X321325Y-87801D01*
X318200D01*
G01X321325D02*
X323200Y-92634D01*
G01X333200D02*
X328200D01*
Y-82634D01*
X333200D01*
G01X331200Y-87467D02*
X328200D01*
G01X337575Y-82634D02*
X340700Y-92634D01*
X343825Y-82634D01*
G01X350700Y-92967D02*
X350450Y-92801D01*
Y-92467D01*
X350700Y-92301D01*
X350950Y-92467D01*
Y-92801D01*
X350700Y-92967D01*
G01Y-88468D02*
X350450Y-88301D01*
Y-87967D01*
X350700Y-87801D01*
X350950Y-87967D01*
Y-88301D01*
X350700Y-88468D01*
G01X358325Y-84301D02*
X359075Y-83301D01*
X359950Y-82801D01*
X360950Y-82634D01*
X362200Y-82967D01*
X363075Y-83801D01*
X363325Y-84801D01*
X363200Y-85801D01*
X362700Y-86634D01*
X360200Y-88301D01*
X359075Y-89467D01*
X358325Y-91134D01*
X358075Y-92634D01*
X363325D01*
G01X370700Y-92967D02*
X370450Y-92801D01*
Y-92467D01*
X370700Y-92301D01*
X370950Y-92467D01*
Y-92801D01*
X370700Y-92967D01*
G01X380700Y-82634D02*
X379700Y-82967D01*
X378950Y-83801D01*
X378450Y-84801D01*
X378075Y-86134D01*
X377950Y-87634D01*
X378075Y-89134D01*
X378450Y-90467D01*
X378950Y-91468D01*
X379700Y-92301D01*
X380700Y-92634D01*
X381700Y-92301D01*
X382450Y-91468D01*
X382950Y-90467D01*
X383325Y-89134D01*
X383450Y-87634D01*
X383325Y-86134D01*
X382950Y-84801D01*
X382450Y-83801D01*
X381700Y-82967D01*
X380700Y-82634D01*
G54D17*
X92792Y203027D03*
X56600Y180150D03*
X58299Y186016D03*
X52100Y186800D03*
X89150Y131450D03*
X197973Y172102D03*
X65945Y194516D03*
X80400Y214341D03*
X75377Y197700D03*
X92866Y198413D03*
X171000Y206100D03*
X172800D03*
X89371Y198684D03*
X97207Y188377D03*
X111279Y186579D03*
X136619Y188103D03*
X121121Y186579D03*
X195216Y216099D03*
X88584Y136600D03*
X199361Y170400D03*
X69245Y194516D03*
X104479Y195347D03*
X77800Y164400D03*
X64521Y160656D03*
X60584D03*
X58616D03*
X49856Y167447D03*
X33800Y168700D03*
X44796Y194799D03*
X32700Y165600D03*
X49856Y169416D03*
X127921Y203221D03*
X153136Y65532D03*
X144277Y49521D03*
X110716Y104700D03*
X167400Y189400D03*
X165600D03*
X154900Y203700D03*
X134508Y201517D03*
X86071Y170916D03*
X90361Y171988D03*
X76800Y188000D03*
X69216Y189500D03*
Y186100D03*
X89700Y190000D03*
X89727Y188377D03*
X89800Y186600D03*
X62429Y198084D03*
X47584Y155300D03*
X75400Y133500D03*
X36804Y99400D03*
X13504Y99500D03*
X53616Y100800D03*
X7682Y185835D03*
X19200Y185304D03*
X23184Y184884D03*
X74600Y168100D03*
X77700D03*
X66490Y160656D03*
X42400Y182400D03*
X45700D03*
X85684Y206813D03*
X138034Y197453D03*
X151763Y197294D03*
X153234Y190467D03*
X144099Y188103D03*
X140508Y201517D03*
X167455Y211949D03*
Y215849D03*
X167816Y163483D03*
Y166683D03*
X167781Y169951D03*
X198819Y165449D03*
X198789Y162203D03*
X193589Y93763D03*
X171500Y47016D03*
X174190Y62335D03*
X80600Y66700D03*
X82816Y62100D03*
X95000Y82300D03*
X97800D03*
X100500D03*
X100600Y72300D03*
X97636D03*
X94800D03*
X100600Y62300D03*
X97700D03*
X94800D03*
X100700Y52300D03*
X97700D03*
X94700D03*
X86476Y215547D03*
X88644Y211261D03*
X166101Y20011D03*
X170640D03*
X58299Y189784D03*
X110716Y108400D03*
X120507Y109857D03*
X134793D03*
X120507Y124143D03*
X134793D03*
X107100Y121416D03*
X110716Y121200D03*
Y117200D03*
X107199Y117884D03*
X136114Y210929D03*
X140300Y214297D03*
X148000Y217000D03*
X144600D03*
X141400Y216600D03*
X138214Y174059D03*
X111182Y153059D03*
X112350Y157373D03*
X112318Y162303D03*
X119508Y162417D03*
X119476Y157547D03*
X120344Y153361D03*
X114000Y153000D03*
X117200D03*
X115800Y157100D03*
X114700Y162500D03*
X117300Y162400D03*
X116000Y159800D03*
X52710Y180144D03*
X39700Y171416D03*
X43213Y171421D03*
X77400Y161200D03*
X111600Y135084D03*
X137000Y131116D03*
X122201Y134984D03*
X158650Y38500D03*
X199016Y216099D03*
X82811Y58337D03*
X115300Y183600D03*
X117100D03*
Y178600D03*
X115300D03*
X117100Y176000D03*
X115300D03*
X117100Y173600D03*
X115300D03*
X117100Y166100D03*
X115300D03*
X114100Y213400D03*
X115600D03*
X117200D03*
X118700D03*
X116400Y215600D03*
X118200D03*
X114400Y215700D03*
X125460Y95850D03*
Y102850D03*
X153791Y108300D03*
X153700Y110300D03*
X130500Y88100D03*
X134800Y88500D03*
X141600Y88800D03*
X137100Y88200D03*
X140200Y90400D03*
X142900Y92900D03*
X144500Y89000D03*
X132700Y88500D03*
X128500Y89500D03*
X127400Y88100D03*
X126900Y90800D03*
X125000Y89700D03*
X139013Y88576D03*
X142200Y91000D03*
X190400Y190100D03*
X180300Y188200D03*
X176000Y197700D03*
X179200Y207900D03*
X176000Y191700D03*
X37000Y76800D03*
X56300Y82100D03*
X71600Y86800D03*
X71100Y67500D03*
X73000Y62200D03*
X175800Y217200D03*
X53500Y200100D03*
X32100Y84800D03*
X30900Y67000D03*
X117000Y88900D03*
X96000Y89800D03*
X72900Y57200D03*
X92200Y13300D03*
X118300Y17400D03*
X117100Y142900D03*
X95600Y114700D03*
X197000Y149200D03*
X198600Y134200D03*
X196200Y181300D03*
X197400Y176500D03*
X175900Y203800D03*
X175600Y180700D03*
X46600Y197300D03*
X84700Y213800D03*
X84900Y211300D03*
X86500Y212200D03*
X103000Y120000D03*
X95300Y103600D03*
X49400Y91100D03*
X49000Y78300D03*
X109300Y93900D03*
X124000Y147300D03*
X120200Y138700D03*
X182500Y181400D03*
X188300Y183000D03*
X182900Y192700D03*
X117296Y9400D03*
X133400Y10196D03*
X77000Y151584D03*
X33800Y127300D03*
X52800Y109584D03*
X56216Y111000D03*
Y114100D03*
X85984Y117700D03*
Y120800D03*
X89184Y128400D03*
X88584Y142600D03*
Y139600D03*
X34196Y187500D03*
X25600Y195000D03*
X17000Y148200D03*
X33800Y146600D03*
X17000Y126200D03*
X69600Y139200D03*
X69500Y127600D03*
X102900Y112100D03*
X123000Y3100D03*
Y6300D03*
X4200Y147500D03*
X5400Y143500D03*
X9600Y143400D03*
X4300Y130100D03*
X9300D03*
X10300Y152400D03*
X17100Y157300D03*
X29300D03*
X23300Y157400D03*
X54100Y145100D03*
X34100Y152600D03*
X38000Y148800D03*
X4200Y124000D03*
Y117300D03*
X4300Y110100D03*
X4200Y99200D03*
X15600Y88800D03*
X25100Y89100D03*
X29300Y77300D03*
X29200Y60100D03*
X10100Y23000D03*
X3700Y18000D03*
X22700Y20300D03*
X28000Y16600D03*
X38400Y16500D03*
X48100D03*
X53900Y16200D03*
X70800Y32900D03*
X75600Y26800D03*
X81400Y26700D03*
X86000Y22600D03*
X92800Y18400D03*
X101900Y18200D03*
X111300Y18300D03*
X46000Y128400D03*
X72500Y157984D03*
X69400D03*
X70200Y151700D03*
X80100D03*
X69600Y136700D03*
X16700Y142000D03*
X31400Y141800D03*
X21500Y141600D03*
X26100D03*
X16400Y131800D03*
X31500Y131900D03*
X21700Y132300D03*
X27100Y132200D03*
X37100Y142400D03*
X37200Y131800D03*
X46800Y131900D03*
X47100Y142500D03*
X42500D03*
X42200Y131700D03*
X55800Y139800D03*
X54000D03*
X56200Y130200D03*
X60800Y124500D03*
X57400Y124600D03*
X73700Y148900D03*
X56100Y157100D03*
X49600D03*
X25100Y119700D03*
X39700Y119800D03*
X21400Y116300D03*
X32400Y119900D03*
X39800Y106400D03*
X27900Y106600D03*
X23600Y108900D03*
X56363Y153584D03*
X52937D03*
X48004Y151200D03*
X88684Y145500D03*
X64500Y146800D03*
X58500Y142800D03*
X58200Y147700D03*
X59400Y153800D03*
X64900Y151500D03*
X135900Y6000D03*
X121504Y9400D03*
X114484Y104700D03*
X124690Y109400D03*
X110716Y112701D03*
X124690Y124600D03*
X115300Y134984D03*
X160700Y137900D03*
X108100Y135084D03*
X49856Y175321D03*
X73465Y161235D03*
X66284Y154900D03*
X18484Y166000D03*
X19942Y176158D03*
X18484Y162200D03*
X12300Y184784D03*
X50500Y130000D03*
X79500Y126610D03*
X64600Y143300D03*
X74500Y120800D03*
X72600Y120700D03*
X68600Y143200D03*
X3414Y135789D03*
X3399Y138321D03*
X62900Y149200D03*
X70200Y147900D03*
X49200Y189789D03*
X13200Y148200D03*
Y126100D03*
X189300Y298184D03*
X172600Y309700D03*
X171800Y314100D03*
X184108Y299892D03*
X190000Y289000D03*
X191616Y286500D03*
X191584Y280100D03*
X183216Y272551D03*
X184416Y314200D03*
X185900Y298184D03*
X193000D03*
X159979Y238077D03*
X158200Y239000D03*
X126583Y295183D03*
Y297017D03*
X168368Y326953D03*
X170338D03*
X185852D03*
X174278D03*
X187822D03*
X176248D03*
X199700Y294295D03*
X183716Y353000D03*
X197500Y249400D03*
Y247400D03*
X198450Y263400D03*
X197151Y271150D03*
Y269150D03*
X148891Y230519D03*
X182000Y274800D03*
X181300Y276405D03*
X180200Y277900D03*
X24557Y372103D03*
X28937D03*
X36300Y377888D03*
X90289Y242333D03*
Y238873D03*
X102757Y359303D03*
X184700Y287400D03*
X184800Y290700D03*
X184684Y283100D03*
X195800Y355700D03*
X103865Y337289D03*
X114516Y334800D03*
X107670Y338649D03*
X38216Y333100D03*
X31170Y337349D03*
X25365Y337289D03*
X101865D03*
X38216Y336800D03*
X33170Y337349D03*
X27365Y337289D03*
X114516Y338300D03*
X109670Y338649D03*
X117027Y330000D03*
X196670Y344120D03*
X181340Y344320D03*
X93000Y303300D03*
X97900Y303400D03*
X100100Y302200D03*
X104300Y301500D03*
X190760Y344120D03*
X198640D03*
X179370Y344320D03*
X192730Y344120D03*
X51302Y332100D03*
X58250Y337200D03*
X57502Y335400D03*
X118800Y330800D03*
X25365Y326494D03*
X27365D03*
X31270D03*
X33270D03*
X184550Y250950D03*
X101865Y326494D03*
X103865D03*
X100915Y267357D03*
X159901Y327084D03*
X52802Y318900D03*
Y316600D03*
X52502Y313500D03*
X33759Y319640D03*
X29317Y329617D03*
Y333751D03*
X97184Y328000D03*
X80400Y322302D03*
X82600D03*
X89000Y320702D03*
X105817Y329617D03*
Y333751D03*
X117667Y322711D03*
X131137Y324949D03*
X97590Y366987D03*
X126084Y366299D03*
X113580Y375984D03*
X100400Y382300D03*
X125700Y384200D03*
X131600Y386500D03*
X141200Y386400D03*
X127700Y384100D03*
X100500Y378700D03*
X19490Y381533D03*
X31990Y381779D03*
X43590Y381851D03*
X45900Y371000D03*
X54984Y383783D03*
X33800Y372500D03*
X159957Y220561D03*
X152549Y239449D03*
X142612Y228059D03*
X156716Y243400D03*
X124841Y255900D03*
Y250800D03*
X150116Y302900D03*
X139300Y299600D03*
X130416Y296300D03*
X122284Y294683D03*
X182400Y301984D03*
X180616Y314200D03*
X168016Y313700D03*
X185900Y301984D03*
X189300D03*
X193000Y294416D03*
X196700Y302484D03*
X187800Y264900D03*
Y260900D03*
X165400Y255200D03*
X186616Y253345D03*
Y256845D03*
X90279Y228448D03*
Y231968D03*
X82979Y225185D03*
X82989Y228455D03*
X65605Y227289D03*
X92812Y225461D03*
X81913Y243556D03*
X195384Y290700D03*
Y286500D03*
X187784Y280200D03*
X168700Y298516D03*
X163384Y311617D03*
Y306117D03*
X163751Y239455D03*
X167251D03*
X141700Y218500D03*
X144200Y219400D03*
X114800Y245400D03*
X119900Y245500D03*
X117100Y242100D03*
X117000Y235600D03*
X116900Y238900D03*
X111382Y246019D03*
X112818Y241903D03*
X122774Y246047D03*
X121408Y241917D03*
X120527Y235793D03*
X113499Y235803D03*
X74039Y240603D03*
X76500Y240600D03*
X78700D03*
X69400D03*
X71500D03*
Y242800D03*
X69400D03*
X78700D03*
X76500D03*
X74039Y242803D03*
X71500Y245200D03*
X69400D03*
X78700D03*
X76500D03*
X74039Y245203D03*
X71500Y238200D03*
X69400D03*
X78700D03*
X76500D03*
X74039Y238203D03*
X71500Y235900D03*
X69400D03*
X78700D03*
X76500D03*
X74039Y235903D03*
X6315Y306586D03*
Y292414D03*
X42900Y299200D03*
X61002Y297700D03*
X74800Y294216D03*
X105898Y265514D03*
Y270566D03*
X119600Y264700D03*
X120616Y269800D03*
X120700Y279617D03*
X119600Y266700D03*
X135432Y258983D03*
X175800Y279900D03*
Y295600D03*
X175901Y302250D03*
X196516Y314800D03*
X172308Y326953D03*
Y322113D03*
X189792Y326953D03*
Y322113D03*
X177400Y344320D03*
Y339480D03*
X194700Y344120D03*
Y339280D03*
X198021Y351770D03*
X177000Y352516D03*
X177961Y363513D03*
X182900Y361400D03*
X180900D03*
X182900Y365700D03*
X180900D03*
X191705Y360616D03*
X188132Y222017D03*
X165784Y312400D03*
X165500Y310100D03*
X165600Y308500D03*
X167400Y310900D03*
X61798Y330300D03*
X55298Y335400D03*
X49098Y332100D03*
X51300Y327398D03*
X71498Y330646D03*
Y328400D03*
X67702Y301600D03*
Y299300D03*
X62302Y336100D03*
X92902Y332700D03*
X116400Y218200D03*
X118200D03*
X116500Y221000D03*
X118300D03*
X116500Y223400D03*
X118400D03*
X116500Y225800D03*
X118400D03*
X116800Y228600D03*
X118500D03*
X116700Y231300D03*
X118400D03*
X114500Y224000D03*
Y226400D03*
X114400Y218100D03*
X88500Y290100D03*
X190300Y226900D03*
X181600Y234000D03*
X182000Y228100D03*
X125000Y315400D03*
X113300Y300300D03*
X92000Y315300D03*
X196800Y308500D03*
X176100Y258900D03*
X178800Y308500D03*
X187600D03*
X167400Y246600D03*
X182900Y221500D03*
X176200Y266400D03*
X175800Y251900D03*
X175900Y229500D03*
X175600Y235300D03*
X175900Y241000D03*
X160200Y264300D03*
X175900Y273100D03*
Y286300D03*
X114600Y384900D03*
X81400Y381700D03*
X102800Y352200D03*
X157400Y316800D03*
X158900Y314900D03*
X152900Y317000D03*
X95100Y335300D03*
Y337600D03*
X81100Y248000D03*
X87700Y245400D03*
X92700Y245500D03*
X81300Y252700D03*
X93100Y249200D03*
X93300Y255000D03*
X96300Y260300D03*
X86600Y260500D03*
X95800Y267000D03*
X87600Y251500D03*
X81500Y373400D03*
X76900Y381800D03*
X77000Y373500D03*
X136300Y384000D03*
X141200Y381600D03*
X131600D03*
X150952Y348943D03*
X61700Y371100D03*
X60400Y345200D03*
X73700Y343600D03*
X70300Y341900D03*
X64900Y345100D03*
X54800Y339800D03*
X73700Y335100D03*
X97600Y386000D03*
X122600Y365900D03*
X116400Y365800D03*
X119600Y365700D03*
X111100Y368900D03*
X106100Y373700D03*
X30200Y293700D03*
X38400D03*
X185549Y373100D03*
X192400Y348200D03*
X171400Y347200D03*
X199700Y348300D03*
X194600Y336000D03*
X184000D03*
X188100Y335900D03*
X184200Y346800D03*
X187900Y347000D03*
X184800Y341900D03*
X188100Y341800D03*
X170500Y341700D03*
X175300Y334500D03*
X179000Y328900D03*
X182900Y329000D03*
X179000Y324500D03*
X182900Y324400D03*
X182700Y318500D03*
X196200Y325300D03*
X195800Y329300D03*
X196200Y320300D03*
X179200Y320100D03*
X190700Y318200D03*
X199000Y318000D03*
X156900Y321300D03*
X162200Y316300D03*
X166000Y319300D03*
X172300Y330900D03*
X165800Y329000D03*
X156900Y331300D03*
X139500Y326400D03*
X131900Y343000D03*
X150900Y352500D03*
X147800Y346000D03*
X153300Y345400D03*
X162400Y345200D03*
X140900Y343700D03*
X132500Y333500D03*
X141400Y334900D03*
X155200Y334800D03*
X147900Y336300D03*
X96900Y325200D03*
X169900Y335700D03*
X2900Y326400D03*
X11800Y337800D03*
X21900D03*
X22100Y326100D03*
X3200Y310800D03*
X15800Y328800D03*
X15600Y313100D03*
X2900Y296300D03*
Y302700D03*
X26600Y290000D03*
X11700Y290300D03*
X29600Y301100D03*
X39700Y302400D03*
X43400Y308600D03*
X41400Y325900D03*
X183200Y245900D03*
X167100Y222600D03*
X192418Y229918D03*
X194380Y230080D03*
X189600Y273000D03*
X159901Y323316D03*
X38064Y321677D03*
X214600Y186600D03*
X213690Y212809D03*
X216000Y212500D03*
X232355Y193284D03*
X239686Y192315D03*
X272269Y124491D03*
X255400Y114316D03*
X271800Y168784D03*
X211300Y215200D03*
X212500Y214100D03*
X275216Y162200D03*
X235800Y198000D03*
X240300Y198100D03*
X271900Y186676D03*
X311363Y179297D03*
X268500Y160400D03*
X266925Y159600D03*
X265350Y159900D03*
X263508Y149208D03*
X207700Y171100D03*
X222700Y185100D03*
X222900Y164716D03*
X226159Y102590D03*
X226300Y164716D03*
X228873Y109241D03*
X212700Y168484D03*
X216100Y164716D03*
X226159Y98653D03*
X236831Y79250D03*
X253241Y96684D03*
X260069Y117291D03*
X242568Y79250D03*
X209300Y168484D03*
X232725Y79250D03*
X219500Y164716D03*
X226159Y100621D03*
X280784Y171900D03*
X246674Y78050D03*
X212700Y164716D03*
X226159Y96684D03*
X238631Y79250D03*
X222900Y168484D03*
X234779Y78821D03*
X240768Y79250D03*
X209300Y164716D03*
X217568Y111768D03*
X219500Y168484D03*
X230925Y79250D03*
X265400Y172400D03*
X254066Y106461D03*
X266516Y106600D03*
X232000Y171300D03*
X266516Y110200D03*
X229316Y168484D03*
X240900Y126284D03*
X276000Y28884D03*
X233300Y28684D03*
X248473Y78050D03*
X233987Y207412D03*
X232900Y216700D03*
X206598Y212700D03*
X222551Y200269D03*
X253900Y134684D03*
X271131Y151251D03*
X272269Y117291D03*
X308085Y26500D03*
X303538Y102300D03*
X306510Y26500D03*
X263479Y199314D03*
X246472Y199457D03*
X255528Y206543D03*
X253100Y149216D03*
X277928Y96843D03*
X271131Y155019D03*
X275731Y147419D03*
X230100Y162116D03*
X258237Y136887D03*
X263384Y82400D03*
X262527Y93521D03*
X263884Y102900D03*
X268872Y89757D03*
X262487Y90089D03*
X264841Y144171D03*
X318081Y107591D03*
Y111431D03*
X297759Y75581D03*
X224237Y119887D03*
X217498Y108500D03*
X217463Y105431D03*
X216516Y96800D03*
Y92800D03*
X251400Y122800D03*
X261902Y105600D03*
X261937Y108269D03*
X270284Y110200D03*
X255184Y212600D03*
X261516Y212200D03*
X303341Y32071D03*
X317989Y26923D03*
X314683Y30911D03*
X323544Y30652D03*
X325010Y52048D03*
X261737Y100169D03*
X262400Y176600D03*
X247349Y176801D03*
X253116Y176269D03*
X218648Y176801D03*
X212349D03*
X206050D03*
X226319Y200269D03*
X271900Y183724D03*
X254869Y186667D03*
X305499Y185950D03*
Y192249D03*
Y198548D03*
X324645Y178967D03*
X312981Y183891D03*
X309081Y170591D03*
X228031Y116937D03*
X226598Y78100D03*
X251102Y126000D03*
X227500Y134700D03*
X265600Y168700D03*
X278800Y153600D03*
X311400Y95300D03*
X296800Y92400D03*
X309200Y90600D03*
X302500Y109200D03*
X295800Y115100D03*
X330300Y152900D03*
X287700Y101600D03*
X308500Y209000D03*
X206300Y142000D03*
X241400Y139700D03*
X248200Y139800D03*
X249100Y133400D03*
X238400Y131100D03*
X232500Y127500D03*
X225000Y123500D03*
X218500Y120100D03*
X216100Y116400D03*
X206800Y118200D03*
X205800Y127800D03*
X211300Y138100D03*
X221000Y137500D03*
X235000Y138100D03*
X213000Y129100D03*
X303900Y172100D03*
X235400Y176800D03*
X225000Y177300D03*
X268600Y176800D03*
X274700Y176500D03*
X331200Y198600D03*
X308600Y194500D03*
X302500Y192800D03*
X257100Y140100D03*
X253500Y138500D03*
X304935Y37200D03*
X304073Y26528D03*
X301700Y29492D03*
X301600Y34650D03*
X212541Y192760D03*
X215100D03*
X313900Y52740D03*
X316459D03*
X309016Y40700D03*
X278600Y128600D03*
X283500Y128500D03*
X282500Y124200D03*
X316100Y164200D03*
X288800Y163800D03*
X295900Y163700D03*
X303300D03*
X309000Y163600D03*
X323500Y164100D03*
X325300Y150900D03*
X317000Y89600D03*
X322000Y94400D03*
X316800Y96500D03*
X263400Y151500D03*
X263500Y156400D03*
X263600Y161700D03*
X263500Y167100D03*
X272884Y212200D03*
X277200Y203800D03*
X288600Y203400D03*
X277000Y208800D03*
X287200D03*
X277600Y190700D03*
X287600Y190600D03*
X282500Y189600D03*
X277500Y198300D03*
X288600Y198100D03*
X296500Y3400D03*
X302800Y9600D03*
X304300Y22100D03*
X307400Y23900D03*
X310600Y21900D03*
X311800Y48800D03*
X317700Y32200D03*
X305800Y66000D03*
X315900Y69200D03*
X329700D03*
X306100Y54400D03*
X204200Y151100D03*
X206900Y154600D03*
X207300Y161500D03*
X226000Y161700D03*
X234100Y163800D03*
X232100Y168200D03*
X259400Y168100D03*
X235200Y150900D03*
X236200Y155900D03*
X228800Y143700D03*
X259600Y146400D03*
X201800Y69900D03*
D03*
X226159Y104558D03*
Y86842D03*
Y94716D03*
X230842Y109241D03*
X238716D03*
X253241Y100621D03*
X223200Y205700D03*
X287971Y325457D03*
X254592Y242308D03*
X317322Y245846D03*
X257151Y278133D03*
X309900Y289800D03*
X257151Y285810D03*
X315870Y292000D03*
X257151Y275574D03*
X311023Y276554D03*
X254592Y285810D03*
X320472Y284231D03*
X304723D03*
X257151Y273015D03*
X311023Y245846D03*
X259710Y244867D03*
X317231Y243287D03*
X254592Y234630D03*
X311023Y279113D03*
X262270Y283251D03*
X241000Y304845D03*
X245300Y378084D03*
X254592Y288370D03*
X317322Y279113D03*
X247896Y303900D03*
X253300Y377984D03*
X309900Y232500D03*
X257151Y244867D03*
X200450Y263400D03*
X257151Y280692D03*
X314373Y284231D03*
X212600Y296000D03*
X314173Y279113D03*
X259710Y283251D03*
X209600Y300485D03*
X257151Y239749D03*
X315862Y230408D03*
X205600Y303495D03*
X221326Y244867D03*
X208000Y302000D03*
X211407Y298990D03*
X225208Y302708D03*
X215516Y314800D03*
X200600Y289400D03*
X211090Y290929D03*
X203300Y304990D03*
X213900Y297495D03*
X212550Y294050D03*
X222200Y303300D03*
X205100Y318000D03*
X222229Y329174D03*
X230109D03*
X218767Y242308D03*
X247162Y329174D03*
X249132D03*
X241252D03*
X243222D03*
X228139D03*
X221326Y237190D03*
X223885Y242308D03*
X212932Y326953D03*
X210962D03*
X225450Y311450D03*
X223885Y239749D03*
X208800Y218000D03*
X206031Y280632D03*
X249896Y303900D03*
X249500Y377984D03*
X236679Y290929D03*
X213900Y378084D03*
X236679Y293488D03*
X219100Y378084D03*
X246945Y290959D03*
X222500Y378084D03*
X246945Y293518D03*
X227700Y378084D03*
X231100D03*
X243278Y295300D03*
X257151Y242308D03*
X314373Y238169D03*
X236300Y378084D03*
X245300Y295285D03*
X257151Y247426D03*
X307873Y245846D03*
X241055Y306600D03*
X239600Y378084D03*
X304400Y239500D03*
X257151Y249985D03*
X311023Y243287D03*
X262270Y239749D03*
X314173Y243287D03*
X259710Y239749D03*
Y278133D03*
X307873Y279113D03*
X204010Y292821D03*
X208600Y285900D03*
X320472Y235610D03*
X254592Y237190D03*
X218803Y288462D03*
X254592Y280692D03*
X317322Y276554D03*
X208530Y249985D03*
X224199Y329174D03*
X236300Y367316D03*
X254172Y384341D03*
X219100Y367316D03*
X222872Y384241D03*
X223885Y285810D03*
X221326Y288370D03*
X218767Y285810D03*
X227700Y367316D03*
X238172Y384341D03*
X312900Y371416D03*
X216208Y285810D03*
X231600Y294300D03*
X228495Y295700D03*
X239239Y242308D03*
X243150Y338950D03*
X241798Y244867D03*
X236680Y242308D03*
X239239Y244867D03*
X241797Y242307D03*
X236679Y247426D03*
X217532Y343987D03*
X320000Y224140D03*
X252063Y244837D03*
X211622Y343987D03*
X209652D03*
X215562D03*
X216208Y280692D03*
X244788Y255078D03*
X241797Y275575D03*
X203412Y232070D03*
X252033Y285811D03*
Y288370D03*
X246915Y234630D03*
X275349Y253949D03*
X264829Y275574D03*
X257151Y232071D03*
X259710D03*
X268051Y240357D03*
X259672Y247464D03*
X262269Y270456D03*
X257151Y283251D03*
X254592D03*
X268154Y295641D03*
X267967Y229605D03*
X268625Y231693D03*
X269266Y227977D03*
X266668Y231315D03*
X281200Y248400D03*
X283070Y238369D03*
X264829Y280693D03*
X275349Y244649D03*
X259712Y237190D03*
Y285810D03*
X254592Y247426D03*
X309900Y228500D03*
X289309Y233409D03*
X298771Y238500D03*
X285976Y243286D03*
X286418Y248405D03*
X299400Y250000D03*
X286418Y256082D03*
X292717Y268877D03*
X314372Y281672D03*
X304723Y276554D03*
X307873Y281672D03*
X299517Y276554D03*
X295867Y281672D03*
X289567Y271436D03*
X286418Y281672D03*
X297400Y218976D03*
X267100Y292600D03*
X271700Y295300D03*
X272500Y292000D03*
X301300Y301700D03*
X303900D03*
X312200Y299700D03*
X307000Y302700D03*
X312000Y296900D03*
X309800Y303400D03*
X312600Y303500D03*
X309600Y301100D03*
X302200Y304700D03*
X309400Y298800D03*
X313000Y301800D03*
X275298Y270500D03*
Y277500D03*
X207252Y292376D03*
X221326Y234630D03*
X211180Y234720D03*
X214928Y235909D03*
X282849Y308401D03*
X289148D03*
X275300Y308400D03*
X223885Y244867D03*
Y247426D03*
X223850Y249950D03*
X218767Y262780D03*
X221326D03*
X223885Y262779D03*
X216208D03*
X232850Y341500D03*
X330900Y230700D03*
X330899Y222849D03*
X330700Y242800D03*
X330900Y275600D03*
X331100Y269800D03*
X330899Y255752D03*
X203550Y308401D03*
X209849D03*
X216148D03*
X211716Y314800D03*
X213592Y343987D03*
Y339147D03*
X208992Y326953D03*
Y322113D03*
X226169Y329174D03*
Y324334D03*
X232184Y314800D03*
X222223Y353661D03*
Y358501D03*
X233900Y353680D03*
Y358520D03*
X260684Y357067D03*
X251565Y339721D03*
X267335Y344818D03*
X257800Y327184D03*
X255600Y307416D03*
X257428Y371441D03*
X265972Y376559D03*
X245628Y384341D03*
X254172Y389459D03*
X238172D03*
X229628Y384341D03*
X222872Y389359D03*
X308609Y356381D03*
X257800Y314416D03*
X293023Y340682D03*
X297982Y338107D03*
X298751Y333749D03*
X300016Y319601D03*
X330000Y336504D03*
X245192Y329174D03*
Y324334D03*
X274200Y341600D03*
X214328Y384241D03*
X264016Y358200D03*
X278400Y378900D03*
X236679Y267897D03*
X231562Y275574D03*
X239238Y267897D03*
X231562D03*
X206061Y239839D03*
X203382Y239719D03*
X208500Y244837D03*
X211161Y244938D03*
X262500Y218400D03*
X254000Y299100D03*
X274600Y286300D03*
X280200Y286100D03*
X281800Y291000D03*
X286400Y296800D03*
X254800Y310600D03*
X314200Y352300D03*
X323400Y352500D03*
X329000Y350200D03*
X329600Y388600D03*
X324700Y231500D03*
X330700Y281700D03*
X269600Y307800D03*
X330800Y374600D03*
X221300Y309000D03*
X228300Y308800D03*
X224800Y306800D03*
X229800D03*
X261900Y302100D03*
X262500Y308500D03*
X275500Y312800D03*
X278200Y301700D03*
X296100Y308600D03*
X302100Y308500D03*
X295400Y302600D03*
X314000Y308400D03*
X320900Y389900D03*
X331300Y308600D03*
X321300Y300600D03*
X326900Y312300D03*
X321800Y346500D03*
X313400Y330300D03*
X325000Y336084D03*
X308600Y363316D03*
X311700D03*
X315625Y361038D03*
X240400Y299900D03*
X314300Y261200D03*
X280500Y265900D03*
X330000Y345900D03*
X330500Y360000D03*
X331000Y382300D03*
X273400Y359600D03*
X273500Y355700D03*
X278400Y350300D03*
X282300Y350400D03*
X290200Y364200D03*
X278600Y362800D03*
X284500Y365700D03*
X270400Y219800D03*
X287100Y231700D03*
X287600Y225700D03*
X283800Y221800D03*
X283000Y232200D03*
X308800Y263600D03*
X308700Y259000D03*
X280900Y255100D03*
X228100Y363400D03*
X228371Y350900D03*
X234254Y350120D03*
X222508Y350305D03*
X215900Y363100D03*
X240200Y360400D03*
X216200Y349600D03*
X240700D03*
X248400Y371200D03*
X253700Y371300D03*
X251000Y349400D03*
X254300Y350300D03*
X256400Y364400D03*
X253200D03*
X249300Y361100D03*
X255200Y359900D03*
X248100Y367400D03*
X244000Y362400D03*
X207500Y349300D03*
Y356300D03*
X215700Y356900D03*
X200000Y356300D03*
X207100Y345200D03*
X221000Y345300D03*
X251300Y345100D03*
X251400Y342500D03*
X238100Y344800D03*
X241300Y340900D03*
X238300Y338500D03*
X230200Y344800D03*
X219600Y335300D03*
X220400Y340100D03*
X207800Y335400D03*
X207200Y340300D03*
X201300Y342700D03*
X201200Y335700D03*
X202900Y325100D03*
X202600Y329200D03*
X202700Y319800D03*
X215800Y320700D03*
X218500Y320600D03*
X215400Y325500D03*
X219900Y325900D03*
X213600Y335700D03*
X208800Y331100D03*
X219800Y330800D03*
X226200Y332900D03*
X230200Y338600D03*
X232700Y328500D03*
X233300Y321000D03*
X238600Y322300D03*
X238700Y326800D03*
X245100Y333200D03*
X245600Y344600D03*
X254100Y332900D03*
X257000Y329800D03*
X253100Y322100D03*
X251800Y327700D03*
X234900Y308700D03*
X242600Y308600D03*
X233600Y312200D03*
X244900Y320000D03*
X245192Y315600D03*
X248400Y309400D03*
Y306900D03*
X202000Y287091D03*
X214928Y294059D03*
G54D27*
G01X0Y0D02*
Y393701D01*
X334646D01*
Y0D01*
X0D01*
G54D18*
X190600Y104500D03*
X190585Y107973D03*
Y100973D03*
X194000Y104500D03*
Y107900D03*
Y100900D03*
X186900Y104600D03*
Y108200D03*
Y100800D03*
X41500Y61514D03*
X35800D03*
X38700Y61500D03*
X158485Y99073D03*
X154800Y99100D03*
X162200D03*
Y102700D03*
X154800D03*
X158485Y102673D03*
X162200Y95300D03*
X154800D03*
X158485Y95273D03*
X116200Y198300D03*
X108700D03*
X123700D03*
X112200D03*
X120300D03*
Y202200D03*
X123700D03*
X112200D03*
X108700D03*
X116200D03*
X120300Y205800D03*
X123700D03*
X112200D03*
X108700D03*
X116200D03*
X120300Y194700D03*
X123700D03*
X112200D03*
X108700D03*
X116200D03*
X120300Y190900D03*
X123700D03*
X112200D03*
X108700D03*
X116200D03*
X125300Y141900D03*
X134400Y142100D03*
X129500Y141900D03*
X124900Y136000D03*
X127100D03*
X66700Y96400D03*
X68200Y94400D03*
X69200Y97200D03*
X66800Y99000D03*
X78800Y113300D03*
X185300Y157000D03*
X186000Y151963D03*
X186900Y159454D03*
X189000Y157100D03*
X191500Y154000D03*
X57700Y168500D03*
X61500D03*
X54000D03*
X65100D03*
X61500Y172100D03*
X57700D03*
X65100D03*
X54000D03*
X61500Y175700D03*
X57700D03*
X65100D03*
X54000D03*
X61500Y164900D03*
X57700D03*
X65100D03*
X54000D03*
X183261Y166400D03*
X185654Y168854D03*
X180800Y168900D03*
Y163800D03*
X185654Y163754D03*
X183300Y159454D03*
X180100D03*
X180254Y174254D03*
X177800Y174300D03*
X41000Y90200D03*
X4800D03*
X68500Y47100D03*
X68300Y40000D03*
X66700Y43500D03*
Y50100D03*
X180315Y32115D03*
X197500Y30900D03*
X184000Y44600D03*
X195300Y46000D03*
X168900Y54187D03*
X171600Y54400D03*
X173156Y76588D03*
X164567Y116400D03*
X145250Y195318D03*
X145100Y198382D03*
X84100Y177600D03*
X50400Y215500D03*
X48300Y213400D03*
X54200Y215900D03*
X51800Y213000D03*
X56400D03*
X61150Y213200D03*
X66500Y212588D03*
X72200Y213200D03*
X78400Y212900D03*
X72000Y216600D03*
X64180Y216466D03*
X44644Y68200D03*
Y65300D03*
X44582Y62500D03*
X40000Y59600D03*
X43600Y60100D03*
X76200Y115900D03*
Y113300D03*
X78800Y115900D03*
X73600Y115800D03*
X71000Y113200D03*
Y115800D03*
X73600Y113200D03*
X73700Y110700D03*
X71100Y108100D03*
Y110700D03*
X73700Y108100D03*
X78800D03*
X76200Y110700D03*
Y108100D03*
X78800Y110700D03*
X131600Y120900D03*
X129000Y118300D03*
Y120900D03*
X131600Y118300D03*
X131500Y115700D03*
X128900Y113100D03*
Y115700D03*
X131500Y113100D03*
X126300Y118300D03*
X123700Y120900D03*
Y118300D03*
X126300Y120900D03*
X126400Y113100D03*
X123800Y115700D03*
X124400Y113900D03*
X126400Y115700D03*
X128000Y138300D03*
X72343Y114547D03*
X77559D03*
Y109331D03*
X72343D03*
X130258Y119608D03*
X125042D03*
X130258Y114392D03*
X116300Y170900D03*
X116400Y168400D03*
X116100Y181300D03*
X119500Y93700D03*
X123300Y92300D03*
X121800Y95000D03*
X40800Y211500D03*
X43600Y211600D03*
X46200Y211700D03*
X49100Y210800D03*
X76700Y211000D03*
X185200Y5000D03*
X105000Y4400D03*
X61300Y4800D03*
X21600Y6300D03*
X67100Y20100D03*
X4400Y150800D03*
X33500Y202800D03*
X24000Y207000D03*
X4500Y206600D03*
X93900Y43800D03*
X90700Y45500D03*
X66800Y133500D03*
X72600D03*
X69602Y130199D03*
X64100Y133500D03*
X69600D03*
X3800Y185200D03*
X173000Y237200D03*
X159660Y286000D03*
X147084Y274617D03*
X151000Y274600D03*
X143200D03*
X154500D03*
X139700D03*
X151000Y278100D03*
X143200D03*
X154500D03*
X139700D03*
X147084Y278117D03*
X151000Y281600D03*
X143200D03*
X154500D03*
X139700D03*
X147084Y281617D03*
X151000Y270900D03*
X143200D03*
X154500D03*
X139700D03*
X147084Y270917D03*
X151000Y267600D03*
X143200D03*
X154500D03*
X139700D03*
X147084Y267617D03*
X157584Y271617D03*
X161584Y254117D03*
X164084Y257117D03*
X152584Y263617D03*
X157584Y266617D03*
X137900Y264212D03*
X157584Y277117D03*
X136584Y282117D03*
Y277570D03*
X157584Y282117D03*
X153974Y285727D03*
X136584Y285617D03*
X145584Y285833D03*
X66400Y315000D03*
X71400D03*
X61400D03*
X75900D03*
X71400Y319700D03*
X61400D03*
X56900D03*
X75900D03*
X66400D03*
X71400Y324400D03*
X61400D03*
X56900D03*
X75900D03*
X66400D03*
X71400Y310300D03*
X61400D03*
X56900D03*
X75900D03*
X66400D03*
X71500Y306200D03*
X61700Y306412D03*
X57500Y306200D03*
X75700D03*
X66300D03*
X95684Y305900D03*
X117500Y377800D03*
Y374100D03*
X49800Y372900D03*
Y369600D03*
X136572Y220600D03*
X120310Y285388D03*
X83400Y345200D03*
X78433Y349100D03*
Y345700D03*
X112891Y315755D03*
X116200Y310700D03*
X109600D03*
X116000Y318900D03*
X109800Y318800D03*
X8450Y300350D03*
X14350D03*
X26000Y302296D03*
X46171Y286971D03*
X48800Y289598D03*
X51300Y288900D03*
X53700Y288216D03*
X56300Y289598D03*
X86666Y282439D03*
X102020D03*
Y277321D03*
X96902D03*
X91784D03*
X86666D03*
Y272203D03*
X91784D03*
X96902D03*
X102020D03*
X86666Y267085D03*
X103100Y268200D03*
X80957Y259557D03*
X74100Y268800D03*
X69800Y268900D03*
X66700Y268800D03*
X64000Y269000D03*
X61300Y269100D03*
X58400Y269000D03*
X55700Y269100D03*
X52600Y269000D03*
X49600Y268900D03*
X47300Y268000D03*
X45800Y265700D03*
X45200Y259500D03*
X45300Y257000D03*
Y254400D03*
X45200Y249000D03*
X44300Y245100D03*
X52100Y245200D03*
Y248900D03*
Y241700D03*
X44400D03*
X43900Y238700D03*
X52100Y238600D03*
Y234900D03*
X44400D03*
X43900Y231600D03*
X52100Y231700D03*
Y227800D03*
X43900D03*
X44400Y224400D03*
X52200D03*
X52100Y221200D03*
X43900Y221300D03*
X40700Y218900D03*
X51700Y218100D03*
X52100Y251700D03*
X52600Y254600D03*
X51900Y257100D03*
X52000Y260900D03*
X54600Y262900D03*
X58100Y263000D03*
X62500Y263100D03*
X66400Y262900D03*
X70200D03*
X73700Y263000D03*
X77200Y263100D03*
X40600Y222200D03*
X40500Y225900D03*
X40400Y230000D03*
Y233700D03*
X40300Y237100D03*
Y241000D03*
X41600Y247000D03*
X42300Y251800D03*
X41600Y256700D03*
X42200Y262200D03*
X41600Y267500D03*
X44400Y269400D03*
X47800Y272500D03*
X51500Y272700D03*
X54700Y272800D03*
X58000Y273100D03*
X62700Y272700D03*
X67100Y272400D03*
X72100Y269900D03*
X66300Y276300D03*
X64200Y279400D03*
X59300Y280800D03*
X55900Y277300D03*
X50400Y280500D03*
X47600Y276800D03*
X43000Y280000D03*
X41000Y275900D03*
X55400Y258700D03*
X60300Y259100D03*
X64700Y259300D03*
X68600Y259600D03*
X72300Y259800D03*
X76200D03*
X62100Y256000D03*
X57800Y255700D03*
X55000Y251900D03*
X54800Y247100D03*
X54900Y243400D03*
X54800Y240200D03*
X54600Y236800D03*
Y232900D03*
X55400Y229700D03*
Y226000D03*
Y222700D03*
X55300Y219800D03*
X76900Y218500D03*
X62600Y227300D03*
X141300Y279900D03*
X152900Y279800D03*
X149100D03*
X145000D03*
X149100Y276300D03*
X152900D03*
X145000D03*
X149200Y272500D03*
X153000D03*
X114400Y221800D03*
X114700Y228600D03*
X114300Y231300D03*
X29300Y358900D03*
X42800Y359200D03*
X105700Y361100D03*
X117100Y363000D03*
X160100Y366400D03*
X160630Y363570D03*
X239700Y95700D03*
Y103700D03*
Y99700D03*
Y91700D03*
Y88000D03*
X235100Y103600D03*
Y87900D03*
Y91600D03*
Y99600D03*
Y95600D03*
X230800Y103500D03*
Y87800D03*
Y91500D03*
Y99500D03*
Y95500D03*
X244100Y103700D03*
Y88000D03*
Y91700D03*
Y99700D03*
Y95700D03*
X248300Y103800D03*
Y88100D03*
Y91800D03*
Y99800D03*
Y95800D03*
X204900Y62100D03*
X211500Y56700D03*
X214750Y56600D03*
X209600Y54300D03*
X208851Y81200D03*
X331100Y105200D03*
X330884Y162900D03*
X283100D03*
X302499Y184500D03*
X302800Y203400D03*
X314600Y59400D03*
X327800Y58500D03*
X331550Y36250D03*
X330900Y209800D03*
X329400Y188900D03*
X309400Y186200D03*
X293600Y168800D03*
X295600Y139000D03*
X310400Y139400D03*
X330300Y100300D03*
X330500Y65300D03*
X320600Y55300D03*
X311400Y5000D03*
X280900Y5300D03*
X224700D03*
X220700Y34000D03*
X266800Y39000D03*
X284700Y77200D03*
X243300Y62700D03*
X228700Y69800D03*
X318900Y149900D03*
X288000Y149100D03*
X288100Y118100D03*
X317300Y118600D03*
X302900Y118300D03*
X310500Y118400D03*
X317300Y128700D03*
X317100Y139400D03*
X310000Y149500D03*
X302800Y149300D03*
X288000Y127900D03*
X302900Y139300D03*
X303000Y128000D03*
X310600Y128400D03*
X295700Y128000D03*
X295900Y118200D03*
X288300Y138700D03*
X236679Y288369D03*
X251500Y306700D03*
X239238Y257662D03*
Y247426D03*
X236679Y249985D03*
X239238Y252544D03*
X236679Y255103D03*
X229003Y257662D03*
X231562D03*
X236679D03*
X231562Y249985D03*
X229003D03*
X226444Y247426D03*
Y249985D03*
X221326Y247426D03*
X213649Y262779D03*
X221326Y249985D03*
X216207Y252544D03*
X216208Y257662D03*
X229003Y267897D03*
X223885Y257662D03*
Y265338D03*
X244356D03*
Y267897D03*
X246915Y273015D03*
Y275574D03*
X252033D03*
Y278133D03*
X246915Y270456D03*
X244356Y275574D03*
Y270456D03*
Y262779D03*
Y257662D03*
X223885Y275574D03*
X226444D03*
X229003D03*
X218767Y273016D03*
X221326Y270456D03*
X223885Y267897D03*
X226444D03*
X221326Y273015D03*
X236679Y275575D03*
X252033Y232071D03*
X246915Y247426D03*
X239238Y234630D03*
X229003D03*
X211090Y255103D03*
X208530Y262779D03*
X203126Y291026D03*
X252033Y252544D03*
Y249985D03*
Y255103D03*
Y257662D03*
Y262779D03*
Y265338D03*
Y267897D03*
X213649D03*
X211090D03*
X208530Y273015D03*
X226444Y288370D03*
X205971Y229512D03*
X216208Y242308D03*
X213649Y247426D03*
X216208Y244867D03*
X252033Y229512D03*
X302600Y219550D03*
X254592Y273015D03*
X264829Y262779D03*
X257151Y270456D03*
Y290929D03*
X259710D03*
X254592Y239749D03*
X257151Y265338D03*
X259710D03*
X262270D03*
X281208Y276173D03*
X257151Y255103D03*
Y252544D03*
X270400Y280700D03*
X269400Y275574D03*
X314173Y233051D03*
X321400Y239000D03*
X320472Y245846D03*
X314173Y248405D03*
X317322D03*
X311023Y240728D03*
X304123Y243287D03*
X304723Y248405D03*
X307873Y240728D03*
X292817Y240727D03*
X298325Y245846D03*
X314173Y256082D03*
X320472Y253523D03*
X317322Y256082D03*
X311523Y258641D03*
X292717Y250964D03*
X292718Y256082D03*
X316400Y260400D03*
X314173Y266318D03*
X320472Y268877D03*
X311523Y263759D03*
X292717Y266318D03*
X286418D03*
X314173Y273995D03*
X317322D03*
X320472Y276554D03*
X320523Y281662D03*
X305023Y271436D03*
X299900D03*
X314273Y289349D03*
X308600Y291700D03*
X300400Y285500D03*
X288849Y289349D03*
X257251Y227271D03*
X322824Y236324D03*
X262270Y252544D03*
X246915Y285810D03*
X239238Y280692D03*
X241797Y285811D03*
X213649Y285810D03*
X303400Y325500D03*
X317301Y372438D03*
X235788Y364449D03*
X277680Y313700D03*
X222100Y363000D03*
X282200Y377080D03*
X286500Y377000D03*
X288707Y374057D03*
X331400Y327600D03*
X331000Y318600D03*
X331200Y288400D03*
X331300Y249900D03*
X330900Y236500D03*
X320800Y309200D03*
X314200Y339600D03*
G54D19*
X35483Y343367D03*
X21703Y349273D03*
X111783Y343267D03*
X98003Y349173D03*
M02*
