G04 ================== begin FILE IDENTIFICATION RECORD ==================*
G04 Layout Name:  EI_ARROW_IMX8M_HMI_PLATFORM_17_00666_02.brd*
G04 Film Name:    L7_PWR2.gbr*
G04 File Format:  Gerber RS274X*
G04 File Origin:  Cadence Allegro 17.2-P019*
G04 Origin Date:  Mon Feb 11 12:30:39 2019*
G04 *
G04 Layer:  DRAWING FORMAT/L7*
G04 Layer:  DRAWING FORMAT/FILM_LABEL_OUTLINE*
G04 Layer:  VIA CLASS/L7_PWR2*
G04 Layer:  PIN/L7_PWR2*
G04 Layer:  ETCH/L7_PWR2*
G04 Layer:  DRAWING FORMAT/FILM_TITLE_BLOCK*
G04 Layer:  BOARD GEOMETRY/OUTLINE*
G04 *
G04 Offset:    (0.00 0.00)*
G04 Mirror:    No*
G04 Mode:      Positive*
G04 Rotation:  0*
G04 FullContactRelief:  No*
G04 UndefLineWidth:     5.00*
G04 ================== end FILE IDENTIFICATION RECORD ====================*
%FSLAX25Y25*MOIN*%
%IR0*IPPOS*OFA0.00000B0.00000*MIA0B0*SFA1.00000B1.00000*%
%ADD11O,.103X.052*%
%ADD15C,.016*%
%ADD10C,.034*%
%ADD12C,.044*%
%ADD14C,.03937*%
%ADD13R,.03937X.03937*%
%ADD16C,.01*%
%ADD17C,.015*%
%ADD18C,.004*%
%ADD19C,.005*%
%ADD27C,.02104*%
%ADD26C,.02204*%
%ADD24C,.05004*%
%ADD29C,.06004*%
%ADD22C,.02404*%
%ADD36C,.07104*%
%ADD32C,.07204*%
%ADD21C,.02804*%
%ADD34C,.06604*%
%ADD23C,.04804*%
%ADD30C,.06704*%
%ADD20C,.07604*%
%ADD31C,.08604*%
%ADD37C,.07904*%
%ADD38C,.09904*%
%ADD25C,.13604*%
%ADD35C,.14604*%
%ADD33C,.14704*%
%ADD28O,.05934X.06524*%
G75*
%LPD*%
G75*
G36*
G01X83300Y145200D02*
X66400Y162100D01*
Y191400D01*
X82099Y207099D01*
X82205Y206995D01*
G03X83905Y208695I845J855D01*
G01X83801Y208801D01*
X89600Y214600D01*
Y300581D01*
G02X89886Y300881I300J0D01*
G03X90843Y303238I-67J1400D01*
G02X90847Y303447I110J102D01*
G01X113294Y325894D01*
G02X113760Y325841I212J-212D01*
G03X115981Y326453I1019J638D01*
G01X115984Y326600D01*
X136200D01*
X167100Y357500D01*
X176792D01*
X176805Y357498D01*
G03X177195I195J1186D01*
G01X177208Y357500D01*
X258900D01*
X270000Y346400D01*
X329700D01*
X331700Y344400D01*
Y329102D01*
G02X331400Y328802I-300J0D01*
G03Y326398I0J-1202D01*
G02X331700Y326098I0J-300D01*
G01Y322700D01*
X329900Y320900D01*
X325701D01*
X325698Y321046D01*
G03X312098I-6800J-180D01*
G01X312095Y320900D01*
X308277D01*
G02X308002Y321320I0J300D01*
G03X305798I-1102J480D01*
G02X305523Y320900I-275J-120D01*
G01X265571D01*
G03X265429I-71J-1400D01*
G01X258200D01*
X254502Y324598D01*
Y338901D01*
X248301Y345102D01*
X193344D01*
X183506Y335264D01*
G02X182998Y335431I-212J212D01*
G03X180623Y336212I-1386J-213D01*
G02X180201I-211J213D01*
G03Y334224I-989J-994D01*
G02X180623I211J-213D01*
G03X181399Y333832I989J994D01*
G02X181566Y333324I-45J-296D01*
G01X178235Y329993D01*
G02X177748Y330085I-212J212D01*
G03X175474Y330518I-1285J-561D01*
G02X175052I-211J213D01*
G03Y328530I-989J-994D01*
G02X175474I211J-213D01*
G03X175902Y328239I989J994D01*
G02X175994Y327752I-120J-275D01*
G01X172460Y324218D01*
G02X171949Y324457I-212J212D01*
G03X169564Y325576I-1396J125D01*
G02X169142I-211J213D01*
G03Y323588I-989J-994D01*
G02X169564I211J-213D01*
G03X170678Y323186I988J994D01*
G02X170917Y322675I27J-299D01*
G01X169644Y321402D01*
X166800D01*
X156898Y311500D01*
Y301156D01*
X155935Y300193D01*
X155887Y300186D01*
G03X157486Y298587I213J-1386D01*
G01X157493Y298635D01*
X159102Y300244D01*
Y310588D01*
X164998Y316485D01*
G02X165475Y316413I212J-212D01*
G03X166802Y315671I1238J657D01*
G02X167105Y315277I18J-299D01*
G03X168453Y313434I1331J-441D01*
G02X168605Y313285I2J-150D01*
G03X169950Y311894I1402J10D01*
G02X170237Y311602I-13J-299D01*
G03X171689Y310238I1402J37D01*
G02X172000Y309938I11J-300D01*
G01Y282986D01*
G02X171709Y282686I-300J0D01*
G03Y279884I42J-1401D01*
G02X172000Y279584I-9J-300D01*
G01Y271771D01*
G02X171540Y271517I-300J0D01*
G03X169809Y271005I-640J-1017D01*
G02X169370Y270882I-272J126D01*
G03X169791Y269379I-670J-998D01*
G02X170230Y269502I272J-126D01*
G03X171540Y269483I670J998D01*
G02X172000Y269229I160J-254D01*
G01Y262700D01*
X171473Y262173D01*
G02X171021Y262204I-213J212D01*
G03X168795Y260499I-1120J-843D01*
G02X168654Y260029I-236J-185D01*
G03X167713Y258498I446J-1329D01*
G01X167723Y258423D01*
X163295Y253995D01*
G02X162784Y254189I-212J212D01*
G03X160575Y253463I-1200J-72D01*
G02X160324Y253000I-252J-163D01*
G01X144500D01*
X144334Y253166D01*
X144439Y253272D01*
G03X143437Y255310I-855J845D01*
G02X143100Y255608I-37J298D01*
G01Y256700D01*
X141500Y258300D01*
X135300D01*
X132700Y255700D01*
Y255251D01*
X132698Y255249D01*
Y230751D01*
X132700Y230749D01*
Y230500D01*
X144300Y218900D01*
X181000D01*
X185500Y214400D01*
Y183648D01*
G03Y181114I600J-1267D01*
G01Y170052D01*
X185384Y170025D01*
G03Y167683I270J-1171D01*
G01X185500Y167656D01*
Y164952D01*
X185384Y164925D01*
G03X185119Y162678I270J-1171D01*
G02X185197Y162197I-134J-269D01*
G01X183616Y160616D01*
X183538Y160632D01*
G03X182122Y159216I-238J-1178D01*
G01X182138Y159138D01*
X180400Y157400D01*
X171515D01*
G03X169085I-1215J-700D01*
G01X157825D01*
G03X156375I-725J-1200D01*
G01X143497D01*
G03X141703I-897J-800D01*
G01X133300D01*
X121100Y145200D01*
X83300D01*
G37*
G36*
G01X191800Y140500D02*
X191601Y140699D01*
G02X191775Y141209I212J212D01*
G03X191106Y143912I-175J1391D01*
G02X190700Y144193I-106J281D01*
G01Y152584D01*
G02X191100Y152867I300J0D01*
G03Y155133I400J1133D01*
G02X190700Y155416I-100J283D01*
G01Y159500D01*
X187500Y162700D01*
Y182310D01*
G03Y182452I-1400J71D01*
G01Y199398D01*
G02X187980Y199638I300J0D01*
G03X189493Y201503I720J962D01*
G02X189481Y201942I198J225D01*
G03X187968Y203797I-842J858D01*
G02X187500Y204046I-168J249D01*
G01Y213823D01*
G03X187877Y215333I-700J977D01*
G01X187830Y215430D01*
X192300Y219900D01*
X200677D01*
G02X200959Y219497I0J-300D01*
G03X203217I1129J-412D01*
G02X203499Y219900I282J103D01*
G01X208800D01*
X210800Y221900D01*
X226033D01*
G03X228567I1267J600D01*
G01X230984D01*
G02X231267Y221500I0J-300D01*
G03X233533I1133J-400D01*
G02X233816Y221900I283J100D01*
G01X243900D01*
X245600Y223600D01*
X250900D01*
X264400Y210100D01*
X291700D01*
X300945Y219345D01*
G02X301445Y219216I212J-212D01*
G03X302934Y220705I1155J334D01*
G02X302805Y221205I83J288D01*
G01X306900Y225300D01*
Y234601D01*
G02X307408Y234817I300J0D01*
G03Y236403I765J793D01*
G02X306900Y236619I-208J216D01*
G01Y239498D01*
G02X307344Y239761I300J0D01*
G03Y241695I529J967D01*
G02X306900Y241958I-144J263D01*
G01Y242057D01*
G02X307344Y242320I300J0D01*
G03Y244254I529J967D01*
G02X306900Y244517I-144J263D01*
G01Y249734D01*
G02X307344Y249997I300J0D01*
G03Y251931I529J967D01*
G02X306900Y252194I-144J263D01*
G01Y252398D01*
G02X307358Y252653I300J0D01*
G03X307121Y254326I582J936D01*
G02X306686Y254314I-223J201D01*
G01X301600Y259400D01*
X271100D01*
X263202Y267298D01*
X263251Y267396D01*
G03X261769Y268878I-981J501D01*
G01X261671Y268829D01*
X260643Y269857D01*
X260692Y269955D01*
G03X259210Y271437I-981J501D01*
G01X259112Y271388D01*
X255524Y274976D01*
X255574Y275073D01*
G03X254091Y276556I-982J501D01*
G01X253994Y276506D01*
X253900Y276600D01*
X252436D01*
X252411Y276609D01*
G03X251655I-378J-1035D01*
G01X251630Y276600D01*
X247318D01*
X247293Y276609D01*
G03X246537I-378J-1035D01*
G01X246512Y276600D01*
X244759D01*
X244734Y276609D01*
G03X243978I-378J-1035D01*
G01X243953Y276600D01*
X237200D01*
X237168Y276568D01*
X237076Y276603D01*
G03X235651Y275178I-397J-1028D01*
G01X235686Y275086D01*
X233900Y273300D01*
X232632D01*
X232595Y273398D01*
G03X230529I-1033J-383D01*
G01X230492Y273300D01*
X230073D01*
X230036Y273398D01*
G03X227970I-1033J-383D01*
G01X227933Y273300D01*
X227514D01*
X227477Y273398D01*
G03X225411I-1033J-383D01*
G01X225374Y273300D01*
X224955D01*
X224918Y273398D01*
G03X222852I-1033J-383D01*
G01X222815Y273300D01*
X222396D01*
X222359Y273398D01*
G03X220293I-1033J-383D01*
G01X220256Y273300D01*
X219837D01*
X219801Y273398D01*
G03X217733I-1034J-382D01*
G01X217697Y273300D01*
X217278D01*
X217241Y273398D01*
G03X215175I-1033J-383D01*
G01X215138Y273300D01*
X214719D01*
X214682Y273398D01*
G03X212616I-1033J-383D01*
G01X212579Y273300D01*
X212160D01*
X212123Y273398D01*
G03X210008Y273222I-1033J-383D01*
G01X209984Y273100D01*
X209636D01*
X209612Y273222D01*
G03X207448I-1082J-207D01*
G01X207424Y273100D01*
X207077D01*
X207053Y273222D01*
G03X204889I-1082J-207D01*
G01X204865Y273100D01*
X204518D01*
X204494Y273222D01*
G03X202330I-1082J-207D01*
G01X202306Y273100D01*
X195900D01*
X194900Y274100D01*
Y280500D01*
X195500Y281100D01*
X198600D01*
X201000Y283500D01*
Y294670D01*
G03X201762Y297249I1J1402D01*
G02X201713Y297713I163J252D01*
G01X219300Y315300D01*
X246228D01*
G02X246522Y314940I0J-300D01*
G03X248878I1178J-240D01*
G02X249172Y315300I294J60D01*
G01X250100D01*
X252500Y317700D01*
X256142D01*
X259194Y314648D01*
Y308171D01*
G03X261397I1101J-867D01*
G01Y315560D01*
X259770Y317188D01*
G02X259982Y317700I212J212D01*
G01X271974D01*
X272000Y317690D01*
G03X273000I500J1310D01*
G01X273026Y317700D01*
X301579D01*
X301620Y317616D01*
G03X303780I1080J527D01*
G01X303821Y317700D01*
X312878D01*
G03X324918I6020J3166D01*
G01X328300D01*
X331800Y314200D01*
Y289872D01*
G02X331440Y289578I-300J0D01*
G03Y287222I-240J-1178D01*
G02X331800Y286928I60J-294D01*
G01Y251389D01*
G02X331460Y251091I-300J-1D01*
G03Y248709I-160J-1191D01*
G02X331800Y248411I40J-297D01*
G01Y237877D01*
G02X331380Y237602I-300J0D01*
G03Y235398I-480J-1102D01*
G02X331800Y235123I120J-275D01*
G01Y211177D01*
G02X331380Y210902I-300J0D01*
G03Y208698I-480J-1102D01*
G02X331800Y208423I120J-275D01*
G01Y185503D01*
G02X331260Y185323I-300J0D01*
G03Y183877I-960J-723D01*
G02X331800Y183697I240J-180D01*
G01Y164270D01*
G02X331377Y163996I-300J0D01*
G03Y161804I-493J-1096D01*
G02X331800Y161530I123J-274D01*
G01Y150300D01*
X330347Y148846D01*
X320820D01*
Y140500D01*
X317585D01*
X317558Y140511D01*
G03X316642I-458J-1111D01*
G01X316615Y140500D01*
X310885D01*
X310858Y140511D01*
G03X309942I-458J-1111D01*
G01X309915Y140500D01*
X302965D01*
G03X302835I-65J-1200D01*
G01X275699D01*
G02X275399Y140820I-1J300D01*
G03X273001I-1199J80D01*
G02X272701Y140500I-299J-20D01*
G01X191800D01*
G37*
G36*
G01X129770Y6368D02*
G03X129235Y7124I-801J0D01*
G02X129107Y7602I100J283D01*
G03X128608Y11656I-2107J1798D01*
G02Y12144I174J244D01*
G03X125392I-1608J2256D01*
G02Y11656I-174J-244D01*
G03X124893Y7602I1608J-2256D01*
G02X124765Y7124I-228J-195D01*
G03X124230Y6368I266J-756D01*
G01Y2432D01*
G03X124236Y2337I801J3D01*
G02X123938Y2001I-298J-36D01*
G01X8700D01*
X2001Y8700D01*
Y154684D01*
G02X2532Y154876I300J0D01*
G03X5147Y153650I2615J2176D01*
G01X10247D01*
G03Y160452I0J3401D01*
G01X5147D01*
G03X2532Y159226I0J-3402D01*
G02X2001Y159418I-231J192D01*
G01Y173582D01*
G02X2532Y173774I300J0D01*
G03X5147Y172548I2615J2176D01*
G01X10247D01*
G03Y179350I0J3401D01*
G01X5147D01*
G03X2532Y178124I0J-3402D01*
G02X2001Y178316I-231J192D01*
G01Y209898D01*
X39170D01*
Y221210D01*
G02X39696Y221408I300J0D01*
G03X41200Y223242I904J792D01*
G01Y224923D01*
G03Y226877I-700J977D01*
G01Y229103D01*
G03Y230897I-800J897D01*
G01Y232803D01*
G03Y234597I-800J897D01*
G01Y236303D01*
G03Y237897I-900J797D01*
G01Y240203D01*
G03X39636Y242002I-900J797D01*
G02X39170Y242252I-166J250D01*
G01Y289002D01*
X2001D01*
Y343900D01*
G02X2495Y344129I300J0D01*
G03Y346271I905J1071D01*
G02X2001Y346500I-194J229D01*
G01Y354905D01*
G02X2588Y354993I300J0D01*
G03Y359301I7029J2154D01*
G02X2001Y359389I-287J88D01*
G01Y387301D01*
X2997Y388297D01*
X3100Y388223D01*
G03X4777Y389900I700J977D01*
G01X4703Y390003D01*
X6400Y391700D01*
X152009D01*
G02X152252Y391223I1J-300D01*
G03X151642Y389357I2554J-1868D01*
G01Y386601D01*
G03X154806Y383438I3164J1D01*
G01X161416D01*
Y391700D01*
X162197D01*
G02X162377Y391160I0J-300D01*
G03X163823I723J-960D01*
G02X164003Y391700I180J240D01*
G01X177598D01*
G02X177838Y391220I0J-300D01*
G03X179748Y389761I962J-720D01*
G02X180284Y389577I236J-185D01*
G01Y383438D01*
X186894D01*
G03X190058Y386601I0J3164D01*
G01Y389357D01*
G03X189448Y391223I-3164J-2D01*
G02X189691Y391700I242J177D01*
G01X259598D01*
G02X259838Y391220I0J-300D01*
G03X261762I962J-720D01*
G02X262002Y391700I240J180D01*
G01X287552D01*
G02X287831Y391290I0J-300D01*
G03X288335Y389817I1119J-440D01*
G02X288345Y389308I-153J-258D01*
G03X290100Y387815I655J-1008D01*
G02X290639Y387835I274J-121D01*
G03X292431Y389354I1061J565D01*
G02X292411Y389813I183J238D01*
G03X292663Y391260I-811J887D01*
G02X292929Y391700I266J140D01*
G01X325200D01*
X331500Y385400D01*
Y381733D01*
G02X331094Y381452I-300J0D01*
G03Y379202I-423J-1125D01*
G02X331500Y378921I106J-281D01*
G01Y369348D01*
G02X331120Y369059I-300J0D01*
G03Y366741I-320J-1159D01*
G02X331500Y366452I80J-289D01*
G01Y356356D01*
G02X331100Y356073I-300J0D01*
G03Y353807I-400J-1133D01*
G02X331500Y353524I100J-283D01*
G01Y349900D01*
X330530Y348930D01*
X330489Y348920D01*
G03X329823Y348500I273J-1170D01*
G01X292889D01*
G02X292591Y348840I-1J300D01*
G03X290209I-1191J160D01*
G02X289911Y348500I-297J-40D01*
G01X269800D01*
X258900Y359400D01*
X204423D01*
G02X204218Y359920I-1J300D01*
G03X204595Y360666I-817J881D01*
G02X205076Y360870I298J-33D01*
G03X209794Y360512I2631J3404D01*
G02X210208Y360382I145J-263D01*
G03X211749Y362023I1078J532D01*
G02X211593Y362429I115J277D01*
G03X203823Y362423I-3886J1845D01*
G02X203522Y361996I-271J-129D01*
G03X202582Y359920I-122J-1196D01*
G02X202377Y359400I-204J-220D01*
G01X184809D01*
G03X182623I-1093J-500D01*
G01X177965D01*
G03X176035I-965J-716D01*
G01X174877D01*
X174835Y359482D01*
G03X172803Y359662I-1072J-543D01*
G02X172323I-240J180D01*
G03X170291Y359482I-960J-723D01*
G01X170249Y359400D01*
X165900D01*
X135200Y328700D01*
X132985D01*
G02X132686Y328977I0J300D01*
G03X130288I-1199J-90D01*
G02X129989Y328700I-299J23D01*
G01X114400D01*
X111709Y326009D01*
G02X111198Y326197I-212J212D01*
G03X109036Y326818I-1198J-97D01*
G02X108555I-240J179D01*
G03Y325382I-964J-718D01*
G02X109036I240J-179D01*
G03X109903Y324902I964J718D01*
G02X110091Y324391I-24J-299D01*
G01X104230Y318530D01*
G02X103768Y318576I-212J212D01*
G03X101824Y316632I-1168J-776D01*
G02X101870Y316170I-166J-250D01*
G01X89272Y303572D01*
X89247Y303561D01*
G03X88539Y302853I572J-1280D01*
G01X88528Y302828D01*
X88200Y302500D01*
Y217000D01*
X65200Y194000D01*
Y177051D01*
G02X65056Y176901I-150J0D01*
G03Y174499I44J-1201D01*
G02X65200Y174349I-6J-150D01*
G01Y173451D01*
G02X65056Y173301I-150J0D01*
G03Y170899I44J-1201D01*
G02X65200Y170749I-6J-150D01*
G01Y169851D01*
G02X65056Y169701I-150J0D01*
G03Y167299I44J-1201D01*
G02X65200Y167149I-6J-150D01*
G01Y166251D01*
G02X65056Y166101I-150J0D01*
G03Y163699I44J-1201D01*
G02X65200Y163549I-6J-150D01*
G01Y161000D01*
X83300Y142900D01*
X121800D01*
X133000Y154100D01*
X183700D01*
X185072Y152728D01*
G03X186765Y151035I928J-765D01*
G01X188900Y148900D01*
Y134445D01*
G02X188441Y134190I-300J-1D01*
G03Y131810I-741J-1190D01*
G02X188900Y131555I159J-254D01*
G01Y84500D01*
X197100Y76300D01*
Y76200D01*
X198300Y75000D01*
X198853D01*
G02X199140Y74612I0J-300D01*
G03X199091Y74011I1340J-412D01*
G02X198731Y73678I-297J-40D01*
G03X198056Y71591I-232J-1078D01*
G02X198141Y71099I-121J-274D01*
G03X199344Y71309I759J-799D01*
G02X199259Y71801I121J274D01*
G03X199602Y72599I-759J799D01*
G02X200004Y72881I300J0D01*
G03X201820Y74612I476J1319D01*
G02X202107Y75000I287J88D01*
G01X205173D01*
G02X205460Y74612I0J-300D01*
G03X208140I1340J-412D01*
G02X208427Y75000I287J88D01*
G01X228132D01*
G03X229472I670J998D01*
G01X271802D01*
G02X271995Y74471I-1J-300D01*
G03X271812Y72515I905J-1071D01*
G02X271698Y72051I-233J-189D01*
G03X272011Y65406I1402J-3264D01*
G02X272145Y64923I-92J-286D01*
G03X274537Y63577I1055J-923D01*
G02X274960Y63753I286J-91D01*
G03X275518Y63600I642J1247D01*
G02X275800Y63283I-17J-299D01*
G03X276200Y62217I1400J-83D01*
G02X276151Y61756I-214J-210D01*
G03X274905Y60340I1948J-2970D01*
G02X274418Y60264I-270J131D01*
G03X274186Y58139I-1018J-964D01*
G02X274646Y57960I168J-249D01*
G03X278731Y62283I3454J827D01*
G02X278505Y62687I53J295D01*
G03X277282Y64600I-1305J513D01*
G02X277000Y64917I17J299D01*
G03X276137Y66295I-1400J83D01*
G02X276006Y66745I114J277D01*
G03X274214Y72160I-2906J2042D01*
G02X274060Y72613I94J285D01*
G03X273805Y74471I-1160J787D01*
G02X273998Y75000I194J229D01*
G01X307100D01*
Y72600D01*
X328900D01*
X329939Y71561D01*
X329950Y71523D01*
G03X330923Y70550I1350J377D01*
G01X330961Y70539D01*
X331800Y69700D01*
Y66421D01*
G02X331300Y66197I-300J0D01*
G03Y64403I-800J-897D01*
G02X331800Y64179I200J-224D01*
G01Y37751D01*
G02X331510Y37451I-300J0D01*
G03Y35049I40J-1201D01*
G02X331800Y34749I-10J-300D01*
G01Y6200D01*
X327601Y2001D01*
X130062D01*
G02X129764Y2337I0J300D01*
G03X129770Y2432I-795J98D01*
G01Y6368D01*
G37*
G36*
G01X198300Y77500D02*
X190500Y85300D01*
Y99623D01*
G02X190643Y99772I150J-1D01*
G03Y102174I-58J1201D01*
G02X190500Y102323I7J150D01*
G01Y103149D01*
G02X190644Y103299I150J0D01*
G03Y105701I-44J1201D01*
G02X190500Y105851I6J150D01*
G01Y106623D01*
G02X190643Y106772I150J-1D01*
G03Y109174I-58J1201D01*
G02X190500Y109323I7J150D01*
G01Y136700D01*
X192000Y138200D01*
X284354D01*
X284390Y138103D01*
G03X286638I1124J427D01*
G01X286674Y138200D01*
X287207D01*
G03X289393I1093J500D01*
G01X294703D01*
G03X296497I897J800D01*
G01X302415D01*
X302442Y138189D01*
G03X303358I458J1111D01*
G01X303385Y138200D01*
X310335D01*
G03X310465I65J1200D01*
G01X317035D01*
G03X317165I65J1200D01*
G01X320820D01*
Y119120D01*
X320800Y119100D01*
Y117300D01*
X325400Y112700D01*
X329200D01*
X330900Y111000D01*
Y106391D01*
X330789Y106361D01*
G03Y104039I311J-1161D01*
G01X330900Y104009D01*
Y101772D01*
G02X330540Y101478I-300J0D01*
G03Y99122I-240J-1178D01*
G02X330900Y98828I60J-294D01*
G01Y87000D01*
X326667Y82767D01*
X326562Y82855D01*
G03X322581Y82276I-1731J-2074D01*
G02X322081I-250J166D01*
G03X317581I-2250J-1495D01*
G02X317081I-250J166D01*
G03X312581I-2250J-1495D01*
G02X312081I-250J166D01*
G03X307130Y80781I-2250J-1495D01*
G01Y80381D01*
G03X307196Y79784I2701J-4D01*
G01X307200Y79768D01*
Y78011D01*
X307189Y77984D01*
G03X307130Y77681I742J-302D01*
G01Y77500D01*
X285869D01*
X285833Y77600D01*
G03X283567I-1133J-400D01*
G01X283531Y77500D01*
X270751D01*
G03X268449I-1151J-800D01*
G01X235945D01*
G03X233613I-1166J-779D01*
G01X221399D01*
G02X221099Y77820I-1J300D01*
G03X218701I-1199J80D01*
G02X218401Y77500I-299J-20D01*
G01X198300D01*
G37*
G36*
G01X264649Y210702D02*
X251149Y224202D01*
X251098D01*
X250900Y224400D01*
X244600D01*
X242702Y222502D01*
X228709D01*
X228695Y222637D01*
G03X225905I-1395J-137D01*
G01X225891Y222502D01*
X210551D01*
X210549Y222500D01*
X210000D01*
X208500Y221000D01*
X189500D01*
X188300Y219800D01*
X144500D01*
X133300Y231000D01*
Y255000D01*
X135800Y257500D01*
X140800D01*
X142100Y256200D01*
Y253900D01*
X144000Y252000D01*
X162500D01*
X168160Y257660D01*
G03X170140Y259640I940J1040D01*
G01X170738Y260238D01*
G03X171024Y260524I-838J1124D01*
G01X172700Y262200D01*
Y280253D01*
G03Y282317I-949J1032D01*
G01Y310723D01*
G03Y312555I-1061J916D01*
G01Y321342D01*
X193858Y342500D01*
X194760D01*
G02X195059Y342173I0J-300D01*
G03X197444Y341055I1396J-124D01*
G02X197866I211J-213D01*
G03X200251Y342173I989J994D01*
G02X200550Y342500I299J27D01*
G01X207759D01*
G02X208055Y342150I0J-300D01*
G03X210426Y340922I1382J-234D01*
G02X210848I211J-213D01*
G03X213219Y342150I989J994D01*
G02X213515Y342500I296J50D01*
G01X213669D01*
G02X213965Y342150I0J-300D01*
G03X216336Y340922I1382J-234D01*
G02X216758I211J-213D01*
G03X219129Y342150I989J994D01*
G02X219425Y342500I296J50D01*
G01X242367D01*
G02X242660Y342134I0J-300D01*
G03X245396I1368J-306D01*
G02X245689Y342500I293J66D01*
G01X245887D01*
G02X246171Y342104I0J-300D01*
G03X246848Y340416I1329J-447D01*
G02X246866Y339894I-139J-266D01*
G03X248252Y339941I734J-1194D01*
G02X248234Y340463I139J266D01*
G03X248362Y340552I-735J1194D01*
G01X248467Y340633D01*
X252200Y336900D01*
Y320400D01*
X251629Y319829D01*
X251537Y319867D01*
G03X250015Y319564I-533J-1297D01*
G02X249593I-211J213D01*
G03X248334Y317194I-989J-994D01*
G02X248488Y316688I-58J-294D01*
G01X248200Y316400D01*
X217600D01*
X198900Y297700D01*
Y283300D01*
X197400Y281800D01*
X195300D01*
X194300Y280800D01*
Y280751D01*
X194298Y280749D01*
Y273851D01*
X194300Y273849D01*
Y273400D01*
X195600Y272100D01*
X202798D01*
G03X204026I614J915D01*
G01X205357D01*
G03X206585I614J915D01*
G01X207916D01*
G03X209144I614J915D01*
G01X210476D01*
G03X211704I614J915D01*
G01X213035D01*
G03X214263I614J915D01*
G01X215594D01*
G03X216822I614J915D01*
G01X218154D01*
G03X219380I613J916D01*
G01X220712D01*
G03X221940I614J915D01*
G01X223271D01*
G03X224499I614J915D01*
G01X225830D01*
G03X227058I614J915D01*
G01X228389D01*
G03X229617I614J915D01*
G01X230948D01*
G03X232176I614J915D01*
G01X233500D01*
X234098Y272698D01*
X234149D01*
X236089Y274638D01*
X236185Y274590D01*
G03X237777Y275672I494J985D01*
G02X238076Y275998I299J26D01*
G01X242960D01*
G02X243258Y275672I-1J-300D01*
G03X245431Y275816I1098J-98D01*
G01X245428Y275832D01*
Y275998D01*
X245843D01*
Y275832D01*
X245840Y275816D01*
G03X248013Y275672I1075J-242D01*
G02X248311Y275998I299J26D01*
G01X250637D01*
G02X250935Y275672I-1J-300D01*
G03X253108Y275816I1098J-98D01*
G01X253105Y275832D01*
Y275998D01*
X253520D01*
Y275832D01*
X253517Y275816D01*
G03X254882Y274511I1075J-242D01*
G01X254966Y274534D01*
X255366Y274134D01*
X255184Y273951D01*
X255087Y274000D01*
G03X255693Y273069I-495J-985D01*
G02X256204Y273296I300J14D01*
G01X257432Y272068D01*
G02X257205Y271557I-213J-211D01*
G03X258136Y270951I-54J-1101D01*
G01X258087Y271048D01*
X258270Y271230D01*
X258671Y270829D01*
X258648Y270745D01*
G03X260000Y269393I1063J-289D01*
G01X260084Y269416D01*
X260484Y269016D01*
X260302Y268833D01*
X260205Y268882D01*
G03X260695Y268392I-495J-985D01*
G01X260646Y268489D01*
X260829Y268671D01*
X261230Y268270D01*
X261207Y268186D01*
G03X262559Y266834I1063J-289D01*
G01X262643Y266857D01*
X263042Y266458D01*
X262860Y266275D01*
X262763Y266324D01*
G03X263371Y265391I-493J-986D01*
G02X263882Y265618I300J14D01*
G01X265109Y264391D01*
G02X264882Y263880I-213J-211D01*
G03X265930Y262832I-53J-1101D01*
G02X266441Y263059I300J14D01*
G01X270800Y258700D01*
X301300D01*
X306298Y253702D01*
Y225598D01*
X291402Y210702D01*
X264649D01*
G37*
%LPC*%
G75*
G36*
G01X246793Y349259D02*
G03X246404Y349222I-173J-245D01*
G02X246202Y351341I-1009J973D01*
G03X246591Y351378I173J245D01*
G02X246793Y349259I1009J-973D01*
G37*
G36*
G01X231388Y348535D02*
G03X231176Y348518I-98J-114D01*
G02X231018Y350489I-1070J906D01*
G03X231230Y350506I98J114D01*
G02X231388Y348535I1070J-906D01*
G37*
G36*
G01X237497Y348322D02*
G03X237075I-211J-213D01*
G02Y350310I-989J994D01*
G03X237497I211J213D01*
G02Y348322I989J-994D01*
G37*
G36*
G01X219780D02*
G03X219358I-211J-213D01*
G02Y350310I-989J994D01*
G03X219780I211J213D01*
G02Y348322I989J-994D01*
G37*
G36*
G01X225199Y350370D02*
G03X225591Y350368I197J226D01*
G02X225576Y348246I909J-1067D01*
G03X225184Y348248I-197J-226D01*
G02X225199Y350370I-909J1067D01*
G37*
G36*
G01X191956Y346197D02*
G03X191534I-211J-213D01*
G02Y348185I-989J994D01*
G03X191956I211J213D01*
G02Y346197I989J-994D01*
G37*
G36*
G01X180566Y345897D02*
G03X180144I-211J-213D01*
G02Y347885I-989J994D01*
G03X180566I211J213D01*
G02Y345897I989J-994D01*
G37*
G36*
G01X172011Y334101D02*
G03X171691Y333762I-23J-299D01*
G02X170589Y334799I-1191J-162D01*
G03X170909Y335138I23J299D01*
G02X172011Y334101I1191J162D01*
G37*
G36*
G01X145221Y327917D02*
G03X145220Y327478I204J-220D01*
G02X143583Y327483I-821J-878D01*
G03X143584Y327922I-204J220D01*
G02X145221Y327917I821J878D01*
G37*
G36*
G01X152866Y308029D02*
G03X152656Y308431I-279J110D01*
G02X154052Y309159I278J1169D01*
G03X154262Y308757I279J-110D01*
G02X152866Y308029I-278J-1169D01*
G37*
G36*
G01X126206Y301359D02*
G03X125867Y301622I-298J-34D01*
G02X126895Y302953I-166J1190D01*
G03X127234Y302690I298J34D01*
G02X127408Y302702I169J-1190D01*
G03X127708Y302964I2J300D01*
G02X128892Y301610I1192J-152D01*
G03X128592Y301348I-2J-300D01*
G02X126206Y301359I-1192J152D01*
G37*
G36*
G01X139413Y295739D02*
G03X139802Y295534I290J78D01*
G02X139040Y294086I398J-1134D01*
G03X138651Y294291I-290J-78D01*
G02X139413Y295739I-398J1134D01*
G37*
G36*
G01X169647Y287137D02*
G03X169974Y286814I299J-24D01*
G02X168881Y285588I109J-1197D01*
G03X168523Y285875I-300J-7D01*
G02X169647Y287137I-273J1375D01*
G37*
G36*
G01X92375Y284002D02*
G02Y285998I-985J998D01*
G02X94345I985J-998D01*
G02X96315I985J-998D01*
G02Y284002I985J-998D01*
G02X94345I-985J998D01*
G02X92375I-985J998D01*
G37*
G36*
G01X155200Y280623D02*
Y279077D01*
G02Y277123I-700J-977D01*
G01Y275577D01*
G02Y273623I-700J-977D01*
G01Y271877D01*
G02X153305Y270767I-700J-977D01*
G01X153291Y270900D01*
X152209D01*
X152195Y270767D01*
G02X149805I-1195J133D01*
G01X149791Y270900D01*
X148293D01*
X148277Y270769D01*
G02X145891I-1193J148D01*
G01X145875Y270900D01*
X144409D01*
X144395Y270767D01*
G02X142005I-1195J133D01*
G01X141991Y270900D01*
X140909D01*
X140895Y270767D01*
G02X138800Y271697I-1195J133D01*
G01Y273803D01*
G02Y275397I900J797D01*
G01Y277303D01*
G02Y278897I900J797D01*
G01Y280803D01*
G02X140798Y282089I900J797D01*
G01X140838Y282000D01*
X142062D01*
X142102Y282089D01*
G02X144333Y282000I1098J-489D01*
G01X144369Y281900D01*
X145911D01*
X145945Y282002D01*
G02X148223I1139J-385D01*
G01X148257Y281900D01*
X149831D01*
X149867Y282000D01*
G02X152133I1133J-400D01*
G01X152169Y281900D01*
X153331D01*
X153367Y282000D01*
G02X155200Y280623I1133J-400D01*
G37*
G36*
G01X127807Y270041D02*
G03X127815Y269571I190J-232D01*
G02X126319Y269544I-731J-954D01*
G03X126311Y270014I-190J232D01*
G02X127807Y270041I731J954D01*
G37*
G36*
G01X120624Y265769D02*
G03Y265317I198J-226D01*
G02X118776I-924J-1054D01*
G03Y265769I-198J226D01*
G02X118722Y267828I924J1054D01*
G03Y268257I-209J214D01*
G02X120678I978J1005D01*
G03Y267828I209J-215D01*
G02X120624Y265769I-978J-1005D01*
G37*
G36*
G01X120423Y258351D02*
G03X120458Y257909I219J-205D01*
G02X118579Y257761I-858J-1109D01*
G03X118544Y258203I-219J205D01*
G02X120423Y258351I858J1109D01*
G37*
G36*
G01X113538Y247806D02*
G03X113567Y248254I-184J237D01*
G02X113602Y249980I853J846D01*
G03Y250420I-205J220D01*
G02X113647Y252220I818J880D01*
G03Y252680I-193J230D01*
G02X113515Y254391I773J920D01*
G03X113511Y254791I-226J198D01*
G02X115305Y254809I889J809D01*
G03X115309Y254409I226J-198D01*
G02X115193Y252680I-889J-809D01*
G03Y252220I193J-230D01*
G02X115238Y250420I-773J-920D01*
G03Y249980I205J-220D01*
G02X115259Y248239I-818J-880D01*
G03X115280Y247791I210J-215D01*
G02X115434Y245753I-880J-1091D01*
G03Y245347I221J-203D01*
G02X113366I-1034J-947D01*
G03Y245753I-221J203D01*
G02X113538Y247806I1034J947D01*
G37*
G36*
G01X112698Y241804D02*
G03X112714Y241363I211J-213D01*
G02X110814Y241296I-914J-1063D01*
G03X110798Y241737I-211J213D01*
G02X112698Y241804I914J1063D01*
G37*
G36*
G01X125227Y201941D02*
G03X124824Y201774I-123J-274D01*
G02X124059Y203347I-1124J426D01*
G03X124440Y203561I90J286D01*
G02X125227Y201941I1360J-340D01*
G37*
G36*
G01X171190Y189034D02*
G03X170714Y188910I-195J-228D01*
G02X168018Y189637I-1314J489D01*
G03X167707Y189987I-296J50D01*
G02X166328Y191898I-73J1400D01*
G03X166059Y192307I-279J109D01*
G02X166846Y194900I49J1401D01*
G01X168696D01*
X168716Y195026D01*
G02X171100Y193817I1384J-226D01*
G01Y192936D01*
G02X171244Y191792I-1196J-732D01*
G03X171631Y191421I287J-88D01*
G02X171190Y189034I469J-1321D01*
G37*
G36*
G01X173180Y182738D02*
G03X173130Y182329I192J-231D01*
G02X171254Y182687I-1130J-829D01*
G03X171358Y183085I-159J254D01*
G02X173180Y182738I1054J577D01*
G37*
G36*
G01X76804Y176278D02*
G03X76820Y176726I-192J231D01*
G02X78516Y176761I830J869D01*
G03X78550Y176315I216J-208D01*
G02X76804Y176278I-850J-1115D01*
G37*
G36*
G01X83788Y169947D02*
G03X83971Y169543I276J-119D01*
G02X82449Y168746I-371J-1143D01*
G03X82221Y169126I-287J86D01*
G02X83788Y169947I279J1374D01*
G37*
G36*
G01X258049Y333422D02*
G02X258209Y331897I3172J-438D01*
G03X257662Y331936I-282J-102D01*
G02X257522Y333271I-1062J563D01*
G03X258049Y333422I230J193D01*
G37*
G36*
G01X149980Y328280D02*
G02Y329334I-1080J527D01*
G03X150520I270J131D01*
G02Y328280I1080J-527D01*
G03X149980I-270J-131D01*
G37*
G36*
G01X291520Y329110D02*
G02X290562Y328539I180J-1390D01*
G03X290298Y329014I-243J176D01*
G02X290063Y331406I-85J1199D01*
G03X290279Y331863I-38J297D01*
G02X291446Y331311I1017J641D01*
G03X291230Y330854I38J-297D01*
G02X291228Y329569I-1017J-641D01*
G03X291520Y329110I253J-161D01*
G37*
G36*
G01X109882Y278845D02*
G02X108825Y280179I-1402J-25D01*
G03X109198Y280475I73J291D01*
G02Y280530I1402J28D01*
G03X108775Y280809I-300J6D01*
G02X108693Y283401I-575J1279D01*
G03X109098Y283685I105J281D01*
G02X110007Y282387I1402J15D01*
G03X109602Y282103I-105J-281D01*
G02Y282058I-1402J-23D01*
G03X110025Y281779I300J-6D01*
G02X110255Y279141I575J-1279D01*
G03X109882Y278845I-73J-291D01*
G37*
G36*
G01X112595Y264254D02*
G02X111174Y264167I-651J-1010D01*
G03X111122Y264662I-193J230D01*
G02X110433Y266288I658J1238D01*
G03X110156Y266671I-288J83D01*
G02X109947Y269047I44J1201D01*
G03X110167Y269440I-63J293D01*
G02X110163Y270231I1133J401D01*
G03X109929Y270624I-284J97D01*
G02X111266Y271419I200J1185D01*
G03X111500Y271026I284J-97D01*
G02X111553Y268666I-200J-1185D01*
G03X111333Y268273I63J-293D01*
G02X111382Y267653I-1133J-401D01*
G03X111695Y267299I295J-54D01*
G02X112585Y264752I85J-1399D01*
G03X112595Y264254I172J-246D01*
G37*
G36*
G01X138148Y261511D02*
G02X135912Y262285I-1048J589D01*
G03X135544Y262623I-296J47D01*
G02X136229Y264498I-287J1167D01*
G03X136756Y264582I242J177D01*
G02X139052Y263868I1144J-370D01*
G03X139388Y263486I287J-86D01*
G02X138644Y261551I196J-1186D01*
G03X138148Y261511I-235J-187D01*
G37*
G36*
G01X108631Y236574D02*
G02X108580Y235109I1169J-774D01*
G03X108069Y235126I-261J-148D01*
G02X108120Y236591I-1169J774D01*
G03X108631Y236574I261J148D01*
G37*
G36*
G01X110869Y229497D02*
G02X110387Y227598I731J-1196D01*
G03X109971Y227703I-259J-151D01*
G02X108692Y230191I-731J1197D01*
G03X108782Y230684I-117J276D01*
G02X108679Y230793I966J1016D01*
G03X108177Y230722I-229J-195D01*
G02X107969Y232207I-1277J578D01*
G03X108471Y232278I229J195D01*
G02X110296Y230409I1277J-578D01*
G03X110206Y229916I117J-276D01*
G02X110453Y229602I-967J-1015D01*
G03X110869Y229497I259J151D01*
G37*
G36*
G01X100156Y202069D02*
G02X99685Y203388I-1156J331D01*
G03X100144Y203552I171J246D01*
G02X100615Y202233I1156J-331D01*
G03X100156Y202069I-171J-246D01*
G37*
G36*
G01X144670Y196371D02*
G02X144084Y195025I580J-1053D01*
G03X143573Y195155I-291J-73D01*
G02X143470Y198650I-1841J1695D01*
G03X143962Y198769I208J216D01*
G02X144644Y197270I1138J-387D01*
G03X144231Y196977I-113J-278D01*
G02X144227Y196657I-2499J-129D01*
G03X144670Y196371I299J-23D01*
G37*
G36*
G01X100600Y195457D02*
G02X99543Y195988I-1099J-870D01*
G03X99798Y196459I9J300D01*
G02X100196Y198191I988J685D01*
G03X100299Y198619I-147J262D01*
G02X101890Y198237I1001J665D01*
G03X101787Y197809I147J-262D01*
G02X100825Y195943I-1001J-665D01*
G03X100600Y195457I10J-300D01*
G37*
G36*
G01X160404Y195677D02*
G02X159181Y195445I-377J-1350D01*
G03X159100Y195967I-181J239D01*
G02X160288Y196193I400J1133D01*
G03X160404Y195677I197J-227D01*
G37*
G36*
G01X133719Y189930D02*
G02X132397Y189875I-619J-1030D01*
G03X132377Y190376I-175J244D01*
G02X131812Y191611I619J1030D01*
G03X131433Y191950I-296J51D01*
G02X132284Y192900I-333J1155D01*
G03X132663Y192561I296J-51D01*
G02X133699Y190431I333J-1155D01*
G03X133719Y189930I175J-244D01*
G37*
G36*
G01X179285Y174965D02*
G02X179259Y173580I969J-711D01*
G03X178769Y173589I-248J-169D01*
G02X178795Y174974I-969J711D01*
G03X179285Y174965I248J169D01*
G37*
G36*
G01X117025Y169427D02*
G02X115695Y169374I-625J-1027D01*
G03X115675Y169873I-176J243D01*
G02X117005Y169926I625J1027D01*
G03X117025Y169427I176J-243D01*
G37*
G36*
G01X140094Y165882D02*
G02X138706I-694J-982D01*
G03Y166371I-173J245D01*
G02X140094I694J982D01*
G03Y165882I173J-244D01*
G37*
G36*
G01X93880Y148973D02*
G02Y150027I-1080J527D01*
G03X94420I270J131D01*
G02X96580I1080J-527D01*
G03X97120I270J131D01*
G02Y148973I1080J-527D01*
G03X96580I-270J-131D01*
G02X94420I-1080J527D01*
G03X93880I-270J-131D01*
G37*
G36*
G01X222418Y310152D02*
G03X222027Y310148I-193J-229D01*
G02X222005Y312271I-927J1052D01*
G03X222396Y312275I193J229D01*
G02X222418Y310152I927J-1052D01*
G37*
G36*
G01X266238Y296626D02*
G03X266197Y296203I190J-232D01*
G02X264499I-849J-703D01*
G03X264458Y296626I-231J191D01*
G02X266238I890J1083D01*
G37*
G36*
G01X301172Y284714D02*
G03Y284286I211J-214D01*
G02X299628I-772J-786D01*
G03Y284714I-211J214D01*
G02X301172I772J786D01*
G37*
G36*
G01X271735Y280017D02*
G03X271265I-235J-186D01*
G02Y281383I-865J683D01*
G03X271735I235J186D01*
G02Y280017I865J-683D01*
G37*
G36*
G01X268609Y274806D02*
G03X268179I-215J-208D01*
G02Y276342I-791J768D01*
G03X268609I215J208D01*
G02Y274806I791J-768D01*
G37*
G36*
G01X229802Y217422D02*
G03X229806Y217018I224J-200D01*
G02X227732Y216995I-1027J-955D01*
G03X227728Y217399I-224J200D01*
G02X229802Y217422I1027J955D01*
G37*
G36*
G01X228781Y205198D02*
G03X228478Y204885I-3J-300D01*
G02X227096Y206225I-1401J-62D01*
G03X227399Y206538I3J300D01*
G02X228781Y205198I1401J62D01*
G37*
G36*
G01X219144Y204180D02*
G03X219021Y204623I-247J170D01*
G02X220667Y204990I579J1277D01*
G03X220743Y204537I228J-195D01*
G02X219144Y204180I-608J-1037D01*
G37*
G36*
G01X199995Y192600D02*
G03X200337Y192324I299J21D01*
G02X199137Y190840I199J-1388D01*
G03X198795Y191116I-299J-21D01*
G02X199995Y192600I-199J1388D01*
G37*
G36*
G01X235811Y188268D02*
G03X235495Y187939I-18J-299D01*
G02X232751Y187419I-1395J-138D01*
G03X232577Y187526I-145J-40D01*
G02X233649Y189281I-277J1374D01*
G03X233823Y189174I145J40D01*
G02X234332Y189183I279J-1374D01*
G03X234681Y189476I49J296D01*
G02X235811Y188268I1202J-8D01*
G37*
G36*
G01X255964Y187409D02*
G03X256309Y187210I285J95D01*
G02X255259Y185393I280J-1374D01*
G03X254914Y185592I-285J-95D01*
G02X255964Y187409I-280J1374D01*
G37*
G36*
G01X253190Y183537D02*
G03X253522Y183278I297J39D01*
G02X252292Y181705I160J-1393D01*
G03X251960Y181964I-297J-39D01*
G02X253190Y183537I-160J1393D01*
G37*
G36*
G01X208670Y180904D02*
G03X208486Y181272I-287J86D01*
G02X208211Y181415I412J1129D01*
G03X207800Y181349I-171J-246D01*
G02X205915Y183368I-1120J844D01*
G03X205959Y183575I-82J126D01*
G02X205739Y184223I1177J761D01*
G03X205433Y184498I-299J-25D01*
G02X206797Y186013I-33J1402D01*
G03X207103Y185738I299J25D01*
G02X208491Y183975I33J-1402D01*
G03X208804Y183598I290J-78D01*
G02X210087Y182210I96J-1198D01*
G03X210318Y181869I296J-48D01*
G02X211346Y180934I-305J-1368D01*
G03X211535Y180838I143J47D01*
G02X210635Y179071I433J-1333D01*
G03X210446Y179167I-143J-47D01*
G02X208670Y180904I-433J1334D01*
G37*
G36*
G01X263195Y174154D02*
G03X263000Y174085I-61J-137D01*
G02X262320Y176001I-1250J635D01*
G03X262515Y176070I61J137D01*
G02X263195Y174154I1250J-635D01*
G37*
G36*
G01X193317Y163727D02*
G03X193142Y163621I-31J-147D01*
G02X192077Y165379I-1348J385D01*
G03X192252Y165485I31J147D01*
G02X193317Y163727I1348J-385D01*
G37*
G36*
G01X260818Y166083D02*
Y161883D01*
G02X260412Y161186I-801J0D01*
G03X260316Y160751I148J-261D01*
G02X260818Y159183I-2200J-1569D01*
G01Y158783D01*
G02X255866Y157288I-2702J0D01*
G03X255366I-250J-166D01*
G02X250866I-2250J1495D01*
G03X250366I-250J-166D01*
G02X245866I-2250J1495D01*
G03X245366I-250J-166D01*
G02X240866I-2250J1495D01*
G03X240366I-250J-166D01*
G02X235414Y158783I-2250J1495D01*
G01Y159183D01*
G02X236380Y161253I2701J0D01*
G03Y161713I-192J230D01*
G02X235414Y163783I1735J2070D01*
G01Y164183D01*
G02X240366Y165678I2702J0D01*
G03X240866I250J166D01*
G02X245366I2250J-1495D01*
G03X245866I250J166D01*
G02X250366I2250J-1495D01*
G03X250866I250J166D01*
G02X255152Y165959I2250J-1495D01*
G01X255196Y165908D01*
X255414D01*
Y166083D01*
G02X256216Y166884I802J-1D01*
G01X260016D01*
G02X260818Y166083I1J-801D01*
G37*
G36*
G01X202112Y154471D02*
G03X202392Y154101I292J-70D01*
G02X200974Y153029I-55J-1401D01*
G03X200694Y153399I-292J70D01*
G02X202112Y154471I55J1401D01*
G37*
G36*
G01X234407Y151687D02*
G03X234002Y151405I-105J-281D01*
G02X233093Y152713I-1402J-5D01*
G03X233498Y152995I105J281D01*
G02X234407Y151687I1402J5D01*
G37*
G36*
G01X196286Y149313D02*
G03X196241Y148893I189J-233D01*
G02X194434Y148969I-937J-753D01*
G03X194425Y149392I-217J207D01*
G02X196286Y149313I975J1008D01*
G37*
G36*
G01X273223Y313993D02*
G02X271095Y312221I-923J-1055D01*
G03X270584Y312229I-258J-153D01*
G02X270605Y313697I-1184J751D01*
G03X271116Y313689I258J153D01*
G02X271377Y313993I1183J-752D01*
G03Y314445I-198J226D01*
G02X273223I923J1055D01*
G03Y313993I198J-226D01*
G37*
G36*
G01X220492Y293360D02*
G02X220264Y292130I778J-780D01*
G03X219778Y292220I-274J-122D01*
G02X220006Y293450I-778J780D01*
G03X220492Y293360I274J122D01*
G37*
G36*
G01X321899Y239983D02*
G02X320901I-499J-983D01*
G03Y240517I-136J267D01*
G02X321899I499J983D01*
G03Y239983I136J-267D01*
G37*
G36*
G01X244603Y177205D02*
G02X244582Y178394I-1280J572D01*
G03X245125Y178404I269J132D01*
G02X245146Y177215I1280J-572D01*
G03X244603Y177205I-269J-132D01*
G37*
G36*
G01X238887Y148164D02*
G02X238407Y146942I913J-1064D01*
G03X237913Y147136I-298J-33D01*
G02X238393Y148358I-913J1064D01*
G03X238887Y148164I298J33D01*
G37*
G36*
G01X36364Y31267D02*
Y39567D01*
G02X37165Y40368I801J0D01*
G01X42365D01*
G02X43166Y39567I0J-801D01*
G01Y31267D01*
G02X42365Y30466I-801J0D01*
G01X37165D01*
G02X36364Y31267I0J801D01*
G37*
G36*
G01Y42684D02*
Y50984D01*
G02X37165Y51786I801J1D01*
G01X42365D01*
G02X43166Y50984I-1J-802D01*
G01Y42684D01*
G02X42365Y41882I-801J-1D01*
G01X37165D01*
G02X36364Y42684I1J802D01*
G37*
G36*
G01X49750D02*
Y50984D01*
G02X50551Y51786I801J1D01*
G01X55751D01*
G02X56552Y50984I-1J-802D01*
G01Y42684D01*
G02X55751Y41882I-801J-1D01*
G01X50551D01*
G02X49750Y42684I1J802D01*
G37*
G36*
G01X30701Y133198D02*
X16699D01*
X15798Y134099D01*
Y139801D01*
X16399Y140402D01*
X30701D01*
X31202Y139901D01*
Y133699D01*
X30701Y133198D01*
G37*
G36*
G01X182531Y375353D02*
G03X182841Y375001I295J-53D01*
G02X181792Y373335I59J-1201D01*
G03X181340Y373463I-277J-116D01*
G02X176643Y375873I-1730J2410D01*
G01Y376463D01*
G02X182577I2967J0D01*
G01Y375873D01*
G02X182531Y375353I-2967J0D01*
G37*
G36*
G01X197619Y371307D02*
G03X197144Y371289I-231J-192D01*
G02X197081Y372993I-1144J811D01*
G03X197556Y373011I231J192D01*
G02X197619Y371307I1144J-811D01*
G37*
G36*
G01X111857Y364938D02*
G03X111377I-240J-180D01*
G02Y366384I-960J723D01*
G03X111857I240J180D01*
G02Y364938I960J-723D01*
G37*
G36*
G01X35723Y362938D02*
G03X35243I-240J-180D01*
G02Y364384I-960J723D01*
G03X35723I240J180D01*
G02Y362938I960J-723D01*
G37*
G36*
G01X269284Y363173D02*
G03X268896Y362981I-102J-282D01*
G02X260598Y363320I-4103J1293D01*
G03X260225Y363543I-293J-66D01*
G02X260420Y365784I-325J1157D01*
G03X260826Y365938I130J270D01*
G02X266667Y368146I3967J-1664D01*
G03X267098Y368413I131J270D01*
G02X268506Y367216I1202J-13D01*
G03X268313Y366748I52J-295D01*
G02X268880Y365616I-3521J-2472D01*
G03X269271Y365428I285J93D01*
G02X270874Y364529I423J-1125D01*
G03X271315Y364323I295J56D01*
G02X270605Y362962I685J-1223D01*
G03X270184Y363206I-299J-30D01*
G02X269284Y363173I-491J1097D01*
G37*
G36*
G01X82924Y350332D02*
G03X82502Y350066I-122J-274D01*
G02X80804Y351195I-1202J34D01*
G03X80885Y351687I-124J273D01*
G02X82924Y350332I5032J5360D01*
G37*
G36*
G01X143978Y352468D02*
G03X143461Y352545I-280J-107D01*
G02X142229Y351296I-5813J4501D01*
G03X142253Y350809I187J-235D01*
G02X140398Y349798I-653J-1009D01*
G03X140002Y350082I-300J0D01*
G02X144538Y354480I-2353J6965D01*
G03X144876Y354081I281J-104D01*
G02X143978Y352468I224J-1181D01*
G37*
G36*
G01X19061Y346599D02*
G03X19224Y347091I-62J294D01*
G02X22377Y346041I2478J2182D01*
G03X22214Y345549I62J-294D01*
G02X19061Y346599I-2478J-2182D01*
G37*
G36*
G01X125052Y345449D02*
G03X124889Y345941I-225J198D01*
G02X128042Y346991I675J3232D01*
G03X128205Y346499I225J-198D01*
G02X125052Y345449I-675J-3232D01*
G37*
G36*
G01X56585Y335726D02*
G03X56461Y335285I125J-273D01*
G02X54715Y335774I-1161J-785D01*
G03X54839Y336215I-125J273D01*
G02X56585Y335726I1161J785D01*
G37*
G36*
G01X78451Y333487D02*
G03X77971I-240J-180D01*
G02Y334933I-960J723D01*
G03X78451I240J180D01*
G02Y333487I960J-723D01*
G37*
G36*
G01X64277Y333080D02*
G03X63797I-240J-180D01*
G02Y334526I-960J723D01*
G03X64277I240J180D01*
G02X66167Y334564I960J-723D01*
G03X66632I233J190D01*
G02X68522Y334526I930J-761D01*
G03X69002I240J180D01*
G02Y333080I960J-723D01*
G03X68522I-240J-180D01*
G02X66632Y333042I-960J723D01*
G03X66167I-233J-190D01*
G02X64277Y333080I-930J761D01*
G37*
G36*
G01X99737Y331360D02*
G03X99749Y331148I112J-100D01*
G02X97775Y331039I-932J-1047D01*
G03X97763Y331251I-112J100D01*
G02X99737Y331360I932J1047D01*
G37*
G36*
G01X113254Y331688D02*
G03Y331212I182J-238D01*
G02X111546I-854J-1112D01*
G03Y331688I-182J238D01*
G02X113254I854J1112D01*
G37*
G36*
G01X37609Y317377D02*
G03Y316897I180J-240D01*
G02X36163I-723J-960D01*
G03Y317377I-180J240D01*
G02X37609I723J960D01*
G37*
G36*
G01X46762Y302390D02*
G03Y301910I180J-240D01*
G02X45316I-723J-960D01*
G03Y302390I-180J240D01*
G02X46762I723J960D01*
G37*
G36*
G01X71447Y274726D02*
G03X71579Y274289I253J-162D01*
G02X70085Y273835I-481J-1101D01*
G03X69953Y274272I-253J162D01*
G02X69870Y276434I481J1101D01*
G03X69983Y276859I-141J265D01*
G02X70143Y278343I1017J641D01*
G03X70123Y278783I-213J211D01*
G02X71757Y278857I777J917D01*
G03X71777Y278417I213J-211D01*
G02X71564Y276439I-777J-917D01*
G03X71451Y276014I141J-265D01*
G02X71447Y274726I-1017J-641D01*
G37*
G36*
G01X4339Y136942D02*
G03X4338Y137334I-228J195D01*
G02X6459Y137336I1060J918D01*
G03X6460Y136944I228J-195D01*
G02X4339Y136942I-1060J-918D01*
G37*
G36*
G01X55332Y131308D02*
G03X55076Y130948I38J-298D01*
G02X53748Y131892I-1176J-248D01*
G03X54004Y132252I-38J298D01*
G02X54362Y133380I1176J248D01*
G03Y133820I-205J220D01*
G02X55998I818J880D01*
G03Y133380I205J-220D01*
G02X55332Y131308I-818J-880D01*
G37*
G36*
G01X79820Y122282D02*
G03X79380I-220J-205D01*
G02Y123918I-880J818D01*
G03X79820I220J205D01*
G02X81386Y124087I880J-818D01*
G03X81821Y124191I171J247D01*
G02X82193Y122634I1058J-570D01*
G03X81758Y122530I-171J-247D01*
G02X79820Y122282I-1058J570D01*
G37*
G36*
G01X50179Y124290D02*
G03X50197Y124078I114J-97D01*
G02X48233Y123910I-897J-1078D01*
G03X48215Y124122I-114J97D01*
G02X50179Y124290I897J1078D01*
G37*
G36*
G01X63956Y119613D02*
G03X63527Y119520I-171J-246D01*
G02X63180Y121120I-1034J613D01*
G03X63609Y121213I171J246D01*
G02X63956Y119613I1034J-613D01*
G37*
G36*
G01X184976Y90975D02*
G03X184577Y90755I-105J-281D01*
G02X183824Y92125I-1177J245D01*
G03X184223Y92345I105J281D01*
G02X184976Y90975I1177J-245D01*
G37*
G36*
G01X159040Y65277D02*
G03X158560I-240J-180D01*
G02Y66723I-960J723D01*
G03X159040I240J180D01*
G02Y65277I960J-723D01*
G37*
G36*
G01X44751Y61310D02*
G03X44555Y60831I42J-297D01*
G02X42803Y59200I-955J-731D01*
G01X41138D01*
X41098Y59111D01*
G02X38843Y59924I-1097J490D01*
G03X38583Y60304I-289J81D01*
G02X39677Y62200I117J1196D01*
G01X40513D01*
G02X42487I987J-686D01*
G01X43080D01*
G03X43380Y62500I0J300D01*
G02X44751Y61310I1202J0D01*
G37*
G36*
G01X145130Y60091D02*
G03X145469Y59752I297J-42D01*
G02X144448Y58731I169J-1190D01*
G03X144109Y59070I-297J42D01*
G02X145130Y60091I-169J1190D01*
G37*
G36*
G01X171808Y42094D02*
G03X171364I-222J-201D01*
G02Y43706I-892J806D01*
G03X171808I222J201D01*
G02Y42094I892J-806D01*
G37*
G36*
G01X54522Y343097D02*
G02X48752Y345549I-3291J270D01*
G03X48589Y346041I-225J198D01*
G02X51742Y347091I675J3232D01*
G03X51905Y346599I225J-198D01*
G02X54178Y344857I-673J-3233D01*
G03X54719Y344870I267J136D01*
G02X55029Y343289I1281J-570D01*
G03X54522Y343097I-208J-216D01*
G37*
G36*
G01X98514Y345449D02*
G02X92745Y343545I-2479J-2182D01*
G03X92314Y343840I-299J25D01*
G02X93032Y345537I-614J1260D01*
G03X93543Y345434I285J94D01*
G02X95361Y346499I2491J-2168D01*
G03X95524Y346991I-62J294D01*
G02X98677Y345941I2478J2182D01*
G03X98514Y345449I62J-294D01*
G37*
G36*
G01X86349Y326064D02*
G02X85842Y327006I-1201J-39D01*
G03X86315Y327260I173J245D01*
G02X86822Y326318I1201J39D01*
G03X86349Y326064I-173J-245D01*
G37*
G36*
G01X80800Y305675D02*
G02X80316Y304376I900J-1075D01*
G03X79846Y304572I-296J-48D01*
G02X80316Y305834I-698J979D01*
G03X80800Y305675I291J71D01*
G37*
G36*
G01X52923Y289133D02*
G02X52556Y287846I777J-917D01*
G03X52077Y287983I-285J-92D01*
G02X50137Y288597I-777J917D01*
G03X49638Y288736I-290J-76D01*
G02X49963Y289901I-838J862D01*
G03X50462Y289762I290J76D01*
G02X52444Y289270I838J-862D01*
G03X52923Y289133I285J92D01*
G37*
G36*
G01X62939Y269565D02*
G02X62900Y268515I1061J-565D01*
G03X62361Y268535I-274J-121D01*
G02X62400Y269585I-1061J565D01*
G03X62939Y269565I274J121D01*
G37*
G36*
G01X57339D02*
G02X57300Y268515I1061J-565D01*
G03X56761Y268535I-274J-121D01*
G02X56800Y269585I-1061J565D01*
G03X57339Y269565I274J121D01*
G37*
G36*
G01X73676Y269925D02*
G02X72923Y268555I424J-1125D01*
G03X72524Y268775I-294J-61D01*
G02X71443Y268893I-424J1125D01*
G03X70984Y268693I-164J-251D01*
G02X70457Y269907I-1184J207D01*
G03X70916Y270107I164J251D01*
G02X73277Y270145I1184J-207D01*
G03X73676Y269925I294J61D01*
G37*
G36*
G01X48470Y267723D02*
G02X47971Y268997I-1170J277D01*
G03X48430Y269177I167J249D01*
G02X48929Y267903I1170J-277D01*
G03X48470Y267723I-167J-249D01*
G37*
G36*
G01X52902Y255763D02*
G02X51738Y255437I-302J-1163D01*
G03X51598Y255937I-215J209D01*
G02X52762Y256263I302J1163D01*
G03X52902Y255763I215J-209D01*
G37*
G36*
G01X45902Y255440D02*
G02X44698I-602J-1040D01*
G03Y255960I-150J260D01*
G02X44595Y257974I602J1040D01*
G03X44575Y258473I-176J243D01*
G02X45905Y258526I625J1027D01*
G03X45925Y258027I176J-243D01*
G02X45902Y255960I-625J-1027D01*
G03Y255440I150J-260D01*
G37*
G36*
G01X44663Y211040D02*
G02X44617Y212240I-1063J560D01*
G03X45137Y212260I254J160D01*
G02X46710Y212789I1064J-560D01*
G03X47129Y213128I127J272D01*
G02X47790Y212311I1171J272D01*
G03X47371Y211972I-127J-272D01*
G02X45183Y211060I-1171J-272D01*
G03X44663Y211040I-254J-160D01*
G37*
G36*
G01X77854Y211336D02*
G02X76907Y212184I-1154J-336D01*
G03X77246Y212564I51J296D01*
G02X78193Y211716I1154J336D01*
G03X77854Y211336I-51J-296D01*
G37*
G36*
G01X125780Y135182D02*
G02Y136818I-880J818D01*
G03X126220I220J205D01*
G02X126823Y137170I881J-817D01*
G03X127003Y137629I-69J292D01*
G02X128277Y137130I997J671D01*
G03X128097Y136671I69J-292D01*
G02X126220Y135182I-997J-671D01*
G03X125780I-220J-205D01*
G37*
G36*
G01X65180Y132973D02*
G02Y134027I-1080J527D01*
G03X65720I270J131D01*
G02Y132973I1080J-527D01*
G03X65180I-270J-131D01*
G37*
G36*
G01X133878Y128440D02*
G02X132643Y129401I-1178J-240D01*
G03X132922Y129760I-15J299D01*
G02X133573Y131080I1178J240D01*
G03Y131620I-131J270D01*
G02X134627I527J1080D01*
G03Y131080I131J-270D01*
G02X134157Y128799I-527J-1080D01*
G03X133878Y128440I15J-299D01*
G37*
G36*
G01X127400Y112434D02*
G02X125289Y112642I-1000J666D01*
G03X124889Y112802I-278J-114D01*
G02X123321Y114429I-489J1098D01*
G03X123254Y114629I-135J66D01*
G02X123160Y116717I546J1071D01*
G03X123140Y117237I-160J254D01*
G02X123098Y119340I560J1063D01*
G03Y119860I-150J260D01*
G02X124740Y121502I602J1040D01*
G03X125260I260J150D01*
G02X127380Y121427I1040J-602D01*
G03X127920I270J131D01*
G02X130040Y121502I1080J-527D01*
G03X130560I260J150D01*
G02X132202Y119860I1040J-602D01*
G03Y119340I150J-260D01*
G02X132160Y117237I-602J-1040D01*
G03X132140Y116717I140J-266D01*
G02X132102Y114660I-640J-1017D01*
G03Y114140I150J-260D01*
G02X130460Y112498I-602J-1040D01*
G03X129940I-260J-150D01*
G02X127900Y112434I-1040J602D01*
G03X127400I-250J-167D01*
G37*
G36*
G01X27552Y109100D02*
G02X24848I-1352J0D01*
G01Y121460D01*
X40948Y137560D01*
Y150826D01*
G03X40446Y151047I-300J0D01*
G02Y152819I-813J886D01*
G03X40948Y153040I202J221D01*
G01Y156188D01*
X46104Y161344D01*
G02X48016Y159432I956J-956D01*
G01X43652Y155068D01*
Y136440D01*
X31735Y124524D01*
G03X31851Y124028I212J-212D01*
G02X30072Y122249I-451J-1328D01*
G03X29576Y122365I-284J-96D01*
G01X27552Y120340D01*
Y109100D01*
G37*
G36*
G01X72140Y107498D02*
G02X70498Y109140I-1040J602D01*
G03Y109660I-150J260D01*
G02X70395Y111674I602J1040D01*
G03X70375Y112173I-176J243D01*
G02X70398Y114240I625J1027D01*
G03Y114760I-150J260D01*
G02X70400Y116842I602J1040D01*
G01Y117055D01*
G03X70236Y117205I-150J1D01*
G02X71294Y119334I-136J1395D01*
G03X71806I256J157D01*
G02X73844Y117480I1194J-734D01*
G03X73940Y116953I181J-239D01*
G02X74617Y116440I-341J-1153D01*
G03X75137Y116460I254J160D01*
G02X77240Y116502I1063J-560D01*
G03X77760I260J150D01*
G02X79402Y114860I1040J-602D01*
G03Y114340I150J-260D01*
G02Y112260I-602J-1040D01*
G03Y111740I150J-260D01*
G02Y109660I-602J-1040D01*
G03Y109140I150J-260D01*
G02X77760Y107498I-602J-1040D01*
G03X77240I-260J-150D01*
G02X75200Y107434I-1040J602D01*
G03X74700I-250J-167D01*
G02X72660Y107498I-1000J666D01*
G03X72140I-260J-150D01*
G37*
G36*
G01X138478Y97016D02*
G02X137402Y97265I-779J-916D01*
G03X137522Y97784I-74J291D01*
G02X138598Y97535I779J916D01*
G03X138478Y97016I74J-291D01*
G37*
G36*
G01X68133Y95600D02*
G02X67067Y94800I67J-1200D01*
G03X66767Y95200I-283J100D01*
G02X66140Y97463I-66J1200D01*
G03X66160Y97983I-140J266D01*
G02X67360Y97937I640J1017D01*
G03X67340Y97417I140J-266D01*
G02X67522Y97277I-638J-1018D01*
G03X68022Y97437I206J219D01*
G02X68378Y96323I1178J-237D01*
G03X67878Y96163I-206J-219D01*
G02X67833Y96000I-1178J238D01*
G03X68133Y95600I283J-100D01*
G37*
G36*
G01X120702Y93722D02*
G02X120139Y94718I-1202J-22D01*
G03X120598Y94978I159J254D01*
G02X121161Y93982I1202J22D01*
G03X120702Y93722I-159J-254D01*
G37*
G36*
G01X87502Y90397D02*
G02X87019Y91363I-1202J3D01*
G03X87498Y91603I179J241D01*
G02X87981Y90637I1202J-3D01*
G03X87502Y90397I-179J-241D01*
G37*
G36*
G01X218897Y63271D02*
G02X216747Y62260I-997J-671D01*
G03X216220Y62356I-288J-85D01*
G02X214194Y64270I-1119J844D01*
G03X214199Y64724I-193J229D01*
G02X216528Y65752I927J1052D01*
G01Y65600D01*
X217823D01*
G02X219077Y63730I977J-700D01*
G03X218897Y63271I69J-292D01*
G37*
G36*
G01X268468Y62320D02*
G02X265993Y61647I-368J-3533D01*
G03X266007Y62120I-177J242D01*
G02X265500Y63119I892J1081D01*
G03X265007Y63331I-299J-17D01*
G02X262783Y64879I-907J1069D01*
G03X262547Y65278I-282J102D01*
G02X265119Y65864I553J3509D01*
G03X265080Y65403I170J-247D01*
G02X265500Y64481I-980J-1003D01*
G03X265993Y64269I299J17D01*
G02X268218Y62721I907J-1069D01*
G03X268468Y62320I282J-103D01*
G37*
G36*
G01X288483Y41079D02*
G02X286721Y40958I-384J-7292D01*
G03X286831Y41501I-57J294D01*
G02X288300Y41602I669J999D01*
G03X288483Y41079I199J-224D01*
G37*
G36*
G01X265732Y128498D02*
G03X265453Y128111I8J-300D01*
G02X264080Y129102I-1341J-411D01*
G03X264359Y129489I-8J300D01*
G02X267102Y129880I1341J410D01*
G03X267454Y129580I300J-5D01*
G02X266298Y128220I246J-1380D01*
G03X265946Y128520I-300J5D01*
G02X265732Y128498I-250J1380D01*
G37*
G36*
G01X220781Y124028D02*
G03X221200Y123951I248J169D01*
G02X220842Y122010I800J-1151D01*
G03X220423Y122087I-248J-169D01*
G02X220781Y124028I-800J1151D01*
G37*
G36*
G01X234398Y112260D02*
G03X234005Y112009I-95J-284D01*
G02X233191Y113281I-1195J132D01*
G03X233584Y113532I95J284D01*
G02X235920Y113779I1195J-132D01*
G03X236363Y113619I285J95D01*
G02X235859Y112221I637J-1019D01*
G03X235416Y112381I-285J-95D01*
G02X234398Y112260I-637J1019D01*
G37*
G36*
G01X245809Y113485D02*
G03X246202Y113248I296J47D01*
G02X245402Y111925I388J-1138D01*
G03X245009Y112162I-296J-47D01*
G02X244213Y112169I-388J1138D01*
G03X243820Y111959I-102J-282D01*
G02X241637Y111605I-1167J288D01*
G03X241205Y111686I-254J-160D01*
G02X241506Y113295I-715J966D01*
G03X241938Y113214I254J160D01*
G02X243061Y113378I715J-967D01*
G03X243454Y113588I102J282D01*
G02X245809Y113485I1167J-288D01*
G37*
G36*
G01X252158Y110473D02*
G03X252278Y110898I-136J268D01*
G02X253842Y110457I1022J632D01*
G03X253722Y110032I136J-268D01*
G02X252158Y110473I-1022J-632D01*
G37*
G36*
G01X304912Y109360D02*
G03X305192Y109000I294J-60D01*
G02X303752Y107880I-66J-1400D01*
G03X303472Y108240I-294J60D01*
G02X304912Y109360I66J1400D01*
G37*
G36*
G01X257181Y97452D02*
G02X255661Y97151I-581J-1052D01*
G03X255572Y97601I-234J188D01*
G02X255991Y99844I581J1052D01*
G03X256242Y100211I-41J297D01*
G02X256568Y101344I1170J277D01*
G03X256391Y101856I-210J214D01*
G02X256847Y104619I158J1393D01*
G03X257209Y104875I64J293D01*
G02X258302Y103330I1391J-175D01*
G03X257940Y103074I-64J-293D01*
G02X257472Y102194I-1391J175D01*
G03X257618Y101672I197J-226D01*
G02X258288Y101311I-206J-1184D01*
G03X258770Y101373I219J205D01*
G02X258896Y99836I1230J-673D01*
G03X258410Y99818I-236J-185D01*
G02X257574Y99297I-998J670D01*
G03X257323Y98930I41J-297D01*
G02X257092Y97902I-1170J-277D01*
G03X257181Y97452I234J-188D01*
G37*
G36*
G01X254965Y82863D02*
G02X254985Y81500I1235J-664D01*
G03X254472Y81512I-260J-149D01*
G02X254452Y82836I-1013J647D01*
G03X254965Y82863I248J169D01*
G37*
G36*
G01X197978Y333575D02*
G03X197556I-211J-213D01*
G02Y335563I-989J994D01*
G03X197978I211J213D01*
G02Y333575I989J-994D01*
G37*
G36*
G01X216870Y332942D02*
G03X216448I-211J-213D01*
G02Y334930I-989J994D01*
G03X216870I211J213D01*
G02Y332942I989J-994D01*
G37*
G36*
G01X229312Y332863D02*
G03X228896I-208J-216D01*
G02Y334883I-972J1010D01*
G03X229312I208J216D01*
G02Y332863I972J-1010D01*
G37*
G36*
G01X223402D02*
G03X222986I-208J-216D01*
G02Y334883I-972J1010D01*
G03X223402I208J216D01*
G02Y332863I972J-1010D01*
G37*
G36*
G01X210848Y332854D02*
G03X210426I-211J-213D01*
G02Y334842I-989J994D01*
G03X210848I211J213D01*
G02Y332854I989J-994D01*
G37*
G36*
G01X242448Y332085D02*
G03X242026I-211J-213D01*
G02Y334073I-989J994D01*
G03X242448I211J213D01*
G02Y332085I989J-994D01*
G37*
G36*
G01X248358Y331351D02*
G03X247936I-211J-213D01*
G02Y333339I-989J994D01*
G03X248358I211J213D01*
G02Y331351I989J-994D01*
G37*
G36*
G01X187048Y323788D02*
G03X186626I-211J-213D01*
G02Y325776I-989J994D01*
G03X187048I211J213D01*
G02Y323788I989J-994D01*
G37*
G36*
G01X212158Y323608D02*
G03X211736I-211J-213D01*
G02Y325596I-989J994D01*
G03X212158I211J213D01*
G02Y323608I989J-994D01*
G37*
G36*
G01X240566Y317576D02*
G03X240144I-211J-213D01*
G02Y319564I-989J994D01*
G03X240566I211J213D01*
G02Y317576I989J-994D01*
G37*
G36*
G01X231117D02*
G03X230695I-211J-213D01*
G02Y319564I-989J994D01*
G03X231117I211J213D01*
G02Y317576I989J-994D01*
G37*
G36*
G01X221668D02*
G03X221246I-211J-213D01*
G02Y319564I-989J994D01*
G03X221668I211J213D01*
G02Y317576I989J-994D01*
G37*
G36*
G01X212219Y317201D02*
G03X211797I-211J-213D01*
G02Y319189I-989J994D01*
G03X212219I211J213D01*
G02Y317201I989J-994D01*
G37*
G36*
G01X177574Y315576D02*
G03X177152I-211J-213D01*
G02Y317564I-989J994D01*
G03X177574I211J213D01*
G02Y315576I989J-994D01*
G37*
G36*
G01X188322Y316003D02*
G03X188109Y315603I67J-292D01*
G02X185493Y315607I-1309J-503D01*
G03X185283Y316007I-280J108D01*
G02X184216Y317240I329J1363D01*
G03X183879Y317509I-298J-28D01*
G02X184815Y319750I-179J1391D01*
G03X185344Y319856I239J182D01*
G02X188050Y319121I1356J-356D01*
G03X188281Y318746I289J-81D01*
G02X188322Y316003I-269J-1376D01*
G37*
G36*
G01X208302Y313899D02*
G03X208619Y313600I300J0D01*
G02X207298Y312201I81J-1400D01*
G03X206981Y312500I-300J0D01*
G02X208302Y313899I-81J1400D01*
G37*
G36*
G01X195994Y245611D02*
G03Y245189I213J-211D01*
G02X194006I-994J-989D01*
G03Y245611I-213J211D01*
G02X195994I994J989D01*
G37*
G36*
G01X166439Y233506D02*
G03X166017I-211J-213D01*
G02Y235494I-989J994D01*
G03X166439I211J213D01*
G02Y233506I989J-994D01*
G37*
G36*
G01X158801Y230706D02*
G03X158379I-211J-213D01*
G02Y232694I-989J994D01*
G03X158801I211J213D01*
G02Y230706I989J-994D01*
G37*
G36*
G01X143746Y230569D02*
G03X143266Y230565I-238J-182D01*
G02X141482Y232160I-967J714D01*
G03Y232600I-205J220D01*
G02Y234360I818J880D01*
G03Y234800I-205J220D01*
G02X143220Y236453I818J880D01*
G03X143680I230J193D01*
G02X145465Y234846I920J-773D01*
G03X145485Y234410I216J-209D01*
G02X145518Y232620I-785J-910D01*
G03Y232180I205J-220D01*
G02X143746Y230569I-817J-881D01*
G37*
G36*
G01X170240Y229870D02*
G03X169838Y229867I-199J-224D01*
G02X169822Y231948I-948J1033D01*
G03X170224Y231951I199J224D01*
G02X170240Y229870I948J-1033D01*
G37*
G36*
G01X162429Y226962D02*
G03X162007I-211J-213D01*
G02Y228950I-989J994D01*
G03X162429I211J213D01*
G02Y226962I989J-994D01*
G37*
G36*
G01X266116Y226714D02*
G03Y226286I211J-214D01*
G02X264572I-772J-786D01*
G03Y226714I-211J214D01*
G02X266116I772J786D01*
G37*
G36*
G01X182821Y223527D02*
G03X182399I-211J-213D01*
G02Y225515I-989J994D01*
G03X182821I211J213D01*
G02Y223527I989J-994D01*
G37*
G36*
G01X191534Y333557D02*
G02Y335545I-989J994D01*
G03X191956I211J213D01*
G02X192951Y335953I989J-994D01*
G03X193211Y336405I1J300D01*
G02X194412Y335716I1207J713D01*
G03X194152Y335264I-1J-300D01*
G02X191956Y333557I-1207J-713D01*
G03X191534I-211J-213D01*
G37*
G36*
G01X272962Y247978D02*
G02X272952Y246838I938J-578D01*
G03X272438Y246842I-258J-153D01*
G02X272448Y247982I-938J578D01*
G03X272962Y247978I258J153D01*
G37*
G36*
G01X296894Y245249D02*
G02X296893Y246442I-927J596D01*
G03X297398I253J162D01*
G02X299258Y246432I927J-596D01*
G03X299767I255J159D01*
G02Y245260I933J-586D01*
G03X299258I-255J-159D01*
G02X297399Y245249I-933J586D01*
G03X296894I-252J-162D01*
G37*
G36*
G01X300533Y242660D02*
G02X300524Y243924I-907J626D01*
G03X301016Y243928I245J174D01*
G02X302792Y243979I907J-626D01*
G03X303263Y243976I237J185D01*
G02X303254Y242610I860J-689D01*
G03X302783Y242613I-237J-185D01*
G02X301025Y242664I-860J689D01*
G03X300533Y242660I-245J-174D01*
G37*
G36*
G01X201221Y241043D02*
G02X200081I-570J-943D01*
G03Y241557I-155J257D01*
G02X201221I570J943D01*
G03Y241043I155J-257D01*
G37*
G36*
G01X204780Y228595D02*
G02X204527Y229928I-980J505D01*
G03X204991Y230017I197J226D01*
G02X205244Y228684I980J-505D01*
G03X204780Y228595I-197J-226D01*
G37*
G36*
G01X154304Y227202D02*
G02X152334Y229196I-984J998D01*
G03X152157Y229707I-211J213D01*
G02X151331Y232094I163J1393D01*
G03Y232306I-106J106D01*
G02X151500Y234437I989J994D01*
G03X151514Y234913I-175J243D01*
G02X153220Y234863I886J1087D01*
G03X153206Y234387I175J-243D01*
G02X153309Y232306I-886J-1087D01*
G03Y232094I106J-106D01*
G02X153306Y230104I-989J-994D01*
G03X153483Y229593I211J-213D01*
G02X154304Y229198I-164J-1392D01*
G03X154726I211J214D01*
G02Y227202I984J-998D01*
G03X154304I-211J-214D01*
G37*
G36*
G01X257872Y228181D02*
G02X256551Y228122I-621J-910D01*
G03X256530Y228602I-190J232D01*
G02X257851Y228661I621J910D01*
G03X257872Y228181I190J-232D01*
G37*
G36*
G01X205009Y223746D02*
G02Y225054I-1009J654D01*
G03X205504Y225042I252J163D01*
G02Y223758I896J-642D01*
G03X205009Y223746I-243J-175D01*
G37*
G54D27*
X288849Y284231D03*
X285700Y286790D03*
X264829Y270457D03*
X295717Y253523D03*
X289568D03*
G54D26*
X215525Y160139D03*
X217922Y161149D03*
X314172Y253523D03*
X286418Y268877D03*
X311023Y266318D03*
X295867Y268877D03*
X289568D03*
X317322D03*
X271900Y277000D03*
X314172Y268877D03*
X269888Y285811D03*
X289568Y273995D03*
X285700Y284231D03*
X264829Y288370D03*
X295893Y276555D03*
X254593Y290929D03*
X295893Y286791D03*
X259710Y293489D03*
X311023Y256082D03*
X298893Y279114D03*
X254592Y293489D03*
X267483Y280733D03*
X286046Y276554D03*
X292717Y271436D03*
X264829Y273015D03*
X289202Y276559D03*
X257151Y293489D03*
X295893Y284232D03*
X291999Y279113D03*
X295867Y266318D03*
X264829Y267897D03*
X208563Y293888D03*
X259710Y275574D03*
X259712Y273016D03*
X262271Y280692D03*
X259711D03*
X314173Y258641D03*
Y263759D03*
X304723Y268877D03*
X283268D03*
X289567Y266318D03*
X308573Y276554D03*
X304723Y281672D03*
X299900Y273995D03*
X292717D03*
X288849Y286790D03*
X320472Y256082D03*
Y250964D03*
Y266318D03*
X320493Y279103D03*
X320472Y271436D03*
X320750Y263000D03*
X320700Y259300D03*
X259710Y288370D03*
X257150D03*
X314173Y235610D03*
X301517Y279113D03*
X314373Y286790D03*
X305023D03*
X307873D03*
X294270Y290500D03*
X301300Y268757D03*
X283268Y266318D03*
Y281672D03*
X314173Y245846D03*
Y276554D03*
X208580Y290879D03*
X223885Y283251D03*
X244356Y278133D03*
X216208D03*
X246915Y280692D03*
X244356Y283251D03*
X252033D03*
X246915D03*
X221326Y280693D03*
Y285810D03*
X249474Y280692D03*
X218767Y283251D03*
X231562Y280692D03*
X252033Y280693D03*
X229003Y280692D03*
X244356D03*
X239238Y283251D03*
Y285810D03*
X246915Y278133D03*
X239238Y290929D03*
X236679Y280692D03*
X246915Y288370D03*
X244356D03*
X211090Y278133D03*
X213649Y275574D03*
X203412D03*
X205971D03*
X218767Y278133D03*
X239239Y288370D03*
X241797D03*
X249474Y285811D03*
Y288370D03*
X314172Y250964D03*
X311023Y253523D03*
Y268878D03*
X262270Y278133D03*
X267388Y267897D03*
X299322Y264822D03*
X205850Y286150D03*
X216208Y288370D03*
X264829Y285811D03*
X307874Y268877D03*
X288849Y279113D03*
X269100Y278500D03*
X314172Y271436D03*
X229003Y285810D03*
X311023Y271436D03*
X249474Y278133D03*
X218766Y275574D03*
X211090Y283251D03*
X205964Y283258D03*
X208530Y283251D03*
X211090Y285810D03*
Y280692D03*
X236679Y278133D03*
X211090Y288370D03*
X213649Y278133D03*
X208530Y280692D03*
X231562Y278133D03*
X223885Y280692D03*
X226443Y278133D03*
X216208Y275574D03*
X254592Y278133D03*
X218767Y280692D03*
X213649D03*
X226444Y285810D03*
X241797Y278133D03*
X236679Y283251D03*
X229003D03*
X231562D03*
X236679Y288369D03*
X252033Y278133D03*
X223885Y275574D03*
X226444D03*
X229003D03*
X203126Y291026D03*
X226444Y288370D03*
X257151Y290929D03*
X259710D03*
X281208Y276173D03*
X314173Y233051D03*
X320472Y245846D03*
X314173Y248405D03*
X317322D03*
X311023Y240728D03*
X314173Y256082D03*
X320472Y253523D03*
X317322Y256082D03*
X311523Y258641D03*
X316400Y260400D03*
X314173Y266318D03*
X320472Y268877D03*
X311523Y263759D03*
X292717Y266318D03*
X286418D03*
X314173Y273995D03*
X317322D03*
X320472Y276554D03*
X320523Y281662D03*
X305023Y271436D03*
X299900D03*
X314273Y289349D03*
X308600Y291700D03*
X288849Y289349D03*
X322824Y236324D03*
X246915Y285810D03*
X239238Y280692D03*
X241797Y285811D03*
X213649Y285810D03*
X203600Y288200D03*
X208530Y278133D03*
X229003D03*
X226444Y280692D03*
X236679Y285810D03*
X239238Y278133D03*
X226444Y283251D03*
X221326D03*
X186463Y66900D03*
X192989Y70907D03*
X190400Y65100D03*
X252033Y239749D03*
X249474Y244866D03*
X267431Y244867D03*
X295867Y240627D03*
X259710Y229511D03*
X295867Y235609D03*
X289567Y238168D03*
X267977Y237413D03*
X264829Y239749D03*
X286418Y245845D03*
X259710Y262779D03*
X289567Y243286D03*
X254592Y232071D03*
X297070Y231000D03*
X264829Y252544D03*
X289568Y250963D03*
X295867Y256082D03*
X262270Y255103D03*
X267641Y234489D03*
X285976Y240727D03*
X292126Y243286D03*
X299017Y256082D03*
X269900Y257000D03*
X254592Y229511D03*
X271247Y234529D03*
X285976Y235609D03*
X262270Y249985D03*
X292717Y253523D03*
X271400Y241500D03*
X289577Y245845D03*
X264829Y255103D03*
X203000Y263300D03*
X254592Y265338D03*
Y262779D03*
Y257662D03*
X257151Y267897D03*
X259711Y242308D03*
X304600Y245846D03*
X289570Y248405D03*
X304400Y253535D03*
X289567Y256082D03*
X283268Y250964D03*
X262271Y242308D03*
X259710Y234630D03*
X257150D03*
X293400Y230500D03*
X298771Y235614D03*
X289567Y235610D03*
X283070Y240728D03*
X259711Y252544D03*
X264829Y249985D03*
X262270Y257662D03*
X259711Y255103D03*
X299735Y252974D03*
X283268Y256082D03*
X208530Y270456D03*
X252033Y234629D03*
X254593Y267898D03*
X226443Y257662D03*
X249474Y249985D03*
X244356Y234630D03*
Y249985D03*
X241797Y249984D03*
X236679Y265338D03*
X241797Y247426D03*
X218767Y267898D03*
X216208Y267897D03*
X221326Y265338D03*
X218767Y265339D03*
X216208Y265338D03*
X236679Y234630D03*
X242000Y226200D03*
X211090Y249985D03*
X208530Y252544D03*
X211090D03*
X203412Y249984D03*
X205971Y232070D03*
Y249984D03*
X203412Y252543D03*
X205971D03*
X211090Y237190D03*
X208530Y242308D03*
X211090D03*
X203412Y237189D03*
X205971D03*
X203137Y234571D03*
X205971Y234629D03*
X208530Y237190D03*
X221326Y239749D03*
X211090D03*
X208530D03*
X218767Y244867D03*
X249474Y239749D03*
X244356Y247426D03*
X231562Y234630D03*
Y247426D03*
X283200Y248400D03*
X295367Y250964D03*
X203412Y255102D03*
X205971D03*
X213649Y265338D03*
X211090Y262779D03*
Y265338D03*
X208530D03*
X216208Y247426D03*
X218767Y249985D03*
X216208D03*
X202700Y270400D03*
X264829Y244867D03*
X267388Y249985D03*
X286400Y250970D03*
X249474Y237190D03*
X206200Y245100D03*
X208530Y234629D03*
X257151Y257662D03*
X252033Y247426D03*
X236679Y237190D03*
X239238Y239749D03*
X216300Y228800D03*
X236679Y239749D03*
X241797D03*
X239238Y237190D03*
X229003Y244867D03*
X231568Y239755D03*
X229003Y239749D03*
X231562Y242308D03*
X200100Y228500D03*
X244356Y242308D03*
X246916Y244867D03*
X226444Y239749D03*
Y237190D03*
Y242308D03*
X246915D03*
X244356Y239749D03*
X246915D03*
X236679Y244867D03*
X244357D03*
X241797Y237189D03*
X244356Y237190D03*
X257145Y260227D03*
X246915Y237190D03*
X262270Y262779D03*
X241797Y234630D03*
X257151Y262779D03*
X231562Y237190D03*
X246915Y252544D03*
X213649Y255102D03*
X249474Y273015D03*
Y270456D03*
Y267897D03*
Y265338D03*
X246915D03*
X249474Y262779D03*
X246915D03*
X249474Y255103D03*
Y257662D03*
X246915Y255103D03*
Y257662D03*
X252033Y270456D03*
X254592Y249985D03*
Y255103D03*
Y252544D03*
Y244867D03*
X231562D03*
X249474Y242308D03*
X231562Y252544D03*
Y255103D03*
X229003Y252544D03*
Y255103D03*
X223885Y252544D03*
Y255103D03*
X221326D03*
X218766D03*
X226444D03*
Y252544D03*
X218766Y257662D03*
X221325D03*
X236679Y273015D03*
X239238Y273016D03*
X236679Y270456D03*
X239238Y270457D03*
X231561Y265338D03*
X223885Y270456D03*
X226444D03*
X229003D03*
X231562D03*
X218767D03*
X226444Y244867D03*
X218767Y239749D03*
X221326Y242308D03*
X229003D03*
X223885Y237190D03*
X239238Y257662D03*
Y247426D03*
X236679Y249985D03*
X239238Y252544D03*
X236679Y255103D03*
X229003Y257662D03*
X231562D03*
X236679D03*
X231562Y249985D03*
X229003D03*
X226444Y247426D03*
Y249985D03*
X221326Y247426D03*
X213649Y262779D03*
X221326Y249985D03*
X216207Y252544D03*
X216208Y257662D03*
X229003Y267897D03*
X223885Y257662D03*
Y265338D03*
X244356D03*
Y267897D03*
X246915Y273015D03*
Y270456D03*
X244356D03*
Y262779D03*
Y257662D03*
X221326Y270456D03*
X223885Y267897D03*
X226444D03*
X252033Y232071D03*
X246915Y247426D03*
X239238Y234630D03*
X229003D03*
X211090Y255103D03*
X208530Y262779D03*
X252033Y252544D03*
Y249985D03*
Y255103D03*
Y257662D03*
Y262779D03*
Y265338D03*
Y267897D03*
X213649D03*
X211090D03*
X216208Y242308D03*
X213649Y247426D03*
X216208Y244867D03*
X252033Y229512D03*
X254592Y239749D03*
X257151Y265338D03*
X259710D03*
X257151Y255103D03*
Y252544D03*
X304723Y248405D03*
X292817Y240727D03*
X292717Y250964D03*
X292718Y256082D03*
X262270Y252544D03*
X203905Y260710D03*
G54D24*
X299212Y196850D03*
G54D29*
X25808Y166500D03*
X7697D03*
G54D22*
X155337Y163553D03*
X83000Y204200D03*
X149300Y199625D03*
X151400Y177126D03*
X156200Y196900D03*
X87300Y156800D03*
X86300Y153600D03*
X83600Y152900D03*
X105342Y184861D03*
X127400Y184800D03*
X132700Y204300D03*
X142400Y159400D03*
X77650Y197400D03*
X116200Y198300D03*
X108700D03*
X123700D03*
X112200D03*
X120300D03*
Y202200D03*
X112200D03*
X108700D03*
X116200D03*
X120300Y205800D03*
X123700D03*
X112200D03*
X108700D03*
X116200D03*
X120300Y194700D03*
X123700D03*
X112200D03*
X108700D03*
X116200D03*
X120300Y190900D03*
X123700D03*
X112200D03*
X108700D03*
X116200D03*
X183261Y166400D03*
X180800Y168900D03*
Y163800D03*
X180100Y159454D03*
X84100Y177600D03*
X116100Y181300D03*
X139500Y324200D03*
X132300Y259400D03*
X123512Y277100D03*
X99500Y289367D03*
X149300Y296700D03*
X98625Y264956D03*
X107351Y294600D03*
X125600Y230775D03*
X99800Y231500D03*
X127369Y322174D03*
X93300Y236200D03*
X134900Y308900D03*
X142784Y296712D03*
X127333Y286833D03*
X159660Y286000D03*
X151000Y267600D03*
X143200D03*
X154500D03*
X139700D03*
X147084Y267617D03*
X157584Y271617D03*
X164084Y257117D03*
X152584Y263617D03*
X157584Y266617D03*
Y277117D03*
X136584Y282117D03*
Y277570D03*
X157584Y282117D03*
X153974Y285727D03*
X136584Y285617D03*
X145584Y285833D03*
X95684Y305900D03*
X136572Y220600D03*
X120310Y285388D03*
X112891Y315755D03*
X116200Y310700D03*
X109600D03*
X116000Y318900D03*
X109800Y318800D03*
X102020Y282439D03*
Y277321D03*
X96902D03*
X91784D03*
Y272203D03*
X96902D03*
X102020D03*
X103100Y268200D03*
X114400Y221800D03*
X114700Y228600D03*
X114300Y231300D03*
X100400Y305999D03*
X297700Y325700D03*
X326100Y339500D03*
X257000Y350300D03*
X260251Y340451D03*
X246700Y346984D03*
X326700Y329900D03*
X284300Y339600D03*
X303400Y325500D03*
X314200Y339600D03*
X319800Y336800D03*
X197380Y156172D03*
X243757Y189468D03*
X228009Y190500D03*
X291500Y208500D03*
X285514Y143254D03*
X283100Y162900D03*
X302499Y184500D03*
X302800Y203400D03*
X329400Y188900D03*
X309400Y186200D03*
X293600Y168800D03*
X318900Y149900D03*
X288000Y149100D03*
X310000Y149500D03*
X302800Y149300D03*
X277400Y268500D03*
X324900Y241500D03*
X277400Y275600D03*
X323900Y289200D03*
Y284300D03*
X292900Y313200D03*
X311269Y313236D03*
X282100Y312900D03*
X236234Y302660D03*
X251500Y306700D03*
X277680Y313700D03*
X320800Y309200D03*
X83507Y134000D03*
X53816Y112984D03*
X88384Y114500D03*
X36684Y91616D03*
X13284Y92016D03*
X65945Y200555D03*
X174084Y50784D03*
X118320Y25520D03*
X118400Y38080D03*
X15367Y181067D03*
X177064Y63200D03*
X177100Y67500D03*
X27800Y103000D03*
X4800Y102800D03*
X145900Y73100D03*
X168500Y133400D03*
X132500Y40900D03*
X130600Y43600D03*
X133800D03*
X137100D03*
X138900Y41200D03*
X135700Y41000D03*
X80400Y33500D03*
X99500D03*
X148400Y63400D03*
X143803Y81989D03*
X148744Y60051D03*
X150900Y61900D03*
X159100Y57200D03*
X35017Y184000D03*
X69100Y80200D03*
X74064Y78333D03*
X75000Y68900D03*
X75200Y73500D03*
X83200Y127011D03*
X103400Y90900D03*
X138000Y101700D03*
X136900Y104300D03*
X85364Y99833D03*
X86500Y95000D03*
X88500Y87000D03*
X81700Y85400D03*
X81500Y80800D03*
X84900Y87300D03*
X84700Y82700D03*
X181700Y82000D03*
X164700Y42750D03*
X64551Y110949D03*
X104700Y98600D03*
X73992Y205908D03*
X19700Y45700D03*
X19800Y51400D03*
X16400Y60700D03*
X23100Y61200D03*
X71991Y101539D03*
X168200Y79995D03*
X32700Y26800D03*
X27900Y22900D03*
X23500Y24800D03*
X28300Y28700D03*
X34100Y22600D03*
X38900Y26500D03*
X32700Y19600D03*
X37500Y23500D03*
X62868Y115000D03*
X62951Y103500D03*
X20400Y83200D03*
X11400Y82400D03*
X6900Y54500D03*
X9800Y26300D03*
X7200Y43900D03*
X3700Y26400D03*
X158600Y63300D03*
X166416Y87784D03*
X59800Y200700D03*
X48666Y187565D03*
X92984Y125290D03*
X186900Y104600D03*
Y108200D03*
Y100800D03*
X35800Y61514D03*
X158485Y99073D03*
X154800Y99100D03*
X162200D03*
Y102700D03*
X154800D03*
X158485Y102673D03*
X162200Y95300D03*
X154800D03*
X158485Y95273D03*
X125300Y141900D03*
X134400Y142100D03*
X129500Y141900D03*
X57700Y168500D03*
X61500D03*
X54000D03*
X61500Y172100D03*
X57700D03*
X54000D03*
X61500Y175700D03*
X57700D03*
X54000D03*
X61500Y164900D03*
X57700D03*
X54000D03*
X41000Y90200D03*
X4800D03*
X68500Y47100D03*
X68300Y40000D03*
X66700Y43500D03*
Y50100D03*
X180315Y32115D03*
X197500Y30900D03*
X184000Y44600D03*
X195300Y46000D03*
X168900Y54187D03*
X171600Y54400D03*
X173156Y76588D03*
X164567Y116400D03*
X50400Y215500D03*
X54200Y215900D03*
X51800Y213000D03*
X56400D03*
X61150Y213200D03*
X66500Y212588D03*
X72200Y213200D03*
X72000Y216600D03*
X64180Y216466D03*
X44644Y68200D03*
Y65300D03*
X123300Y92300D03*
X40800Y211500D03*
X49100Y210800D03*
X185200Y5000D03*
X105000Y4400D03*
X61300Y4800D03*
X21600Y6300D03*
X67100Y20100D03*
X4400Y150800D03*
X33500Y202800D03*
X24000Y207000D03*
X4500Y206600D03*
X93900Y43800D03*
X90700Y45500D03*
X72600Y133500D03*
X69602Y130199D03*
X69600Y133500D03*
X3800Y185200D03*
X182200Y114720D03*
X39800Y181300D03*
X46489Y145404D03*
X72505Y146500D03*
X48380Y109520D03*
X165000Y382200D03*
X31200Y298700D03*
X35140Y297760D03*
X79100Y339200D03*
X149700Y363571D03*
X144300Y385100D03*
X147791Y385081D03*
X168724Y373315D03*
X28600Y295400D03*
X185700Y380500D03*
X180128Y370273D03*
X32040Y301540D03*
X80700Y370800D03*
X72942Y370213D03*
X77600Y221822D03*
X86100Y225500D03*
X63960Y286800D03*
X153100Y378329D03*
X43949Y389165D03*
X48765D03*
X97949Y374301D03*
X84241Y388323D03*
X37507Y389093D03*
X79151Y324449D03*
X75879Y302300D03*
X55300Y296252D03*
X47000Y306700D03*
X86093Y310374D03*
X53900Y311800D03*
X93684Y324700D03*
X79250Y318150D03*
X121714Y330953D03*
X128775Y335175D03*
X53652Y321300D03*
X66400Y327748D03*
X75849D03*
X63152Y302300D03*
X84700Y333300D03*
X124213Y335587D03*
X185500Y370200D03*
X69490Y221321D03*
X78129Y288073D03*
X4200Y364700D03*
X13600Y389300D03*
X17800Y376000D03*
X25400Y366900D03*
X85900Y367200D03*
X79800Y366700D03*
X8700Y389400D03*
X91500Y389600D03*
X87800Y382300D03*
X92200Y364200D03*
X46300Y361000D03*
X25000Y359000D03*
X4000Y376700D03*
X99500Y389700D03*
X106900Y389600D03*
X113700Y389700D03*
X120600D03*
X127400Y389800D03*
X134400D03*
X141500D03*
X148200Y389900D03*
X157900Y380500D03*
X155500Y375800D03*
X192100Y389900D03*
X192000Y382900D03*
X191900Y376620D03*
X142700Y365100D03*
X145600Y362500D03*
X66400Y315000D03*
X71400D03*
X61400D03*
X75900D03*
X71400Y319700D03*
X61400D03*
X56900D03*
X75900D03*
X66400D03*
X71400Y324400D03*
X61400D03*
X56900D03*
X75900D03*
X66400D03*
X71400Y310300D03*
X61400D03*
X56900D03*
X75900D03*
X66400D03*
X71500Y306200D03*
X61700Y306412D03*
X57500Y306200D03*
X75700D03*
X66300D03*
X117500Y377800D03*
Y374100D03*
X49800Y372900D03*
Y369600D03*
X83400Y345200D03*
X78433Y349100D03*
Y345700D03*
X8450Y300350D03*
X14350D03*
X26000Y302296D03*
X46171Y286971D03*
X56300Y289598D03*
X86666Y282439D03*
Y277321D03*
Y272203D03*
Y267085D03*
X80957Y259557D03*
X66700Y268800D03*
X52600Y269000D03*
X45800Y265700D03*
X45200Y249000D03*
X44300Y245100D03*
X52100Y245200D03*
Y248900D03*
Y241700D03*
X44400D03*
X43900Y238700D03*
X52100Y238600D03*
Y234900D03*
X44400D03*
X43900Y231600D03*
X52100Y231700D03*
Y227800D03*
X43900D03*
X44400Y224400D03*
X52200D03*
X52100Y221200D03*
X43900Y221300D03*
X40700Y218900D03*
X51700Y218100D03*
X52100Y251700D03*
X52000Y260900D03*
X54600Y262900D03*
X58100Y263000D03*
X62500Y263100D03*
X66400Y262900D03*
X70200D03*
X73700Y263000D03*
X77200Y263100D03*
X41600Y247000D03*
X42300Y251800D03*
X41600Y256700D03*
X42200Y262200D03*
X41600Y267500D03*
X44400Y269400D03*
X47800Y272500D03*
X51500Y272700D03*
X54700Y272800D03*
X58000Y273100D03*
X62700Y272700D03*
X67100Y272400D03*
X66300Y276300D03*
X64200Y279400D03*
X59300Y280800D03*
X55900Y277300D03*
X50400Y280500D03*
X47600Y276800D03*
X43000Y280000D03*
X41000Y275900D03*
X55400Y258700D03*
X60300Y259100D03*
X64700Y259300D03*
X68600Y259600D03*
X72300Y259800D03*
X76200D03*
X62100Y256000D03*
X57800Y255700D03*
X55000Y251900D03*
X54800Y247100D03*
X54900Y243400D03*
X54800Y240200D03*
X54600Y236800D03*
Y232900D03*
X55400Y229700D03*
Y226000D03*
Y222700D03*
X55300Y219800D03*
X76900Y218500D03*
X62600Y227300D03*
X29300Y358900D03*
X42800Y359200D03*
X105700Y361100D03*
X117100Y363000D03*
X160100Y366400D03*
X160630Y363570D03*
X79148Y308701D03*
X85200Y306026D03*
X50600Y297002D03*
X85208Y317740D03*
X58700Y302300D03*
X74100Y252200D03*
X71086Y251314D03*
X67700Y251100D03*
X63700Y247800D03*
X198900Y389900D03*
X198600Y378200D03*
X327800Y27100D03*
X303200Y65500D03*
X312200Y24300D03*
X329200Y44400D03*
X318400Y36500D03*
X310623Y37677D03*
X304880Y40300D03*
X204900Y62100D03*
X211500Y56700D03*
X214750Y56600D03*
X209600Y54300D03*
X314600Y59400D03*
X327800Y58500D03*
X320600Y55300D03*
X311400Y5000D03*
X280900Y5300D03*
X224700D03*
X220700Y34000D03*
X266800Y39000D03*
X243300Y62700D03*
X228700Y69800D03*
X237500Y4600D03*
X247500Y4700D03*
X257500Y4600D03*
X267500Y4700D03*
X277500Y4600D03*
X287500D03*
X227500Y10000D03*
X237500D03*
X247500D03*
X257500D03*
X267500D03*
X277500D03*
X287500D03*
X292500D03*
X227500Y15000D03*
X257500Y17500D03*
X267500D03*
X227500Y40000D03*
Y35000D03*
Y30000D03*
Y25000D03*
X257500Y27500D03*
Y32500D03*
Y42500D03*
Y47500D03*
X267500Y32500D03*
Y42500D03*
Y47500D03*
X277500Y32500D03*
Y42500D03*
Y47500D03*
X296200Y28400D03*
X296300Y37900D03*
X300200Y40400D03*
X267200Y24300D03*
X247500Y42400D03*
X227500Y45000D03*
X235272Y386900D03*
X251272D03*
X219972Y386800D03*
X260328Y374000D03*
X242728Y389459D03*
X229500Y365200D03*
X244700Y364916D03*
X263100Y371441D03*
X226728Y389459D03*
X220800Y365400D03*
X238500Y365000D03*
X258414Y378842D03*
X252900Y362278D03*
X308602Y378571D03*
X317301Y372438D03*
X235788Y364449D03*
X222100Y363000D03*
X282200Y377080D03*
X286500Y377000D03*
X288707Y374057D03*
X270000Y357000D03*
X312900Y378796D03*
X326000D03*
X321637Y378800D03*
X304300Y378696D03*
X299900Y378500D03*
X295600Y378696D03*
X275883Y361467D03*
X276000Y382800D03*
X301600Y390100D03*
X310700D03*
X306200Y390000D03*
X315700Y390100D03*
X306600Y385600D03*
X302100D03*
X276513Y352500D03*
X202300Y368100D03*
X270700Y376256D03*
X270900Y360276D03*
X270200Y389500D03*
X217228Y389600D03*
X248528Y389800D03*
X232528Y389700D03*
X257900Y389600D03*
X208600Y390000D03*
X259500Y386500D03*
X193700Y116800D03*
X194000Y104500D03*
Y107900D03*
Y100900D03*
X220284Y86200D03*
X200130Y118160D03*
X310584Y105800D03*
X298700Y83400D03*
X272200Y82100D03*
X285514Y133800D03*
Y129081D03*
X222100Y81400D03*
X254300Y124600D03*
X217600Y85400D03*
X200200Y131886D03*
X239700Y95700D03*
Y103700D03*
Y99700D03*
Y91700D03*
Y88000D03*
X235100Y103600D03*
Y87900D03*
Y91600D03*
Y99600D03*
Y95600D03*
X230800Y103500D03*
Y87800D03*
Y91500D03*
Y99500D03*
Y95500D03*
X244100Y103700D03*
Y88000D03*
Y91700D03*
Y99700D03*
Y95700D03*
X248300Y103800D03*
Y88100D03*
Y91800D03*
Y99800D03*
Y95800D03*
X208851Y81200D03*
X288100Y118100D03*
X317300Y118600D03*
X302900Y118300D03*
X310500Y118400D03*
X317300Y128700D03*
X288000Y127900D03*
X303000Y128000D03*
X310600Y128400D03*
X295700Y128000D03*
X295900Y118200D03*
X257500Y108269D03*
X223259Y90779D03*
X248558Y114400D03*
X190500Y304400D03*
X156716Y249800D03*
X197350Y305150D03*
X176214Y246559D03*
X152425Y222600D03*
X173000Y237200D03*
X277400Y234500D03*
X278497Y254108D03*
X277600Y244600D03*
X250100Y336100D03*
G54D36*
X243100Y68787D03*
X253100D03*
X283100D03*
X248100Y58787D03*
X258100D03*
X288100D03*
G54D32*
X95863Y23993D03*
X103737D03*
G54D21*
X138900Y208012D03*
X176500Y188512D03*
X168550Y175550D03*
X168900Y164584D03*
X166200Y198200D03*
X172600Y167600D03*
X108100Y165100D03*
X71500Y174700D03*
X74800Y163400D03*
X71600Y166400D03*
X76000Y168800D03*
X91097Y177503D03*
X164814Y350686D03*
X122500Y221700D03*
X125000Y223700D03*
X126800Y221100D03*
X166186Y299638D03*
X142200Y301800D03*
X165650Y282900D03*
X133300Y302700D03*
X104400Y219500D03*
X116100Y224700D03*
X112000Y224300D03*
X121100Y225900D03*
X113300Y287500D03*
X117389Y271900D03*
X155804Y288200D03*
X149400Y324800D03*
X152505Y324309D03*
X100338Y300192D03*
X93704Y301596D03*
X214500Y347295D03*
X257200Y329200D03*
X329800Y340700D03*
X317200Y331100D03*
X303400D03*
X194100Y174600D03*
X200500Y214000D03*
X277700Y178800D03*
X266450Y203250D03*
X248746Y203946D03*
X232355Y198100D03*
X288012Y197800D03*
X289600Y193400D03*
X291253Y197900D03*
X294461Y197968D03*
X292841Y193400D03*
X229704Y195804D03*
X241970Y206300D03*
X237900Y200300D03*
X284800Y168784D03*
X205377Y216123D03*
X282500Y205700D03*
X234500Y217500D03*
X278600Y205900D03*
X236200Y214100D03*
Y194000D03*
X245358Y195455D03*
X259600Y187200D03*
X256845Y178045D03*
X252013Y148588D03*
X279200Y201488D03*
X278385Y184073D03*
X230400Y211100D03*
X243500Y144300D03*
X318700Y157500D03*
X329600Y156400D03*
X305600Y169900D03*
X329900Y169800D03*
X298400Y154900D03*
X313000Y143100D03*
X228742Y142712D03*
X294700Y175720D03*
X299947Y182653D03*
X298353Y190047D03*
X249663Y211000D03*
X222723Y195577D03*
X224520Y208800D03*
X272600Y268400D03*
X210970Y218100D03*
X228400Y298600D03*
X215277Y307977D03*
X213200Y299200D03*
X47000Y170400D03*
X199900Y5100D03*
X160200Y5200D03*
X80500Y5800D03*
X82800Y18400D03*
X56000Y31300D03*
X26800Y94500D03*
X16600Y95200D03*
X101400Y130900D03*
X161000Y131600D03*
X97400Y99500D03*
X24300Y143200D03*
X46100Y203000D03*
X45900Y81000D03*
X114400Y59600D03*
X49073Y133673D03*
X31400Y118000D03*
X191600Y49400D03*
X184600Y50600D03*
X176400Y42600D03*
X190800Y56400D03*
X195100Y60700D03*
X198000Y55300D03*
X62000Y157000D03*
X53720Y156900D03*
X35800Y157000D03*
X79500Y128610D03*
X61396Y140896D03*
X65200Y145700D03*
X49112Y128400D03*
X55100Y151784D03*
X66600Y150016D03*
X13400Y344900D03*
X70476Y286300D03*
X192800Y372100D03*
X50000Y330800D03*
X68198Y296602D03*
X73300Y297000D03*
X77600Y297200D03*
X79755Y327345D03*
X11300Y341100D03*
X4400Y330700D03*
X5200Y317700D03*
X23500Y312100D03*
X9300Y307200D03*
X5800Y293100D03*
X28000Y292000D03*
X71700Y339100D03*
X76600Y337600D03*
X33300Y307100D03*
X320200Y66700D03*
X297100Y7100D03*
X327900Y5400D03*
X329900Y19700D03*
X254400Y5400D03*
X246400Y47400D03*
X203720Y56800D03*
X274200Y350600D03*
X321637Y371516D03*
X299937Y371316D03*
X325937Y371416D03*
X295577Y371176D03*
X304237Y371416D03*
X328300Y374700D03*
X321900Y362600D03*
X326500Y353900D03*
X310200Y385200D03*
X198900Y81200D03*
X276800Y133200D03*
X250478Y128222D03*
X231500Y121400D03*
X235900Y121210D03*
X244935Y132100D03*
X238300Y127000D03*
X240900Y132600D03*
X268691Y117291D03*
X253000Y120200D03*
X300900Y131800D03*
X315000Y101800D03*
X313700Y88600D03*
X245000Y120700D03*
X319900Y94400D03*
X265000Y104700D03*
X262300Y103000D03*
X261600Y82300D03*
X266000Y80400D03*
X204860Y87600D03*
X218012Y109400D03*
X229300Y117300D03*
X274527Y116027D03*
X250285Y117185D03*
X193900Y326700D03*
X191600Y268300D03*
X197200Y261362D03*
X218600Y322000D03*
X205200Y311300D03*
X226300Y322100D03*
G54D34*
X43357Y343367D03*
X35483D03*
X27609D03*
X31546Y349273D03*
X39420D03*
X119657Y343267D03*
X111783D03*
X103909D03*
X107846Y349173D03*
X115720D03*
G54D23*
X150197Y332983D03*
G54D30*
X43308Y15732D03*
X59057D03*
G54D20*
X91421Y164680D03*
X54937Y63945D03*
X64937D03*
G54D31*
X152756Y29726D03*
X150394Y10435D03*
X209842Y29726D03*
X212205Y10435D03*
X267155Y383565D03*
X205344D03*
G54D37*
X249458Y17803D03*
X281781D03*
X239439D03*
X291840D03*
G54D38*
X234675Y45795D03*
X296500D03*
G54D25*
X318898Y196850D03*
X15748D03*
Y15748D03*
Y320866D03*
X318898Y15748D03*
G54D35*
X243100Y33787D03*
G54D33*
X61349Y357147D03*
G54D28*
X162090Y376168D03*
%LPD*%
G75*
G54D10*
X141732Y196850D03*
X299212D03*
G54D11*
X7697Y175949D03*
Y157051D03*
G54D12*
X25808Y166500D03*
X7697D03*
G54D13*
X127000Y4400D03*
G54D14*
Y14400D03*
Y9400D03*
G54D15*
X138900Y208012D03*
X160027Y194327D03*
X172100Y190100D03*
X176500Y188512D03*
X191794Y164006D03*
X138116Y204318D03*
X142069Y204700D03*
X135900Y204761D03*
X140100Y205697D03*
X111279Y183679D03*
X121121Y182421D03*
X107900Y148700D03*
X104300Y149500D03*
X114500Y148500D03*
X111210Y150298D03*
X70950Y191550D03*
X111100Y148000D03*
X104459Y147080D03*
X100700Y207900D03*
X131313Y208012D03*
X168550Y175550D03*
X194100Y174600D03*
X193600Y165100D03*
X172000Y181500D03*
X170100Y194800D03*
X169904Y192204D03*
X189200Y164100D03*
X168900Y164584D03*
X166200Y198200D03*
X195400Y150400D03*
X146900Y149300D03*
X147800Y146400D03*
X151900Y145800D03*
X156200Y145900D03*
X158900Y148300D03*
X187518Y93946D03*
X154150Y38150D03*
X158912Y20312D03*
X178312D03*
X164950Y113430D03*
X178000Y113900D03*
X85800Y77200D03*
X80500Y55500D03*
X85300Y55600D03*
X64500Y157112D03*
X47000Y170400D03*
X99500Y194587D03*
X172600Y167600D03*
X108100Y165100D03*
X186463Y66900D03*
X192989Y70907D03*
X125800Y203221D03*
X190400Y65100D03*
X157100Y156200D03*
X187700Y133000D03*
X186100Y182381D03*
X166108Y193708D03*
X169400Y189400D03*
X167634Y191387D03*
X191600Y142600D03*
X199900Y5100D03*
X160200Y5200D03*
X80500Y5800D03*
X82800Y18400D03*
X56000Y31300D03*
X26800Y94500D03*
X16600Y95200D03*
X101400Y130900D03*
X161000Y131600D03*
X97400Y99500D03*
X24300Y143200D03*
X46100Y203000D03*
X170300Y156700D03*
X45900Y81000D03*
X114400Y59600D03*
X49073Y133673D03*
X31400Y122700D03*
Y118000D03*
X49300Y123000D03*
X191600Y49400D03*
X184600Y50600D03*
X176400Y42600D03*
X190800Y56400D03*
X195100Y60700D03*
X198000Y55300D03*
X198900Y81200D03*
X77700Y175200D03*
X71500Y174700D03*
X82500Y170500D03*
X74800Y163400D03*
X71600Y166400D03*
X76000Y168800D03*
X91097Y177503D03*
X62000Y157000D03*
X53720Y156900D03*
X35800Y157000D03*
X198596Y192504D03*
X79500Y128610D03*
X61396Y140896D03*
X73000Y118600D03*
X70100D03*
X65200Y145700D03*
X5400Y136026D03*
X49112Y128400D03*
X5398Y138252D03*
X49112Y125200D03*
X55100Y151784D03*
X26200Y109100D03*
X47060Y160388D03*
X66600Y150016D03*
X119700Y266823D03*
Y269262D03*
X193900Y326700D03*
X164814Y350686D03*
X186800Y315100D03*
X183700Y318900D03*
X186700Y319500D03*
X122500Y221700D03*
X125000Y223700D03*
X126800Y221100D03*
X136400Y254400D03*
X138152Y255937D03*
X139961Y254683D03*
X166186Y299638D03*
X191600Y268300D03*
X127518Y284183D03*
X128408Y273595D03*
X152005Y254196D03*
X144131Y294570D03*
X166537Y271664D03*
X155942Y254259D03*
X146100Y254117D03*
X150037Y294570D03*
X166584Y264617D03*
Y278617D03*
X166434Y285467D03*
X92100Y218947D03*
X94400Y218500D03*
X168153Y324582D03*
X170553D03*
X185637Y324782D03*
X174063Y329524D03*
X188037Y324782D03*
X176463Y329524D03*
X114400Y244400D03*
X142200Y301800D03*
X119700Y264263D03*
X119600Y256800D03*
X195216Y218484D03*
X196100Y275300D03*
X195900Y280000D03*
Y277800D03*
X183810Y224521D03*
X119402Y259312D03*
X181410Y224521D03*
X110600Y280500D03*
X109240Y228900D03*
X110500Y283700D03*
X111600Y228300D03*
X194418Y337118D03*
X89819Y302281D03*
X70476Y286300D03*
X156100Y298800D03*
X21400Y294300D03*
X107957Y384584D03*
X85391Y302226D03*
X32416Y366016D03*
X133416Y331245D03*
X177900Y369700D03*
X114400Y246700D03*
X171751Y281285D03*
X165650Y282900D03*
X168250Y287250D03*
X198700Y372200D03*
X196000Y372100D03*
X192800D03*
X133300Y302700D03*
X104400Y219500D03*
X116100Y224700D03*
X112000Y224300D03*
X121100Y225900D03*
X109748Y231700D03*
X108480Y278820D03*
X106900Y231300D03*
X108200Y282088D03*
X113300Y287500D03*
X153320Y228200D03*
X159790Y231700D03*
X157390D03*
X163418Y227956D03*
X196455Y342049D03*
X181555Y346891D03*
X171172Y230918D03*
X155710Y228200D03*
X91390Y285000D03*
X93360D03*
X95330D03*
X97300D03*
X197200Y261362D03*
X169900D03*
X190545Y347191D03*
X167428Y234500D03*
X152320Y233300D03*
X152400Y236000D03*
X152320Y231100D03*
X161018Y227956D03*
X198855Y342049D03*
X179155Y346891D03*
X168890Y230900D03*
X165028Y234500D03*
X192945Y347191D03*
X50000Y330800D03*
X68198Y296602D03*
X73300Y297000D03*
X77600Y297200D03*
X79755Y327345D03*
X56000Y337000D03*
X55300Y334500D03*
X117389Y271900D03*
X155804Y288200D03*
X111780Y265900D03*
X111712Y242800D03*
X109800Y235800D03*
X111800Y240300D03*
X106900Y235900D03*
X149400Y324800D03*
X102600Y317800D03*
X168436Y314836D03*
X170007Y313295D03*
X171639Y311639D03*
X11300Y341100D03*
X4400Y330700D03*
X5200Y317700D03*
X23500Y312100D03*
X9300Y307200D03*
X5800Y293100D03*
X28000Y292000D03*
X112400Y330100D03*
Y332800D03*
X98817Y330101D03*
X98695Y332298D03*
X56000Y344300D03*
X91700Y345100D03*
X71700Y339100D03*
X76600Y337600D03*
X3400Y345200D03*
X13400Y344900D03*
X169100Y258700D03*
X152505Y324309D03*
X81700Y304600D03*
X33300Y307100D03*
X100338Y300192D03*
X93704Y301596D03*
X200500Y214000D03*
X277700Y178800D03*
X266450Y203250D03*
X248746Y203946D03*
X232355Y198100D03*
X246405Y177832D03*
X288012Y197800D03*
X228780Y216063D03*
X289600Y193400D03*
X291253Y197900D03*
X294461Y197968D03*
X292841Y193400D03*
X232300Y188900D03*
X229704Y195804D03*
X241970Y206300D03*
X234900Y153000D03*
X237900Y200300D03*
X265700Y129900D03*
X267700Y128200D03*
X284800Y168784D03*
X205377Y216123D03*
X229400Y146400D03*
X263200Y178000D03*
X202900Y213955D03*
X281600Y159200D03*
X239800Y147100D03*
X282500Y205700D03*
X234100Y187800D03*
X234500Y217500D03*
X219623Y123238D03*
X215126Y65776D03*
X278600Y205900D03*
X236200Y214100D03*
Y194000D03*
X222000Y122800D03*
X215100Y63200D03*
X256589Y185836D03*
X253682Y181885D03*
X251800Y183357D03*
X259600Y187200D03*
X263765Y175435D03*
X261750Y174720D03*
X256845Y178045D03*
X252013Y148588D03*
X218300Y125100D03*
X224400Y79600D03*
X256251Y125769D03*
X260541Y111041D03*
X279200Y201488D03*
X237000Y148200D03*
X276800Y133200D03*
X210013Y180501D03*
X211968Y179504D03*
X278385Y184073D03*
X234779Y76721D03*
X254634Y186966D03*
X240900Y132600D03*
X230400Y211100D03*
X200536Y190936D03*
X243500Y144300D03*
X202337Y152700D03*
X227077Y204823D03*
X228800Y206600D03*
X205400Y185900D03*
X206680Y182193D03*
X200749Y154800D03*
X215525Y160139D03*
X256549Y103249D03*
X264112Y127700D03*
X268691Y117291D03*
X253000Y120200D03*
X305126Y107600D03*
X303538Y109640D03*
X243323Y177777D03*
X207136Y184336D03*
X217922Y161149D03*
X318700Y157500D03*
X329600Y156400D03*
X305600Y169900D03*
X329900Y169800D03*
X298400Y154900D03*
X313000Y143100D03*
X300900Y131800D03*
X329800Y114200D03*
X330900Y117100D03*
X315000Y101800D03*
X313700Y88600D03*
X320200Y66700D03*
X297100Y7100D03*
X327900Y5400D03*
X329900Y19700D03*
X254400Y5400D03*
X245000Y120700D03*
X246400Y47400D03*
X319900Y94400D03*
X265000Y104700D03*
X258600D03*
X260000Y100700D03*
X262300Y103000D03*
X256200Y82200D03*
X261600Y82300D03*
X272900Y73400D03*
X269600Y76700D03*
X266000Y80400D03*
X264100Y64400D03*
X266900Y63200D03*
X203720Y56800D03*
X206800Y74200D03*
X200480D03*
X204860Y87600D03*
X218012Y109400D03*
X229300Y117300D03*
X274527Y116027D03*
X250285Y117185D03*
X273200Y64000D03*
X275600Y65000D03*
X277200Y63200D03*
X273400Y59300D03*
X331419Y84300D03*
X331300Y71900D03*
X325908Y114292D03*
X228742Y142712D03*
X232600Y151400D03*
X294700Y175720D03*
X299947Y182653D03*
X298353Y190047D03*
X249663Y211000D03*
X222723Y195577D03*
X224520Y208800D03*
X219600Y205900D03*
X265500Y319500D03*
X272300Y312938D03*
X272500Y319000D03*
X269400Y312980D03*
X272300Y315500D03*
X226443Y262779D03*
X229003D03*
X231562D03*
X241797Y267897D03*
Y265338D03*
X239238Y262779D03*
X241797D03*
Y252544D03*
X241697Y255103D03*
X241797Y257662D03*
X229003Y265338D03*
X236680Y262779D03*
X241797Y270456D03*
X242000Y226200D03*
X222014Y333873D03*
X285600Y326420D03*
X230284Y333873D03*
X246947Y332345D03*
X249347D03*
X241037Y333079D03*
X243437D03*
X227924Y333873D03*
X213147Y324602D03*
X210747D03*
X241797Y280692D03*
X249474Y283251D03*
X245840Y222550D03*
X231562Y288370D03*
X213649D03*
X211090Y275574D03*
X320472Y248405D03*
Y273995D03*
X311623D03*
X295867Y271430D03*
X283268Y276554D03*
X311023Y248405D03*
X216208Y283251D03*
X205600Y293900D03*
X223885Y278133D03*
X221326D03*
X223434Y313800D03*
X202700Y270400D03*
X228754Y218354D03*
X201001Y296072D03*
X205850Y286150D03*
X221270Y292580D03*
X206200Y245100D03*
X224374Y333873D03*
X260296Y307304D03*
X270943Y350243D03*
X223323Y311223D03*
X221100Y311200D03*
X247500Y341657D03*
X218600Y322000D03*
X214500Y347295D03*
X244028Y341828D03*
X208700Y312200D03*
X206900Y313900D03*
X205200Y311300D03*
X216300Y228800D03*
X206400Y224400D03*
X210970Y218100D03*
X228400Y298600D03*
X247600Y338700D03*
X226300Y322100D03*
X217747Y341916D03*
X215277Y307977D03*
X211837Y341916D03*
X209437D03*
X215347D03*
X257200Y329200D03*
X291700Y327720D03*
X219000Y293000D03*
X213200Y299200D03*
X203600Y288200D03*
X328300Y374700D03*
X321900Y362600D03*
X326500Y353900D03*
X329800Y340700D03*
X272000Y363100D03*
X317200Y331100D03*
X303400D03*
X227300Y222500D03*
X203905Y260710D03*
X310200Y385200D03*
G54D16*
G01X-88521Y-43540D02*
Y-139740D01*
G01D02*
X386979D01*
G01X-88521Y-118740D02*
X405279D01*
G01X-88521Y-98740D02*
X405279D01*
G01X-88521Y-78740D02*
X405279D01*
G01X-88521Y-59540D02*
X405279D01*
G01X-88521Y-43540D02*
X386979D01*
G01X156100Y298800D02*
X158000Y300700D01*
Y311044D01*
X167256Y320300D01*
X170100D01*
X193800Y344000D01*
X247845D01*
X253400Y338445D01*
Y322000D01*
X260296Y315104D01*
Y307304D01*
G01X386179Y-139740D02*
X405279D01*
Y-43540D01*
X385879D01*
G54D17*
G01X47060Y160388D02*
X42300Y155628D01*
Y137000D01*
X26200Y120900D01*
Y109100D01*
G54D18*
G01X-83092Y-132750D02*
Y-122750D01*
X-78342D01*
G01X-80092Y-127583D02*
X-83092D01*
G01X-72217Y-122750D02*
X-69217D01*
G01X-70717D02*
Y-132750D01*
G01X-72217D02*
X-69217D01*
G01X-63217Y-122750D02*
Y-132750D01*
X-58217D01*
G01X-53967D02*
Y-122750D01*
X-50717Y-131083D01*
X-47467Y-122750D01*
Y-132750D01*
G01X-33217Y-122750D02*
Y-132750D01*
X-28217D01*
G01X-23842D02*
X-20717Y-122750D01*
X-17592Y-132750D01*
G01X-18717Y-129250D02*
X-22717D01*
G01X-10717Y-132750D02*
Y-128250D01*
X-13217Y-122750D01*
G01X-8217D02*
X-10717Y-128250D01*
G01X1783Y-132750D02*
X-3217D01*
Y-122750D01*
X1783D01*
G01X-217Y-127583D02*
X-3217D01*
G01X6783Y-132750D02*
Y-122750D01*
X9908D01*
X10908Y-123250D01*
X11533Y-123917D01*
X11783Y-125250D01*
X11533Y-126583D01*
X10783Y-127417D01*
X9908Y-127917D01*
X6783D01*
G01X9908D02*
X11783Y-132750D01*
G01X29283Y-133083D02*
X29033Y-132917D01*
Y-132583D01*
X29283Y-132417D01*
X29533Y-132583D01*
Y-132917D01*
X29283Y-133083D01*
G01Y-128584D02*
X29033Y-128417D01*
Y-128083D01*
X29283Y-127917D01*
X29533Y-128083D01*
Y-128417D01*
X29283Y-128584D01*
G01X46783Y-122750D02*
Y-132750D01*
X51783D01*
G01X56158D02*
X59283Y-122750D01*
X62408Y-132750D01*
G01X61283Y-129250D02*
X57283D01*
G01X69283Y-132750D02*
Y-128250D01*
X66783Y-122750D01*
G01X71783D02*
X69283Y-128250D01*
G01X81783Y-132750D02*
X76783D01*
Y-122750D01*
X81783D01*
G01X79783Y-127583D02*
X76783D01*
G01X86783Y-132750D02*
Y-122750D01*
X89908D01*
X90908Y-123250D01*
X91533Y-123917D01*
X91783Y-125250D01*
X91533Y-126583D01*
X90783Y-127417D01*
X89908Y-127917D01*
X86783D01*
G01X89908D02*
X91783Y-132750D01*
G01X109283Y-122750D02*
X108283Y-123083D01*
X107533Y-123917D01*
X107033Y-124917D01*
X106658Y-126250D01*
X106533Y-127750D01*
X106658Y-129250D01*
X107033Y-130583D01*
X107533Y-131584D01*
X108283Y-132417D01*
X109283Y-132750D01*
X110283Y-132417D01*
X111033Y-131584D01*
X111533Y-130583D01*
X111908Y-129250D01*
X112033Y-127750D01*
X111908Y-126250D01*
X111533Y-124917D01*
X111033Y-123917D01*
X110283Y-123083D01*
X109283Y-122750D01*
G01X119033Y-132750D02*
X119283Y-130583D01*
X119658Y-128750D01*
X120158Y-127083D01*
X120783Y-125250D01*
X121783Y-122750D01*
X116783D01*
G01X125533Y-136083D02*
X133033D01*
G01X136783Y-132750D02*
Y-122750D01*
X139783D01*
X140783Y-123250D01*
X141533Y-124417D01*
X141783Y-125750D01*
X141533Y-127083D01*
X140908Y-128083D01*
X139783Y-128584D01*
X136783D01*
G01X145533Y-122750D02*
X147283Y-132750D01*
X149283Y-122750D01*
X151283Y-132750D01*
X153033Y-122750D01*
G01X156783Y-132750D02*
Y-122750D01*
X159908D01*
X160908Y-123250D01*
X161533Y-123917D01*
X161783Y-125250D01*
X161533Y-126583D01*
X160783Y-127417D01*
X159908Y-127917D01*
X156783D01*
G01X159908D02*
X161783Y-132750D01*
G01X166908Y-124417D02*
X167658Y-123417D01*
X168533Y-122917D01*
X169533Y-122750D01*
X170783Y-123083D01*
X171658Y-123917D01*
X171908Y-124917D01*
X171783Y-125917D01*
X171283Y-126750D01*
X168783Y-128417D01*
X167658Y-129583D01*
X166908Y-131250D01*
X166658Y-132750D01*
X171908D01*
G01X-82771Y-114040D02*
Y-104040D01*
X-79771D01*
X-78771Y-104540D01*
X-78021Y-105707D01*
X-77771Y-107040D01*
X-78021Y-108373D01*
X-78646Y-109373D01*
X-79771Y-109874D01*
X-82771D01*
G01X-73396Y-114040D02*
X-70271Y-104040D01*
X-67146Y-114040D01*
G01X-68271Y-110540D02*
X-72271D01*
G01X-62771Y-114040D02*
Y-104040D01*
X-59646D01*
X-58646Y-104540D01*
X-58021Y-105207D01*
X-57771Y-106540D01*
X-58021Y-107873D01*
X-58771Y-108707D01*
X-59646Y-109207D01*
X-62771D01*
G01X-59646D02*
X-57771Y-114040D01*
G01X-50271Y-104040D02*
Y-114040D01*
G01X-53146Y-104040D02*
X-47396D01*
G01X-33146Y-114040D02*
Y-104040D01*
X-27396Y-114040D01*
Y-104040D01*
G01X-20271Y-114040D02*
X-21271Y-113873D01*
X-22146Y-113207D01*
X-22896Y-112207D01*
X-23396Y-111040D01*
X-23646Y-109707D01*
Y-108373D01*
X-23396Y-107040D01*
X-22896Y-105873D01*
X-22146Y-104873D01*
X-21271Y-104207D01*
X-20271Y-104040D01*
X-19271Y-104207D01*
X-18396Y-104873D01*
X-17646Y-105873D01*
X-17146Y-107040D01*
X-16896Y-108373D01*
Y-109707D01*
X-17146Y-111040D01*
X-17646Y-112207D01*
X-18396Y-113207D01*
X-19271Y-113873D01*
X-20271Y-114040D01*
G01X-12521Y-114373D02*
X-8021Y-104040D01*
G01X2479Y-104873D02*
X1729Y-104373D01*
X854Y-104040D01*
X-146D01*
X-1271Y-104540D01*
X-2146Y-105373D01*
X-2771Y-106373D01*
X-3271Y-108040D01*
X-3396Y-109540D01*
X-3146Y-111040D01*
X-2771Y-112040D01*
X-2021Y-113040D01*
X-1146Y-113707D01*
X-271Y-114040D01*
X604D01*
X1479Y-113707D01*
X2229Y-113207D01*
X2854Y-112540D01*
G01X6604Y-114040D02*
X9729Y-104040D01*
X12854Y-114040D01*
G01X11729Y-110540D02*
X7729D01*
G01X17229Y-114040D02*
Y-104040D01*
X20354D01*
X21354Y-104540D01*
X21979Y-105207D01*
X22229Y-106540D01*
X21979Y-107873D01*
X21229Y-108707D01*
X20354Y-109207D01*
X17229D01*
G01X20354D02*
X22229Y-114040D01*
G01X26979D02*
Y-104040D01*
X29479D01*
X30479Y-104540D01*
X31229Y-105207D01*
X31854Y-106207D01*
X32354Y-107374D01*
X32479Y-109040D01*
X32354Y-110707D01*
X31854Y-111873D01*
X31229Y-112874D01*
X30479Y-113540D01*
X29479Y-114040D01*
X26979D01*
G01X47229D02*
Y-104040D01*
X50354D01*
X51354Y-104540D01*
X51979Y-105207D01*
X52229Y-106540D01*
X51979Y-107873D01*
X51229Y-108707D01*
X50354Y-109207D01*
X47229D01*
G01X50354D02*
X52229Y-114040D01*
G01X62229D02*
X57229D01*
Y-104040D01*
X62229D01*
G01X60229Y-108873D02*
X57229D01*
G01X67354Y-114040D02*
Y-104040D01*
X72104D01*
G01X70354Y-108873D02*
X67354D01*
G01X79729Y-114373D02*
X79479Y-114207D01*
Y-113873D01*
X79729Y-113707D01*
X79979Y-113873D01*
Y-114207D01*
X79729Y-114373D01*
G01Y-109874D02*
X79479Y-109707D01*
Y-109373D01*
X79729Y-109207D01*
X79979Y-109373D01*
Y-109707D01*
X79729Y-109874D01*
G01X86604Y-114040D02*
X89729Y-104040D01*
X92854Y-114040D01*
G01X91729Y-110540D02*
X87729D01*
G01X97229Y-114040D02*
Y-104040D01*
X100354D01*
X101354Y-104540D01*
X101979Y-105207D01*
X102229Y-106540D01*
X101979Y-107873D01*
X101229Y-108707D01*
X100354Y-109207D01*
X97229D01*
G01X100354D02*
X102229Y-114040D01*
G01X107229D02*
Y-104040D01*
X110354D01*
X111354Y-104540D01*
X111979Y-105207D01*
X112229Y-106540D01*
X111979Y-107873D01*
X111229Y-108707D01*
X110354Y-109207D01*
X107229D01*
G01X110354D02*
X112229Y-114040D01*
G01X119729D02*
X118729Y-113873D01*
X117854Y-113207D01*
X117104Y-112207D01*
X116604Y-111040D01*
X116354Y-109707D01*
Y-108373D01*
X116604Y-107040D01*
X117104Y-105873D01*
X117854Y-104873D01*
X118729Y-104207D01*
X119729Y-104040D01*
X120729Y-104207D01*
X121604Y-104873D01*
X122354Y-105873D01*
X122854Y-107040D01*
X123104Y-108373D01*
Y-109707D01*
X122854Y-111040D01*
X122354Y-112207D01*
X121604Y-113207D01*
X120729Y-113873D01*
X119729Y-114040D01*
G01X125979Y-104040D02*
X127729Y-114040D01*
X129729Y-104040D01*
X131729Y-114040D01*
X133479Y-104040D01*
G01X135979Y-117373D02*
X143479D01*
G01X148229Y-104040D02*
X151229D01*
G01X149729D02*
Y-114040D01*
G01X148229D02*
X151229D01*
G01X156479D02*
Y-104040D01*
X159729Y-112373D01*
X162979Y-104040D01*
Y-114040D01*
G01X167104D02*
X172354Y-104040D01*
G01X167104D02*
X172354Y-114040D01*
G01X179729D02*
X180604Y-113873D01*
X181604Y-113373D01*
X182229Y-112540D01*
X182479Y-111373D01*
X182229Y-110207D01*
X181479Y-109207D01*
X180354Y-108707D01*
X179104D01*
X178354Y-108373D01*
X177729Y-107540D01*
X177479Y-106373D01*
X177854Y-105207D01*
X178729Y-104373D01*
X179729Y-104040D01*
X180729Y-104373D01*
X181604Y-105207D01*
X181979Y-106373D01*
X181729Y-107540D01*
X181104Y-108373D01*
X180354Y-108707D01*
X179104D01*
X177979Y-109207D01*
X177229Y-110207D01*
X176979Y-111373D01*
X177229Y-112540D01*
X177854Y-113373D01*
X178854Y-113873D01*
X179729Y-114040D01*
G01X186479D02*
Y-104040D01*
X189729Y-112373D01*
X192979Y-104040D01*
Y-114040D01*
G01X195979Y-117373D02*
X203479D01*
G01X207104Y-114040D02*
Y-104040D01*
G01X212354D02*
Y-114040D01*
G01Y-109040D02*
X207104D01*
G01X216479Y-114040D02*
Y-104040D01*
X219729Y-112373D01*
X222979Y-104040D01*
Y-114040D01*
G01X228229Y-104040D02*
X231229D01*
G01X229729D02*
Y-114040D01*
G01X228229D02*
X231229D01*
G01X235979Y-117373D02*
X243479D01*
G01X247229Y-114040D02*
Y-104040D01*
X250229D01*
X251229Y-104540D01*
X251979Y-105707D01*
X252229Y-107040D01*
X251979Y-108373D01*
X251354Y-109373D01*
X250229Y-109874D01*
X247229D01*
G01X257229Y-104040D02*
Y-114040D01*
X262229D01*
G01X266604D02*
X269729Y-104040D01*
X272854Y-114040D01*
G01X271729Y-110540D02*
X267729D01*
G01X279729Y-104040D02*
Y-114040D01*
G01X276854Y-104040D02*
X282604D01*
G01X287354Y-114040D02*
Y-104040D01*
X292104D01*
G01X290354Y-108873D02*
X287354D01*
G01X299729Y-114040D02*
X298729Y-113873D01*
X297854Y-113207D01*
X297104Y-112207D01*
X296604Y-111040D01*
X296354Y-109707D01*
Y-108373D01*
X296604Y-107040D01*
X297104Y-105873D01*
X297854Y-104873D01*
X298729Y-104207D01*
X299729Y-104040D01*
X300729Y-104207D01*
X301604Y-104873D01*
X302354Y-105873D01*
X302854Y-107040D01*
X303104Y-108373D01*
Y-109707D01*
X302854Y-111040D01*
X302354Y-112207D01*
X301604Y-113207D01*
X300729Y-113873D01*
X299729Y-114040D01*
G01X307229D02*
Y-104040D01*
X310354D01*
X311354Y-104540D01*
X311979Y-105207D01*
X312229Y-106540D01*
X311979Y-107873D01*
X311229Y-108707D01*
X310354Y-109207D01*
X307229D01*
G01X310354D02*
X312229Y-114040D01*
G01X316479D02*
Y-104040D01*
X319729Y-112373D01*
X322979Y-104040D01*
Y-114040D01*
G01X340729Y-108707D02*
X341229Y-108207D01*
X341604Y-107374D01*
X341854Y-106207D01*
X341604Y-105207D01*
X341104Y-104540D01*
X340229Y-104040D01*
X336854D01*
Y-114040D01*
X340979D01*
X341854Y-113373D01*
X342354Y-112373D01*
X342604Y-111207D01*
X342354Y-110040D01*
X341604Y-109040D01*
X340729Y-108707D01*
X336854D01*
G01X349729Y-114040D02*
X348729Y-113873D01*
X347854Y-113207D01*
X347104Y-112207D01*
X346604Y-111040D01*
X346354Y-109707D01*
Y-108373D01*
X346604Y-107040D01*
X347104Y-105873D01*
X347854Y-104873D01*
X348729Y-104207D01*
X349729Y-104040D01*
X350729Y-104207D01*
X351604Y-104873D01*
X352354Y-105873D01*
X352854Y-107040D01*
X353104Y-108373D01*
Y-109707D01*
X352854Y-111040D01*
X352354Y-112207D01*
X351604Y-113207D01*
X350729Y-113873D01*
X349729Y-114040D01*
G01X356604D02*
X359729Y-104040D01*
X362854Y-114040D01*
G01X361729Y-110540D02*
X357729D01*
G01X367229Y-114040D02*
Y-104040D01*
X370354D01*
X371354Y-104540D01*
X371979Y-105207D01*
X372229Y-106540D01*
X371979Y-107873D01*
X371229Y-108707D01*
X370354Y-109207D01*
X367229D01*
G01X370354D02*
X372229Y-114040D01*
G01X376979D02*
Y-104040D01*
X379479D01*
X380479Y-104540D01*
X381229Y-105207D01*
X381854Y-106207D01*
X382354Y-107374D01*
X382479Y-109040D01*
X382354Y-110707D01*
X381854Y-111873D01*
X381229Y-112874D01*
X380479Y-113540D01*
X379479Y-114040D01*
X376979D01*
G01X-83021Y-94040D02*
Y-84040D01*
X-80521D01*
X-79521Y-84540D01*
X-78771Y-85207D01*
X-78146Y-86207D01*
X-77646Y-87374D01*
X-77521Y-89040D01*
X-77646Y-90707D01*
X-78146Y-91873D01*
X-78771Y-92874D01*
X-79521Y-93540D01*
X-80521Y-94040D01*
X-83021D01*
G01X-67771D02*
X-72771D01*
Y-84040D01*
X-67771D01*
G01X-69771Y-88873D02*
X-72771D01*
G01X-62896Y-92707D02*
X-61896Y-93540D01*
X-60771Y-94040D01*
X-59771D01*
X-58771Y-93540D01*
X-58021Y-92707D01*
X-57646Y-91540D01*
X-57896Y-90374D01*
X-58521Y-89373D01*
X-59646Y-88707D01*
X-61146Y-88373D01*
X-62021Y-87707D01*
X-62396Y-86540D01*
X-62146Y-85373D01*
X-61521Y-84540D01*
X-60646Y-84040D01*
X-59771D01*
X-58896Y-84373D01*
X-58146Y-85207D01*
G01X-51771Y-84040D02*
X-48771D01*
G01X-50271D02*
Y-94040D01*
G01X-51771D02*
X-48771D01*
G01X-39521Y-89040D02*
X-37021D01*
Y-92040D01*
X-37771Y-93040D01*
X-38646Y-93707D01*
X-39896Y-94040D01*
X-41146Y-93707D01*
X-42021Y-93040D01*
X-42771Y-92040D01*
X-43271Y-90873D01*
X-43521Y-89540D01*
Y-88373D01*
X-43271Y-87374D01*
X-42771Y-86207D01*
X-42021Y-85207D01*
X-41271Y-84540D01*
X-40271Y-84040D01*
X-39396D01*
X-38396Y-84373D01*
X-37646Y-85040D01*
G01X-33146Y-94040D02*
Y-84040D01*
X-27396Y-94040D01*
Y-84040D01*
G01X-17771Y-94040D02*
X-22771D01*
Y-84040D01*
X-17771D01*
G01X-19771Y-88873D02*
X-22771D01*
G01X-13021Y-94040D02*
Y-84040D01*
X-10521D01*
X-9521Y-84540D01*
X-8771Y-85207D01*
X-8146Y-86207D01*
X-7646Y-87374D01*
X-7521Y-89040D01*
X-7646Y-90707D01*
X-8146Y-91873D01*
X-8771Y-92874D01*
X-9521Y-93540D01*
X-10521Y-94040D01*
X-13021D01*
G01X6604D02*
X9729Y-84040D01*
X12854Y-94040D01*
G01X11729Y-90540D02*
X7729D01*
G01X19729Y-84040D02*
Y-94040D01*
G01X16854Y-84040D02*
X22604D01*
G01X29729Y-94373D02*
X29479Y-94207D01*
Y-93873D01*
X29729Y-93707D01*
X29979Y-93873D01*
Y-94207D01*
X29729Y-94373D01*
G01Y-89874D02*
X29479Y-89707D01*
Y-89373D01*
X29729Y-89207D01*
X29979Y-89373D01*
Y-89707D01*
X29729Y-89874D01*
G01X47854Y-89540D02*
X51854D01*
X51479Y-88373D01*
X50854Y-87707D01*
X49979Y-87374D01*
X49104Y-87540D01*
X48354Y-88040D01*
X47854Y-89207D01*
X47604Y-90207D01*
Y-91207D01*
X47854Y-92207D01*
X48479Y-93207D01*
X49229Y-93873D01*
X50104Y-94040D01*
X50979Y-93707D01*
X51854Y-92707D01*
G01X58229Y-84040D02*
X61229D01*
G01X59729D02*
Y-94040D01*
G01X58229D02*
X61229D01*
G01X66854D02*
Y-84040D01*
X72604Y-94040D01*
Y-84040D01*
G01X77354Y-94040D02*
Y-84040D01*
X82104D01*
G01X80354Y-88873D02*
X77354D01*
G01X89729Y-94040D02*
X88729Y-93873D01*
X87854Y-93207D01*
X87104Y-92207D01*
X86604Y-91040D01*
X86354Y-89707D01*
Y-88373D01*
X86604Y-87040D01*
X87104Y-85873D01*
X87854Y-84873D01*
X88729Y-84207D01*
X89729Y-84040D01*
X90729Y-84207D01*
X91604Y-84873D01*
X92354Y-85873D01*
X92854Y-87040D01*
X93104Y-88373D01*
Y-89707D01*
X92854Y-91040D01*
X92354Y-92207D01*
X91604Y-93207D01*
X90729Y-93873D01*
X89729Y-94040D01*
G01X102479Y-84873D02*
X101729Y-84373D01*
X100854Y-84040D01*
X99854D01*
X98729Y-84540D01*
X97854Y-85373D01*
X97229Y-86373D01*
X96729Y-88040D01*
X96604Y-89540D01*
X96854Y-91040D01*
X97229Y-92040D01*
X97979Y-93040D01*
X98854Y-93707D01*
X99729Y-94040D01*
X100604D01*
X101479Y-93707D01*
X102229Y-93207D01*
X102854Y-92540D01*
G01X107104Y-94040D02*
Y-84040D01*
G01X112354D02*
Y-94040D01*
G01Y-89040D02*
X107104D01*
G01X118229Y-84040D02*
X121229D01*
G01X119729D02*
Y-94040D01*
G01X118229D02*
X121229D01*
G01X127229D02*
Y-84040D01*
X130229D01*
X131229Y-84540D01*
X131979Y-85707D01*
X132229Y-87040D01*
X131979Y-88373D01*
X131354Y-89373D01*
X130229Y-89874D01*
X127229D01*
G01X137104Y-92707D02*
X138104Y-93540D01*
X139229Y-94040D01*
X140229D01*
X141229Y-93540D01*
X141979Y-92707D01*
X142354Y-91540D01*
X142104Y-90374D01*
X141479Y-89373D01*
X140354Y-88707D01*
X138854Y-88373D01*
X137979Y-87707D01*
X137604Y-86540D01*
X137854Y-85373D01*
X138479Y-84540D01*
X139354Y-84040D01*
X140229D01*
X141104Y-84373D01*
X141854Y-85207D01*
G01X-82850Y-75234D02*
Y-65234D01*
X-80350D01*
X-79350Y-65734D01*
X-78600Y-66401D01*
X-77975Y-67401D01*
X-77475Y-68568D01*
X-77350Y-70234D01*
X-77475Y-71901D01*
X-77975Y-73067D01*
X-78600Y-74068D01*
X-79350Y-74734D01*
X-80350Y-75234D01*
X-82850D01*
G01X-73225D02*
X-70100Y-65234D01*
X-66975Y-75234D01*
G01X-68100Y-71734D02*
X-72100D01*
G01X-60100Y-65234D02*
Y-75234D01*
G01X-62975Y-65234D02*
X-57225D01*
G01X-47600Y-75234D02*
X-52600D01*
Y-65234D01*
X-47600D01*
G01X-49600Y-70067D02*
X-52600D01*
G01X-40100Y-75567D02*
X-40350Y-75401D01*
Y-75067D01*
X-40100Y-74901D01*
X-39850Y-75067D01*
Y-75401D01*
X-40100Y-75567D01*
G01Y-71068D02*
X-40350Y-70901D01*
Y-70567D01*
X-40100Y-70401D01*
X-39850Y-70567D01*
Y-70901D01*
X-40100Y-71068D01*
G01X-20100Y-75234D02*
Y-65234D01*
X-21600Y-67234D01*
G01Y-75234D02*
X-18600D01*
G01X-10100D02*
Y-65234D01*
X-11600Y-67234D01*
G01Y-75234D02*
X-8600D01*
G01X-2350Y-75567D02*
X2150Y-65234D01*
G01X9900D02*
X8900Y-65567D01*
X8150Y-66401D01*
X7650Y-67401D01*
X7275Y-68734D01*
X7150Y-70234D01*
X7275Y-71734D01*
X7650Y-73067D01*
X8150Y-74068D01*
X8900Y-74901D01*
X9900Y-75234D01*
X10900Y-74901D01*
X11650Y-74068D01*
X12150Y-73067D01*
X12525Y-71734D01*
X12650Y-70234D01*
X12525Y-68734D01*
X12150Y-67401D01*
X11650Y-66401D01*
X10900Y-65567D01*
X9900Y-65234D01*
G01X17525Y-66901D02*
X18275Y-65901D01*
X19150Y-65401D01*
X20150Y-65234D01*
X21400Y-65567D01*
X22275Y-66401D01*
X22525Y-67401D01*
X22400Y-68401D01*
X21900Y-69234D01*
X19400Y-70901D01*
X18275Y-72067D01*
X17525Y-73734D01*
X17275Y-75234D01*
X22525D01*
G01X27650Y-75567D02*
X32150Y-65234D01*
G01X37525Y-66901D02*
X38275Y-65901D01*
X39150Y-65401D01*
X40150Y-65234D01*
X41400Y-65567D01*
X42275Y-66401D01*
X42525Y-67401D01*
X42400Y-68401D01*
X41900Y-69234D01*
X39400Y-70901D01*
X38275Y-72067D01*
X37525Y-73734D01*
X37275Y-75234D01*
X42525D01*
G01X49900Y-65234D02*
X48900Y-65567D01*
X48150Y-66401D01*
X47650Y-67401D01*
X47275Y-68734D01*
X47150Y-70234D01*
X47275Y-71734D01*
X47650Y-73067D01*
X48150Y-74068D01*
X48900Y-74901D01*
X49900Y-75234D01*
X50900Y-74901D01*
X51650Y-74068D01*
X52150Y-73067D01*
X52525Y-71734D01*
X52650Y-70234D01*
X52525Y-68734D01*
X52150Y-67401D01*
X51650Y-66401D01*
X50900Y-65567D01*
X49900Y-65234D01*
G01X59900Y-75234D02*
Y-65234D01*
X58400Y-67234D01*
G01Y-75234D02*
X61400D01*
G01X67775Y-74068D02*
X68650Y-74901D01*
X69650Y-75234D01*
X70650Y-74901D01*
X71525Y-73901D01*
X72150Y-72401D01*
X72400Y-70901D01*
Y-69067D01*
X72150Y-67567D01*
X71525Y-66234D01*
X70775Y-65567D01*
X69900Y-65234D01*
X68900Y-65567D01*
X68150Y-66234D01*
X67650Y-67234D01*
X67400Y-68568D01*
X67650Y-69734D01*
X68275Y-70901D01*
X69025Y-71568D01*
X69900Y-71734D01*
X70900Y-71401D01*
X71650Y-70567D01*
X72400Y-69067D01*
G01X59804Y-52540D02*
X63804D01*
X63429Y-51373D01*
X62804Y-50707D01*
X61929Y-50374D01*
X61054Y-50540D01*
X60304Y-51040D01*
X59804Y-52207D01*
X59554Y-53207D01*
Y-54207D01*
X59804Y-55207D01*
X60429Y-56207D01*
X61179Y-56873D01*
X62054Y-57040D01*
X62929Y-56707D01*
X63804Y-55707D01*
G01X70179Y-47040D02*
X73179D01*
G01X71679D02*
Y-57040D01*
G01X70179D02*
X73179D01*
G01X78804D02*
Y-47040D01*
X84554Y-57040D01*
Y-47040D01*
G01X89304Y-57040D02*
Y-47040D01*
X94054D01*
G01X92304Y-51873D02*
X89304D01*
G01X101679Y-57040D02*
X100679Y-56873D01*
X99804Y-56207D01*
X99054Y-55207D01*
X98554Y-54040D01*
X98304Y-52707D01*
Y-51373D01*
X98554Y-50040D01*
X99054Y-48873D01*
X99804Y-47873D01*
X100679Y-47207D01*
X101679Y-47040D01*
X102679Y-47207D01*
X103554Y-47873D01*
X104304Y-48873D01*
X104804Y-50040D01*
X105054Y-51373D01*
Y-52707D01*
X104804Y-54040D01*
X104304Y-55207D01*
X103554Y-56207D01*
X102679Y-56873D01*
X101679Y-57040D01*
G01X114429Y-47873D02*
X113679Y-47373D01*
X112804Y-47040D01*
X111804D01*
X110679Y-47540D01*
X109804Y-48373D01*
X109179Y-49373D01*
X108679Y-51040D01*
X108554Y-52540D01*
X108804Y-54040D01*
X109179Y-55040D01*
X109929Y-56040D01*
X110804Y-56707D01*
X111679Y-57040D01*
X112554D01*
X113429Y-56707D01*
X114179Y-56207D01*
X114804Y-55540D01*
G01X119054Y-57040D02*
Y-47040D01*
G01X124304D02*
Y-57040D01*
G01Y-52040D02*
X119054D01*
G01X130179Y-47040D02*
X133179D01*
G01X131679D02*
Y-57040D01*
G01X130179D02*
X133179D01*
G01X139179D02*
Y-47040D01*
X142179D01*
X143179Y-47540D01*
X143929Y-48707D01*
X144179Y-50040D01*
X143929Y-51373D01*
X143304Y-52373D01*
X142179Y-52874D01*
X139179D01*
G01X149054Y-55707D02*
X150054Y-56540D01*
X151179Y-57040D01*
X152179D01*
X153179Y-56540D01*
X153929Y-55707D01*
X154304Y-54540D01*
X154054Y-53374D01*
X153429Y-52373D01*
X152304Y-51707D01*
X150804Y-51373D01*
X149929Y-50707D01*
X149554Y-49540D01*
X149804Y-48373D01*
X150429Y-47540D01*
X151304Y-47040D01*
X152179D01*
X153054Y-47373D01*
X153804Y-48207D01*
G01X318200Y-92634D02*
Y-82634D01*
X321325D01*
X322325Y-83134D01*
X322950Y-83801D01*
X323200Y-85134D01*
X322950Y-86467D01*
X322200Y-87301D01*
X321325Y-87801D01*
X318200D01*
G01X321325D02*
X323200Y-92634D01*
G01X333200D02*
X328200D01*
Y-82634D01*
X333200D01*
G01X331200Y-87467D02*
X328200D01*
G01X337575Y-82634D02*
X340700Y-92634D01*
X343825Y-82634D01*
G01X350700Y-92967D02*
X350450Y-92801D01*
Y-92467D01*
X350700Y-92301D01*
X350950Y-92467D01*
Y-92801D01*
X350700Y-92967D01*
G01Y-88468D02*
X350450Y-88301D01*
Y-87967D01*
X350700Y-87801D01*
X350950Y-87967D01*
Y-88301D01*
X350700Y-88468D01*
G01X358325Y-84301D02*
X359075Y-83301D01*
X359950Y-82801D01*
X360950Y-82634D01*
X362200Y-82967D01*
X363075Y-83801D01*
X363325Y-84801D01*
X363200Y-85801D01*
X362700Y-86634D01*
X360200Y-88301D01*
X359075Y-89467D01*
X358325Y-91134D01*
X358075Y-92634D01*
X363325D01*
G01X370700Y-92967D02*
X370450Y-92801D01*
Y-92467D01*
X370700Y-92301D01*
X370950Y-92467D01*
Y-92801D01*
X370700Y-92967D01*
G01X380700Y-82634D02*
X379700Y-82967D01*
X378950Y-83801D01*
X378450Y-84801D01*
X378075Y-86134D01*
X377950Y-87634D01*
X378075Y-89134D01*
X378450Y-90467D01*
X378950Y-91468D01*
X379700Y-92301D01*
X380700Y-92634D01*
X381700Y-92301D01*
X382450Y-91468D01*
X382950Y-90467D01*
X383325Y-89134D01*
X383450Y-87634D01*
X383325Y-86134D01*
X382950Y-84801D01*
X382450Y-83801D01*
X381700Y-82967D01*
X380700Y-82634D01*
G54D19*
G01X0Y0D02*
Y393701D01*
X334646D01*
Y0D01*
X0D01*
M02*
