G04 ================== begin FILE IDENTIFICATION RECORD ==================*
G04 Layout Name:  EI_ARROW_IMX8M_HMI_PLATFORM_17_00666_02.brd*
G04 Film Name:    L9_GND3.gbr*
G04 File Format:  Gerber RS274X*
G04 File Origin:  Cadence Allegro 17.2-P019*
G04 Origin Date:  Mon Feb 11 12:30:43 2019*
G04 *
G04 Layer:  DRAWING FORMAT/L9*
G04 Layer:  DRAWING FORMAT/FILM_LABEL_OUTLINE*
G04 Layer:  VIA CLASS/L9_GND3*
G04 Layer:  PIN/L9_GND3*
G04 Layer:  ETCH/L9_GND3*
G04 Layer:  BOARD GEOMETRY/OUTLINE*
G04 *
G04 Offset:    (0.00 0.00)*
G04 Mirror:    No*
G04 Mode:      Positive*
G04 Rotation:  0*
G04 FullContactRelief:  No*
G04 UndefLineWidth:     5.00*
G04 ================== end FILE IDENTIFICATION RECORD ====================*
%FSLAX25Y25*MOIN*%
%IR0*IPPOS*OFA0.00000B0.00000*MIA0B0*SFA1.00000B1.00000*%
%ADD11O,.103X.052*%
%ADD19C,.05*%
%ADD14C,.06*%
%ADD18C,.016*%
%ADD15C,.07*%
%ADD10C,.034*%
%ADD12C,.044*%
%ADD21C,.055*%
%ADD22C,.083*%
%ADD17C,.03937*%
%ADD16R,.03937X.03937*%
%ADD13C,.12*%
%ADD20O,.038X.042*%
%ADD23C,.01*%
%ADD24C,.02*%
%ADD25C,.03*%
%ADD26C,.04*%
%ADD27C,.025*%
%ADD28C,.004*%
%ADD29C,.005*%
%ADD45C,.02104*%
%ADD39C,.02204*%
%ADD31C,.05004*%
%ADD38C,.02404*%
%ADD32C,.06004*%
%ADD44C,.07104*%
%ADD43C,.06204*%
%ADD36C,.07204*%
%ADD47C,.08204*%
%ADD37C,.02804*%
%ADD42C,.06604*%
%ADD40C,.04804*%
%ADD34C,.07604*%
%ADD33C,.06704*%
%ADD50C,.09504*%
%ADD46C,.08604*%
%ADD49C,.07904*%
%ADD35C,.13204*%
%ADD48C,.14604*%
%ADD41C,.14704*%
%ADD30O,.05934X.06524*%
G75*
%LPD*%
G75*
G36*
G01X129770Y6368D02*
G03X129235Y7124I-801J0D01*
G02X129107Y7602I100J283D01*
G03X128446Y11763I-2107J1798D01*
G02X128435Y12268I156J256D01*
G03X125565I-1435J2132D01*
G02X125554Y11763I-167J-249D01*
G03X124893Y7602I1446J-2363D01*
G02X124765Y7124I-228J-195D01*
G03X124230Y6368I266J-756D01*
G01Y2432D01*
G03X124236Y2337I801J3D01*
G02X123938Y2001I-298J-36D01*
G01X2001D01*
Y154684D01*
G02X2532Y154876I300J0D01*
G03X5147Y153650I2615J2176D01*
G01X10247D01*
G03Y160452I0J3401D01*
G01X5147D01*
G03X2532Y159226I0J-3402D01*
G02X2001Y159418I-231J192D01*
G01Y173582D01*
G02X2532Y173774I300J0D01*
G03X5147Y172548I2615J2176D01*
G01X10247D01*
G03Y179350I0J3401D01*
G01X5147D01*
G03X2532Y178124I0J-3402D01*
G02X2001Y178316I-231J192D01*
G01Y209898D01*
X39170D01*
Y289002D01*
X2001D01*
Y354905D01*
G02X2588Y354993I300J0D01*
G03Y359301I7029J2154D01*
G02X2001Y359389I-287J88D01*
G01Y391700D01*
X152009D01*
G02X152252Y391223I1J-300D01*
G03X151642Y389357I2554J-1868D01*
G01Y386601D01*
G03X154806Y383438I3164J1D01*
G01X161416D01*
Y391700D01*
X162197D01*
G02X162377Y391160I0J-300D01*
G03X163823I723J-960D01*
G02X164003Y391700I180J240D01*
G01X177598D01*
G02X177838Y391220I0J-300D01*
G03X179748Y389761I962J-720D01*
G02X180284Y389577I236J-185D01*
G01Y383438D01*
X186894D01*
G03X190058Y386601I0J3164D01*
G01Y389357D01*
G03X189448Y391223I-3164J-2D01*
G02X189691Y391700I242J177D01*
G01X259598D01*
G02X259838Y391220I0J-300D01*
G03X261762I962J-720D01*
G02X262002Y391700I240J180D01*
G01X287552D01*
G02X287831Y391290I0J-300D01*
G03X288335Y389817I1119J-440D01*
G02X288345Y389308I-153J-258D01*
G03X290100Y387815I655J-1008D01*
G02X290639Y387835I274J-121D01*
G03X292431Y389354I1061J565D01*
G02X292411Y389813I183J238D01*
G03X292663Y391260I-811J887D01*
G02X292929Y391700I266J140D01*
G01X332645D01*
Y148846D01*
X320820D01*
Y118922D01*
X321184D01*
G02X321434Y118455I0J-300D01*
G03X323222Y116882I1001J-664D01*
G02X323659Y116834I196J-227D01*
G03X325697Y117014I963J719D01*
G02X326204Y117061I268J-135D01*
G03X328161Y118455I956J729D01*
G02X328411Y118922I250J167D01*
G01X332645D01*
Y82421D01*
G02X332094Y82257I-300J0D01*
G03X327581Y82276I-2263J-1476D01*
G02X327081I-250J166D01*
G03X322581I-2250J-1495D01*
G02X322081I-250J166D01*
G03X317581I-2250J-1495D01*
G02X317081I-250J166D01*
G03X312476Y82105I-2250J-1495D01*
G02X311960Y82095I-261J148D01*
G03X307330Y80781I-2129J-1314D01*
G01Y80381D01*
G03X307815Y78900I2501J-1D01*
G02X307671Y78439I-242J-177D01*
G03X307130Y77681I261J-758D01*
G01Y73481D01*
G03X307931Y72680I801J0D01*
G01X311731D01*
G03X312532Y73481I0J801D01*
G01Y73656D01*
X312751D01*
X312795Y73605D01*
G03X317081Y73886I2036J1776D01*
G02X317581I250J-166D01*
G03X322081I2250J1495D01*
G02X322581I250J-166D01*
G03X327081I2250J1495D01*
G02X327581I250J-166D01*
G03X332094Y73905I2250J1495D01*
G02X332645Y73741I251J-164D01*
G01Y2001D01*
X291625D01*
G02X291413Y2513I0J300D01*
G01X301000Y12100D01*
Y30300D01*
X305900Y35200D01*
Y39664D01*
G03Y40936I-1020J636D01*
G01Y51700D01*
X302600Y55000D01*
X279737D01*
G02X279609Y55572I-1J300D01*
G03X276591I-1509J3215D01*
G02X276463Y55000I-127J-272D01*
G01X269737D01*
G02X269609Y55572I-1J300D01*
G03X266591I-1509J3215D01*
G02X266463Y55000I-127J-272D01*
G01X259737D01*
G02X259609Y55572I-1J300D01*
G03X256591I-1509J3215D01*
G02X256463Y55000I-127J-272D01*
G01X249737D01*
G02X249609Y55572I-1J300D01*
G03X246591I-1509J3215D01*
G02X246463Y55000I-127J-272D01*
G01X231800D01*
X224400Y47600D01*
Y39500D01*
X223300Y38400D01*
X206900D01*
X198300Y29800D01*
X164400D01*
X156100Y38100D01*
X155359D01*
X155349Y38239D01*
G03X152951I-1199J-89D01*
G01X152941Y38100D01*
X147700D01*
X141200Y31600D01*
Y4000D01*
X139201Y2001D01*
X130062D01*
G02X129764Y2337I0J300D01*
G03X129770Y2432I-795J98D01*
G01Y6368D01*
G37*
G36*
G01X144700Y3200D02*
Y31300D01*
X149500Y36100D01*
X156000D01*
X164600Y27500D01*
X198000D01*
X206700Y36200D01*
X216700D01*
X218000Y34900D01*
Y3800D01*
X216500Y2300D01*
X145600D01*
X144700Y3200D01*
G37*
G36*
G01X229250Y3250D02*
X226400Y6100D01*
Y45900D01*
X233150Y52650D01*
X300850D01*
X303900Y49600D01*
Y40996D01*
G03Y39604I980J-696D01*
G01Y36700D01*
X298100Y30900D01*
Y12200D01*
X289150Y3250D01*
X229250D01*
G37*
%LPC*%
G75*
G36*
G01X36364Y31267D02*
Y39567D01*
G02X37165Y40368I801J0D01*
G01X42365D01*
G02X43166Y39567I0J-801D01*
G01Y31267D01*
G02X42365Y30466I-801J0D01*
G01X37165D01*
G02X36364Y31267I0J801D01*
G37*
G36*
G01Y42684D02*
Y50984D01*
G02X37165Y51786I801J1D01*
G01X42365D01*
G02X43166Y50984I-1J-802D01*
G01Y42684D01*
G02X42365Y41882I-801J-1D01*
G01X37165D01*
G02X36364Y42684I1J802D01*
G37*
G36*
G01X49750D02*
Y50984D01*
G02X50551Y51786I801J1D01*
G01X55751D01*
G02X56552Y50984I-1J-802D01*
G01Y42684D01*
G02X55751Y41882I-801J-1D01*
G01X50551D01*
G02X49750Y42684I1J802D01*
G37*
G36*
G01X30701Y133198D02*
X16699D01*
X15798Y134099D01*
Y139801D01*
X16399Y140402D01*
X30701D01*
X31202Y139901D01*
Y133699D01*
X30701Y133198D01*
G37*
G36*
G01X182531Y375353D02*
G03X182841Y375001I295J-53D01*
G02X181792Y373335I59J-1201D01*
G03X181340Y373463I-277J-116D01*
G02X176643Y375873I-1730J2410D01*
G01Y376463D01*
G02X182577I2967J0D01*
G01Y375873D01*
G02X182531Y375353I-2967J0D01*
G37*
G36*
G01X197619Y371307D02*
G03X197144Y371289I-231J-192D01*
G02X197081Y372993I-1144J811D01*
G03X197556Y373011I231J192D01*
G02X197619Y371307I1144J-811D01*
G37*
G36*
G01X179429Y369295D02*
G03X178984Y369181I-175J-244D01*
G02X178599Y370678I-1084J519D01*
G03X179044Y370792I175J244D01*
G02X179429Y369295I1084J-519D01*
G37*
G36*
G01X111857Y364938D02*
G03X111377I-240J-180D01*
G02Y366384I-960J723D01*
G03X111857I240J180D01*
G02Y364938I960J-723D01*
G37*
G36*
G01X35723Y362938D02*
G03X35243I-240J-180D01*
G02Y364384I-960J723D01*
G03X35723I240J180D01*
G02Y362938I960J-723D01*
G37*
G36*
G01X269284Y363173D02*
G03X268896Y362981I-102J-282D01*
G02X260598Y363320I-4103J1293D01*
G03X260225Y363543I-293J-66D01*
G02X260420Y365784I-325J1157D01*
G03X260826Y365938I130J270D01*
G02X266667Y368146I3967J-1664D01*
G03X267098Y368413I131J270D01*
G02X268506Y367216I1202J-13D01*
G03X268313Y366748I52J-295D01*
G02X268880Y365616I-3521J-2472D01*
G03X269271Y365428I285J93D01*
G02X269284Y363173I422J-1125D01*
G37*
G36*
G01X172803Y358216D02*
G03X172323I-240J-180D01*
G02Y359662I-960J723D01*
G03X172803I240J180D01*
G02Y358216I960J-723D01*
G37*
G36*
G01X82924Y350332D02*
G03X82502Y350066I-122J-274D01*
G02X80804Y351195I-1202J34D01*
G03X80885Y351687I-124J273D01*
G02X82924Y350332I5032J5360D01*
G37*
G36*
G01X246793Y349259D02*
G03X246404Y349222I-173J-245D01*
G02X246202Y351341I-1009J973D01*
G03X246591Y351378I173J245D01*
G02X246793Y349259I1009J-973D01*
G37*
G36*
G01X143978Y352468D02*
G03X143461Y352545I-280J-107D01*
G02X142229Y351296I-5813J4501D01*
G03X142253Y350809I187J-235D01*
G02X140398Y349798I-653J-1009D01*
G03X140002Y350082I-300J0D01*
G02X144538Y354480I-2353J6965D01*
G03X144876Y354081I281J-104D01*
G02X143978Y352468I224J-1181D01*
G37*
G36*
G01X231388Y348535D02*
G03X231176Y348518I-98J-114D01*
G02X231018Y350489I-1070J906D01*
G03X231230Y350506I98J114D01*
G02X231388Y348535I1070J-906D01*
G37*
G36*
G01X237497Y348322D02*
G03X237075I-211J-213D01*
G02Y350310I-989J994D01*
G03X237497I211J213D01*
G02Y348322I989J-994D01*
G37*
G36*
G01X219780D02*
G03X219358I-211J-213D01*
G02Y350310I-989J994D01*
G03X219780I211J213D01*
G02Y348322I989J-994D01*
G37*
G36*
G01X225199Y350370D02*
G03X225591Y350368I197J226D01*
G02X225576Y348246I909J-1067D01*
G03X225184Y348248I-197J-226D01*
G02X225199Y350370I-909J1067D01*
G37*
G36*
G01X191956Y346197D02*
G03X191534I-211J-213D01*
G02Y348185I-989J994D01*
G03X191956I211J213D01*
G02Y346197I989J-994D01*
G37*
G36*
G01X180566Y345897D02*
G03X180144I-211J-213D01*
G02Y347885I-989J994D01*
G03X180566I211J213D01*
G02Y345897I989J-994D01*
G37*
G36*
G01X197866Y341055D02*
G03X197444I-211J-213D01*
G02Y343043I-989J994D01*
G03X197866I211J213D01*
G02Y341055I989J-994D01*
G37*
G36*
G01X216758Y340922D02*
G03X216336I-211J-213D01*
G02Y342910I-989J994D01*
G03X216758I211J213D01*
G02Y340922I989J-994D01*
G37*
G36*
G01X210848D02*
G03X210426I-211J-213D01*
G02Y342910I-989J994D01*
G03X210848I211J213D01*
G02Y340922I989J-994D01*
G37*
G36*
G01X48752Y345549D02*
G03X48589Y346041I-225J198D01*
G02X51742Y347091I675J3232D01*
G03X51905Y346599I225J-198D01*
G02X48752Y345549I-675J-3232D01*
G37*
G36*
G01X19275Y346637D02*
G03X19451Y347140I-42J297D01*
G02X22226Y346215I2253J2133D01*
G03X22065Y345707I50J-295D01*
G02X19275Y346637I-2330J-2340D01*
G37*
G36*
G01X125052Y345449D02*
G03X124889Y345941I-225J198D01*
G02X128042Y346991I675J3232D01*
G03X128205Y346499I225J-198D01*
G02X125052Y345449I-675J-3232D01*
G37*
G36*
G01X98526Y346115D02*
G03X98365Y345607I50J-295D01*
G02X95575Y346537I-2330J-2340D01*
G03X95751Y347040I-42J297D01*
G02X98526Y346115I2253J2133D01*
G37*
G36*
G01X180623Y334224D02*
G03X180201I-211J-213D01*
G02Y336212I-989J994D01*
G03X180623I211J213D01*
G02Y334224I989J-994D01*
G37*
G36*
G01X197978Y333575D02*
G03X197556I-211J-213D01*
G02Y335563I-989J994D01*
G03X197978I211J213D01*
G02Y333575I989J-994D01*
G37*
G36*
G01X56585Y335726D02*
G03X56461Y335285I125J-273D01*
G02X54715Y335774I-1161J-785D01*
G03X54839Y336215I-125J273D01*
G02X56585Y335726I1161J785D01*
G37*
G36*
G01X78451Y333487D02*
G03X77971I-240J-180D01*
G02Y334933I-960J723D01*
G03X78451I240J180D01*
G02Y333487I960J-723D01*
G37*
G36*
G01X64277Y333080D02*
G03X63797I-240J-180D01*
G02Y334526I-960J723D01*
G03X64277I240J180D01*
G02X66167Y334564I960J-723D01*
G03X66632I233J190D01*
G02X68522Y334526I930J-761D01*
G03X69002I240J180D01*
G02Y333080I960J-723D01*
G03X68522I-240J-180D01*
G02X66632Y333042I-960J723D01*
G03X66167I-233J-190D01*
G02X64277Y333080I-930J761D01*
G37*
G36*
G01X216870Y332942D02*
G03X216448I-211J-213D01*
G02Y334930I-989J994D01*
G03X216870I211J213D01*
G02Y332942I989J-994D01*
G37*
G36*
G01X229312Y332863D02*
G03X228896I-208J-216D01*
G02Y334883I-972J1010D01*
G03X229312I208J216D01*
G02Y332863I972J-1010D01*
G37*
G36*
G01X223402D02*
G03X222986I-208J-216D01*
G02Y334883I-972J1010D01*
G03X223402I208J216D01*
G02Y332863I972J-1010D01*
G37*
G36*
G01X210848Y332854D02*
G03X210426I-211J-213D01*
G02Y334842I-989J994D01*
G03X210848I211J213D01*
G02Y332854I989J-994D01*
G37*
G36*
G01X172011Y334101D02*
G03X171691Y333762I-23J-299D01*
G02X170589Y334799I-1191J-162D01*
G03X170909Y335138I23J299D01*
G02X172011Y334101I1191J162D01*
G37*
G36*
G01X242448Y332085D02*
G03X242026I-211J-213D01*
G02Y334073I-989J994D01*
G03X242448I211J213D01*
G02Y332085I989J-994D01*
G37*
G36*
G01X248358Y331351D02*
G03X247936I-211J-213D01*
G02Y333339I-989J994D01*
G03X248358I211J213D01*
G02Y331351I989J-994D01*
G37*
G36*
G01X175474Y328530D02*
G03X175052I-211J-213D01*
G02Y330518I-989J994D01*
G03X175474I211J213D01*
G02Y328530I989J-994D01*
G37*
G36*
G01X145221Y327917D02*
G03X145220Y327478I204J-220D01*
G02X143583Y327483I-821J-878D01*
G03X143584Y327922I-204J220D01*
G02X145221Y327917I821J878D01*
G37*
G36*
G01X187048Y323788D02*
G03X186626I-211J-213D01*
G02Y325776I-989J994D01*
G03X187048I211J213D01*
G02Y323788I989J-994D01*
G37*
G36*
G01X212158Y323608D02*
G03X211736I-211J-213D01*
G02Y325596I-989J994D01*
G03X212158I211J213D01*
G02Y323608I989J-994D01*
G37*
G36*
G01X169564Y323588D02*
G03X169142I-211J-213D01*
G02Y325576I-989J994D01*
G03X169564I211J213D01*
G02Y323588I989J-994D01*
G37*
G36*
G01X250015Y317576D02*
G03X249593I-211J-213D01*
G02Y319564I-989J994D01*
G03X250015I211J213D01*
G02Y317576I989J-994D01*
G37*
G36*
G01X240566D02*
G03X240144I-211J-213D01*
G02Y319564I-989J994D01*
G03X240566I211J213D01*
G02Y317576I989J-994D01*
G37*
G36*
G01X231117D02*
G03X230695I-211J-213D01*
G02Y319564I-989J994D01*
G03X231117I211J213D01*
G02Y317576I989J-994D01*
G37*
G36*
G01X221668D02*
G03X221246I-211J-213D01*
G02Y319564I-989J994D01*
G03X221668I211J213D01*
G02Y317576I989J-994D01*
G37*
G36*
G01X212219Y317201D02*
G03X211797I-211J-213D01*
G02Y319189I-989J994D01*
G03X212219I211J213D01*
G02Y317201I989J-994D01*
G37*
G36*
G01X170342Y317747D02*
G03X170744Y317626I263J145D01*
G02X170334Y315854I561J-1063D01*
G03X169920Y315923I-242J-177D01*
G02X168125Y316076I-806J1147D01*
G03X167703I-211J-213D01*
G02Y318064I-989J994D01*
G03X168125I211J213D01*
G02X170342Y317747I989J-994D01*
G37*
G36*
G01X177574Y315576D02*
G03X177152I-211J-213D01*
G02Y317564I-989J994D01*
G03X177574I211J213D01*
G02Y315576I989J-994D01*
G37*
G36*
G01X37609Y317377D02*
G03Y316897I180J-240D01*
G02X36163I-723J-960D01*
G03Y317377I-180J240D01*
G02X37609I723J960D01*
G37*
G36*
G01X188322Y316003D02*
G03X188109Y315603I67J-292D01*
G02X185493Y315607I-1309J-503D01*
G03X185283Y316007I-280J108D01*
G02X184216Y317240I329J1363D01*
G03X183879Y317509I-298J-28D01*
G02X184815Y319750I-179J1391D01*
G03X185344Y319856I239J182D01*
G02X188050Y319121I1356J-356D01*
G03X188281Y318746I289J-81D01*
G02X188322Y316003I-269J-1376D01*
G37*
G36*
G01X208302Y313899D02*
G03X208619Y313600I300J0D01*
G02X207298Y312201I81J-1400D01*
G03X206981Y312500I-300J0D01*
G02X208302Y313899I-81J1400D01*
G37*
G36*
G01X222005Y312271D02*
G03X222396Y312275I193J229D01*
G02X222455Y312324I925J-1054D01*
G03X222474Y312778I-186J235D01*
G02X224302Y312699I960J1022D01*
G03X224283Y312245I186J-235D01*
G02X222418Y310152I-960J-1022D01*
G03X222027Y310148I-193J-229D01*
G02X222005Y312271I-927J1052D01*
G37*
G36*
G01X152866Y308029D02*
G03X152656Y308431I-279J110D01*
G02X154052Y309159I278J1169D01*
G03X154262Y308757I279J-110D01*
G02X152866Y308029I-278J-1169D01*
G37*
G36*
G01X126206Y301359D02*
G03X125867Y301622I-298J-34D01*
G02X126895Y302953I-166J1190D01*
G03X127234Y302690I298J34D01*
G02X127408Y302702I169J-1190D01*
G03X127708Y302964I2J300D01*
G02X128892Y301610I1192J-152D01*
G03X128592Y301348I-2J-300D01*
G02X126206Y301359I-1192J152D01*
G37*
G36*
G01X46762Y302390D02*
G03Y301910I180J-240D01*
G02X45316I-723J-960D01*
G03Y302390I-180J240D01*
G02X46762I723J960D01*
G37*
G36*
G01X266238Y296626D02*
G03X266197Y296203I190J-232D01*
G02X264499I-849J-703D01*
G03X264458Y296626I-231J191D01*
G02X266238I890J1083D01*
G37*
G36*
G01X150346Y296108D02*
G03X150493Y295682I261J-148D01*
G02X148991Y295162I-456J-1112D01*
G03X148844Y295588I-261J148D01*
G02X150346Y296108I456J1112D01*
G37*
G36*
G01X139413Y295739D02*
G03X139802Y295534I290J78D01*
G02X139040Y294086I398J-1134D01*
G03X138651Y294291I-290J-78D01*
G02X139413Y295739I-398J1134D01*
G37*
G36*
G01X92375Y284002D02*
G02Y285998I-985J998D01*
G02X94345I985J-998D01*
G02X96315I985J-998D01*
G02Y284002I985J-998D01*
G02X94345I-985J998D01*
G02X92375I-985J998D01*
G37*
G36*
G01X196927Y276846D02*
G03X196963Y276405I220J-204D01*
G02X195073Y276254I-863J-1105D01*
G03X195037Y276695I-220J204D01*
G02X194911Y278794I863J1105D01*
G03Y279006I-106J106D01*
G02X196889I989J994D01*
G03Y278794I106J-106D01*
G02X196927Y276846I-989J-994D01*
G37*
G36*
G01X71447Y274726D02*
G03X71579Y274289I253J-162D01*
G02X70085Y273835I-481J-1101D01*
G03X69953Y274272I-253J162D01*
G02X69870Y276434I481J1101D01*
G03X69983Y276859I-141J265D01*
G02X70143Y278343I1017J641D01*
G03X70123Y278783I-213J211D01*
G02X71757Y278857I777J917D01*
G03X71777Y278417I213J-211D01*
G02X71564Y276439I-777J-917D01*
G03X71451Y276014I141J-265D01*
G02X71447Y274726I-1017J-641D01*
G37*
G36*
G01X170230Y269502D02*
G03X169791Y269379I-167J-249D01*
G02X169370Y270882I-1091J505D01*
G03X169809Y271005I167J249D01*
G02X170230Y269502I1091J-505D01*
G37*
G36*
G01X127807Y270041D02*
G03X127815Y269571I190J-232D01*
G02X126319Y269544I-731J-954D01*
G03X126311Y270014I-190J232D01*
G02X127807Y270041I731J954D01*
G37*
G36*
G01X120624Y265769D02*
G03Y265317I198J-226D01*
G02X118776I-924J-1054D01*
G03Y265769I-198J226D01*
G02X118722Y267828I924J1054D01*
G03Y268257I-209J214D01*
G02X120678I978J1005D01*
G03Y267828I209J-215D01*
G02X120624Y265769I-978J-1005D01*
G37*
G36*
G01X170346Y260033D02*
G03X170205Y259563I95J-285D01*
G02X168654Y260029I-1105J-863D01*
G03X168795Y260499I-95J285D01*
G02X170346Y260033I1105J863D01*
G37*
G36*
G01X120423Y258351D02*
G03X120458Y257909I219J-205D01*
G02X118579Y257761I-858J-1109D01*
G03X118544Y258203I-219J205D01*
G02X120423Y258351I858J1109D01*
G37*
G36*
G01X137951Y254752D02*
G03X137601Y254445I-50J-296D01*
G02X136601Y255585I-1201J-45D01*
G03X136951Y255892I50J296D01*
G02X139342Y256107I1201J45D01*
G03X139703Y255857I297J43D01*
G02X138771Y254513I258J-1174D01*
G03X138410Y254763I-297J-43D01*
G02X137951Y254752I-258J1174D01*
G37*
G36*
G01X113538Y247806D02*
G03X113567Y248254I-184J237D01*
G02X113602Y249980I853J846D01*
G03Y250420I-205J220D01*
G02X113647Y252220I818J880D01*
G03Y252680I-193J230D01*
G02X113515Y254391I773J920D01*
G03X113511Y254791I-226J198D01*
G02X115305Y254809I889J809D01*
G03X115309Y254409I226J-198D01*
G02X115193Y252680I-889J-809D01*
G03Y252220I193J-230D01*
G02X115238Y250420I-773J-920D01*
G03Y249980I205J-220D01*
G02X115259Y248239I-818J-880D01*
G03X115280Y247791I210J-215D01*
G02X115434Y245753I-880J-1091D01*
G03Y245347I221J-203D01*
G02X113366I-1034J-947D01*
G03Y245753I-221J203D01*
G02X113538Y247806I1034J947D01*
G37*
G36*
G01X195994Y245611D02*
G03Y245189I213J-211D01*
G02X194006I-994J-989D01*
G03Y245611I-213J211D01*
G02X195994I994J989D01*
G37*
G36*
G01X112698Y241804D02*
G03X112714Y241363I211J-213D01*
G02X110814Y241296I-914J-1063D01*
G03X110798Y241737I-211J213D01*
G02X112698Y241804I914J1063D01*
G37*
G36*
G01X166439Y233506D02*
G03X166017I-211J-213D01*
G02Y235494I-989J994D01*
G03X166439I211J213D01*
G02Y233506I989J-994D01*
G37*
G36*
G01X158801Y230706D02*
G03X158379I-211J-213D01*
G02Y232694I-989J994D01*
G03X158801I211J213D01*
G02Y230706I989J-994D01*
G37*
G36*
G01X143746Y230569D02*
G03X143266Y230565I-238J-182D01*
G02X141482Y232160I-967J714D01*
G03Y232600I-205J220D01*
G02Y234360I818J880D01*
G03Y234800I-205J220D01*
G02X143220Y236453I818J880D01*
G03X143680I230J193D01*
G02X145465Y234846I920J-773D01*
G03X145485Y234410I216J-209D01*
G02X145518Y232620I-785J-910D01*
G03Y232180I205J-220D01*
G02X143746Y230569I-817J-881D01*
G37*
G36*
G01X170240Y229870D02*
G03X169838Y229867I-199J-224D01*
G02X169822Y231948I-948J1033D01*
G03X170224Y231951I199J224D01*
G02X170240Y229870I948J-1033D01*
G37*
G36*
G01X162429Y226962D02*
G03X162007I-211J-213D01*
G02Y228950I-989J994D01*
G03X162429I211J213D01*
G02Y226962I989J-994D01*
G37*
G36*
G01X266116Y226714D02*
G03Y226286I211J-214D01*
G02X264572I-772J-786D01*
G03Y226714I-211J214D01*
G02X266116I772J786D01*
G37*
G36*
G01X182821Y223527D02*
G03X182399I-211J-213D01*
G02Y225515I-989J994D01*
G03X182821I211J213D01*
G02Y223527I989J-994D01*
G37*
G36*
G01X93164Y219507D02*
G03X93623Y219417I266J139D01*
G02X93336Y217940I777J-917D01*
G03X92877Y218030I-266J-139D01*
G02X93164Y219507I-777J917D01*
G37*
G36*
G01X229802Y217422D02*
G03X229806Y217018I224J-200D01*
G02X227732Y216995I-1027J-955D01*
G03X227728Y217399I-224J200D01*
G02X229802Y217422I1027J955D01*
G37*
G36*
G01X201507Y214975D02*
G03X201930Y214967I216J209D01*
G02X201893Y212980I970J-1012D01*
G03X201470Y212988I-216J-209D01*
G02X201507Y214975I-970J1012D01*
G37*
G36*
G01X228781Y205198D02*
G03X228478Y204885I-3J-300D01*
G02X227096Y206225I-1401J-62D01*
G03X227399Y206538I3J300D01*
G02X228781Y205198I1401J62D01*
G37*
G36*
G01X220667Y204990D02*
G03X220743Y204537I228J-195D01*
G02X219144Y204180I-608J-1037D01*
G03X219021Y204623I-247J170D01*
G02X220667Y204990I579J1277D01*
G37*
G36*
G01X187858Y201458D02*
G03X187846Y201897I-210J214D01*
G02X189481Y201942I793J903D01*
G03X189493Y201503I210J-214D01*
G02X187858Y201458I-793J-903D01*
G37*
G36*
G01X199995Y192600D02*
G03X200337Y192324I299J21D01*
G02X199137Y190840I199J-1388D01*
G03X198795Y191116I-299J-21D01*
G02X199995Y192600I-199J1388D01*
G37*
G36*
G01X171190Y189034D02*
G03X170714Y188910I-195J-228D01*
G02X168018Y189637I-1314J489D01*
G03X167707Y189987I-296J50D01*
G02X166328Y191898I-73J1400D01*
G03X166059Y192307I-279J109D01*
G02X167414Y193197I49J1401D01*
G03X167683Y192788I279J-109D01*
G02X168234Y192654I-49J-1401D01*
G03X168634Y192798I128J271D01*
G02X169084Y193341I1270J-594D01*
G03X169119Y193799I-175J244D01*
G02X170920Y193663I981J1001D01*
G03X170885Y193205I175J-244D01*
G02X171244Y191792I-981J-1001D01*
G03X171631Y191421I287J-88D01*
G02X171190Y189034I469J-1321D01*
G37*
G36*
G01X235811Y188268D02*
G03X235495Y187939I-18J-299D01*
G02X232751Y187419I-1395J-138D01*
G03X232577Y187526I-145J-40D01*
G02X233649Y189281I-277J1374D01*
G03X233823Y189174I145J40D01*
G02X234332Y189183I279J-1374D01*
G03X234681Y189476I49J296D01*
G02X235811Y188268I1202J-8D01*
G37*
G36*
G01X255964Y187409D02*
G03X256309Y187210I285J95D01*
G02X255259Y185393I280J-1374D01*
G03X254914Y185592I-285J-95D01*
G02X255964Y187409I-280J1374D01*
G37*
G36*
G01X253190Y183537D02*
G03X253522Y183278I297J39D01*
G02X252292Y181705I160J-1393D01*
G03X251960Y181964I-297J-39D01*
G02X253190Y183537I-160J1393D01*
G37*
G36*
G01X173180Y182738D02*
G03X173130Y182329I192J-231D01*
G02X171254Y182687I-1130J-829D01*
G03X171358Y183085I-159J254D01*
G02X173180Y182738I1054J577D01*
G37*
G36*
G01X208670Y180904D02*
G03X208486Y181272I-287J86D01*
G02X208211Y181415I412J1129D01*
G03X207800Y181349I-171J-246D01*
G02X205915Y183368I-1120J844D01*
G03X205959Y183575I-82J126D01*
G02X205739Y184223I1177J761D01*
G03X205433Y184498I-299J-25D01*
G02X206797Y186013I-33J1402D01*
G03X207103Y185738I299J25D01*
G02X208491Y183975I33J-1402D01*
G03X208804Y183598I290J-78D01*
G02X210087Y182210I96J-1198D01*
G03X210318Y181869I296J-48D01*
G02X211346Y180934I-305J-1368D01*
G03X211535Y180838I143J47D01*
G02X210635Y179071I433J-1333D01*
G03X210446Y179167I-143J-47D01*
G02X208670Y180904I-433J1334D01*
G37*
G36*
G01X262661Y176300D02*
G03X262562Y176752I-236J185D01*
G02X264304Y177135I639J1248D01*
G03X264403Y176683I236J-185D01*
G02X263195Y174154I-638J-1248D01*
G03X263000Y174085I-61J-137D01*
G02X262320Y176001I-1250J635D01*
G03X262515Y176070I61J137D01*
G02X262661Y176300I1251J-633D01*
G37*
G36*
G01X193317Y163727D02*
G03X193142Y163621I-31J-147D01*
G02X190693Y163138I-1348J385D01*
G03X190236Y163155I-236J-185D01*
G02X190301Y164968I-1036J945D01*
G03X190758Y164951I236J185D01*
G02X192077Y165379I1036J-945D01*
G03X192252Y165485I31J147D01*
G02X193317Y163727I1348J-385D01*
G37*
G36*
G01X260818Y166083D02*
Y161883D01*
G02X260412Y161186I-801J0D01*
G03X260316Y160751I148J-261D01*
G02X260818Y159183I-2200J-1569D01*
G01Y158783D01*
G02X255866Y157288I-2702J0D01*
G03X255366I-250J-166D01*
G02X250866I-2250J1495D01*
G03X250366I-250J-166D01*
G02X245866I-2250J1495D01*
G03X245366I-250J-166D01*
G02X240866I-2250J1495D01*
G03X240366I-250J-166D01*
G02X235414Y158783I-2250J1495D01*
G01Y159183D01*
G02X236380Y161253I2701J0D01*
G03Y161713I-192J230D01*
G02X235414Y163783I1735J2070D01*
G01Y164183D01*
G02X240366Y165678I2702J0D01*
G03X240866I250J166D01*
G02X245471Y165507I2250J-1495D01*
G03X245987Y165497I261J148D01*
G02X250348Y165312I2129J-1314D01*
G03X250884I268J135D01*
G02X255143Y165649I2232J-1129D01*
G01X255188Y165587D01*
X255414D01*
Y166083D01*
G02X256216Y166884I802J-1D01*
G01X260016D01*
G02X260818Y166083I1J-801D01*
G37*
G36*
G01X202112Y154471D02*
G03X202392Y154101I292J-70D01*
G02X200974Y153029I-55J-1401D01*
G03X200694Y153399I-292J70D01*
G02X202112Y154471I55J1401D01*
G37*
G36*
G01X196286Y149313D02*
G03X196241Y148893I189J-233D01*
G02X194434Y148969I-937J-753D01*
G03X194425Y149392I-217J207D01*
G02X196286Y149313I975J1008D01*
G37*
G36*
G01X110372Y148956D02*
G03X110394Y149415I-182J239D01*
G02X111938Y149342I815J883D01*
G03X111916Y148883I182J-239D01*
G02X110372Y148956I-815J-883D01*
G37*
G36*
G01X4339Y136942D02*
G03X4338Y137334I-228J195D01*
G02X6459Y137336I1060J918D01*
G03X6460Y136944I228J-195D01*
G02X4339Y136942I-1060J-918D01*
G37*
G36*
G01X55332Y131308D02*
G03X55076Y130948I38J-298D01*
G02X53748Y131892I-1176J-248D01*
G03X54004Y132252I-38J298D01*
G02X54362Y133380I1176J248D01*
G03Y133820I-205J220D01*
G02X55998I818J880D01*
G03Y133380I205J-220D01*
G02X55332Y131308I-818J-880D01*
G37*
G36*
G01X265732Y128498D02*
G03X265453Y128111I8J-300D01*
G02X264080Y129102I-1341J-411D01*
G03X264359Y129489I-8J300D01*
G02X267102Y129880I1341J410D01*
G03X267454Y129580I300J-5D01*
G02X266298Y128220I246J-1380D01*
G03X265946Y128520I-300J5D01*
G02X265732Y128498I-250J1380D01*
G37*
G36*
G01X255874Y124628D02*
G03X255484Y124394I-94J-285D01*
G02X254677Y125741I-1184J206D01*
G03X255067Y125975I94J285D01*
G02X255874Y124628I1184J-206D01*
G37*
G36*
G01X79820Y122282D02*
G03X79380I-220J-205D01*
G02Y123918I-880J818D01*
G03X79820I220J205D01*
G02X81386Y124087I880J-818D01*
G03X81821Y124191I171J247D01*
G02X82193Y122634I1058J-570D01*
G03X81758Y122530I-171J-247D01*
G02X79820Y122282I-1058J570D01*
G37*
G36*
G01X220781Y124028D02*
G03X221200Y123951I248J169D01*
G02X220842Y122010I800J-1151D01*
G03X220423Y122087I-248J-169D01*
G02X218260Y123565I-800J1151D01*
G03X218034Y123928I-292J70D01*
G02X219494Y124965I266J1172D01*
G03X219763Y124633I298J-33D01*
G02X220781Y124028I-140J-1395D01*
G37*
G36*
G01X63956Y119613D02*
G03X63527Y119520I-171J-246D01*
G02X63180Y121120I-1034J613D01*
G03X63609Y121213I171J246D01*
G02X63956Y119613I1034J-613D01*
G37*
G36*
G01X234398Y112260D02*
G03X234005Y112009I-95J-284D01*
G02X233191Y113281I-1195J132D01*
G03X233584Y113532I95J284D01*
G02X235920Y113779I1195J-132D01*
G03X236363Y113619I285J95D01*
G02X235859Y112221I637J-1019D01*
G03X235416Y112381I-285J-95D01*
G02X234398Y112260I-637J1019D01*
G37*
G36*
G01X245809Y113485D02*
G03X246202Y113248I296J47D01*
G02X245402Y111925I388J-1138D01*
G03X245009Y112162I-296J-47D01*
G02X244213Y112169I-388J1138D01*
G03X243820Y111959I-102J-282D01*
G02X241637Y111605I-1167J288D01*
G03X241205Y111686I-254J-160D01*
G02X241506Y113295I-715J966D01*
G03X241938Y113214I254J160D01*
G02X243061Y113378I715J-967D01*
G03X243454Y113588I102J282D01*
G02X245809Y113485I1167J-288D01*
G37*
G36*
G01X252158Y110473D02*
G03X252278Y110898I-136J268D01*
G02X253842Y110457I1022J632D01*
G03X253722Y110032I136J-268D01*
G02X252158Y110473I-1022J-632D01*
G37*
G36*
G01X304912Y109360D02*
G03X305192Y109000I294J-60D01*
G02X303752Y107880I-66J-1400D01*
G03X303472Y108240I-294J60D01*
G02X304912Y109360I66J1400D01*
G37*
G36*
G01X184976Y90975D02*
G03X184577Y90755I-105J-281D01*
G02X183824Y92125I-1177J245D01*
G03X184223Y92345I105J281D01*
G02X184976Y90975I1177J-245D01*
G37*
G36*
G01X159040Y65277D02*
G03X158560I-240J-180D01*
G02Y66723I-960J723D01*
G03X159040I240J180D01*
G02Y65277I960J-723D01*
G37*
G36*
G01X219077Y63730D02*
G03X218897Y63271I69J-292D01*
G02X216747Y62260I-997J-671D01*
G03X216220Y62356I-288J-85D01*
G02X214194Y64270I-1119J844D01*
G03X214199Y64724I-193J229D01*
G02X216526Y65843I927J1052D01*
G01X216533Y65700D01*
X217903D01*
G02X219077Y63730I897J-800D01*
G37*
G36*
G01X145130Y60091D02*
G03X145469Y59752I297J-42D01*
G02X144448Y58731I169J-1190D01*
G03X144109Y59070I-297J42D01*
G02X145130Y60091I-169J1190D01*
G37*
G36*
G01X171808Y42094D02*
G03X171364I-222J-201D01*
G02Y43706I-892J806D01*
G03X171808I222J201D01*
G02Y42094I892J-806D01*
G37*
G36*
G01X204595Y360666D02*
G02X203522Y361996I-1195J134D01*
G03X203823Y362423I30J298D01*
G02X211593Y362429I3884J1851D01*
G03X211749Y362023I271J-129D01*
G02X210208Y360382I-463J-1109D01*
G03X209794Y360512I-269J-133D01*
G02X205076Y360870I-2087J3762D01*
G03X204595Y360666I-183J-237D01*
G37*
G36*
G01X248252Y339941D02*
G02X246866Y339894I-652J-1241D01*
G03X246848Y340416I-157J256D01*
G02X248234Y340463I652J1241D01*
G03X248252Y339941I157J-256D01*
G37*
G36*
G01X191534Y333557D02*
G02Y335545I-989J994D01*
G03X191956I211J213D01*
G02X192951Y335953I989J-994D01*
G03X193211Y336405I1J300D01*
G02X194412Y335716I1207J713D01*
G03X194152Y335264I-1J-300D01*
G02X191956Y333557I-1207J-713D01*
G03X191534I-211J-213D01*
G37*
G36*
G01X258049Y333422D02*
G02X258209Y331897I3172J-438D01*
G03X257662Y331936I-282J-102D01*
G02X257522Y333271I-1062J563D01*
G03X258049Y333422I230J193D01*
G37*
G36*
G01X149980Y328280D02*
G02Y329334I-1080J527D01*
G03X150520I270J131D01*
G02Y328280I1080J-527D01*
G03X149980I-270J-131D01*
G37*
G36*
G01X291520Y329110D02*
G02X290562Y328539I180J-1390D01*
G03X290298Y329014I-243J176D01*
G02X290063Y331406I-85J1199D01*
G03X290279Y331863I-38J297D01*
G02X291446Y331311I1017J641D01*
G03X291230Y330854I38J-297D01*
G02X291228Y329569I-1017J-641D01*
G03X291520Y329110I253J-161D01*
G37*
G36*
G01X108555Y325382D02*
G02Y326818I-964J718D01*
G03X109036I240J179D01*
G02Y325382I964J-718D01*
G03X108555I-240J-179D01*
G37*
G36*
G01X86349Y326064D02*
G02X85842Y327006I-1201J-39D01*
G03X86315Y327260I173J245D01*
G02X86822Y326318I1201J39D01*
G03X86349Y326064I-173J-245D01*
G37*
G36*
G01X273223Y313993D02*
G02X271095Y312221I-923J-1055D01*
G03X270584Y312229I-258J-153D01*
G02X270605Y313697I-1184J751D01*
G03X271116Y313689I258J153D01*
G02X271377Y313993I1183J-752D01*
G03Y314445I-198J226D01*
G02X273223I923J1055D01*
G03Y313993I198J-226D01*
G37*
G36*
G01X80800Y305675D02*
G02X80316Y304376I900J-1075D01*
G03X79846Y304572I-296J-48D01*
G02X80316Y305834I-698J979D01*
G03X80800Y305675I291J71D01*
G37*
G36*
G01X144140Y295772D02*
G02X143044Y295082I-9J-1202D01*
G03X142775Y295510I-271J128D01*
G02X143871Y296200I9J1202D01*
G03X144140Y295772I271J-128D01*
G37*
G36*
G01X220492Y293360D02*
G02X220264Y292130I778J-780D01*
G03X219778Y292220I-274J-122D01*
G02X220006Y293450I-778J780D01*
G03X220492Y293360I274J122D01*
G37*
G36*
G01X128004Y285282D02*
G02X126884Y285204I-486J-1099D01*
G03X126847Y285734I-158J255D01*
G02X127967Y285812I486J1099D01*
G03X128004Y285282I158J-255D01*
G37*
G36*
G01X166689Y283841D02*
G02X165314Y284261I-1039J-941D01*
G03X165481Y284735I-71J292D01*
G02X166545Y286664I953J732D01*
G03X166868Y287013I27J299D01*
G02X169647Y287137I1382J237D01*
G03X169974Y286814I299J-24D01*
G02X168881Y285588I109J-1197D01*
G03X168523Y285875I-300J-7D01*
G02X167988Y285873I-273J1375D01*
G03X167633Y285556I-56J-295D01*
G02X166816Y284327I-1199J-89D01*
G03X166689Y283841I95J-284D01*
G37*
G36*
G01X109882Y278845D02*
G02X108825Y280179I-1402J-25D01*
G03X109198Y280475I73J291D01*
G02Y280530I1402J28D01*
G03X108775Y280809I-300J6D01*
G02X108693Y283401I-575J1279D01*
G03X109098Y283685I105J281D01*
G02X110007Y282387I1402J15D01*
G03X109602Y282103I-105J-281D01*
G02Y282058I-1402J-23D01*
G03X110025Y281779I300J-6D01*
G02X110255Y279141I575J-1279D01*
G03X109882Y278845I-73J-291D01*
G37*
G36*
G01X112595Y264254D02*
G02X111174Y264167I-651J-1010D01*
G03X111122Y264662I-193J230D01*
G02X110433Y266288I658J1238D01*
G03X110156Y266671I-288J83D01*
G02X109947Y269047I44J1201D01*
G03X110167Y269440I-63J293D01*
G02X110163Y270231I1133J401D01*
G03X109929Y270624I-284J97D01*
G02X111266Y271419I200J1185D01*
G03X111500Y271026I284J-97D01*
G02X111553Y268666I-200J-1185D01*
G03X111333Y268273I63J-293D01*
G02X111382Y267653I-1133J-401D01*
G03X111695Y267299I295J-54D01*
G02X112585Y264752I85J-1399D01*
G03X112595Y264254I172J-246D01*
G37*
G36*
G01X138148Y261511D02*
G02X135912Y262285I-1048J589D01*
G03X135544Y262623I-296J47D01*
G02X136445Y263605I-287J1167D01*
G03X136813Y263267I296J-47D01*
G02X138040Y262849I287J-1167D01*
G03X138536Y262889I235J187D01*
G02X138644Y261551I1048J-589D01*
G03X138148Y261511I-235J-187D01*
G37*
G36*
G01X144591Y253460D02*
G02Y254774I-1007J657D01*
G03X145093I251J164D01*
G02Y253460I1007J-657D01*
G03X144591I-251J-164D01*
G37*
G36*
G01X272962Y247978D02*
G02X272952Y246838I938J-578D01*
G03X272438Y246842I-258J-153D01*
G02X272448Y247982I-938J578D01*
G03X272962Y247978I258J153D01*
G37*
G36*
G01X300533Y242660D02*
G02X300524Y243924I-907J626D01*
G03X301016Y243928I245J174D01*
G02X301025Y242664I907J-626D01*
G03X300533Y242660I-245J-174D01*
G37*
G36*
G01X201221Y241043D02*
G02X200081I-570J-943D01*
G03Y241557I-155J257D01*
G02X201221I570J943D01*
G03Y241043I155J-257D01*
G37*
G36*
G01X108631Y236574D02*
G02X108580Y235109I1169J-774D01*
G03X108069Y235126I-261J-148D01*
G02X108120Y236591I-1169J774D01*
G03X108631Y236574I261J148D01*
G37*
G36*
G01X110869Y229497D02*
G02X110387Y227598I731J-1196D01*
G03X109971Y227703I-259J-151D01*
G02X108692Y230191I-731J1197D01*
G03X108782Y230684I-117J276D01*
G02X108679Y230793I966J1016D01*
G03X108177Y230722I-229J-195D01*
G02X107969Y232207I-1277J578D01*
G03X108471Y232278I229J195D01*
G02X110296Y230409I1277J-578D01*
G03X110206Y229916I117J-276D01*
G02X110453Y229602I-967J-1015D01*
G03X110869Y229497I259J151D01*
G37*
G36*
G01X154304Y227202D02*
G02X152334Y229196I-984J998D01*
G03X152157Y229707I-211J213D01*
G02X151331Y232094I163J1393D01*
G03Y232306I-106J106D01*
G02X151500Y234437I989J994D01*
G03X151514Y234913I-175J243D01*
G02X153220Y234863I886J1087D01*
G03X153206Y234387I175J-243D01*
G02X153309Y232306I-886J-1087D01*
G03Y232094I106J-106D01*
G02X153306Y230104I-989J-994D01*
G03X153483Y229593I211J-213D01*
G02X154304Y229198I-164J-1392D01*
G03X154726I211J214D01*
G02Y227202I984J-998D01*
G03X154304I-211J-214D01*
G37*
G36*
G01X205009Y223746D02*
G02Y225054I-1009J654D01*
G03X205504Y225042I252J163D01*
G02Y223758I896J-642D01*
G03X205009Y223746I-243J-175D01*
G37*
G36*
G01X139318Y204283D02*
G02X137074Y203719I-1202J35D01*
G03X136631Y203807I-260J-150D01*
G02X136942Y205360I-731J954D01*
G03X137385Y205272I260J150D01*
G02X138502Y205456I731J-954D01*
G03X138898Y205732I96J284D01*
G02X139006Y206194I1201J-37D01*
G03X138762Y206617I-273J124D01*
G02X140120Y207320I139J1395D01*
G03X140325Y206878I261J-148D01*
G02X141256Y206026I-225J-1181D01*
G03X141649Y205826I289J81D01*
G02X140913Y204371I420J-1126D01*
G03X140520Y204571I-289J-81D01*
G02X139714Y204559I-420J1126D01*
G03X139318Y204283I-96J-284D01*
G37*
G36*
G01X100156Y202069D02*
G02X99685Y203388I-1156J331D01*
G03X100144Y203552I171J246D01*
G02X100615Y202233I1156J-331D01*
G03X100156Y202069I-171J-246D01*
G37*
G36*
G01X100600Y195457D02*
G02X99543Y195988I-1099J-870D01*
G03X99798Y196459I9J300D01*
G02X100196Y198191I988J685D01*
G03X100299Y198619I-147J262D01*
G02X101890Y198237I1001J665D01*
G03X101787Y197809I147J-262D01*
G02X100825Y195943I-1001J-665D01*
G03X100600Y195457I10J-300D01*
G37*
G36*
G01X160404Y195677D02*
G02X159181Y195445I-377J-1350D01*
G03X159100Y195967I-181J239D01*
G02X160288Y196193I400J1133D01*
G03X160404Y195677I197J-227D01*
G37*
G36*
G01X133719Y189930D02*
G02X132397Y189875I-619J-1030D01*
G03X132377Y190376I-175J244D01*
G02X131812Y191611I619J1030D01*
G03X131433Y191950I-296J51D01*
G02X132284Y192900I-333J1155D01*
G03X132663Y192561I296J-51D01*
G02X133699Y190431I333J-1155D01*
G03X133719Y189930I175J-244D01*
G37*
G36*
G01X244603Y177205D02*
G02X244582Y178394I-1280J572D01*
G03X245125Y178404I269J132D01*
G02X245146Y177215I1280J-572D01*
G03X244603Y177205I-269J-132D01*
G37*
G36*
G01X140094Y165882D02*
G02X138706I-694J-982D01*
G03Y166371I-173J245D01*
G02X140094I694J982D01*
G03Y165882I173J-244D01*
G37*
G36*
G01X93880Y148973D02*
G02Y150027I-1080J527D01*
G03X94420I270J131D01*
G02X96580I1080J-527D01*
G03X97120I270J131D01*
G02Y148973I1080J-527D01*
G03X96580I-270J-131D01*
G02X94420I-1080J527D01*
G03X93880I-270J-131D01*
G37*
G36*
G01X105103Y148095D02*
G02X103688Y148002I-644J-1015D01*
G03X103656Y148485I-193J230D01*
G02X105071Y148578I644J1015D01*
G03X105103Y148095I193J-230D01*
G37*
G36*
G01X238887Y148164D02*
G02X238407Y146942I913J-1064D01*
G03X237913Y147136I-298J-33D01*
G02X238393Y148358I-913J1064D01*
G03X238887Y148164I298J33D01*
G37*
G36*
G01X133878Y128440D02*
G02X132643Y129401I-1178J-240D01*
G03X132922Y129760I-15J299D01*
G02X133573Y131080I1178J240D01*
G03Y131620I-131J270D01*
G02X134627I527J1080D01*
G03Y131080I131J-270D01*
G02X134157Y128799I-527J-1080D01*
G03X133878Y128440I15J-299D01*
G37*
G36*
G01X71294Y117866D02*
G02Y119334I-1194J734D01*
G03X71806I256J157D01*
G02Y117866I1194J-734D01*
G03X71294I-256J-157D01*
G37*
G36*
G01X257181Y97452D02*
G02X255661Y97151I-581J-1052D01*
G03X255572Y97601I-234J188D01*
G02X255991Y99844I581J1052D01*
G03X256242Y100211I-41J297D01*
G02X256568Y101344I1170J277D01*
G03X256391Y101856I-210J214D01*
G02X257472Y102194I158J1393D01*
G03X257618Y101672I197J-226D01*
G02X257574Y99297I-206J-1184D01*
G03X257323Y98930I41J-297D01*
G02X257092Y97902I-1170J-277D01*
G03X257181Y97452I234J-188D01*
G37*
G36*
G01X138478Y97016D02*
G02X137402Y97265I-779J-916D01*
G03X137522Y97784I-74J291D01*
G02X138598Y97535I779J916D01*
G03X138478Y97016I74J-291D01*
G37*
G36*
G01X87502Y90397D02*
G02X87019Y91363I-1202J3D01*
G03X87498Y91603I179J241D01*
G02X87981Y90637I1202J-3D01*
G03X87502Y90397I-179J-241D01*
G37*
G36*
G01X199344Y71309D02*
G02X198141Y71099I-444J-1009D01*
G03X198056Y71591I-206J218D01*
G02X199259Y71801I444J1009D01*
G03X199344Y71309I206J-218D01*
G37*
G54D45*
X288849Y284231D03*
X285700Y286790D03*
X295717Y253523D03*
X289568D03*
X264829Y270457D03*
G54D39*
X186463Y66900D03*
X192989Y70907D03*
X190400Y65100D03*
X215525Y160139D03*
X252033Y239749D03*
X249474Y244866D03*
X267431Y244867D03*
X314172Y253523D03*
X286418Y268877D03*
X311023Y266318D03*
X259711Y270456D03*
X295867Y268877D03*
Y240627D03*
X257151Y229512D03*
X259710Y229511D03*
X295867Y235609D03*
X289567Y238168D03*
X267977Y237413D03*
X289568Y268877D03*
X264829Y239749D03*
X286418Y245845D03*
X317322Y268877D03*
X259710Y262779D03*
X271900Y277000D03*
X314172Y268877D03*
X269888Y285811D03*
X289568Y273995D03*
X289567Y243286D03*
X254592Y232071D03*
X295967Y245845D03*
X285700Y284231D03*
X264829Y288370D03*
X297070Y231000D03*
X264829Y252544D03*
X289568Y250963D03*
X295867Y256082D03*
X262270Y255103D03*
X307873Y250964D03*
X295893Y276555D03*
X254593Y290929D03*
X267641Y234489D03*
X285976Y240727D03*
X292126Y243286D03*
X295893Y286791D03*
X259710Y293489D03*
X311023Y256082D03*
X299017D03*
X269900Y257000D03*
X298893Y279114D03*
X254592Y293489D03*
Y229511D03*
X271247Y234529D03*
X285976Y235609D03*
X267483Y280733D03*
X286046Y276554D03*
X262270Y249985D03*
X292717Y253523D03*
Y271436D03*
X264829Y273015D03*
X272600Y280700D03*
X289202Y276559D03*
X257151Y293489D03*
X295893Y284232D03*
X271400Y241500D03*
X289577Y245845D03*
X291999Y279113D03*
X264829Y255103D03*
X203000Y263300D03*
X295867Y266318D03*
X264829Y267897D03*
X208563Y293888D03*
X254592Y265338D03*
Y262779D03*
Y257662D03*
X257151Y267897D03*
X262270D03*
X259710D03*
Y275574D03*
X259712Y273016D03*
X262271Y280692D03*
X259711D03*
Y242308D03*
X304600Y245846D03*
X300700D03*
X289570Y248405D03*
X314173Y258641D03*
X304400Y253535D03*
X289567Y256082D03*
X283268Y250964D03*
X314173Y263759D03*
X304723Y268877D03*
X283268D03*
X289567Y266318D03*
X308573Y276554D03*
X304723Y281672D03*
X299900Y273995D03*
X292717D03*
X288849Y286790D03*
X321400Y241500D03*
X320472Y256082D03*
Y250964D03*
Y266318D03*
X320493Y279103D03*
X320472Y271436D03*
X320750Y263000D03*
X320700Y259300D03*
X262271Y242308D03*
X259710Y234630D03*
X257150D03*
X259710Y288370D03*
X257150D03*
X314173Y235610D03*
X293400Y230500D03*
X298771Y235614D03*
X289567Y235610D03*
X307873Y243287D03*
X283070Y240728D03*
X301517Y279113D03*
X314373Y286790D03*
X305023D03*
X307873D03*
X294270Y290500D03*
X300400Y283500D03*
X259711Y252544D03*
X264829Y249985D03*
X262270Y257662D03*
X259711Y255103D03*
X299735Y252974D03*
X301300Y268757D03*
X283268Y256082D03*
Y266318D03*
Y281672D03*
X314173Y245846D03*
Y276554D03*
X308173Y235610D03*
X208580Y290879D03*
X223885Y283251D03*
X244356Y278133D03*
X216208D03*
X246915Y280692D03*
X244356Y283251D03*
X252033D03*
X246915D03*
X221326Y280693D03*
Y285810D03*
X249474Y280692D03*
X218767Y283251D03*
X208530Y270456D03*
X226443Y262779D03*
X229003D03*
X231562D03*
X241797Y267897D03*
Y265338D03*
X239238Y262779D03*
X241797D03*
Y252544D03*
X241697Y255103D03*
X241797Y257662D03*
X229003Y265338D03*
X236680Y262779D03*
X241797Y270456D03*
X252033Y234629D03*
X254593Y267898D03*
X226443Y257662D03*
X249474Y249985D03*
X244356Y234630D03*
Y249985D03*
X241797Y249984D03*
X236679Y265338D03*
X241797Y247426D03*
X231562Y280692D03*
X252033Y280693D03*
X229003Y280692D03*
X244356D03*
X239238Y283251D03*
Y285810D03*
X218767Y267898D03*
X216208Y267897D03*
X221326Y265338D03*
X218767Y265339D03*
X216208Y265338D03*
X246915Y278133D03*
X236679Y234630D03*
X242000Y226200D03*
X211090Y249985D03*
X239238Y290929D03*
X208530Y252544D03*
X211090D03*
X203412Y249984D03*
X205971Y232070D03*
Y249984D03*
X203412Y252543D03*
X205971D03*
X211090Y237190D03*
X208530Y242308D03*
X211090D03*
X203412Y237189D03*
X205971D03*
X203137Y234571D03*
X205971Y234629D03*
X208530Y237190D03*
X221326Y239749D03*
X211090D03*
X208530D03*
X218767Y244867D03*
X249474Y239749D03*
X236679Y280692D03*
X241797D03*
X249474Y283251D03*
X244356Y247426D03*
X231562Y234630D03*
Y288370D03*
X213649D03*
X211090Y275574D03*
X231562Y247426D03*
X320472Y248405D03*
Y273995D03*
X311623D03*
X295867Y271430D03*
X283268Y276554D03*
X311023Y248405D03*
X216208Y283251D03*
X205600Y293900D03*
X223885Y278133D03*
X221326D03*
X283200Y248400D03*
X295367Y250964D03*
X203412Y255102D03*
X205971D03*
X213649Y265338D03*
X211090Y262779D03*
Y265338D03*
X208530D03*
X216208Y247426D03*
X218767Y249985D03*
X216208D03*
X246915Y288370D03*
X244356D03*
X211090Y278133D03*
X213649Y275574D03*
X202700Y270400D03*
X203412Y275574D03*
X205971D03*
X213649Y273015D03*
X211090D03*
X218767Y278133D03*
X239239Y288370D03*
X241797D03*
X249474Y285811D03*
Y288370D03*
X264829Y244867D03*
X314172Y250964D03*
X311023Y253523D03*
Y268878D03*
X262270Y278133D03*
X267388Y267897D03*
X299322Y264822D03*
X205850Y286150D03*
X216208Y288370D03*
X264829Y285811D03*
X267388Y249985D03*
X286400Y250970D03*
X307874Y268877D03*
X288849Y279113D03*
X269100Y278500D03*
X314172Y271436D03*
X229003Y285810D03*
X311023Y271436D03*
X267388Y275574D03*
X307940Y253589D03*
X249474Y237190D03*
X206200Y245100D03*
X249474Y278133D03*
X208530Y234629D03*
X257151Y257662D03*
X218766Y275574D03*
X216208Y273015D03*
X252033Y247426D03*
X211090Y283251D03*
X205964Y283258D03*
X208530Y283251D03*
X211090Y285810D03*
Y280692D03*
X236679Y278133D03*
Y237190D03*
X239238Y239749D03*
X216300Y228800D03*
X236679Y239749D03*
X241797D03*
X239238Y237190D03*
X229003Y244867D03*
X231568Y239755D03*
X229003Y239749D03*
X211090Y288370D03*
X213649Y278133D03*
X208530Y280692D03*
X231562Y242308D03*
X200100Y228500D03*
X244356Y242308D03*
X246916Y244867D03*
X226444Y239749D03*
Y237190D03*
Y242308D03*
X203800Y229100D03*
X246915Y242308D03*
X244356Y239749D03*
X246915D03*
X231562Y278133D03*
X236679Y244867D03*
X244357D03*
X241797Y237189D03*
X244356Y237190D03*
X257145Y260227D03*
X246915Y237190D03*
X262270Y262779D03*
X241797Y234630D03*
X257151Y262779D03*
X231562Y237190D03*
X223885Y280692D03*
X226443Y278133D03*
X216208Y275574D03*
X246915Y252544D03*
X213649Y255102D03*
X249474Y273015D03*
Y270456D03*
Y267897D03*
Y265338D03*
X246915D03*
X249474Y262779D03*
X246915D03*
X249474Y255103D03*
Y257662D03*
X246915Y255103D03*
Y257662D03*
X252033Y270456D03*
X254592Y275574D03*
Y278133D03*
Y249985D03*
Y255103D03*
Y252544D03*
Y244867D03*
X231562D03*
X249474Y242308D03*
X218767Y280692D03*
X213649D03*
X226444Y285810D03*
X231562Y252544D03*
Y255103D03*
X229003Y252544D03*
Y255103D03*
X223885Y252544D03*
Y255103D03*
X221326D03*
X218766D03*
X226444D03*
Y252544D03*
X218766Y257662D03*
X221325D03*
X236679Y273015D03*
X239238Y273016D03*
X236679Y270456D03*
X239238Y270457D03*
X231561Y265338D03*
X223885Y270456D03*
X226444D03*
X229003D03*
Y273015D03*
X231562Y270456D03*
Y273015D03*
X226444D03*
X223885D03*
X241797Y278133D03*
X236679Y283251D03*
X218767Y270456D03*
X229003Y283251D03*
X231562D03*
X226444Y244867D03*
X218767Y239749D03*
X221326Y242308D03*
X203412Y273015D03*
X205971D03*
X229003Y242308D03*
X223885Y237190D03*
X208530Y278133D03*
X203905Y260710D03*
X229003Y278133D03*
X226444Y280692D03*
X236679Y285810D03*
X239238Y278133D03*
X226444Y283251D03*
X221326D03*
G54D31*
X141732Y196850D03*
X299212D03*
G54D38*
X77650Y177595D03*
X155337Y163553D03*
X83507Y134000D03*
X83050Y207850D03*
X53816Y112984D03*
X107900Y148700D03*
X114500Y148500D03*
X70950Y191550D03*
X100700Y207900D03*
X131313Y208012D03*
X88384Y114500D03*
X36684Y91616D03*
X13284Y92016D03*
X65945Y200555D03*
X83000Y204200D03*
X146900Y149300D03*
X147800Y146400D03*
X151900Y145800D03*
X156200Y145900D03*
X158900Y148300D03*
X187518Y93946D03*
X164950Y113430D03*
X178000Y113900D03*
X85800Y77200D03*
X80500Y55500D03*
X85300Y55600D03*
X186800Y214800D03*
X149300Y199625D03*
X151400Y177126D03*
X174084Y50784D03*
X156200Y196900D03*
X39633Y151933D03*
X118320Y25520D03*
X118400Y38080D03*
X15367Y181067D03*
X87300Y156800D03*
X86300Y153600D03*
X83600Y152900D03*
X177064Y63200D03*
X177100Y67500D03*
X27800Y103000D03*
X4800Y102800D03*
X145900Y73100D03*
X168500Y133400D03*
X132500Y40900D03*
X130600Y43600D03*
X133800D03*
X137100D03*
X138900Y41200D03*
X135700Y41000D03*
X80400Y33500D03*
X99500D03*
X148400Y63400D03*
X143803Y81989D03*
X148744Y60051D03*
X150900Y61900D03*
X159100Y57200D03*
X35017Y184000D03*
X69100Y80200D03*
X74064Y78333D03*
X75000Y68900D03*
X75200Y73500D03*
X83200Y127011D03*
X103400Y90900D03*
X138000Y101700D03*
X136900Y104300D03*
X85364Y99833D03*
X86500Y95000D03*
X88500Y87000D03*
X81700Y85400D03*
X81500Y80800D03*
X84900Y87300D03*
X84700Y82700D03*
X105342Y184861D03*
X127400Y184800D03*
X181700Y82000D03*
X132700Y204300D03*
X164700Y42750D03*
X64551Y110949D03*
X104700Y98600D03*
X73992Y205908D03*
X19700Y45700D03*
X19800Y51400D03*
X16400Y60700D03*
X23100Y61200D03*
X71991Y101539D03*
X168200Y79995D03*
X32700Y26800D03*
X27900Y22900D03*
X23500Y24800D03*
X28300Y28700D03*
X34100Y22600D03*
X38900Y26500D03*
X32700Y19600D03*
X37500Y23500D03*
X62868Y115000D03*
X62951Y103500D03*
X20400Y83200D03*
X11400Y82400D03*
X6900Y54500D03*
X9800Y26300D03*
X7200Y43900D03*
X3700Y26400D03*
X83600Y168400D03*
X158600Y63300D03*
X166416Y87784D03*
X193700Y116800D03*
X197380Y156172D03*
X142400Y159400D03*
X142600Y156600D03*
X77650Y197400D03*
X59800Y200700D03*
X48666Y187565D03*
X92984Y125290D03*
X182200Y114720D03*
X39800Y181300D03*
X46489Y145404D03*
X72505Y146500D03*
X48380Y109520D03*
X26200Y109100D03*
X47060Y160388D03*
X165000Y382200D03*
X139500Y324200D03*
X128408Y273595D03*
X152005Y254196D03*
X166537Y271664D03*
X155942Y254259D03*
X166584Y264617D03*
Y278617D03*
X132300Y259400D03*
X31200Y298700D03*
X190500Y304400D03*
X21400Y294300D03*
X107957Y384584D03*
X85391Y302226D03*
X32416Y366016D03*
X133416Y331245D03*
X123512Y277100D03*
X99500Y289367D03*
X98625Y264956D03*
X156716Y249800D03*
X35140Y297760D03*
X79100Y339200D03*
X149700Y363571D03*
X144300Y385100D03*
X147791Y385081D03*
X168724Y373315D03*
X28600Y295400D03*
X107351Y294600D03*
X185700Y380500D03*
X32040Y301540D03*
X80700Y370800D03*
X72942Y370213D03*
X77600Y221822D03*
X86100Y225500D03*
X63960Y286800D03*
X153100Y378329D03*
X43949Y389165D03*
X48765D03*
X97949Y374301D03*
X84241Y388323D03*
X37507Y389093D03*
X197350Y305150D03*
X79151Y324449D03*
X131487Y328887D03*
X75879Y302300D03*
X176214Y246559D03*
X152425Y222600D03*
X55300Y296252D03*
X125600Y230775D03*
X99800Y231500D03*
X47000Y306700D03*
X86093Y310374D03*
X53900Y311800D03*
X93684Y324700D03*
X79250Y318150D03*
X127369Y322174D03*
X121714Y330953D03*
X128775Y335175D03*
X53652Y321300D03*
X66400Y327748D03*
X75849D03*
X63152Y302300D03*
X84700Y333300D03*
X124213Y335587D03*
X185500Y370200D03*
X93300Y236200D03*
X69490Y221321D03*
X114779Y326479D03*
X134900Y308900D03*
X78129Y288073D03*
X4200Y364700D03*
X3800Y389200D03*
X13600Y389300D03*
X17800Y376000D03*
X25400Y366900D03*
X85900Y367200D03*
X79800Y366700D03*
X8700Y389400D03*
X91500Y389600D03*
X87800Y382300D03*
X92200Y364200D03*
X46300Y361000D03*
X25000Y359000D03*
X4000Y376700D03*
X99500Y389700D03*
X106900Y389600D03*
X113700Y389700D03*
X120600D03*
X127400Y389800D03*
X134400D03*
X141500D03*
X148200Y389900D03*
X157900Y380500D03*
X155500Y375800D03*
X192100Y389900D03*
X192000Y382900D03*
X191900Y376620D03*
X142700Y365100D03*
X145600Y362500D03*
X177000Y358684D03*
X183716Y358900D03*
X79148Y308701D03*
X85200Y306026D03*
X50600Y297002D03*
X85208Y317740D03*
X58700Y302300D03*
X74100Y252200D03*
X71086Y251314D03*
X67700Y251100D03*
X63700Y247800D03*
X100400Y305999D03*
X198900Y389900D03*
X198600Y378200D03*
X327800Y27100D03*
X243757Y189468D03*
X228009Y190500D03*
X229400Y146400D03*
X330300Y184600D03*
X291500Y208500D03*
X303200Y65500D03*
X224400Y79600D03*
X220284Y86200D03*
X253459Y82159D03*
X228802Y75998D03*
X200130Y118160D03*
X312200Y24300D03*
X274200Y140900D03*
X310584Y105800D03*
X298700Y83400D03*
X272200Y82100D03*
X285514Y143254D03*
Y138530D03*
Y133800D03*
Y129081D03*
X222100Y81400D03*
X329200Y44400D03*
X219900Y77900D03*
X318400Y36500D03*
X217600Y85400D03*
X200200Y131886D03*
X310623Y37677D03*
X257500Y108269D03*
X223259Y90779D03*
X248558Y114400D03*
X277400Y268500D03*
X324900Y241500D03*
X277400Y234500D03*
Y275600D03*
X278497Y254108D03*
X277600Y244600D03*
X323900Y289200D03*
Y284300D03*
X202088Y219085D03*
X302700Y318143D03*
X297700Y325700D03*
X306900Y321800D03*
X326100Y339500D03*
X235272Y386900D03*
X251272D03*
X219972Y386800D03*
X260328Y374000D03*
X285600Y326420D03*
X245840Y222550D03*
X247700Y314700D03*
X257000Y350300D03*
X260251Y340451D03*
X246700Y346984D03*
X292900Y313200D03*
X311269Y313236D03*
X250100Y336100D03*
X270943Y350243D03*
X242728Y389459D03*
X229500Y365200D03*
X244700Y364916D03*
X263100Y371441D03*
X226728Y389459D03*
X220800Y365400D03*
X238500Y365000D03*
X258414Y378842D03*
X326700Y329900D03*
X282100Y312900D03*
X232400Y221100D03*
X252900Y362278D03*
X291400Y349000D03*
X284300Y339600D03*
X308602Y378571D03*
X236234Y302660D03*
X270000Y357000D03*
X319800Y336800D03*
X312900Y378796D03*
X326000D03*
X321637Y378800D03*
X304300Y378696D03*
X299900Y378500D03*
X295600Y378696D03*
X330700Y354940D03*
X330762Y347750D03*
X275883Y361467D03*
X276000Y382800D03*
X301600Y390100D03*
X310700D03*
X306200Y390000D03*
X315700Y390100D03*
X306600Y385600D03*
X302100D03*
X330671Y380327D03*
X330800Y367900D03*
X276513Y352500D03*
X202300Y368100D03*
X270700Y376256D03*
X270900Y360276D03*
X270200Y389500D03*
X217228Y389600D03*
X248528Y389800D03*
X232528Y389700D03*
X257900Y389600D03*
X208600Y390000D03*
X259500Y386500D03*
X158912Y20312D03*
X178312D03*
X185200Y5000D03*
X280900Y5300D03*
X266800Y39000D03*
G54D32*
X25808Y166500D03*
X7697D03*
G54D44*
X243100Y68787D03*
X253100D03*
X263100D03*
X273100D03*
X283100D03*
G54D43*
X35483Y343367D03*
X111783Y343267D03*
G54D36*
X91421Y164680D03*
X95863Y23993D03*
X103737D03*
G54D47*
X152756Y29726D03*
X150394Y10435D03*
X209842Y29726D03*
X212205Y10435D03*
G54D37*
X176500Y188512D03*
X111279Y183679D03*
X121121Y182421D03*
X168550Y175550D03*
X194100Y174600D03*
X168900Y164584D03*
X166200Y198200D03*
X64500Y157112D03*
X47000Y170400D03*
X172600Y167600D03*
X108100Y165100D03*
X125800Y203221D03*
X157100Y156200D03*
X187700Y133000D03*
X186100Y182381D03*
X191600Y142600D03*
X79500Y128610D03*
X61396Y140896D03*
X65200Y145700D03*
X49112Y128400D03*
Y125200D03*
X55100Y151784D03*
X66600Y150016D03*
X193900Y326700D03*
X164814Y350686D03*
X122500Y221700D03*
X125000Y223700D03*
X126800Y221100D03*
X166186Y299638D03*
X191600Y268300D03*
X142200Y301800D03*
X195216Y218484D03*
X89819Y302281D03*
X70476Y286300D03*
X156100Y298800D03*
X171751Y281285D03*
X192800Y372100D03*
X133300Y302700D03*
X104400Y219500D03*
X116100Y224700D03*
X112000Y224300D03*
X121100Y225900D03*
X113300Y287500D03*
X197200Y261362D03*
X50000Y330800D03*
X68198Y296602D03*
X73300Y297000D03*
X77600Y297200D03*
X79755Y327345D03*
X117389Y271900D03*
X155804Y288200D03*
X149400Y324800D03*
X102600Y317800D03*
X152505Y324309D03*
X33300Y307100D03*
X100338Y300192D03*
X93704Y301596D03*
X277700Y178800D03*
X266450Y203250D03*
X248746Y203946D03*
X232355Y198100D03*
X288012Y197800D03*
X289600Y193400D03*
X291253Y197900D03*
X294461Y197968D03*
X292841Y193400D03*
X229704Y195804D03*
X241970Y206300D03*
X234900Y153000D03*
X237900Y200300D03*
X284800Y168784D03*
X205377Y216123D03*
X281600Y159200D03*
X282500Y205700D03*
X234500Y217500D03*
X278600Y205900D03*
X236200Y214100D03*
Y194000D03*
X245358Y195455D03*
X259600Y187200D03*
X256845Y178045D03*
X252013Y148588D03*
X260541Y111041D03*
X279200Y201488D03*
X276800Y133200D03*
X250478Y128222D03*
X231500Y121400D03*
X235900Y121210D03*
X278385Y184073D03*
X244935Y132100D03*
X238300Y127000D03*
X234779Y76721D03*
X240900Y132600D03*
X230400Y211100D03*
X243500Y144300D03*
X268691Y117291D03*
X253000Y120200D03*
X249663Y211000D03*
X222723Y195577D03*
X224520Y208800D03*
X272600Y268400D03*
X265500Y319500D03*
X272500Y319000D03*
X274200Y350600D03*
X201001Y296072D03*
X260296Y307304D03*
X218600Y322000D03*
X214500Y347295D03*
X244028Y341828D03*
X205200Y311300D03*
X321637Y371516D03*
X299937Y371316D03*
X325937Y371416D03*
X295577Y371176D03*
X210970Y218100D03*
X228400Y298600D03*
X304237Y371416D03*
X226300Y322100D03*
X215277Y307977D03*
X257200Y329200D03*
X213200Y299200D03*
X227300Y222500D03*
X310200Y385200D03*
X199900Y5100D03*
X160200Y5200D03*
X254400Y5400D03*
X246400Y47400D03*
G54D42*
X43357Y343367D03*
X27609D03*
X31546Y349273D03*
X39420D03*
X119657Y343267D03*
X103909D03*
X107846Y349173D03*
X115720D03*
G54D40*
X150197Y332983D03*
G54D34*
X54937Y63945D03*
X64937D03*
G54D33*
X43308Y15732D03*
X59057D03*
X288100Y58787D03*
G54D50*
X234675Y45795D03*
X296500D03*
G54D46*
X267155Y383565D03*
X205344D03*
G54D49*
X249458Y17803D03*
X281781D03*
X239439D03*
X291840D03*
G54D35*
X15748Y196850D03*
Y15748D03*
Y320866D03*
X318898Y15748D03*
Y196850D03*
Y320866D03*
G54D48*
X243100Y33787D03*
X288100D03*
G54D41*
X61349Y357147D03*
G54D30*
X162090Y376168D03*
%LPD*%
G75*
G54D10*
X141732Y196850D03*
X299212D03*
G54D20*
X309831Y80581D03*
G54D11*
X7697Y175949D03*
Y157051D03*
G54D21*
X288100Y58787D03*
G54D12*
X25808Y166500D03*
X7697D03*
G54D13*
X15748Y196850D03*
Y15748D03*
Y320866D03*
X318898Y15748D03*
Y196850D03*
Y320866D03*
G54D22*
X234675Y45795D03*
X296500D03*
G54D23*
G01X-88521Y-43540D02*
Y-139740D01*
G01D02*
X386979D01*
G01X-88521Y-118740D02*
X405279D01*
G01X-88521Y-98740D02*
X405279D01*
G01X-88521Y-78740D02*
X405279D01*
G01X-88521Y-59540D02*
X405279D01*
G01X-88521Y-43540D02*
X386979D01*
G01X386179Y-139740D02*
X405279D01*
Y-43540D01*
X385879D01*
G54D14*
X91421Y164680D03*
G54D24*
G01X127000Y14400D02*
Y17121D01*
G01X124279Y14400D02*
X127000D01*
G01D02*
X129721D01*
G01X288100Y55285D02*
Y58787D01*
G01D02*
Y62289D01*
G01X284598Y58787D02*
X288100D01*
G01D02*
X291602D01*
G01X309831Y80581D02*
Y83433D01*
G01X307179Y80581D02*
X309831D01*
G54D15*
X152756Y29726D03*
X150394Y10435D03*
X209842Y29726D03*
X212205Y10435D03*
G54D25*
G01X150394Y6183D02*
Y10435D01*
G01D02*
Y14687D01*
G01X146142Y10435D02*
X150394D01*
G01D02*
X154646D01*
G54D16*
X127000Y4400D03*
G54D26*
G01X91421Y160928D02*
Y164680D01*
G01D02*
Y168432D01*
G01X87669Y164680D02*
X91421D01*
G01D02*
X95173D01*
G01X15748Y8996D02*
Y15748D01*
G01D02*
Y22500D01*
G01X8996Y15748D02*
X15748D01*
G01D02*
X22500D01*
G01X10824Y191926D02*
X15748Y196850D01*
G01D02*
X20672Y201774D01*
G01X10824D02*
X15748Y196850D01*
G01D02*
X20672Y191926D01*
G01X152756Y25474D02*
Y29726D01*
G01D02*
Y33978D01*
G01X148504Y29726D02*
X152756D01*
G01D02*
X157008D01*
G01X15748Y314114D02*
Y320866D01*
G01D02*
Y327618D01*
G01X8996Y320866D02*
X15748D01*
G01D02*
X22500D01*
G01X318898Y190098D02*
Y196850D01*
G01D02*
Y203602D01*
G01X312146Y196850D02*
X318898D01*
G01D02*
X325650D01*
G01X318898Y8996D02*
Y15748D01*
G01D02*
Y22500D01*
G01X312146Y15748D02*
X318898D01*
G01D02*
X325650D01*
G01X296500Y40893D02*
Y45795D01*
G01D02*
Y50697D01*
G01X291598Y45795D02*
X296500D01*
G01D02*
X301402D01*
G01X234675Y40893D02*
Y45795D01*
G01D02*
Y50697D01*
G01X229773Y45795D02*
X234675D01*
G01D02*
X239577D01*
G01X212205Y6183D02*
Y10435D01*
G01D02*
Y14687D01*
G01X207953Y10435D02*
X212205D01*
G01D02*
X216457D01*
G01X209842Y25474D02*
Y29726D01*
G01D02*
Y33978D01*
G01X205590Y29726D02*
X209842D01*
G01D02*
X214094D01*
G01X318898Y314114D02*
Y320866D01*
G01D02*
Y327618D01*
G01X312146Y320866D02*
X318898D01*
G01D02*
X325650D01*
G54D17*
X127000Y14400D03*
Y9400D03*
G54D27*
G01X98003Y349173D02*
Y352425D01*
G01X94751Y349173D02*
X98003D01*
G01D02*
X101255D01*
G01X111783Y340015D02*
Y343267D01*
G01D02*
Y346519D01*
G01X108531Y343267D02*
X111783D01*
G01D02*
X115035D01*
G01X21703Y349273D02*
Y352525D01*
G01X18451Y349273D02*
X21703D01*
G01D02*
X24955D01*
G01X35483Y340115D02*
Y343367D01*
G01D02*
Y346619D01*
G01X32231Y343367D02*
X35483D01*
G01D02*
X38735D01*
G54D18*
X138900Y208012D03*
X160027Y194327D03*
X172100Y190100D03*
X176500Y188512D03*
X191794Y164006D03*
X111279Y183679D03*
X121121Y182421D03*
X168550Y175550D03*
X194100Y174600D03*
X193600Y165100D03*
X172000Y181500D03*
X170100Y194800D03*
X169904Y192204D03*
X189200Y164100D03*
X168900Y164584D03*
X166200Y198200D03*
X195400Y150400D03*
X64500Y157112D03*
X47000Y170400D03*
X99500Y194587D03*
X172600Y167600D03*
X108100Y165100D03*
X186463Y66900D03*
X192989Y70907D03*
X125800Y203221D03*
X190400Y65100D03*
X157100Y156200D03*
X187700Y133000D03*
X186100Y182381D03*
X166108Y193708D03*
X169400Y189400D03*
X167634Y191387D03*
X191600Y142600D03*
X190600Y104500D03*
X190585Y107973D03*
Y100973D03*
X194000Y104500D03*
Y107900D03*
Y100900D03*
X186900Y104600D03*
Y108200D03*
Y100800D03*
X41500Y61514D03*
X35800D03*
X38700Y61500D03*
X158485Y99073D03*
X154800Y99100D03*
X162200D03*
Y102700D03*
X154800D03*
X158485Y102673D03*
X162200Y95300D03*
X154800D03*
X158485Y95273D03*
X116200Y198300D03*
X108700D03*
X123700D03*
X112200D03*
X120300D03*
Y202200D03*
X123700D03*
X112200D03*
X108700D03*
X116200D03*
X120300Y205800D03*
X123700D03*
X112200D03*
X108700D03*
X116200D03*
X120300Y194700D03*
X123700D03*
X112200D03*
X108700D03*
X116200D03*
X120300Y190900D03*
X123700D03*
X112200D03*
X108700D03*
X116200D03*
X125300Y141900D03*
X134400Y142100D03*
X129500Y141900D03*
X124900Y136000D03*
X127100D03*
X66700Y96400D03*
X68200Y94400D03*
X69200Y97200D03*
X66800Y99000D03*
X78800Y113300D03*
X185300Y157000D03*
X186000Y151963D03*
X186900Y159454D03*
X189000Y157100D03*
X191500Y154000D03*
X57700Y168500D03*
X61500D03*
X54000D03*
X65100D03*
X61500Y172100D03*
X57700D03*
X65100D03*
X54000D03*
X61500Y175700D03*
X57700D03*
X65100D03*
X54000D03*
X61500Y164900D03*
X57700D03*
X65100D03*
X54000D03*
X183261Y166400D03*
X185654Y168854D03*
X180800Y168900D03*
Y163800D03*
X185654Y163754D03*
X183300Y159454D03*
X180100D03*
X180254Y174254D03*
X177800Y174300D03*
X41000Y90200D03*
X4800D03*
X68500Y47100D03*
X68300Y40000D03*
X66700Y43500D03*
Y50100D03*
X180315Y32115D03*
X197500Y30900D03*
X184000Y44600D03*
X195300Y46000D03*
X168900Y54187D03*
X171600Y54400D03*
X173156Y76588D03*
X164567Y116400D03*
X145250Y195318D03*
X145100Y198382D03*
X84100Y177600D03*
X50400Y215500D03*
X48300Y213400D03*
X54200Y215900D03*
X51800Y213000D03*
X56400D03*
X61150Y213200D03*
X66500Y212588D03*
X72200Y213200D03*
X78400Y212900D03*
X72000Y216600D03*
X64180Y216466D03*
X44644Y68200D03*
Y65300D03*
X44582Y62500D03*
X40000Y59600D03*
X43600Y60100D03*
X76200Y115900D03*
Y113300D03*
X78800Y115900D03*
X73600Y115800D03*
X71000Y113200D03*
Y115800D03*
X73600Y113200D03*
X73700Y110700D03*
X71100Y108100D03*
Y110700D03*
X73700Y108100D03*
X78800D03*
X76200Y110700D03*
Y108100D03*
X78800Y110700D03*
X131600Y120900D03*
X129000Y118300D03*
Y120900D03*
X131600Y118300D03*
X131500Y115700D03*
X128900Y113100D03*
Y115700D03*
X131500Y113100D03*
X126300Y118300D03*
X123700Y120900D03*
Y118300D03*
X126300Y120900D03*
X126400Y113100D03*
X123800Y115700D03*
X124400Y113900D03*
X126400Y115700D03*
X128000Y138300D03*
X72343Y114547D03*
X77559D03*
Y109331D03*
X72343D03*
X130258Y119608D03*
X125042D03*
X130258Y114392D03*
X116300Y170900D03*
X116400Y168400D03*
X116100Y181300D03*
X119500Y93700D03*
X123300Y92300D03*
X121800Y95000D03*
X40800Y211500D03*
X43600Y211600D03*
X46200Y211700D03*
X49100Y210800D03*
X76700Y211000D03*
X105000Y4400D03*
X61300Y4800D03*
X21600Y6300D03*
X67100Y20100D03*
X4400Y150800D03*
X33500Y202800D03*
X24000Y207000D03*
X4500Y206600D03*
X199900Y5100D03*
X160200Y5200D03*
X80500Y5800D03*
X82800Y18400D03*
X56000Y31300D03*
X26800Y94500D03*
X16600Y95200D03*
X101400Y130900D03*
X161000Y131600D03*
X97400Y99500D03*
X24300Y143200D03*
X46100Y203000D03*
X170300Y156700D03*
X45900Y81000D03*
X114400Y59600D03*
X93900Y43800D03*
X90700Y45500D03*
X66800Y133500D03*
X72600D03*
X69602Y130199D03*
X64100Y133500D03*
X69600D03*
X49073Y133673D03*
X31400Y122700D03*
Y118000D03*
X49300Y123000D03*
X191600Y49400D03*
X184600Y50600D03*
X176400Y42600D03*
X190800Y56400D03*
X195100Y60700D03*
X198000Y55300D03*
X198900Y81200D03*
X77700Y175200D03*
X71500Y174700D03*
X82500Y170500D03*
X74800Y163400D03*
X71600Y166400D03*
X76000Y168800D03*
X91097Y177503D03*
X62000Y157000D03*
X53720Y156900D03*
X35800Y157000D03*
X3800Y185200D03*
X198596Y192504D03*
X79500Y128610D03*
X61396Y140896D03*
X73000Y118600D03*
X70100D03*
X65200Y145700D03*
X5400Y136026D03*
X49112Y128400D03*
X5398Y138252D03*
X49112Y125200D03*
X55100Y151784D03*
X66600Y150016D03*
X119700Y266823D03*
Y269262D03*
X193900Y326700D03*
X164814Y350686D03*
X186800Y315100D03*
X183700Y318900D03*
X186700Y319500D03*
X122500Y221700D03*
X125000Y223700D03*
X126800Y221100D03*
X166186Y299638D03*
X191600Y268300D03*
X168153Y324582D03*
X170553D03*
X185637Y324782D03*
X174063Y329524D03*
X188037Y324782D03*
X176463Y329524D03*
X114400Y244400D03*
X142200Y301800D03*
X119700Y264263D03*
X119600Y256800D03*
X195216Y218484D03*
X196100Y275300D03*
X195900Y280000D03*
Y277800D03*
X183810Y224521D03*
X119402Y259312D03*
X181410Y224521D03*
X110600Y280500D03*
X109240Y228900D03*
X110500Y283700D03*
X111600Y228300D03*
X194418Y337118D03*
X89819Y302281D03*
X70476Y286300D03*
X156100Y298800D03*
X114400Y246700D03*
X171751Y281285D03*
X165650Y282900D03*
X168250Y287250D03*
X198700Y372200D03*
X196000Y372100D03*
X192800D03*
X133300Y302700D03*
X104400Y219500D03*
X116100Y224700D03*
X112000Y224300D03*
X121100Y225900D03*
X109748Y231700D03*
X108480Y278820D03*
X106900Y231300D03*
X108200Y282088D03*
X113300Y287500D03*
X153320Y228200D03*
X159790Y231700D03*
X157390D03*
X163418Y227956D03*
X196455Y342049D03*
X181555Y346891D03*
X171172Y230918D03*
X155710Y228200D03*
X91390Y285000D03*
X93360D03*
X95330D03*
X97300D03*
X197200Y261362D03*
X169900D03*
X190545Y347191D03*
X167428Y234500D03*
X152320Y233300D03*
X152400Y236000D03*
X152320Y231100D03*
X161018Y227956D03*
X198855Y342049D03*
X179155Y346891D03*
X168890Y230900D03*
X165028Y234500D03*
X192945Y347191D03*
X50000Y330800D03*
X68198Y296602D03*
X73300Y297000D03*
X77600Y297200D03*
X79755Y327345D03*
X56000Y337000D03*
X55300Y334500D03*
X117389Y271900D03*
X155804Y288200D03*
X111780Y265900D03*
X111712Y242800D03*
X109800Y235800D03*
X111800Y240300D03*
X106900Y235900D03*
X149400Y324800D03*
X102600Y317800D03*
X173000Y237200D03*
X159660Y286000D03*
X147084Y274617D03*
X151000Y274600D03*
X143200D03*
X154500D03*
X139700D03*
X151000Y278100D03*
X143200D03*
X154500D03*
X139700D03*
X147084Y278117D03*
X151000Y281600D03*
X143200D03*
X154500D03*
X139700D03*
X147084Y281617D03*
X151000Y270900D03*
X143200D03*
X154500D03*
X139700D03*
X147084Y270917D03*
X151000Y267600D03*
X143200D03*
X154500D03*
X139700D03*
X147084Y267617D03*
X157584Y271617D03*
X161584Y254117D03*
X164084Y257117D03*
X152584Y263617D03*
X157584Y266617D03*
X137900Y264212D03*
X157584Y277117D03*
X136584Y282117D03*
Y277570D03*
X157584Y282117D03*
X153974Y285727D03*
X136584Y285617D03*
X145584Y285833D03*
X66400Y315000D03*
X71400D03*
X61400D03*
X75900D03*
X71400Y319700D03*
X61400D03*
X56900D03*
X75900D03*
X66400D03*
X71400Y324400D03*
X61400D03*
X56900D03*
X75900D03*
X66400D03*
X71400Y310300D03*
X61400D03*
X56900D03*
X75900D03*
X66400D03*
X71500Y306200D03*
X61700Y306412D03*
X57500Y306200D03*
X75700D03*
X66300D03*
X95684Y305900D03*
X117500Y377800D03*
Y374100D03*
X49800Y372900D03*
Y369600D03*
X136572Y220600D03*
X120310Y285388D03*
X83400Y345200D03*
X78433Y349100D03*
Y345700D03*
X112891Y315755D03*
X116200Y310700D03*
X109600D03*
X116000Y318900D03*
X109800Y318800D03*
X8450Y300350D03*
X14350D03*
X26000Y302296D03*
X46171Y286971D03*
X48800Y289598D03*
X51300Y288900D03*
X53700Y288216D03*
X56300Y289598D03*
X86666Y282439D03*
X102020D03*
Y277321D03*
X96902D03*
X91784D03*
X86666D03*
Y272203D03*
X91784D03*
X96902D03*
X102020D03*
X86666Y267085D03*
X103100Y268200D03*
X80957Y259557D03*
X74100Y268800D03*
X69800Y268900D03*
X66700Y268800D03*
X64000Y269000D03*
X61300Y269100D03*
X58400Y269000D03*
X55700Y269100D03*
X52600Y269000D03*
X49600Y268900D03*
X47300Y268000D03*
X45800Y265700D03*
X45200Y259500D03*
X45300Y257000D03*
Y254400D03*
X45200Y249000D03*
X44300Y245100D03*
X52100Y245200D03*
Y248900D03*
Y241700D03*
X44400D03*
X43900Y238700D03*
X52100Y238600D03*
Y234900D03*
X44400D03*
X43900Y231600D03*
X52100Y231700D03*
Y227800D03*
X43900D03*
X44400Y224400D03*
X52200D03*
X52100Y221200D03*
X43900Y221300D03*
X40700Y218900D03*
X51700Y218100D03*
X52100Y251700D03*
X52600Y254600D03*
X51900Y257100D03*
X52000Y260900D03*
X54600Y262900D03*
X58100Y263000D03*
X62500Y263100D03*
X66400Y262900D03*
X70200D03*
X73700Y263000D03*
X77200Y263100D03*
X40600Y222200D03*
X40500Y225900D03*
X40400Y230000D03*
Y233700D03*
X40300Y237100D03*
Y241000D03*
X41600Y247000D03*
X42300Y251800D03*
X41600Y256700D03*
X42200Y262200D03*
X41600Y267500D03*
X44400Y269400D03*
X47800Y272500D03*
X51500Y272700D03*
X54700Y272800D03*
X58000Y273100D03*
X62700Y272700D03*
X67100Y272400D03*
X72100Y269900D03*
X66300Y276300D03*
X64200Y279400D03*
X59300Y280800D03*
X55900Y277300D03*
X50400Y280500D03*
X47600Y276800D03*
X43000Y280000D03*
X41000Y275900D03*
X55400Y258700D03*
X60300Y259100D03*
X64700Y259300D03*
X68600Y259600D03*
X72300Y259800D03*
X76200D03*
X62100Y256000D03*
X57800Y255700D03*
X55000Y251900D03*
X54800Y247100D03*
X54900Y243400D03*
X54800Y240200D03*
X54600Y236800D03*
Y232900D03*
X55400Y229700D03*
Y226000D03*
Y222700D03*
X55300Y219800D03*
X76900Y218500D03*
X62600Y227300D03*
X141300Y279900D03*
X152900Y279800D03*
X149100D03*
X145000D03*
X149100Y276300D03*
X152900D03*
X145000D03*
X149200Y272500D03*
X153000D03*
X168436Y314836D03*
X170007Y313295D03*
X171639Y311639D03*
X114400Y221800D03*
X114700Y228600D03*
X114300Y231300D03*
X29300Y358900D03*
X42800Y359200D03*
X105700Y361100D03*
X117100Y363000D03*
X11300Y341100D03*
X4400Y330700D03*
X5200Y317700D03*
X23500Y312100D03*
X9300Y307200D03*
X5800Y293100D03*
X28000Y292000D03*
X160100Y366400D03*
X160630Y363570D03*
X112400Y330100D03*
Y332800D03*
X98817Y330101D03*
X98695Y332298D03*
X56000Y344300D03*
X91700Y345100D03*
X71700Y339100D03*
X76600Y337600D03*
X3400Y345200D03*
X13400Y344900D03*
X169100Y258700D03*
X152505Y324309D03*
X81700Y304600D03*
X33300Y307100D03*
X100338Y300192D03*
X93704Y301596D03*
X200500Y214000D03*
X277700Y178800D03*
X266450Y203250D03*
X248746Y203946D03*
X232355Y198100D03*
X246405Y177832D03*
X288012Y197800D03*
X228780Y216063D03*
X289600Y193400D03*
X291253Y197900D03*
X294461Y197968D03*
X292841Y193400D03*
X232300Y188900D03*
X229704Y195804D03*
X241970Y206300D03*
X234900Y153000D03*
X237900Y200300D03*
X265700Y129900D03*
X267700Y128200D03*
X284800Y168784D03*
X205377Y216123D03*
X263200Y178000D03*
X202900Y213955D03*
X281600Y159200D03*
X239800Y147100D03*
X282500Y205700D03*
X234100Y187800D03*
X234500Y217500D03*
X219623Y123238D03*
X215126Y65776D03*
X278600Y205900D03*
X236200Y214100D03*
Y194000D03*
X222000Y122800D03*
X215100Y63200D03*
X256589Y185836D03*
X253682Y181885D03*
X251800Y183357D03*
X259600Y187200D03*
X263765Y175435D03*
X261750Y174720D03*
X256845Y178045D03*
X252013Y148588D03*
X260541Y111041D03*
X279200Y201488D03*
X237000Y148200D03*
X276800Y133200D03*
X210013Y180501D03*
X211968Y179504D03*
X278385Y184073D03*
X234779Y76721D03*
X254634Y186966D03*
X240900Y132600D03*
X230400Y211100D03*
X200536Y190936D03*
X243500Y144300D03*
X202337Y152700D03*
X227077Y204823D03*
X228800Y206600D03*
X205400Y185900D03*
X206680Y182193D03*
X200749Y154800D03*
X215525Y160139D03*
X256549Y103249D03*
X264112Y127700D03*
X268691Y117291D03*
X253000Y120200D03*
X305126Y107600D03*
X303538Y109640D03*
X243323Y177777D03*
X207136Y184336D03*
X239700Y95700D03*
Y103700D03*
Y99700D03*
Y91700D03*
Y88000D03*
X235100Y103600D03*
Y87900D03*
Y91600D03*
Y99600D03*
Y95600D03*
X230800Y103500D03*
Y87800D03*
Y91500D03*
Y99500D03*
Y95500D03*
X244100Y103700D03*
Y88000D03*
Y91700D03*
Y99700D03*
Y95700D03*
X248300Y103800D03*
Y88100D03*
Y91800D03*
Y99800D03*
Y95800D03*
X204900Y62100D03*
X211500Y56700D03*
X214750Y56600D03*
X209600Y54300D03*
X208851Y81200D03*
X331100Y105200D03*
X330884Y162900D03*
X283100D03*
X302499Y184500D03*
X302800Y203400D03*
X314600Y59400D03*
X327800Y58500D03*
X331550Y36250D03*
X217922Y161149D03*
X330900Y209800D03*
X329400Y188900D03*
X309400Y186200D03*
X293600Y168800D03*
X295600Y139000D03*
X310400Y139400D03*
X330300Y100300D03*
X330500Y65300D03*
X320600Y55300D03*
X311400Y5000D03*
X284700Y77200D03*
X243300Y62700D03*
X228700Y69800D03*
X318700Y157500D03*
X329600Y156400D03*
X305600Y169900D03*
X329900Y169800D03*
X298400Y154900D03*
X313000Y143100D03*
X300900Y131800D03*
X329800Y114200D03*
X330900Y117100D03*
X315000Y101800D03*
X313700Y88600D03*
X320200Y66700D03*
X297100Y7100D03*
X327900Y5400D03*
X329900Y19700D03*
X254400Y5400D03*
X245000Y120700D03*
X246400Y47400D03*
X319900Y94400D03*
X265000Y104700D03*
X258600D03*
X260000Y100700D03*
X262300Y103000D03*
X256200Y82200D03*
X261600Y82300D03*
X272900Y73400D03*
X269600Y76700D03*
X266000Y80400D03*
X264100Y64400D03*
X266900Y63200D03*
X203720Y56800D03*
X206800Y74200D03*
X200480D03*
X204860Y87600D03*
X218012Y109400D03*
X229300Y117300D03*
X274527Y116027D03*
X250285Y117185D03*
X273200Y64000D03*
X275600Y65000D03*
X277200Y63200D03*
X273400Y59300D03*
X331419Y84300D03*
X331300Y71900D03*
X325908Y114292D03*
X228742Y142712D03*
X232600Y151400D03*
X294700Y175720D03*
X299947Y182653D03*
X298353Y190047D03*
X318900Y149900D03*
X288000Y149100D03*
X288100Y118100D03*
X317300Y118600D03*
X302900Y118300D03*
X310500Y118400D03*
X317300Y128700D03*
X317100Y139400D03*
X310000Y149500D03*
X302800Y149300D03*
X288000Y127900D03*
X302900Y139300D03*
X303000Y128000D03*
X310600Y128400D03*
X295700Y128000D03*
X295900Y118200D03*
X288300Y138700D03*
X237500Y4600D03*
X247500Y4700D03*
X257500Y4600D03*
X267500Y4700D03*
X277500Y4600D03*
X287500D03*
X227500Y10000D03*
X237500D03*
X247500D03*
X257500D03*
X267500D03*
X277500D03*
X287500D03*
X292500D03*
X227500Y15000D03*
X257500Y17500D03*
X267500D03*
X227500Y40000D03*
Y35000D03*
Y30000D03*
Y25000D03*
X257500Y27500D03*
Y32500D03*
Y42500D03*
Y47500D03*
X267500Y32500D03*
Y42500D03*
Y47500D03*
X277500Y32500D03*
Y42500D03*
Y47500D03*
X287500Y42500D03*
X296200Y28400D03*
X296300Y37900D03*
X300200Y40400D03*
X267200Y24300D03*
X247500Y42400D03*
X227500Y45000D03*
X249663Y211000D03*
X222723Y195577D03*
X224520Y208800D03*
X219600Y205900D03*
X265500Y319500D03*
X272300Y312938D03*
X272500Y319000D03*
X269400Y312980D03*
X272300Y315500D03*
X242000Y226200D03*
X222014Y333873D03*
X230284D03*
X246947Y332345D03*
X249347D03*
X241037Y333079D03*
X243437D03*
X227924Y333873D03*
X213147Y324602D03*
X210747D03*
X205600Y293900D03*
X223434Y313800D03*
X202700Y270400D03*
X228754Y218354D03*
X201001Y296072D03*
X205850Y286150D03*
X221270Y292580D03*
X206200Y245100D03*
X224374Y333873D03*
X260296Y307304D03*
X223323Y311223D03*
X221100Y311200D03*
X247500Y341657D03*
X218600Y322000D03*
X214500Y347295D03*
X244028Y341828D03*
X208700Y312200D03*
X206900Y313900D03*
X205200Y311300D03*
X216300Y228800D03*
X206400Y224400D03*
X210970Y218100D03*
X228400Y298600D03*
X247600Y338700D03*
X226300Y322100D03*
X217747Y341916D03*
X215277Y307977D03*
X211837Y341916D03*
X209437D03*
X215347D03*
X257200Y329200D03*
X291700Y327720D03*
X219000Y293000D03*
X213200Y299200D03*
X236679Y288369D03*
X251500Y306700D03*
X239238Y257662D03*
Y247426D03*
X236679Y249985D03*
X239238Y252544D03*
X236679Y255103D03*
X229003Y257662D03*
X231562D03*
X236679D03*
X231562Y249985D03*
X229003D03*
X226444Y247426D03*
Y249985D03*
X221326Y247426D03*
X213649Y262779D03*
X221326Y249985D03*
X216207Y252544D03*
X216208Y257662D03*
X229003Y267897D03*
X223885Y257662D03*
Y265338D03*
X244356D03*
Y267897D03*
X246915Y273015D03*
Y275574D03*
X252033D03*
Y278133D03*
X246915Y270456D03*
X244356Y275574D03*
Y270456D03*
Y262779D03*
Y257662D03*
X223885Y275574D03*
X226444D03*
X229003D03*
X218767Y273016D03*
X221326Y270456D03*
X223885Y267897D03*
X226444D03*
X221326Y273015D03*
X236679Y275575D03*
X252033Y232071D03*
X246915Y247426D03*
X239238Y234630D03*
X229003D03*
X211090Y255103D03*
X208530Y262779D03*
X203126Y291026D03*
X252033Y252544D03*
Y249985D03*
Y255103D03*
Y257662D03*
Y262779D03*
Y265338D03*
Y267897D03*
X213649D03*
X211090D03*
X208530Y273015D03*
X226444Y288370D03*
X205971Y229512D03*
X216208Y242308D03*
X213649Y247426D03*
X216208Y244867D03*
X252033Y229512D03*
X302600Y219550D03*
X254592Y273015D03*
X264829Y262779D03*
X257151Y270456D03*
Y290929D03*
X259710D03*
X254592Y239749D03*
X257151Y265338D03*
X259710D03*
X262270D03*
X281208Y276173D03*
X257151Y255103D03*
Y252544D03*
X270400Y280700D03*
X269400Y275574D03*
X314173Y233051D03*
X321400Y239000D03*
X320472Y245846D03*
X314173Y248405D03*
X317322D03*
X311023Y240728D03*
X304123Y243287D03*
X304723Y248405D03*
X307873Y240728D03*
X292817Y240727D03*
X298325Y245846D03*
X314173Y256082D03*
X320472Y253523D03*
X317322Y256082D03*
X311523Y258641D03*
X292717Y250964D03*
X292718Y256082D03*
X316400Y260400D03*
X314173Y266318D03*
X320472Y268877D03*
X311523Y263759D03*
X292717Y266318D03*
X286418D03*
X314173Y273995D03*
X317322D03*
X320472Y276554D03*
X320523Y281662D03*
X305023Y271436D03*
X299900D03*
X314273Y289349D03*
X308600Y291700D03*
X300400Y285500D03*
X288849Y289349D03*
X257251Y227271D03*
X322824Y236324D03*
X262270Y252544D03*
X246915Y285810D03*
X239238Y280692D03*
X241797Y285811D03*
X213649Y285810D03*
X303400Y325500D03*
X317301Y372438D03*
X235788Y364449D03*
X277680Y313700D03*
X222100Y363000D03*
X203600Y288200D03*
X282200Y377080D03*
X286500Y377000D03*
X288707Y374057D03*
X331400Y327600D03*
X331000Y318600D03*
X331200Y288400D03*
X331300Y249900D03*
X330900Y236500D03*
X320800Y309200D03*
X314200Y339600D03*
X328300Y374700D03*
X321900Y362600D03*
X326500Y353900D03*
X329800Y340700D03*
X272000Y363100D03*
X317200Y331100D03*
X303400D03*
X227300Y222500D03*
X203905Y260710D03*
X310200Y385200D03*
G54D28*
G01X-81992Y-133350D02*
Y-123350D01*
X-77242D01*
G01X-78992Y-128183D02*
X-81992D01*
G01X-71117Y-123350D02*
X-68117D01*
G01X-69617D02*
Y-133350D01*
G01X-71117D02*
X-68117D01*
G01X-62117Y-123350D02*
Y-133350D01*
X-57117D01*
G01X-52867D02*
Y-123350D01*
X-49617Y-131683D01*
X-46367Y-123350D01*
Y-133350D01*
G01X-32117Y-123350D02*
Y-133350D01*
X-27117D01*
G01X-22742D02*
X-19617Y-123350D01*
X-16492Y-133350D01*
G01X-17617Y-129850D02*
X-21617D01*
G01X-9617Y-133350D02*
Y-128850D01*
X-12117Y-123350D01*
G01X-7117D02*
X-9617Y-128850D01*
G01X2883Y-133350D02*
X-2117D01*
Y-123350D01*
X2883D01*
G01X883Y-128183D02*
X-2117D01*
G01X7883Y-133350D02*
Y-123350D01*
X11008D01*
X12008Y-123850D01*
X12633Y-124517D01*
X12883Y-125850D01*
X12633Y-127183D01*
X11883Y-128017D01*
X11008Y-128517D01*
X7883D01*
G01X11008D02*
X12883Y-133350D01*
G01X30383Y-133683D02*
X30133Y-133517D01*
Y-133183D01*
X30383Y-133017D01*
X30633Y-133183D01*
Y-133517D01*
X30383Y-133683D01*
G01Y-129184D02*
X30133Y-129017D01*
Y-128683D01*
X30383Y-128517D01*
X30633Y-128683D01*
Y-129017D01*
X30383Y-129184D01*
G01X47883Y-123350D02*
Y-133350D01*
X52883D01*
G01X57258D02*
X60383Y-123350D01*
X63508Y-133350D01*
G01X62383Y-129850D02*
X58383D01*
G01X70383Y-133350D02*
Y-128850D01*
X67883Y-123350D01*
G01X72883D02*
X70383Y-128850D01*
G01X82883Y-133350D02*
X77883D01*
Y-123350D01*
X82883D01*
G01X80883Y-128183D02*
X77883D01*
G01X87883Y-133350D02*
Y-123350D01*
X91008D01*
X92008Y-123850D01*
X92633Y-124517D01*
X92883Y-125850D01*
X92633Y-127183D01*
X91883Y-128017D01*
X91008Y-128517D01*
X87883D01*
G01X91008D02*
X92883Y-133350D01*
G01X110383Y-123350D02*
X109383Y-123683D01*
X108633Y-124517D01*
X108133Y-125517D01*
X107758Y-126850D01*
X107633Y-128350D01*
X107758Y-129850D01*
X108133Y-131183D01*
X108633Y-132184D01*
X109383Y-133017D01*
X110383Y-133350D01*
X111383Y-133017D01*
X112133Y-132184D01*
X112633Y-131183D01*
X113008Y-129850D01*
X113133Y-128350D01*
X113008Y-126850D01*
X112633Y-125517D01*
X112133Y-124517D01*
X111383Y-123683D01*
X110383Y-123350D01*
G01X118258Y-132184D02*
X119133Y-133017D01*
X120133Y-133350D01*
X121133Y-133017D01*
X122008Y-132017D01*
X122633Y-130517D01*
X122883Y-129017D01*
Y-127183D01*
X122633Y-125683D01*
X122008Y-124350D01*
X121258Y-123683D01*
X120383Y-123350D01*
X119383Y-123683D01*
X118633Y-124350D01*
X118133Y-125350D01*
X117883Y-126684D01*
X118133Y-127850D01*
X118758Y-129017D01*
X119508Y-129684D01*
X120383Y-129850D01*
X121383Y-129517D01*
X122133Y-128683D01*
X122883Y-127183D01*
G01X126633Y-136683D02*
X134133D01*
G01X141133Y-128350D02*
X143633D01*
Y-131350D01*
X142883Y-132350D01*
X142008Y-133017D01*
X140758Y-133350D01*
X139508Y-133017D01*
X138633Y-132350D01*
X137883Y-131350D01*
X137383Y-130183D01*
X137133Y-128850D01*
Y-127683D01*
X137383Y-126684D01*
X137883Y-125517D01*
X138633Y-124517D01*
X139383Y-123850D01*
X140383Y-123350D01*
X141258D01*
X142258Y-123683D01*
X143008Y-124350D01*
G01X147508Y-133350D02*
Y-123350D01*
X153258Y-133350D01*
Y-123350D01*
G01X157633Y-133350D02*
Y-123350D01*
X160133D01*
X161133Y-123850D01*
X161883Y-124517D01*
X162508Y-125517D01*
X163008Y-126684D01*
X163133Y-128350D01*
X163008Y-130017D01*
X162508Y-131183D01*
X161883Y-132184D01*
X161133Y-132850D01*
X160133Y-133350D01*
X157633D01*
G01X167633Y-131350D02*
X168383Y-132517D01*
X169383Y-133183D01*
X170508Y-133350D01*
X171508Y-133183D01*
X172508Y-132350D01*
X173133Y-131350D01*
X173258Y-130350D01*
X173008Y-129184D01*
X172133Y-128350D01*
X171258Y-128017D01*
X170133D01*
G01X171258D02*
X172008Y-127517D01*
X172633Y-126684D01*
X172883Y-125683D01*
X172633Y-124683D01*
X172008Y-123850D01*
X170883Y-123350D01*
X169758Y-123517D01*
X168633Y-124183D01*
G01X-82771Y-114040D02*
Y-104040D01*
X-79771D01*
X-78771Y-104540D01*
X-78021Y-105707D01*
X-77771Y-107040D01*
X-78021Y-108373D01*
X-78646Y-109373D01*
X-79771Y-109874D01*
X-82771D01*
G01X-73396Y-114040D02*
X-70271Y-104040D01*
X-67146Y-114040D01*
G01X-68271Y-110540D02*
X-72271D01*
G01X-62771Y-114040D02*
Y-104040D01*
X-59646D01*
X-58646Y-104540D01*
X-58021Y-105207D01*
X-57771Y-106540D01*
X-58021Y-107873D01*
X-58771Y-108707D01*
X-59646Y-109207D01*
X-62771D01*
G01X-59646D02*
X-57771Y-114040D01*
G01X-50271Y-104040D02*
Y-114040D01*
G01X-53146Y-104040D02*
X-47396D01*
G01X-33146Y-114040D02*
Y-104040D01*
X-27396Y-114040D01*
Y-104040D01*
G01X-20271Y-114040D02*
X-21271Y-113873D01*
X-22146Y-113207D01*
X-22896Y-112207D01*
X-23396Y-111040D01*
X-23646Y-109707D01*
Y-108373D01*
X-23396Y-107040D01*
X-22896Y-105873D01*
X-22146Y-104873D01*
X-21271Y-104207D01*
X-20271Y-104040D01*
X-19271Y-104207D01*
X-18396Y-104873D01*
X-17646Y-105873D01*
X-17146Y-107040D01*
X-16896Y-108373D01*
Y-109707D01*
X-17146Y-111040D01*
X-17646Y-112207D01*
X-18396Y-113207D01*
X-19271Y-113873D01*
X-20271Y-114040D01*
G01X-12521Y-114373D02*
X-8021Y-104040D01*
G01X2479Y-104873D02*
X1729Y-104373D01*
X854Y-104040D01*
X-146D01*
X-1271Y-104540D01*
X-2146Y-105373D01*
X-2771Y-106373D01*
X-3271Y-108040D01*
X-3396Y-109540D01*
X-3146Y-111040D01*
X-2771Y-112040D01*
X-2021Y-113040D01*
X-1146Y-113707D01*
X-271Y-114040D01*
X604D01*
X1479Y-113707D01*
X2229Y-113207D01*
X2854Y-112540D01*
G01X6604Y-114040D02*
X9729Y-104040D01*
X12854Y-114040D01*
G01X11729Y-110540D02*
X7729D01*
G01X17229Y-114040D02*
Y-104040D01*
X20354D01*
X21354Y-104540D01*
X21979Y-105207D01*
X22229Y-106540D01*
X21979Y-107873D01*
X21229Y-108707D01*
X20354Y-109207D01*
X17229D01*
G01X20354D02*
X22229Y-114040D01*
G01X26979D02*
Y-104040D01*
X29479D01*
X30479Y-104540D01*
X31229Y-105207D01*
X31854Y-106207D01*
X32354Y-107374D01*
X32479Y-109040D01*
X32354Y-110707D01*
X31854Y-111873D01*
X31229Y-112874D01*
X30479Y-113540D01*
X29479Y-114040D01*
X26979D01*
G01X47229D02*
Y-104040D01*
X50354D01*
X51354Y-104540D01*
X51979Y-105207D01*
X52229Y-106540D01*
X51979Y-107873D01*
X51229Y-108707D01*
X50354Y-109207D01*
X47229D01*
G01X50354D02*
X52229Y-114040D01*
G01X62229D02*
X57229D01*
Y-104040D01*
X62229D01*
G01X60229Y-108873D02*
X57229D01*
G01X67354Y-114040D02*
Y-104040D01*
X72104D01*
G01X70354Y-108873D02*
X67354D01*
G01X79729Y-114373D02*
X79479Y-114207D01*
Y-113873D01*
X79729Y-113707D01*
X79979Y-113873D01*
Y-114207D01*
X79729Y-114373D01*
G01Y-109874D02*
X79479Y-109707D01*
Y-109373D01*
X79729Y-109207D01*
X79979Y-109373D01*
Y-109707D01*
X79729Y-109874D01*
G01X86604Y-114040D02*
X89729Y-104040D01*
X92854Y-114040D01*
G01X91729Y-110540D02*
X87729D01*
G01X97229Y-114040D02*
Y-104040D01*
X100354D01*
X101354Y-104540D01*
X101979Y-105207D01*
X102229Y-106540D01*
X101979Y-107873D01*
X101229Y-108707D01*
X100354Y-109207D01*
X97229D01*
G01X100354D02*
X102229Y-114040D01*
G01X107229D02*
Y-104040D01*
X110354D01*
X111354Y-104540D01*
X111979Y-105207D01*
X112229Y-106540D01*
X111979Y-107873D01*
X111229Y-108707D01*
X110354Y-109207D01*
X107229D01*
G01X110354D02*
X112229Y-114040D01*
G01X119729D02*
X118729Y-113873D01*
X117854Y-113207D01*
X117104Y-112207D01*
X116604Y-111040D01*
X116354Y-109707D01*
Y-108373D01*
X116604Y-107040D01*
X117104Y-105873D01*
X117854Y-104873D01*
X118729Y-104207D01*
X119729Y-104040D01*
X120729Y-104207D01*
X121604Y-104873D01*
X122354Y-105873D01*
X122854Y-107040D01*
X123104Y-108373D01*
Y-109707D01*
X122854Y-111040D01*
X122354Y-112207D01*
X121604Y-113207D01*
X120729Y-113873D01*
X119729Y-114040D01*
G01X125979Y-104040D02*
X127729Y-114040D01*
X129729Y-104040D01*
X131729Y-114040D01*
X133479Y-104040D01*
G01X135979Y-117373D02*
X143479D01*
G01X148229Y-104040D02*
X151229D01*
G01X149729D02*
Y-114040D01*
G01X148229D02*
X151229D01*
G01X156479D02*
Y-104040D01*
X159729Y-112373D01*
X162979Y-104040D01*
Y-114040D01*
G01X167104D02*
X172354Y-104040D01*
G01X167104D02*
X172354Y-114040D01*
G01X179729D02*
X180604Y-113873D01*
X181604Y-113373D01*
X182229Y-112540D01*
X182479Y-111373D01*
X182229Y-110207D01*
X181479Y-109207D01*
X180354Y-108707D01*
X179104D01*
X178354Y-108373D01*
X177729Y-107540D01*
X177479Y-106373D01*
X177854Y-105207D01*
X178729Y-104373D01*
X179729Y-104040D01*
X180729Y-104373D01*
X181604Y-105207D01*
X181979Y-106373D01*
X181729Y-107540D01*
X181104Y-108373D01*
X180354Y-108707D01*
X179104D01*
X177979Y-109207D01*
X177229Y-110207D01*
X176979Y-111373D01*
X177229Y-112540D01*
X177854Y-113373D01*
X178854Y-113873D01*
X179729Y-114040D01*
G01X186479D02*
Y-104040D01*
X189729Y-112373D01*
X192979Y-104040D01*
Y-114040D01*
G01X195979Y-117373D02*
X203479D01*
G01X207104Y-114040D02*
Y-104040D01*
G01X212354D02*
Y-114040D01*
G01Y-109040D02*
X207104D01*
G01X216479Y-114040D02*
Y-104040D01*
X219729Y-112373D01*
X222979Y-104040D01*
Y-114040D01*
G01X228229Y-104040D02*
X231229D01*
G01X229729D02*
Y-114040D01*
G01X228229D02*
X231229D01*
G01X235979Y-117373D02*
X243479D01*
G01X247229Y-114040D02*
Y-104040D01*
X250229D01*
X251229Y-104540D01*
X251979Y-105707D01*
X252229Y-107040D01*
X251979Y-108373D01*
X251354Y-109373D01*
X250229Y-109874D01*
X247229D01*
G01X257229Y-104040D02*
Y-114040D01*
X262229D01*
G01X266604D02*
X269729Y-104040D01*
X272854Y-114040D01*
G01X271729Y-110540D02*
X267729D01*
G01X279729Y-104040D02*
Y-114040D01*
G01X276854Y-104040D02*
X282604D01*
G01X287354Y-114040D02*
Y-104040D01*
X292104D01*
G01X290354Y-108873D02*
X287354D01*
G01X299729Y-114040D02*
X298729Y-113873D01*
X297854Y-113207D01*
X297104Y-112207D01*
X296604Y-111040D01*
X296354Y-109707D01*
Y-108373D01*
X296604Y-107040D01*
X297104Y-105873D01*
X297854Y-104873D01*
X298729Y-104207D01*
X299729Y-104040D01*
X300729Y-104207D01*
X301604Y-104873D01*
X302354Y-105873D01*
X302854Y-107040D01*
X303104Y-108373D01*
Y-109707D01*
X302854Y-111040D01*
X302354Y-112207D01*
X301604Y-113207D01*
X300729Y-113873D01*
X299729Y-114040D01*
G01X307229D02*
Y-104040D01*
X310354D01*
X311354Y-104540D01*
X311979Y-105207D01*
X312229Y-106540D01*
X311979Y-107873D01*
X311229Y-108707D01*
X310354Y-109207D01*
X307229D01*
G01X310354D02*
X312229Y-114040D01*
G01X316479D02*
Y-104040D01*
X319729Y-112373D01*
X322979Y-104040D01*
Y-114040D01*
G01X340729Y-108707D02*
X341229Y-108207D01*
X341604Y-107374D01*
X341854Y-106207D01*
X341604Y-105207D01*
X341104Y-104540D01*
X340229Y-104040D01*
X336854D01*
Y-114040D01*
X340979D01*
X341854Y-113373D01*
X342354Y-112373D01*
X342604Y-111207D01*
X342354Y-110040D01*
X341604Y-109040D01*
X340729Y-108707D01*
X336854D01*
G01X349729Y-114040D02*
X348729Y-113873D01*
X347854Y-113207D01*
X347104Y-112207D01*
X346604Y-111040D01*
X346354Y-109707D01*
Y-108373D01*
X346604Y-107040D01*
X347104Y-105873D01*
X347854Y-104873D01*
X348729Y-104207D01*
X349729Y-104040D01*
X350729Y-104207D01*
X351604Y-104873D01*
X352354Y-105873D01*
X352854Y-107040D01*
X353104Y-108373D01*
Y-109707D01*
X352854Y-111040D01*
X352354Y-112207D01*
X351604Y-113207D01*
X350729Y-113873D01*
X349729Y-114040D01*
G01X356604D02*
X359729Y-104040D01*
X362854Y-114040D01*
G01X361729Y-110540D02*
X357729D01*
G01X367229Y-114040D02*
Y-104040D01*
X370354D01*
X371354Y-104540D01*
X371979Y-105207D01*
X372229Y-106540D01*
X371979Y-107873D01*
X371229Y-108707D01*
X370354Y-109207D01*
X367229D01*
G01X370354D02*
X372229Y-114040D01*
G01X376979D02*
Y-104040D01*
X379479D01*
X380479Y-104540D01*
X381229Y-105207D01*
X381854Y-106207D01*
X382354Y-107374D01*
X382479Y-109040D01*
X382354Y-110707D01*
X381854Y-111873D01*
X381229Y-112874D01*
X380479Y-113540D01*
X379479Y-114040D01*
X376979D01*
G01X-83021Y-94040D02*
Y-84040D01*
X-80521D01*
X-79521Y-84540D01*
X-78771Y-85207D01*
X-78146Y-86207D01*
X-77646Y-87374D01*
X-77521Y-89040D01*
X-77646Y-90707D01*
X-78146Y-91873D01*
X-78771Y-92874D01*
X-79521Y-93540D01*
X-80521Y-94040D01*
X-83021D01*
G01X-67771D02*
X-72771D01*
Y-84040D01*
X-67771D01*
G01X-69771Y-88873D02*
X-72771D01*
G01X-62896Y-92707D02*
X-61896Y-93540D01*
X-60771Y-94040D01*
X-59771D01*
X-58771Y-93540D01*
X-58021Y-92707D01*
X-57646Y-91540D01*
X-57896Y-90374D01*
X-58521Y-89373D01*
X-59646Y-88707D01*
X-61146Y-88373D01*
X-62021Y-87707D01*
X-62396Y-86540D01*
X-62146Y-85373D01*
X-61521Y-84540D01*
X-60646Y-84040D01*
X-59771D01*
X-58896Y-84373D01*
X-58146Y-85207D01*
G01X-51771Y-84040D02*
X-48771D01*
G01X-50271D02*
Y-94040D01*
G01X-51771D02*
X-48771D01*
G01X-39521Y-89040D02*
X-37021D01*
Y-92040D01*
X-37771Y-93040D01*
X-38646Y-93707D01*
X-39896Y-94040D01*
X-41146Y-93707D01*
X-42021Y-93040D01*
X-42771Y-92040D01*
X-43271Y-90873D01*
X-43521Y-89540D01*
Y-88373D01*
X-43271Y-87374D01*
X-42771Y-86207D01*
X-42021Y-85207D01*
X-41271Y-84540D01*
X-40271Y-84040D01*
X-39396D01*
X-38396Y-84373D01*
X-37646Y-85040D01*
G01X-33146Y-94040D02*
Y-84040D01*
X-27396Y-94040D01*
Y-84040D01*
G01X-17771Y-94040D02*
X-22771D01*
Y-84040D01*
X-17771D01*
G01X-19771Y-88873D02*
X-22771D01*
G01X-13021Y-94040D02*
Y-84040D01*
X-10521D01*
X-9521Y-84540D01*
X-8771Y-85207D01*
X-8146Y-86207D01*
X-7646Y-87374D01*
X-7521Y-89040D01*
X-7646Y-90707D01*
X-8146Y-91873D01*
X-8771Y-92874D01*
X-9521Y-93540D01*
X-10521Y-94040D01*
X-13021D01*
G01X6604D02*
X9729Y-84040D01*
X12854Y-94040D01*
G01X11729Y-90540D02*
X7729D01*
G01X19729Y-84040D02*
Y-94040D01*
G01X16854Y-84040D02*
X22604D01*
G01X29729Y-94373D02*
X29479Y-94207D01*
Y-93873D01*
X29729Y-93707D01*
X29979Y-93873D01*
Y-94207D01*
X29729Y-94373D01*
G01Y-89874D02*
X29479Y-89707D01*
Y-89373D01*
X29729Y-89207D01*
X29979Y-89373D01*
Y-89707D01*
X29729Y-89874D01*
G01X47854Y-89540D02*
X51854D01*
X51479Y-88373D01*
X50854Y-87707D01*
X49979Y-87374D01*
X49104Y-87540D01*
X48354Y-88040D01*
X47854Y-89207D01*
X47604Y-90207D01*
Y-91207D01*
X47854Y-92207D01*
X48479Y-93207D01*
X49229Y-93873D01*
X50104Y-94040D01*
X50979Y-93707D01*
X51854Y-92707D01*
G01X58229Y-84040D02*
X61229D01*
G01X59729D02*
Y-94040D01*
G01X58229D02*
X61229D01*
G01X66854D02*
Y-84040D01*
X72604Y-94040D01*
Y-84040D01*
G01X77354Y-94040D02*
Y-84040D01*
X82104D01*
G01X80354Y-88873D02*
X77354D01*
G01X89729Y-94040D02*
X88729Y-93873D01*
X87854Y-93207D01*
X87104Y-92207D01*
X86604Y-91040D01*
X86354Y-89707D01*
Y-88373D01*
X86604Y-87040D01*
X87104Y-85873D01*
X87854Y-84873D01*
X88729Y-84207D01*
X89729Y-84040D01*
X90729Y-84207D01*
X91604Y-84873D01*
X92354Y-85873D01*
X92854Y-87040D01*
X93104Y-88373D01*
Y-89707D01*
X92854Y-91040D01*
X92354Y-92207D01*
X91604Y-93207D01*
X90729Y-93873D01*
X89729Y-94040D01*
G01X102479Y-84873D02*
X101729Y-84373D01*
X100854Y-84040D01*
X99854D01*
X98729Y-84540D01*
X97854Y-85373D01*
X97229Y-86373D01*
X96729Y-88040D01*
X96604Y-89540D01*
X96854Y-91040D01*
X97229Y-92040D01*
X97979Y-93040D01*
X98854Y-93707D01*
X99729Y-94040D01*
X100604D01*
X101479Y-93707D01*
X102229Y-93207D01*
X102854Y-92540D01*
G01X107104Y-94040D02*
Y-84040D01*
G01X112354D02*
Y-94040D01*
G01Y-89040D02*
X107104D01*
G01X118229Y-84040D02*
X121229D01*
G01X119729D02*
Y-94040D01*
G01X118229D02*
X121229D01*
G01X127229D02*
Y-84040D01*
X130229D01*
X131229Y-84540D01*
X131979Y-85707D01*
X132229Y-87040D01*
X131979Y-88373D01*
X131354Y-89373D01*
X130229Y-89874D01*
X127229D01*
G01X137104Y-92707D02*
X138104Y-93540D01*
X139229Y-94040D01*
X140229D01*
X141229Y-93540D01*
X141979Y-92707D01*
X142354Y-91540D01*
X142104Y-90374D01*
X141479Y-89373D01*
X140354Y-88707D01*
X138854Y-88373D01*
X137979Y-87707D01*
X137604Y-86540D01*
X137854Y-85373D01*
X138479Y-84540D01*
X139354Y-84040D01*
X140229D01*
X141104Y-84373D01*
X141854Y-85207D01*
G01X-82850Y-75234D02*
Y-65234D01*
X-80350D01*
X-79350Y-65734D01*
X-78600Y-66401D01*
X-77975Y-67401D01*
X-77475Y-68568D01*
X-77350Y-70234D01*
X-77475Y-71901D01*
X-77975Y-73067D01*
X-78600Y-74068D01*
X-79350Y-74734D01*
X-80350Y-75234D01*
X-82850D01*
G01X-73225D02*
X-70100Y-65234D01*
X-66975Y-75234D01*
G01X-68100Y-71734D02*
X-72100D01*
G01X-60100Y-65234D02*
Y-75234D01*
G01X-62975Y-65234D02*
X-57225D01*
G01X-47600Y-75234D02*
X-52600D01*
Y-65234D01*
X-47600D01*
G01X-49600Y-70067D02*
X-52600D01*
G01X-40100Y-75567D02*
X-40350Y-75401D01*
Y-75067D01*
X-40100Y-74901D01*
X-39850Y-75067D01*
Y-75401D01*
X-40100Y-75567D01*
G01Y-71068D02*
X-40350Y-70901D01*
Y-70567D01*
X-40100Y-70401D01*
X-39850Y-70567D01*
Y-70901D01*
X-40100Y-71068D01*
G01X-20100Y-75234D02*
Y-65234D01*
X-21600Y-67234D01*
G01Y-75234D02*
X-18600D01*
G01X-10100D02*
Y-65234D01*
X-11600Y-67234D01*
G01Y-75234D02*
X-8600D01*
G01X-2350Y-75567D02*
X2150Y-65234D01*
G01X9900D02*
X8900Y-65567D01*
X8150Y-66401D01*
X7650Y-67401D01*
X7275Y-68734D01*
X7150Y-70234D01*
X7275Y-71734D01*
X7650Y-73067D01*
X8150Y-74068D01*
X8900Y-74901D01*
X9900Y-75234D01*
X10900Y-74901D01*
X11650Y-74068D01*
X12150Y-73067D01*
X12525Y-71734D01*
X12650Y-70234D01*
X12525Y-68734D01*
X12150Y-67401D01*
X11650Y-66401D01*
X10900Y-65567D01*
X9900Y-65234D01*
G01X17525Y-66901D02*
X18275Y-65901D01*
X19150Y-65401D01*
X20150Y-65234D01*
X21400Y-65567D01*
X22275Y-66401D01*
X22525Y-67401D01*
X22400Y-68401D01*
X21900Y-69234D01*
X19400Y-70901D01*
X18275Y-72067D01*
X17525Y-73734D01*
X17275Y-75234D01*
X22525D01*
G01X27650Y-75567D02*
X32150Y-65234D01*
G01X37525Y-66901D02*
X38275Y-65901D01*
X39150Y-65401D01*
X40150Y-65234D01*
X41400Y-65567D01*
X42275Y-66401D01*
X42525Y-67401D01*
X42400Y-68401D01*
X41900Y-69234D01*
X39400Y-70901D01*
X38275Y-72067D01*
X37525Y-73734D01*
X37275Y-75234D01*
X42525D01*
G01X49900Y-65234D02*
X48900Y-65567D01*
X48150Y-66401D01*
X47650Y-67401D01*
X47275Y-68734D01*
X47150Y-70234D01*
X47275Y-71734D01*
X47650Y-73067D01*
X48150Y-74068D01*
X48900Y-74901D01*
X49900Y-75234D01*
X50900Y-74901D01*
X51650Y-74068D01*
X52150Y-73067D01*
X52525Y-71734D01*
X52650Y-70234D01*
X52525Y-68734D01*
X52150Y-67401D01*
X51650Y-66401D01*
X50900Y-65567D01*
X49900Y-65234D01*
G01X59900Y-75234D02*
Y-65234D01*
X58400Y-67234D01*
G01Y-75234D02*
X61400D01*
G01X67775Y-74068D02*
X68650Y-74901D01*
X69650Y-75234D01*
X70650Y-74901D01*
X71525Y-73901D01*
X72150Y-72401D01*
X72400Y-70901D01*
Y-69067D01*
X72150Y-67567D01*
X71525Y-66234D01*
X70775Y-65567D01*
X69900Y-65234D01*
X68900Y-65567D01*
X68150Y-66234D01*
X67650Y-67234D01*
X67400Y-68568D01*
X67650Y-69734D01*
X68275Y-70901D01*
X69025Y-71568D01*
X69900Y-71734D01*
X70900Y-71401D01*
X71650Y-70567D01*
X72400Y-69067D01*
G01X59804Y-52540D02*
X63804D01*
X63429Y-51373D01*
X62804Y-50707D01*
X61929Y-50374D01*
X61054Y-50540D01*
X60304Y-51040D01*
X59804Y-52207D01*
X59554Y-53207D01*
Y-54207D01*
X59804Y-55207D01*
X60429Y-56207D01*
X61179Y-56873D01*
X62054Y-57040D01*
X62929Y-56707D01*
X63804Y-55707D01*
G01X70179Y-47040D02*
X73179D01*
G01X71679D02*
Y-57040D01*
G01X70179D02*
X73179D01*
G01X78804D02*
Y-47040D01*
X84554Y-57040D01*
Y-47040D01*
G01X89304Y-57040D02*
Y-47040D01*
X94054D01*
G01X92304Y-51873D02*
X89304D01*
G01X101679Y-57040D02*
X100679Y-56873D01*
X99804Y-56207D01*
X99054Y-55207D01*
X98554Y-54040D01*
X98304Y-52707D01*
Y-51373D01*
X98554Y-50040D01*
X99054Y-48873D01*
X99804Y-47873D01*
X100679Y-47207D01*
X101679Y-47040D01*
X102679Y-47207D01*
X103554Y-47873D01*
X104304Y-48873D01*
X104804Y-50040D01*
X105054Y-51373D01*
Y-52707D01*
X104804Y-54040D01*
X104304Y-55207D01*
X103554Y-56207D01*
X102679Y-56873D01*
X101679Y-57040D01*
G01X114429Y-47873D02*
X113679Y-47373D01*
X112804Y-47040D01*
X111804D01*
X110679Y-47540D01*
X109804Y-48373D01*
X109179Y-49373D01*
X108679Y-51040D01*
X108554Y-52540D01*
X108804Y-54040D01*
X109179Y-55040D01*
X109929Y-56040D01*
X110804Y-56707D01*
X111679Y-57040D01*
X112554D01*
X113429Y-56707D01*
X114179Y-56207D01*
X114804Y-55540D01*
G01X119054Y-57040D02*
Y-47040D01*
G01X124304D02*
Y-57040D01*
G01Y-52040D02*
X119054D01*
G01X130179Y-47040D02*
X133179D01*
G01X131679D02*
Y-57040D01*
G01X130179D02*
X133179D01*
G01X139179D02*
Y-47040D01*
X142179D01*
X143179Y-47540D01*
X143929Y-48707D01*
X144179Y-50040D01*
X143929Y-51373D01*
X143304Y-52373D01*
X142179Y-52874D01*
X139179D01*
G01X149054Y-55707D02*
X150054Y-56540D01*
X151179Y-57040D01*
X152179D01*
X153179Y-56540D01*
X153929Y-55707D01*
X154304Y-54540D01*
X154054Y-53374D01*
X153429Y-52373D01*
X152304Y-51707D01*
X150804Y-51373D01*
X149929Y-50707D01*
X149554Y-49540D01*
X149804Y-48373D01*
X150429Y-47540D01*
X151304Y-47040D01*
X152179D01*
X153054Y-47373D01*
X153804Y-48207D01*
G01X318200Y-92634D02*
Y-82634D01*
X321325D01*
X322325Y-83134D01*
X322950Y-83801D01*
X323200Y-85134D01*
X322950Y-86467D01*
X322200Y-87301D01*
X321325Y-87801D01*
X318200D01*
G01X321325D02*
X323200Y-92634D01*
G01X333200D02*
X328200D01*
Y-82634D01*
X333200D01*
G01X331200Y-87467D02*
X328200D01*
G01X337575Y-82634D02*
X340700Y-92634D01*
X343825Y-82634D01*
G01X350700Y-92967D02*
X350450Y-92801D01*
Y-92467D01*
X350700Y-92301D01*
X350950Y-92467D01*
Y-92801D01*
X350700Y-92967D01*
G01Y-88468D02*
X350450Y-88301D01*
Y-87967D01*
X350700Y-87801D01*
X350950Y-87967D01*
Y-88301D01*
X350700Y-88468D01*
G01X358325Y-84301D02*
X359075Y-83301D01*
X359950Y-82801D01*
X360950Y-82634D01*
X362200Y-82967D01*
X363075Y-83801D01*
X363325Y-84801D01*
X363200Y-85801D01*
X362700Y-86634D01*
X360200Y-88301D01*
X359075Y-89467D01*
X358325Y-91134D01*
X358075Y-92634D01*
X363325D01*
G01X370700Y-92967D02*
X370450Y-92801D01*
Y-92467D01*
X370700Y-92301D01*
X370950Y-92467D01*
Y-92801D01*
X370700Y-92967D01*
G01X380700Y-82634D02*
X379700Y-82967D01*
X378950Y-83801D01*
X378450Y-84801D01*
X378075Y-86134D01*
X377950Y-87634D01*
X378075Y-89134D01*
X378450Y-90467D01*
X378950Y-91468D01*
X379700Y-92301D01*
X380700Y-92634D01*
X381700Y-92301D01*
X382450Y-91468D01*
X382950Y-90467D01*
X383325Y-89134D01*
X383450Y-87634D01*
X383325Y-86134D01*
X382950Y-84801D01*
X382450Y-83801D01*
X381700Y-82967D01*
X380700Y-82634D01*
G54D19*
X35483Y343367D03*
X21703Y349273D03*
X111783Y343267D03*
X98003Y349173D03*
G54D29*
G01X0Y0D02*
Y393701D01*
X334646D01*
Y0D01*
X0D01*
M02*
