G04 ================== begin FILE IDENTIFICATION RECORD ==================*
G04 Layout Name:  EI_ARROW_IMX8M_HMI_PLATFORM_17_00666_02.brd*
G04 Film Name:    smb.gbr*
G04 File Format:  Gerber RS274X*
G04 File Origin:  Cadence Allegro 17.2-P019*
G04 Origin Date:  Mon Feb 11 12:30:38 2019*
G04 *
G04 Layer:  DRAWING FORMAT/SMB*
G04 Layer:  DRAWING FORMAT/FILM_LABEL_OUTLINE*
G04 Layer:  PACKAGE GEOMETRY/SOLDERMASK_BOTTOM*
G04 Layer:  VIA CLASS/SOLDERMASK_BOTTOM*
G04 Layer:  DRAWING FORMAT/FILM_TITLE_BLOCK*
G04 Layer:  PIN/SOLDERMASK_BOTTOM*
G04 Layer:  BOARD GEOMETRY/OUTLINE*
G04 Layer:  BOARD GEOMETRY/SOLDERMASK_BOTTOM*
G04 *
G04 Offset:    (0.00 0.00)*
G04 Mirror:    No*
G04 Mode:      Positive*
G04 Rotation:  0*
G04 FullContactRelief:  No*
G04 UndefLineWidth:     7.00*
G04 ================== end FILE IDENTIFICATION RECORD ====================*
%FSLAX25Y25*MOIN*%
%IR0*IPPOS*OFA0.00000B0.00000*MIA0B0*SFA1.00000B1.00000*%
%ADD16O,.106X.055*%
%AMMACRO103*
4,1,21,.0185,-.0075,
.0185,.0075,
-.011,.0075,
-.012302,.007386,
-.013565,.007048,
-.01475,.006495,
-.015821,.005745,
-.016745,.004821,
-.017495,.00375,
-.018048,.002565,
-.018386,.001302,
-.0185,0.0,
-.018386,-.001302,
-.018048,-.002565,
-.017495,-.00375,
-.016745,-.004821,
-.015821,-.005745,
-.01475,-.006495,
-.013565,-.007048,
-.012302,-.007386,
-.011,-.0075,
.0185,-.0075,
0.0*
%
%ADD103MACRO103*%
%AMMACRO102*
4,1,21,-.0075,-.0185,
.0075,-.0185,
.0075,.011,
.007386,.012302,
.007048,.013565,
.006495,.01475,
.005745,.015821,
.004821,.016745,
.00375,.017495,
.002565,.018048,
.001302,.018386,
0.0,.0185,
-.001302,.018386,
-.002565,.018048,
-.00375,.017495,
-.004821,.016745,
-.005745,.015821,
-.006495,.01475,
-.007048,.013565,
-.007386,.012302,
-.0075,.011,
-.0075,-.0185,
0.0*
%
%ADD102MACRO102*%
%ADD97R,.022X.009*%
%ADD30R,.138X.042*%
%AMMACRO105*
4,1,24,.01722,.0374,
-.04085,.0374,
-.04085,-.0374,
.01722,-.0374,
.021322,-.037042,
.0253,-.035978,
.029033,-.034239,
.032406,-.031878,
.035319,-.028967,
.037682,-.025594,
.039423,-.021863,
.04049,-.017886,
.04085,-.013784,
.04085,-.01378,
.04085,.01378,
.040491,.017882,
.039424,.021859,
.037684,.025591,
.035321,.028964,
.032409,.031875,
.029036,.034237,
.025303,.035976,
.021326,.037042,
.017224,.0374,
.01722,.0374,
0.0*
%
%ADD105MACRO105*%
%ADD96R,.023X.009*%
%ADD91R,.116X.074*%
%ADD77C,.032*%
%ADD138C,.015*%
%ADD55C,.06*%
%ADD33R,.074X.116*%
%ADD26C,.024*%
%ADD135C,.052*%
%ADD139C,.017*%
%ADD28C,.044*%
%ADD52C,.072*%
%ADD31R,.05X.188*%
%ADD25C,.063*%
%ADD19C,.054*%
%ADD14C,.037*%
%ADD92C,.029*%
%ADD64C,.04331*%
%ADD17C,.047*%
%ADD127C,.067*%
%ADD125C,.058*%
%ADD54R,.06X.06*%
%ADD128C,.087*%
%ADD41R,.017X.017*%
%ADD114R,.036X.036*%
%ADD79R,.054X.054*%
%ADD24R,.063X.063*%
%ADD63R,.04331X.04331*%
%ADD124R,.058X.058*%
%ADD50R,.076X.076*%
%ADD42R,.0473X.0473*%
%AMMACRO85*
4,1,6,.00988,-.01381,
.00988,.01381,
-.002,.01381,
-.002,-.00193,
-.00987,-.00193,
-.00987,-.01381,
.00988,-.01381,
0.0*
%
%ADD85MACRO85*%
%AMMACRO59*
4,1,21,-.018,-.007,
.011,-.007,
.012216,-.006894,
.013394,-.006578,
.0145,-.006062,
.0155,-.005362,
.016362,-.0045,
.017062,-.0035,
.017578,-.002394,
.017894,-.001216,
.018,0.0,
.017894,.001216,
.017578,.002394,
.017062,.0035,
.016362,.0045,
.0155,.005362,
.0145,.006062,
.013394,.006578,
.012216,.006894,
.011,.007,
-.018,.007,
-.018,-.007,
0.0*
%
%ADD59MACRO59*%
%AMMACRO58*
4,1,21,.007,-.018,
.007,.011,
.006894,.012216,
.006578,.013394,
.006062,.0145,
.005362,.0155,
.0045,.016362,
.0035,.017062,
.002394,.017578,
.001216,.017894,
0.0,.018,
-.001216,.017894,
-.002394,.017578,
-.0035,.017062,
-.0045,.016362,
-.005362,.0155,
-.006062,.0145,
-.006578,.013394,
-.006894,.012216,
-.007,.011,
-.007,-.018,
.007,-.018,
0.0*
%
%ADD58MACRO58*%
%ADD131R,.00787X.01575*%
%ADD29R,.13976X.04528*%
%AMMACRO86*
4,1,6,-.00988,.01381,
-.00988,.00193,
-.00201,.00193,
-.00201,-.01381,
.00987,-.01381,
.00987,.01381,
-.00988,.01381,
0.0*
%
%ADD86MACRO86*%
%ADD119R,.03X.012*%
%ADD118R,.012X.03*%
%ADD82R,.011X.031*%
%ADD43R,.013X.031*%
%ADD44R,.031X.013*%
%ADD120R,.024X.022*%
%ADD51R,.031X.015*%
%ADD129R,.02X.027*%
%ADD117R,.016X.03*%
%ADD35O,.027X.023*%
%ADD113O,.041X.045*%
%ADD110R,.033X.015*%
%AMMACRO101*
4,1,21,-.0185,.0075,
-.0185,-.0075,
.011,-.0075,
.012302,-.007386,
.013565,-.007048,
.01475,-.006495,
.015821,-.005745,
.016745,-.004821,
.017495,-.00375,
.018048,-.002565,
.018386,-.001302,
.0185,0.0,
.018386,.001302,
.018048,.002565,
.017495,.00375,
.016745,.004821,
.015821,.005745,
.01475,.006495,
.013565,.007048,
.012302,.007386,
.011,.0075,
-.0185,.0075,
0.0*
%
%ADD101MACRO101*%
%AMMACRO100*
4,1,21,.0075,.0185,
-.0075,.0185,
-.0075,-.011,
-.007386,-.012302,
-.007048,-.013565,
-.006495,-.01475,
-.005745,-.015821,
-.004821,-.016745,
-.00375,-.017495,
-.002565,-.018048,
-.001302,-.018386,
0.0,-.0185,
.001302,-.018386,
.002565,-.018048,
.00375,-.017495,
.004821,-.016745,
.005745,-.015821,
.006495,-.01475,
.007048,-.013565,
.007386,-.012302,
.0075,-.011,
.0075,.0185,
0.0*
%
%ADD100MACRO100*%
%ADD67R,.025X.023*%
%ADD47C,.12*%
%ADD34O,.023X.027*%
%ADD111R,.015X.033*%
%ADD37O,.043X.027*%
%ADD115R,.036X.05*%
%ADD93O,.018X.017*%
%ADD62R,.023X.027*%
%ADD36O,.027X.043*%
%ADD112R,.041X.045*%
%ADD73R,.031X.038*%
%ADD32O,.017X.018*%
%ADD116R,.052X.054*%
%ADD94R,.032X.037*%
%ADD90R,.019X.023*%
%ADD81R,.0204X.045*%
%ADD80R,.015X.045*%
%ADD72R,.038X.031*%
%ADD49R,.035X.062*%
%ADD38R,.074X.05*%
%ADD27C,.124*%
%ADD134R,.039X.032*%
%ADD123R,.062X.035*%
%ADD95R,.05X.074*%
%ADD75R,.027X.043*%
%ADD65R,.043X.028*%
%ADD136R,.034X.019*%
%ADD130R,.017X.019*%
%ADD78C,.135*%
%ADD76R,.032X.039*%
%ADD22R,.029X.025*%
%ADD126C,.136*%
%AMMACRO106*
4,1,24,-.01722,-.0374,
.04085,-.0374,
.04085,.0374,
-.01722,.0374,
-.021322,.037042,
-.0253,.035978,
-.029033,.034239,
-.032406,.031878,
-.035319,.028967,
-.037682,.025594,
-.039423,.021863,
-.04049,.017886,
-.04085,.013784,
-.04085,.01378,
-.04085,-.01378,
-.040491,-.017882,
-.039424,-.021859,
-.037684,-.025591,
-.035321,-.028964,
-.032409,-.031875,
-.029036,-.034237,
-.025303,-.035976,
-.021326,-.037042,
-.017224,-.0374,
-.01722,-.0374,
0.0*
%
%ADD106MACRO106*%
%ADD98R,.063X.028*%
%ADD71R,.019X.017*%
%ADD56R,.052X.039*%
%ADD48R,.035X.047*%
%ADD45R,.063X.055*%
%ADD21R,.025X.029*%
%ADD122R,.047X.035*%
%ADD121R,.028X.036*%
%ADD109R,.202X.202*%
%ADD53R,.061X.039*%
%ADD46R,.055X.063*%
%ADD15R,.082X.027*%
%ADD107R,.059X.044*%
%ADD104O,.04631X.05221*%
%ADD39O,.059X.038*%
%ADD137R,.058X.046*%
%ADD40O,.038X.059*%
%ADD20R,.073X.085*%
%ADD10R,.044X.059*%
%ADD140R,.01284X.0404*%
%ADD99R,.107X.107*%
%ADD23R,.046X.058*%
%ADD12R,.03843X.015*%
%ADD13R,.015X.03843*%
%ADD132R,.03646X.043*%
%ADD18R,.056X.087*%
%ADD61R,.137X.137*%
%ADD11R,.173X.173*%
%ADD133R,.03646X.027*%
%ADD83R,.01087X.02662*%
%ADD89R,.03646X.06009*%
%ADD88R,.03253X.01678*%
%AMMACRO87*
4,1,6,-.00988,.01381,
-.00988,-.01381,
.002,-.01381,
.002,.00193,
.00987,.00193,
.00987,.01381,
-.00988,.01381,
0.0*
%
%ADD87MACRO87*%
%ADD74R,.04724X.04528*%
%ADD70R,.03765X.01581*%
%ADD69R,.01581X.03765*%
%ADD108R,.05315X.04488*%
%ADD66R,.04528X.02756*%
%ADD141R,.01284X.02859*%
%ADD68R,.14867X.14867*%
%AMMACRO60*
4,1,21,-.007,.018,
-.007,-.011,
-.006894,-.012216,
-.006578,-.013394,
-.006062,-.0145,
-.005362,-.0155,
-.0045,-.016362,
-.0035,-.017062,
-.002394,-.017578,
-.001216,-.017894,
0.0,-.018,
.001216,-.017894,
.002394,-.017578,
.0035,-.017062,
.0045,-.016362,
.005362,-.0155,
.006062,-.0145,
.006578,-.013394,
.006894,-.012216,
.007,-.011,
.007,.018,
-.007,.018,
0.0*
%
%ADD60MACRO60*%
%AMMACRO57*
4,1,21,.018,.007,
-.011,.007,
-.012216,.006894,
-.013394,.006578,
-.0145,.006062,
-.0155,.005362,
-.016362,.0045,
-.017062,.0035,
-.017578,.002394,
-.017894,.001216,
-.018,0.0,
-.017894,-.001216,
-.017578,-.002394,
-.017062,-.0035,
-.016362,-.0045,
-.0155,-.005362,
-.0145,-.006062,
-.013394,-.006578,
-.012216,-.006894,
-.011,-.007,
.018,-.007,
.018,.007,
0.0*
%
%ADD57MACRO57*%
%AMMACRO84*
4,1,6,.00988,-.01381,
.00988,-.00193,
.00201,-.00193,
.00201,.01381,
-.00987,.01381,
-.00987,-.01381,
.00988,-.01381,
0.0*
%
%ADD84MACRO84*%
%ADD142C,.01*%
%ADD143C,.004*%
%ADD144C,.007*%
%ADD145C,.02164*%
G75*
%LPD*%
G75*
G36*
G01X174300Y175200D02*
Y310000D01*
X230700D01*
Y306800D01*
X177600D01*
Y178400D01*
X303900D01*
Y210900D01*
X329300D01*
Y306800D01*
X247600D01*
Y310000D01*
X332500D01*
Y207700D01*
X307100D01*
Y175200D01*
X174300D01*
G37*
G36*
G01X274900Y169100D02*
Y165000D01*
X278800D01*
Y169100D01*
X274900D01*
G37*
%LPC*%
G75*
G54D145*
X176200Y246600D03*
%LPD*%
G75*
G54D100*
X78960Y248280D03*
X76992D03*
X75023D03*
X73055D03*
X71086D03*
X69118D03*
G54D101*
X66362Y245524D03*
Y243556D03*
Y241587D03*
Y239619D03*
Y237650D03*
Y235682D03*
G54D110*
X253241Y84873D03*
Y86842D03*
Y88810D03*
Y90779D03*
Y92747D03*
Y94716D03*
Y96684D03*
Y98653D03*
Y100621D03*
Y102590D03*
Y104558D03*
Y106527D03*
X226159D03*
Y104558D03*
Y102590D03*
Y100621D03*
Y98653D03*
Y96684D03*
Y94716D03*
Y92747D03*
Y90779D03*
Y88810D03*
Y86842D03*
Y84873D03*
G54D111*
X250527Y109241D03*
X248558D03*
X246590D03*
X244621D03*
X242653D03*
X240684D03*
X238716D03*
X236747D03*
X234779D03*
X232810D03*
X230842D03*
X228873D03*
Y82159D03*
X230842D03*
X232810D03*
X234779D03*
X236747D03*
X238716D03*
X240684D03*
X242653D03*
X244621D03*
X246590D03*
X248558D03*
X250527D03*
G54D120*
X271900Y186676D03*
Y183724D03*
X297400Y216024D03*
Y218976D03*
X326300Y239276D03*
Y236324D03*
X311900Y294024D03*
Y296976D03*
G54D102*
X69118Y232926D03*
X71086D03*
X73055D03*
X75023D03*
X76992D03*
X78960D03*
G54D10*
X40900Y114291D03*
X48380D03*
X44640Y122951D03*
X296429Y355766D03*
X303909D03*
X300169Y364426D03*
G54D121*
X266717Y191049D03*
X254869D03*
X266717Y186667D03*
X254869D03*
G54D130*
X237300Y143245D03*
Y148955D03*
X279945Y341014D03*
Y346724D03*
G54D112*
X258116Y163983D03*
X309831Y75581D03*
G54D103*
X81716Y235682D03*
Y237650D03*
Y239619D03*
Y241587D03*
Y243556D03*
Y245524D03*
G54D11*
X116200Y198300D03*
G54D140*
X247568Y357570D03*
X245600D03*
X243632D03*
G54D20*
X25400Y29600D03*
Y46800D03*
G54D104*
X179610Y376168D03*
X162090D03*
G54D122*
X212349Y176801D03*
X268849D03*
X209849Y308401D03*
X268849D03*
G54D113*
X253116Y163983D03*
X248116D03*
X243116D03*
X238116D03*
X258116Y158983D03*
X253116D03*
X248116D03*
X243116D03*
X238116D03*
X314831Y75581D03*
X319831D03*
X324831D03*
X329831D03*
X309831Y80581D03*
X314831D03*
X319831D03*
X324831D03*
X329831D03*
G54D131*
X275458Y165988D03*
X276836D03*
X278214D03*
Y168154D03*
X276836D03*
X275458D03*
G54D141*
X243632Y353239D03*
X245600D03*
X247568D03*
G54D132*
X271650Y327034D03*
Y318766D03*
X277950D03*
Y327034D03*
G54D12*
X127921Y189442D03*
Y191410D03*
Y193379D03*
Y195347D03*
Y197316D03*
Y199284D03*
Y201253D03*
Y203221D03*
Y205190D03*
Y207158D03*
X104479D03*
Y205190D03*
Y203221D03*
Y201253D03*
Y199284D03*
Y197316D03*
Y195347D03*
Y193379D03*
Y191410D03*
Y189442D03*
G54D21*
X36804Y99400D03*
X32596D03*
X13504Y99500D03*
X9296D03*
X48004Y151200D03*
X43796D03*
X34196Y187500D03*
X38404D03*
X117296Y9400D03*
X121504D03*
X323544Y30652D03*
X327752D03*
X325010Y52048D03*
X329218D03*
G54D123*
X206050Y176801D03*
X218648D03*
X262550D03*
X275148D03*
X203550Y308401D03*
X216148D03*
X262550D03*
X275148D03*
G54D114*
X324645Y171473D03*
X316357D03*
Y179373D03*
G54D105*
X185171Y387979D03*
G54D30*
X128463Y218145D03*
X104563Y218345D03*
X128463Y227475D03*
X104563Y227675D03*
G54D142*
G01X-88521Y-43540D02*
Y-139740D01*
G01D02*
X386979D01*
G01X-88521Y-118740D02*
X405279D01*
G01X-88521Y-98740D02*
X405279D01*
G01X-88521Y-78740D02*
X405279D01*
G01X-88521Y-59540D02*
X405279D01*
G01X-88521Y-43540D02*
X386979D01*
G01X386179Y-139740D02*
X405279D01*
Y-43540D01*
X385879D01*
G54D133*
X271650Y322900D03*
X277950D03*
G54D13*
X125058Y210021D03*
X123090D03*
X121121D03*
X119153D03*
X117184D03*
X115216D03*
X113247D03*
X111279D03*
X109310D03*
X107342D03*
Y186579D03*
X109310D03*
X111279D03*
X113247D03*
X115216D03*
X117184D03*
X119153D03*
X121121D03*
X123090D03*
X125058D03*
G54D40*
X89727Y188377D03*
X97207D03*
X144099Y188103D03*
X136619D03*
X24360Y175200D03*
X31840D03*
X40180Y160550D03*
X32700D03*
X125460Y102850D03*
X132940D03*
X125460Y95850D03*
X132940D03*
X182640Y151300D03*
X175160D03*
X182640Y144600D03*
X175160D03*
X120527Y235793D03*
X128007D03*
X113499Y235803D03*
X106019D03*
X100477Y380384D03*
X107957D03*
X33660Y372550D03*
X41140D03*
G54D106*
X156529Y387979D03*
G54D22*
X19200Y185304D03*
Y181096D03*
X7682Y185835D03*
Y181627D03*
X133400Y10204D03*
Y5996D03*
X295600Y382904D03*
Y378696D03*
X300000Y382904D03*
Y378696D03*
X304300Y382904D03*
Y378696D03*
X312900Y383004D03*
Y378796D03*
X321600Y383004D03*
Y378796D03*
X326000Y383004D03*
Y378796D03*
X330000Y336504D03*
Y332296D03*
X308611Y382935D03*
Y378727D03*
G54D115*
X324645Y178967D03*
G54D124*
X243100Y68787D03*
G54D31*
X147784Y127800D03*
X160816D03*
G54D143*
G01X-81592Y-133450D02*
Y-123450D01*
X-76842D01*
G01X-78592Y-128283D02*
X-81592D01*
G01X-70717Y-123450D02*
X-67717D01*
G01X-69217D02*
Y-133450D01*
G01X-70717D02*
X-67717D01*
G01X-61717Y-123450D02*
Y-133450D01*
X-56717D01*
G01X-52467D02*
Y-123450D01*
X-49217Y-131783D01*
X-45967Y-123450D01*
Y-133450D01*
G01X-31717Y-123450D02*
Y-133450D01*
X-26717D01*
G01X-22342D02*
X-19217Y-123450D01*
X-16092Y-133450D01*
G01X-17217Y-129950D02*
X-21217D01*
G01X-9217Y-133450D02*
Y-128950D01*
X-11717Y-123450D01*
G01X-6717D02*
X-9217Y-128950D01*
G01X3283Y-133450D02*
X-1717D01*
Y-123450D01*
X3283D01*
G01X1283Y-128283D02*
X-1717D01*
G01X8283Y-133450D02*
Y-123450D01*
X11408D01*
X12408Y-123950D01*
X13033Y-124617D01*
X13283Y-125950D01*
X13033Y-127283D01*
X12283Y-128117D01*
X11408Y-128617D01*
X8283D01*
G01X11408D02*
X13283Y-133450D01*
G01X30783Y-133783D02*
X30533Y-133617D01*
Y-133283D01*
X30783Y-133117D01*
X31033Y-133283D01*
Y-133617D01*
X30783Y-133783D01*
G01Y-129284D02*
X30533Y-129117D01*
Y-128783D01*
X30783Y-128617D01*
X31033Y-128783D01*
Y-129117D01*
X30783Y-129284D01*
G01X48158Y-132117D02*
X49158Y-132950D01*
X50283Y-133450D01*
X51283D01*
X52283Y-132950D01*
X53033Y-132117D01*
X53408Y-130950D01*
X53158Y-129784D01*
X52533Y-128783D01*
X51408Y-128117D01*
X49908Y-127783D01*
X49033Y-127117D01*
X48658Y-125950D01*
X48908Y-124783D01*
X49533Y-123950D01*
X50408Y-123450D01*
X51283D01*
X52158Y-123783D01*
X52908Y-124617D01*
G01X60783Y-133450D02*
X59783Y-133283D01*
X58908Y-132617D01*
X58158Y-131617D01*
X57658Y-130450D01*
X57408Y-129117D01*
Y-127783D01*
X57658Y-126450D01*
X58158Y-125283D01*
X58908Y-124283D01*
X59783Y-123617D01*
X60783Y-123450D01*
X61783Y-123617D01*
X62658Y-124283D01*
X63408Y-125283D01*
X63908Y-126450D01*
X64158Y-127783D01*
Y-129117D01*
X63908Y-130450D01*
X63408Y-131617D01*
X62658Y-132617D01*
X61783Y-133283D01*
X60783Y-133450D01*
G01X68283Y-123450D02*
Y-133450D01*
X73283D01*
G01X78033D02*
Y-123450D01*
X80533D01*
X81533Y-123950D01*
X82283Y-124617D01*
X82908Y-125617D01*
X83408Y-126784D01*
X83533Y-128450D01*
X83408Y-130117D01*
X82908Y-131283D01*
X82283Y-132284D01*
X81533Y-132950D01*
X80533Y-133450D01*
X78033D01*
G01X93283D02*
X88283D01*
Y-123450D01*
X93283D01*
G01X91283Y-128283D02*
X88283D01*
G01X98283Y-133450D02*
Y-123450D01*
X101408D01*
X102408Y-123950D01*
X103033Y-124617D01*
X103283Y-125950D01*
X103033Y-127283D01*
X102283Y-128117D01*
X101408Y-128617D01*
X98283D01*
G01X101408D02*
X103283Y-133450D01*
G01X107533D02*
Y-123450D01*
X110783Y-131783D01*
X114033Y-123450D01*
Y-133450D01*
G01X117658D02*
X120783Y-123450D01*
X123908Y-133450D01*
G01X122783Y-129950D02*
X118783D01*
G01X128158Y-132117D02*
X129158Y-132950D01*
X130283Y-133450D01*
X131283D01*
X132283Y-132950D01*
X133033Y-132117D01*
X133408Y-130950D01*
X133158Y-129784D01*
X132533Y-128783D01*
X131408Y-128117D01*
X129908Y-127783D01*
X129033Y-127117D01*
X128658Y-125950D01*
X128908Y-124783D01*
X129533Y-123950D01*
X130408Y-123450D01*
X131283D01*
X132158Y-123783D01*
X132908Y-124617D01*
G01X138033Y-133450D02*
Y-123450D01*
G01X142783D02*
X138033Y-129617D01*
G01X143533Y-133450D02*
X140158Y-126784D01*
G01X158158Y-132117D02*
X159158Y-132950D01*
X160283Y-133450D01*
X161283D01*
X162283Y-132950D01*
X163033Y-132117D01*
X163408Y-130950D01*
X163158Y-129784D01*
X162533Y-128783D01*
X161408Y-128117D01*
X159908Y-127783D01*
X159033Y-127117D01*
X158658Y-125950D01*
X158908Y-124783D01*
X159533Y-123950D01*
X160408Y-123450D01*
X161283D01*
X162158Y-123783D01*
X162908Y-124617D01*
G01X173283Y-133450D02*
X168283D01*
Y-123450D01*
X173283D01*
G01X171283Y-128283D02*
X168283D01*
G01X183533Y-124283D02*
X182783Y-123783D01*
X181908Y-123450D01*
X180908D01*
X179783Y-123950D01*
X178908Y-124783D01*
X178283Y-125783D01*
X177783Y-127450D01*
X177658Y-128950D01*
X177908Y-130450D01*
X178283Y-131450D01*
X179033Y-132450D01*
X179908Y-133117D01*
X180783Y-133450D01*
X181658D01*
X182533Y-133117D01*
X183283Y-132617D01*
X183908Y-131950D01*
G01X190783Y-133450D02*
X189783Y-133283D01*
X188908Y-132617D01*
X188158Y-131617D01*
X187658Y-130450D01*
X187408Y-129117D01*
Y-127783D01*
X187658Y-126450D01*
X188158Y-125283D01*
X188908Y-124283D01*
X189783Y-123617D01*
X190783Y-123450D01*
X191783Y-123617D01*
X192658Y-124283D01*
X193408Y-125283D01*
X193908Y-126450D01*
X194158Y-127783D01*
Y-129117D01*
X193908Y-130450D01*
X193408Y-131617D01*
X192658Y-132617D01*
X191783Y-133283D01*
X190783Y-133450D01*
G01X197908D02*
Y-123450D01*
X203658Y-133450D01*
Y-123450D01*
G01X208033Y-133450D02*
Y-123450D01*
X210533D01*
X211533Y-123950D01*
X212283Y-124617D01*
X212908Y-125617D01*
X213408Y-126784D01*
X213533Y-128450D01*
X213408Y-130117D01*
X212908Y-131283D01*
X212283Y-132284D01*
X211533Y-132950D01*
X210533Y-133450D01*
X208033D01*
G01X217658D02*
X220783Y-123450D01*
X223908Y-133450D01*
G01X222783Y-129950D02*
X218783D01*
G01X228283Y-133450D02*
Y-123450D01*
X231408D01*
X232408Y-123950D01*
X233033Y-124617D01*
X233283Y-125950D01*
X233033Y-127283D01*
X232283Y-128117D01*
X231408Y-128617D01*
X228283D01*
G01X231408D02*
X233283Y-133450D01*
G01X240783D02*
Y-128950D01*
X238283Y-123450D01*
G01X243283D02*
X240783Y-128950D01*
G01X258158Y-132117D02*
X259158Y-132950D01*
X260283Y-133450D01*
X261283D01*
X262283Y-132950D01*
X263033Y-132117D01*
X263408Y-130950D01*
X263158Y-129784D01*
X262533Y-128783D01*
X261408Y-128117D01*
X259908Y-127783D01*
X259033Y-127117D01*
X258658Y-125950D01*
X258908Y-124783D01*
X259533Y-123950D01*
X260408Y-123450D01*
X261283D01*
X262158Y-123783D01*
X262908Y-124617D01*
G01X269283Y-123450D02*
X272283D01*
G01X270783D02*
Y-133450D01*
G01X269283D02*
X272283D01*
G01X278033D02*
Y-123450D01*
X280533D01*
X281533Y-123950D01*
X282283Y-124617D01*
X282908Y-125617D01*
X283408Y-126784D01*
X283533Y-128450D01*
X283408Y-130117D01*
X282908Y-131283D01*
X282283Y-132284D01*
X281533Y-132950D01*
X280533Y-133450D01*
X278033D01*
G01X293283D02*
X288283D01*
Y-123450D01*
X293283D01*
G01X291283Y-128283D02*
X288283D01*
G01X-82771Y-114040D02*
Y-104040D01*
X-79771D01*
X-78771Y-104540D01*
X-78021Y-105707D01*
X-77771Y-107040D01*
X-78021Y-108373D01*
X-78646Y-109373D01*
X-79771Y-109874D01*
X-82771D01*
G01X-73396Y-114040D02*
X-70271Y-104040D01*
X-67146Y-114040D01*
G01X-68271Y-110540D02*
X-72271D01*
G01X-62771Y-114040D02*
Y-104040D01*
X-59646D01*
X-58646Y-104540D01*
X-58021Y-105207D01*
X-57771Y-106540D01*
X-58021Y-107873D01*
X-58771Y-108707D01*
X-59646Y-109207D01*
X-62771D01*
G01X-59646D02*
X-57771Y-114040D01*
G01X-50271Y-104040D02*
Y-114040D01*
G01X-53146Y-104040D02*
X-47396D01*
G01X-33146Y-114040D02*
Y-104040D01*
X-27396Y-114040D01*
Y-104040D01*
G01X-20271Y-114040D02*
X-21271Y-113873D01*
X-22146Y-113207D01*
X-22896Y-112207D01*
X-23396Y-111040D01*
X-23646Y-109707D01*
Y-108373D01*
X-23396Y-107040D01*
X-22896Y-105873D01*
X-22146Y-104873D01*
X-21271Y-104207D01*
X-20271Y-104040D01*
X-19271Y-104207D01*
X-18396Y-104873D01*
X-17646Y-105873D01*
X-17146Y-107040D01*
X-16896Y-108373D01*
Y-109707D01*
X-17146Y-111040D01*
X-17646Y-112207D01*
X-18396Y-113207D01*
X-19271Y-113873D01*
X-20271Y-114040D01*
G01X-12521Y-114373D02*
X-8021Y-104040D01*
G01X2479Y-104873D02*
X1729Y-104373D01*
X854Y-104040D01*
X-146D01*
X-1271Y-104540D01*
X-2146Y-105373D01*
X-2771Y-106373D01*
X-3271Y-108040D01*
X-3396Y-109540D01*
X-3146Y-111040D01*
X-2771Y-112040D01*
X-2021Y-113040D01*
X-1146Y-113707D01*
X-271Y-114040D01*
X604D01*
X1479Y-113707D01*
X2229Y-113207D01*
X2854Y-112540D01*
G01X6604Y-114040D02*
X9729Y-104040D01*
X12854Y-114040D01*
G01X11729Y-110540D02*
X7729D01*
G01X17229Y-114040D02*
Y-104040D01*
X20354D01*
X21354Y-104540D01*
X21979Y-105207D01*
X22229Y-106540D01*
X21979Y-107873D01*
X21229Y-108707D01*
X20354Y-109207D01*
X17229D01*
G01X20354D02*
X22229Y-114040D01*
G01X26979D02*
Y-104040D01*
X29479D01*
X30479Y-104540D01*
X31229Y-105207D01*
X31854Y-106207D01*
X32354Y-107374D01*
X32479Y-109040D01*
X32354Y-110707D01*
X31854Y-111873D01*
X31229Y-112874D01*
X30479Y-113540D01*
X29479Y-114040D01*
X26979D01*
G01X47229D02*
Y-104040D01*
X50354D01*
X51354Y-104540D01*
X51979Y-105207D01*
X52229Y-106540D01*
X51979Y-107873D01*
X51229Y-108707D01*
X50354Y-109207D01*
X47229D01*
G01X50354D02*
X52229Y-114040D01*
G01X62229D02*
X57229D01*
Y-104040D01*
X62229D01*
G01X60229Y-108873D02*
X57229D01*
G01X67354Y-114040D02*
Y-104040D01*
X72104D01*
G01X70354Y-108873D02*
X67354D01*
G01X79729Y-114373D02*
X79479Y-114207D01*
Y-113873D01*
X79729Y-113707D01*
X79979Y-113873D01*
Y-114207D01*
X79729Y-114373D01*
G01Y-109874D02*
X79479Y-109707D01*
Y-109373D01*
X79729Y-109207D01*
X79979Y-109373D01*
Y-109707D01*
X79729Y-109874D01*
G01X86604Y-114040D02*
X89729Y-104040D01*
X92854Y-114040D01*
G01X91729Y-110540D02*
X87729D01*
G01X97229Y-114040D02*
Y-104040D01*
X100354D01*
X101354Y-104540D01*
X101979Y-105207D01*
X102229Y-106540D01*
X101979Y-107873D01*
X101229Y-108707D01*
X100354Y-109207D01*
X97229D01*
G01X100354D02*
X102229Y-114040D01*
G01X107229D02*
Y-104040D01*
X110354D01*
X111354Y-104540D01*
X111979Y-105207D01*
X112229Y-106540D01*
X111979Y-107873D01*
X111229Y-108707D01*
X110354Y-109207D01*
X107229D01*
G01X110354D02*
X112229Y-114040D01*
G01X119729D02*
X118729Y-113873D01*
X117854Y-113207D01*
X117104Y-112207D01*
X116604Y-111040D01*
X116354Y-109707D01*
Y-108373D01*
X116604Y-107040D01*
X117104Y-105873D01*
X117854Y-104873D01*
X118729Y-104207D01*
X119729Y-104040D01*
X120729Y-104207D01*
X121604Y-104873D01*
X122354Y-105873D01*
X122854Y-107040D01*
X123104Y-108373D01*
Y-109707D01*
X122854Y-111040D01*
X122354Y-112207D01*
X121604Y-113207D01*
X120729Y-113873D01*
X119729Y-114040D01*
G01X125979Y-104040D02*
X127729Y-114040D01*
X129729Y-104040D01*
X131729Y-114040D01*
X133479Y-104040D01*
G01X135979Y-117373D02*
X143479D01*
G01X148229Y-104040D02*
X151229D01*
G01X149729D02*
Y-114040D01*
G01X148229D02*
X151229D01*
G01X156479D02*
Y-104040D01*
X159729Y-112373D01*
X162979Y-104040D01*
Y-114040D01*
G01X167104D02*
X172354Y-104040D01*
G01X167104D02*
X172354Y-114040D01*
G01X179729D02*
X180604Y-113873D01*
X181604Y-113373D01*
X182229Y-112540D01*
X182479Y-111373D01*
X182229Y-110207D01*
X181479Y-109207D01*
X180354Y-108707D01*
X179104D01*
X178354Y-108373D01*
X177729Y-107540D01*
X177479Y-106373D01*
X177854Y-105207D01*
X178729Y-104373D01*
X179729Y-104040D01*
X180729Y-104373D01*
X181604Y-105207D01*
X181979Y-106373D01*
X181729Y-107540D01*
X181104Y-108373D01*
X180354Y-108707D01*
X179104D01*
X177979Y-109207D01*
X177229Y-110207D01*
X176979Y-111373D01*
X177229Y-112540D01*
X177854Y-113373D01*
X178854Y-113873D01*
X179729Y-114040D01*
G01X186479D02*
Y-104040D01*
X189729Y-112373D01*
X192979Y-104040D01*
Y-114040D01*
G01X195979Y-117373D02*
X203479D01*
G01X207104Y-114040D02*
Y-104040D01*
G01X212354D02*
Y-114040D01*
G01Y-109040D02*
X207104D01*
G01X216479Y-114040D02*
Y-104040D01*
X219729Y-112373D01*
X222979Y-104040D01*
Y-114040D01*
G01X228229Y-104040D02*
X231229D01*
G01X229729D02*
Y-114040D01*
G01X228229D02*
X231229D01*
G01X235979Y-117373D02*
X243479D01*
G01X247229Y-114040D02*
Y-104040D01*
X250229D01*
X251229Y-104540D01*
X251979Y-105707D01*
X252229Y-107040D01*
X251979Y-108373D01*
X251354Y-109373D01*
X250229Y-109874D01*
X247229D01*
G01X257229Y-104040D02*
Y-114040D01*
X262229D01*
G01X266604D02*
X269729Y-104040D01*
X272854Y-114040D01*
G01X271729Y-110540D02*
X267729D01*
G01X279729Y-104040D02*
Y-114040D01*
G01X276854Y-104040D02*
X282604D01*
G01X287354Y-114040D02*
Y-104040D01*
X292104D01*
G01X290354Y-108873D02*
X287354D01*
G01X299729Y-114040D02*
X298729Y-113873D01*
X297854Y-113207D01*
X297104Y-112207D01*
X296604Y-111040D01*
X296354Y-109707D01*
Y-108373D01*
X296604Y-107040D01*
X297104Y-105873D01*
X297854Y-104873D01*
X298729Y-104207D01*
X299729Y-104040D01*
X300729Y-104207D01*
X301604Y-104873D01*
X302354Y-105873D01*
X302854Y-107040D01*
X303104Y-108373D01*
Y-109707D01*
X302854Y-111040D01*
X302354Y-112207D01*
X301604Y-113207D01*
X300729Y-113873D01*
X299729Y-114040D01*
G01X307229D02*
Y-104040D01*
X310354D01*
X311354Y-104540D01*
X311979Y-105207D01*
X312229Y-106540D01*
X311979Y-107873D01*
X311229Y-108707D01*
X310354Y-109207D01*
X307229D01*
G01X310354D02*
X312229Y-114040D01*
G01X316479D02*
Y-104040D01*
X319729Y-112373D01*
X322979Y-104040D01*
Y-114040D01*
G01X340729Y-108707D02*
X341229Y-108207D01*
X341604Y-107374D01*
X341854Y-106207D01*
X341604Y-105207D01*
X341104Y-104540D01*
X340229Y-104040D01*
X336854D01*
Y-114040D01*
X340979D01*
X341854Y-113373D01*
X342354Y-112373D01*
X342604Y-111207D01*
X342354Y-110040D01*
X341604Y-109040D01*
X340729Y-108707D01*
X336854D01*
G01X349729Y-114040D02*
X348729Y-113873D01*
X347854Y-113207D01*
X347104Y-112207D01*
X346604Y-111040D01*
X346354Y-109707D01*
Y-108373D01*
X346604Y-107040D01*
X347104Y-105873D01*
X347854Y-104873D01*
X348729Y-104207D01*
X349729Y-104040D01*
X350729Y-104207D01*
X351604Y-104873D01*
X352354Y-105873D01*
X352854Y-107040D01*
X353104Y-108373D01*
Y-109707D01*
X352854Y-111040D01*
X352354Y-112207D01*
X351604Y-113207D01*
X350729Y-113873D01*
X349729Y-114040D01*
G01X356604D02*
X359729Y-104040D01*
X362854Y-114040D01*
G01X361729Y-110540D02*
X357729D01*
G01X367229Y-114040D02*
Y-104040D01*
X370354D01*
X371354Y-104540D01*
X371979Y-105207D01*
X372229Y-106540D01*
X371979Y-107873D01*
X371229Y-108707D01*
X370354Y-109207D01*
X367229D01*
G01X370354D02*
X372229Y-114040D01*
G01X376979D02*
Y-104040D01*
X379479D01*
X380479Y-104540D01*
X381229Y-105207D01*
X381854Y-106207D01*
X382354Y-107374D01*
X382479Y-109040D01*
X382354Y-110707D01*
X381854Y-111873D01*
X381229Y-112874D01*
X380479Y-113540D01*
X379479Y-114040D01*
X376979D01*
G01X-83021Y-94040D02*
Y-84040D01*
X-80521D01*
X-79521Y-84540D01*
X-78771Y-85207D01*
X-78146Y-86207D01*
X-77646Y-87374D01*
X-77521Y-89040D01*
X-77646Y-90707D01*
X-78146Y-91873D01*
X-78771Y-92874D01*
X-79521Y-93540D01*
X-80521Y-94040D01*
X-83021D01*
G01X-67771D02*
X-72771D01*
Y-84040D01*
X-67771D01*
G01X-69771Y-88873D02*
X-72771D01*
G01X-62896Y-92707D02*
X-61896Y-93540D01*
X-60771Y-94040D01*
X-59771D01*
X-58771Y-93540D01*
X-58021Y-92707D01*
X-57646Y-91540D01*
X-57896Y-90374D01*
X-58521Y-89373D01*
X-59646Y-88707D01*
X-61146Y-88373D01*
X-62021Y-87707D01*
X-62396Y-86540D01*
X-62146Y-85373D01*
X-61521Y-84540D01*
X-60646Y-84040D01*
X-59771D01*
X-58896Y-84373D01*
X-58146Y-85207D01*
G01X-51771Y-84040D02*
X-48771D01*
G01X-50271D02*
Y-94040D01*
G01X-51771D02*
X-48771D01*
G01X-39521Y-89040D02*
X-37021D01*
Y-92040D01*
X-37771Y-93040D01*
X-38646Y-93707D01*
X-39896Y-94040D01*
X-41146Y-93707D01*
X-42021Y-93040D01*
X-42771Y-92040D01*
X-43271Y-90873D01*
X-43521Y-89540D01*
Y-88373D01*
X-43271Y-87374D01*
X-42771Y-86207D01*
X-42021Y-85207D01*
X-41271Y-84540D01*
X-40271Y-84040D01*
X-39396D01*
X-38396Y-84373D01*
X-37646Y-85040D01*
G01X-33146Y-94040D02*
Y-84040D01*
X-27396Y-94040D01*
Y-84040D01*
G01X-17771Y-94040D02*
X-22771D01*
Y-84040D01*
X-17771D01*
G01X-19771Y-88873D02*
X-22771D01*
G01X-13021Y-94040D02*
Y-84040D01*
X-10521D01*
X-9521Y-84540D01*
X-8771Y-85207D01*
X-8146Y-86207D01*
X-7646Y-87374D01*
X-7521Y-89040D01*
X-7646Y-90707D01*
X-8146Y-91873D01*
X-8771Y-92874D01*
X-9521Y-93540D01*
X-10521Y-94040D01*
X-13021D01*
G01X6604D02*
X9729Y-84040D01*
X12854Y-94040D01*
G01X11729Y-90540D02*
X7729D01*
G01X19729Y-84040D02*
Y-94040D01*
G01X16854Y-84040D02*
X22604D01*
G01X29729Y-94373D02*
X29479Y-94207D01*
Y-93873D01*
X29729Y-93707D01*
X29979Y-93873D01*
Y-94207D01*
X29729Y-94373D01*
G01Y-89874D02*
X29479Y-89707D01*
Y-89373D01*
X29729Y-89207D01*
X29979Y-89373D01*
Y-89707D01*
X29729Y-89874D01*
G01X47854Y-89540D02*
X51854D01*
X51479Y-88373D01*
X50854Y-87707D01*
X49979Y-87374D01*
X49104Y-87540D01*
X48354Y-88040D01*
X47854Y-89207D01*
X47604Y-90207D01*
Y-91207D01*
X47854Y-92207D01*
X48479Y-93207D01*
X49229Y-93873D01*
X50104Y-94040D01*
X50979Y-93707D01*
X51854Y-92707D01*
G01X58229Y-84040D02*
X61229D01*
G01X59729D02*
Y-94040D01*
G01X58229D02*
X61229D01*
G01X66854D02*
Y-84040D01*
X72604Y-94040D01*
Y-84040D01*
G01X77354Y-94040D02*
Y-84040D01*
X82104D01*
G01X80354Y-88873D02*
X77354D01*
G01X89729Y-94040D02*
X88729Y-93873D01*
X87854Y-93207D01*
X87104Y-92207D01*
X86604Y-91040D01*
X86354Y-89707D01*
Y-88373D01*
X86604Y-87040D01*
X87104Y-85873D01*
X87854Y-84873D01*
X88729Y-84207D01*
X89729Y-84040D01*
X90729Y-84207D01*
X91604Y-84873D01*
X92354Y-85873D01*
X92854Y-87040D01*
X93104Y-88373D01*
Y-89707D01*
X92854Y-91040D01*
X92354Y-92207D01*
X91604Y-93207D01*
X90729Y-93873D01*
X89729Y-94040D01*
G01X102479Y-84873D02*
X101729Y-84373D01*
X100854Y-84040D01*
X99854D01*
X98729Y-84540D01*
X97854Y-85373D01*
X97229Y-86373D01*
X96729Y-88040D01*
X96604Y-89540D01*
X96854Y-91040D01*
X97229Y-92040D01*
X97979Y-93040D01*
X98854Y-93707D01*
X99729Y-94040D01*
X100604D01*
X101479Y-93707D01*
X102229Y-93207D01*
X102854Y-92540D01*
G01X107104Y-94040D02*
Y-84040D01*
G01X112354D02*
Y-94040D01*
G01Y-89040D02*
X107104D01*
G01X118229Y-84040D02*
X121229D01*
G01X119729D02*
Y-94040D01*
G01X118229D02*
X121229D01*
G01X127229D02*
Y-84040D01*
X130229D01*
X131229Y-84540D01*
X131979Y-85707D01*
X132229Y-87040D01*
X131979Y-88373D01*
X131354Y-89373D01*
X130229Y-89874D01*
X127229D01*
G01X137104Y-92707D02*
X138104Y-93540D01*
X139229Y-94040D01*
X140229D01*
X141229Y-93540D01*
X141979Y-92707D01*
X142354Y-91540D01*
X142104Y-90374D01*
X141479Y-89373D01*
X140354Y-88707D01*
X138854Y-88373D01*
X137979Y-87707D01*
X137604Y-86540D01*
X137854Y-85373D01*
X138479Y-84540D01*
X139354Y-84040D01*
X140229D01*
X141104Y-84373D01*
X141854Y-85207D01*
G01X-82850Y-75234D02*
Y-65234D01*
X-80350D01*
X-79350Y-65734D01*
X-78600Y-66401D01*
X-77975Y-67401D01*
X-77475Y-68568D01*
X-77350Y-70234D01*
X-77475Y-71901D01*
X-77975Y-73067D01*
X-78600Y-74068D01*
X-79350Y-74734D01*
X-80350Y-75234D01*
X-82850D01*
G01X-73225D02*
X-70100Y-65234D01*
X-66975Y-75234D01*
G01X-68100Y-71734D02*
X-72100D01*
G01X-60100Y-65234D02*
Y-75234D01*
G01X-62975Y-65234D02*
X-57225D01*
G01X-47600Y-75234D02*
X-52600D01*
Y-65234D01*
X-47600D01*
G01X-49600Y-70067D02*
X-52600D01*
G01X-40100Y-75567D02*
X-40350Y-75401D01*
Y-75067D01*
X-40100Y-74901D01*
X-39850Y-75067D01*
Y-75401D01*
X-40100Y-75567D01*
G01Y-71068D02*
X-40350Y-70901D01*
Y-70567D01*
X-40100Y-70401D01*
X-39850Y-70567D01*
Y-70901D01*
X-40100Y-71068D01*
G01X-20100Y-75234D02*
Y-65234D01*
X-21600Y-67234D01*
G01Y-75234D02*
X-18600D01*
G01X-10100D02*
Y-65234D01*
X-11600Y-67234D01*
G01Y-75234D02*
X-8600D01*
G01X-2350Y-75567D02*
X2150Y-65234D01*
G01X9900D02*
X8900Y-65567D01*
X8150Y-66401D01*
X7650Y-67401D01*
X7275Y-68734D01*
X7150Y-70234D01*
X7275Y-71734D01*
X7650Y-73067D01*
X8150Y-74068D01*
X8900Y-74901D01*
X9900Y-75234D01*
X10900Y-74901D01*
X11650Y-74068D01*
X12150Y-73067D01*
X12525Y-71734D01*
X12650Y-70234D01*
X12525Y-68734D01*
X12150Y-67401D01*
X11650Y-66401D01*
X10900Y-65567D01*
X9900Y-65234D01*
G01X17525Y-66901D02*
X18275Y-65901D01*
X19150Y-65401D01*
X20150Y-65234D01*
X21400Y-65567D01*
X22275Y-66401D01*
X22525Y-67401D01*
X22400Y-68401D01*
X21900Y-69234D01*
X19400Y-70901D01*
X18275Y-72067D01*
X17525Y-73734D01*
X17275Y-75234D01*
X22525D01*
G01X27650Y-75567D02*
X32150Y-65234D01*
G01X37525Y-66901D02*
X38275Y-65901D01*
X39150Y-65401D01*
X40150Y-65234D01*
X41400Y-65567D01*
X42275Y-66401D01*
X42525Y-67401D01*
X42400Y-68401D01*
X41900Y-69234D01*
X39400Y-70901D01*
X38275Y-72067D01*
X37525Y-73734D01*
X37275Y-75234D01*
X42525D01*
G01X49900Y-65234D02*
X48900Y-65567D01*
X48150Y-66401D01*
X47650Y-67401D01*
X47275Y-68734D01*
X47150Y-70234D01*
X47275Y-71734D01*
X47650Y-73067D01*
X48150Y-74068D01*
X48900Y-74901D01*
X49900Y-75234D01*
X50900Y-74901D01*
X51650Y-74068D01*
X52150Y-73067D01*
X52525Y-71734D01*
X52650Y-70234D01*
X52525Y-68734D01*
X52150Y-67401D01*
X51650Y-66401D01*
X50900Y-65567D01*
X49900Y-65234D01*
G01X59900Y-75234D02*
Y-65234D01*
X58400Y-67234D01*
G01Y-75234D02*
X61400D01*
G01X67775Y-74068D02*
X68650Y-74901D01*
X69650Y-75234D01*
X70650Y-74901D01*
X71525Y-73901D01*
X72150Y-72401D01*
X72400Y-70901D01*
Y-69067D01*
X72150Y-67567D01*
X71525Y-66234D01*
X70775Y-65567D01*
X69900Y-65234D01*
X68900Y-65567D01*
X68150Y-66234D01*
X67650Y-67234D01*
X67400Y-68568D01*
X67650Y-69734D01*
X68275Y-70901D01*
X69025Y-71568D01*
X69900Y-71734D01*
X70900Y-71401D01*
X71650Y-70567D01*
X72400Y-69067D01*
G01X59804Y-52540D02*
X63804D01*
X63429Y-51373D01*
X62804Y-50707D01*
X61929Y-50374D01*
X61054Y-50540D01*
X60304Y-51040D01*
X59804Y-52207D01*
X59554Y-53207D01*
Y-54207D01*
X59804Y-55207D01*
X60429Y-56207D01*
X61179Y-56873D01*
X62054Y-57040D01*
X62929Y-56707D01*
X63804Y-55707D01*
G01X70179Y-47040D02*
X73179D01*
G01X71679D02*
Y-57040D01*
G01X70179D02*
X73179D01*
G01X78804D02*
Y-47040D01*
X84554Y-57040D01*
Y-47040D01*
G01X89304Y-57040D02*
Y-47040D01*
X94054D01*
G01X92304Y-51873D02*
X89304D01*
G01X101679Y-57040D02*
X100679Y-56873D01*
X99804Y-56207D01*
X99054Y-55207D01*
X98554Y-54040D01*
X98304Y-52707D01*
Y-51373D01*
X98554Y-50040D01*
X99054Y-48873D01*
X99804Y-47873D01*
X100679Y-47207D01*
X101679Y-47040D01*
X102679Y-47207D01*
X103554Y-47873D01*
X104304Y-48873D01*
X104804Y-50040D01*
X105054Y-51373D01*
Y-52707D01*
X104804Y-54040D01*
X104304Y-55207D01*
X103554Y-56207D01*
X102679Y-56873D01*
X101679Y-57040D01*
G01X114429Y-47873D02*
X113679Y-47373D01*
X112804Y-47040D01*
X111804D01*
X110679Y-47540D01*
X109804Y-48373D01*
X109179Y-49373D01*
X108679Y-51040D01*
X108554Y-52540D01*
X108804Y-54040D01*
X109179Y-55040D01*
X109929Y-56040D01*
X110804Y-56707D01*
X111679Y-57040D01*
X112554D01*
X113429Y-56707D01*
X114179Y-56207D01*
X114804Y-55540D01*
G01X119054Y-57040D02*
Y-47040D01*
G01X124304D02*
Y-57040D01*
G01Y-52040D02*
X119054D01*
G01X130179Y-47040D02*
X133179D01*
G01X131679D02*
Y-57040D01*
G01X130179D02*
X133179D01*
G01X139179D02*
Y-47040D01*
X142179D01*
X143179Y-47540D01*
X143929Y-48707D01*
X144179Y-50040D01*
X143929Y-51373D01*
X143304Y-52373D01*
X142179Y-52874D01*
X139179D01*
G01X149054Y-55707D02*
X150054Y-56540D01*
X151179Y-57040D01*
X152179D01*
X153179Y-56540D01*
X153929Y-55707D01*
X154304Y-54540D01*
X154054Y-53374D01*
X153429Y-52373D01*
X152304Y-51707D01*
X150804Y-51373D01*
X149929Y-50707D01*
X149554Y-49540D01*
X149804Y-48373D01*
X150429Y-47540D01*
X151304Y-47040D01*
X152179D01*
X153054Y-47373D01*
X153804Y-48207D01*
G01X318200Y-92634D02*
Y-82634D01*
X321325D01*
X322325Y-83134D01*
X322950Y-83801D01*
X323200Y-85134D01*
X322950Y-86467D01*
X322200Y-87301D01*
X321325Y-87801D01*
X318200D01*
G01X321325D02*
X323200Y-92634D01*
G01X333200D02*
X328200D01*
Y-82634D01*
X333200D01*
G01X331200Y-87467D02*
X328200D01*
G01X337575Y-82634D02*
X340700Y-92634D01*
X343825Y-82634D01*
G01X350700Y-92967D02*
X350450Y-92801D01*
Y-92467D01*
X350700Y-92301D01*
X350950Y-92467D01*
Y-92801D01*
X350700Y-92967D01*
G01Y-88468D02*
X350450Y-88301D01*
Y-87967D01*
X350700Y-87801D01*
X350950Y-87967D01*
Y-88301D01*
X350700Y-88468D01*
G01X358325Y-84301D02*
X359075Y-83301D01*
X359950Y-82801D01*
X360950Y-82634D01*
X362200Y-82967D01*
X363075Y-83801D01*
X363325Y-84801D01*
X363200Y-85801D01*
X362700Y-86634D01*
X360200Y-88301D01*
X359075Y-89467D01*
X358325Y-91134D01*
X358075Y-92634D01*
X363325D01*
G01X370700Y-92967D02*
X370450Y-92801D01*
Y-92467D01*
X370700Y-92301D01*
X370950Y-92467D01*
Y-92801D01*
X370700Y-92967D01*
G01X380700Y-82634D02*
X379700Y-82967D01*
X378950Y-83801D01*
X378450Y-84801D01*
X378075Y-86134D01*
X377950Y-87634D01*
X378075Y-89134D01*
X378450Y-90467D01*
X378950Y-91468D01*
X379700Y-92301D01*
X380700Y-92634D01*
X381700Y-92301D01*
X382450Y-91468D01*
X382950Y-90467D01*
X383325Y-89134D01*
X383450Y-87634D01*
X383325Y-86134D01*
X382950Y-84801D01*
X382450Y-83801D01*
X381700Y-82967D01*
X380700Y-82634D01*
G54D23*
X159650Y153750D03*
X166950D03*
G54D107*
X316030Y216660D03*
Y224140D03*
X307370Y220400D03*
G54D134*
X285543Y343241D03*
X293023Y340682D03*
Y345800D03*
G54D116*
X260069Y117291D03*
X272269D03*
X260069Y124491D03*
X272269D03*
G54D32*
X68202Y118600D03*
X65998D03*
X98698Y269900D03*
X100902D03*
X101502Y286600D03*
X99298D03*
X100915Y267357D03*
X98711D03*
X50598Y318900D03*
X52802D03*
X60098Y336100D03*
X62302D03*
X64002Y328000D03*
X61798D03*
X73702Y328400D03*
X71498D03*
X51302Y332100D03*
X49098D03*
X57502Y335400D03*
X55298D03*
X64002Y330300D03*
X61798D03*
X73702Y330646D03*
X71498D03*
X90698Y332700D03*
X92902D03*
X58798Y297700D03*
X61002D03*
X50298Y313500D03*
X52502D03*
X58798Y300100D03*
X61002D03*
X50898Y305500D03*
X53102D03*
X50898Y303300D03*
X53102D03*
X50598Y316600D03*
X52802D03*
X65498Y301600D03*
X67702D03*
X65498Y299300D03*
X67702D03*
X108102Y265514D03*
X105898D03*
X108102Y268040D03*
X105898D03*
X108102Y270566D03*
X105898D03*
X108102Y273092D03*
X105898D03*
X208802Y215000D03*
X206598D03*
X217498Y108500D03*
X219702D03*
X251102Y126000D03*
X248898D03*
X259533Y100169D03*
X261737D03*
X228802Y78100D03*
X226598D03*
X259698Y105600D03*
X261902D03*
X259733Y108269D03*
X261937D03*
X219667Y105431D03*
X217463D03*
X277502Y242500D03*
X275298D03*
X277502Y252000D03*
X275298D03*
X277502Y270500D03*
X275298D03*
X277502Y277500D03*
X275298D03*
G54D50*
X183261Y166400D03*
G54D41*
X134793Y124143D03*
Y109857D03*
X120507D03*
Y124143D03*
G54D125*
X253100Y68787D03*
X263100D03*
X273100D03*
X283100D03*
X248100Y58787D03*
X258100D03*
X268100D03*
X278100D03*
X288100D03*
G54D14*
X141732Y196850D03*
X299212D03*
G54D144*
G01X0Y0D02*
Y393701D01*
X334646D01*
Y0D01*
X0D01*
G54D60*
X52710Y180144D03*
X54679D03*
X56647D03*
X58616D03*
X60584D03*
X62553D03*
X64521D03*
X66490D03*
G54D108*
X277928Y96843D03*
X268872D03*
Y89757D03*
X277928D03*
X246472Y199457D03*
X255528D03*
Y206543D03*
X246472D03*
X263479Y199314D03*
X272535D03*
Y206400D03*
X263479D03*
G54D15*
X135164Y47300D03*
Y52300D03*
Y57300D03*
Y62300D03*
Y67300D03*
Y72300D03*
Y77300D03*
Y82300D03*
X97736D03*
Y77300D03*
Y72300D03*
Y67300D03*
Y62300D03*
Y57300D03*
Y52300D03*
Y47300D03*
G54D126*
X243100Y33787D03*
X288100D03*
G54D117*
X309960Y29492D03*
X271460Y141592D03*
G54D51*
X189461Y163448D03*
Y165416D03*
Y167384D03*
Y169352D03*
X177061D03*
Y167384D03*
Y165416D03*
Y163448D03*
G54D42*
X130258Y119608D03*
Y114392D03*
X125042D03*
Y119608D03*
G54D24*
X54937Y63945D03*
X91421Y164680D03*
G54D135*
X261221Y332983D03*
G54D33*
X173400Y122000D03*
X184400D03*
X173400Y134950D03*
X184400D03*
X68100Y377800D03*
X79100D03*
X171000Y366195D03*
X160000D03*
G54D70*
X59846Y140390D03*
Y138421D03*
Y136453D03*
Y134484D03*
Y132516D03*
Y130547D03*
Y128579D03*
Y126610D03*
X79354D03*
Y128579D03*
Y130547D03*
Y132516D03*
Y134484D03*
Y136453D03*
Y138421D03*
Y140390D03*
G54D61*
X59600Y170400D03*
G54D109*
X239700Y95700D03*
G54D136*
X245628Y384341D03*
Y386900D03*
Y389459D03*
X254172D03*
Y386900D03*
Y384341D03*
X214328Y384241D03*
Y386800D03*
Y389359D03*
X222872D03*
Y386800D03*
Y384241D03*
X257428Y371441D03*
Y374000D03*
Y376559D03*
X265972D03*
Y374000D03*
Y371441D03*
X229628Y384341D03*
Y386900D03*
Y389459D03*
X238172D03*
Y386900D03*
Y384341D03*
G54D34*
X175616Y43000D03*
X179384D03*
X175416Y46500D03*
X179184D03*
X40184Y155300D03*
X36416D03*
X114484Y104700D03*
X110716D03*
X114484Y125200D03*
X110716D03*
X92766Y206833D03*
X96534D03*
X134266Y197453D03*
X138034D03*
X85666Y203013D03*
X89434D03*
X46284Y187500D03*
X42516D03*
X36684Y94600D03*
X32916D03*
X13284Y94700D03*
X9516D03*
X84284Y189600D03*
X80516D03*
X76116Y154900D03*
X79884D03*
X59984Y105800D03*
X56216D03*
X138214Y174059D03*
X141982D03*
X171549Y169951D03*
X167781D03*
X195051Y165449D03*
X198819D03*
X167803Y173163D03*
X171571D03*
X149466Y190467D03*
X153234D03*
X153208Y186333D03*
X149440D03*
X92866Y194573D03*
X96634D03*
X92866Y198413D03*
X96634D03*
X96560Y203027D03*
X92792D03*
X56216Y114100D03*
X59984D03*
X65351Y104309D03*
X69119D03*
X114484Y108400D03*
X110716D03*
X90214Y182719D03*
X93982D03*
X142012Y181301D03*
X138244D03*
X86579Y58337D03*
X82811D03*
X42516Y190800D03*
X46284D03*
X14716Y162200D03*
X18484D03*
X14716Y166000D03*
X18484D03*
X16016Y176000D03*
X19784D03*
X75516Y175200D03*
X79284D03*
X114484Y112701D03*
X110716D03*
X57384Y100800D03*
X53616D03*
X171584Y163483D03*
X167816D03*
X171584Y166683D03*
X167816D03*
X118116Y104329D03*
X121884D03*
X62816Y149100D03*
X66584D03*
X42216Y108600D03*
X45984D03*
X86816Y125400D03*
X90584D03*
X84816Y136600D03*
X88584D03*
X85316Y131500D03*
X89084D03*
X85516Y128600D03*
X89284D03*
X85684Y206813D03*
X89452D03*
X66284Y154900D03*
X62516D03*
X114484Y121200D03*
X110716D03*
Y117200D03*
X114484D03*
X47584Y155300D03*
X43816D03*
X86584Y62100D03*
X82816D03*
X72984Y186100D03*
X69216D03*
X73516Y161200D03*
X77284D03*
X195021Y162203D03*
X198789D03*
X124112Y153361D03*
X120344D03*
X107414Y153059D03*
X111182D03*
X92412Y211261D03*
X88644D03*
X94062Y179219D03*
X90294D03*
X138164Y177601D03*
X141932D03*
X59984Y111000D03*
X56216D03*
X163687Y211949D03*
X167455D03*
X139084Y139200D03*
X135316D03*
X163687Y215849D03*
X167455D03*
X72984Y189500D03*
X69216D03*
X176416Y156299D03*
X180184D03*
X189821Y93763D03*
X193589D03*
X79848Y194334D03*
X76080D03*
X16984Y126141D03*
X13216D03*
Y148159D03*
X16984D03*
X85984Y114500D03*
X82216D03*
X46084Y105400D03*
X42316D03*
X82216Y120800D03*
X85984D03*
X84816Y139600D03*
X88584D03*
X84816Y142600D03*
X88584D03*
X82216Y117700D03*
X85984D03*
X84916Y145500D03*
X88684D03*
X187484Y356300D03*
X183716D03*
X125413Y333175D03*
X121645D03*
X191900Y222017D03*
X188132D03*
X187816Y280100D03*
X191584D03*
X195384Y286500D03*
X191616D03*
X195384Y290700D03*
X191616D03*
X92812Y225461D03*
X89044D03*
X198021Y351770D03*
X200284Y314800D03*
X196516D03*
X184384Y314200D03*
X180616D03*
X171784Y313700D03*
X168016D03*
X184784Y290700D03*
X181016D03*
X184784Y287300D03*
X181016D03*
X184684Y283100D03*
X180916D03*
X171816Y313700D03*
X175584D03*
X184416Y314200D03*
X188184D03*
X200316Y314800D03*
X38016Y366200D03*
X41784D03*
X36316Y377900D03*
X40084D03*
X164984Y348900D03*
X161216D03*
X191584Y290700D03*
X187816D03*
X191584Y286500D03*
X187816D03*
X191584Y283200D03*
X187816D03*
X86521Y242333D03*
X90289D03*
X86521Y238873D03*
X90289D03*
X172492Y378600D03*
X168724D03*
Y382400D03*
X172492D03*
X159979Y235677D03*
X156211D03*
X58016Y371100D03*
X61784D03*
X183716Y353000D03*
X187484D03*
X165416Y255200D03*
X169184D03*
X150116Y302900D03*
X153884D03*
X156716Y243400D03*
X160484D03*
X135432Y258983D03*
X139200D03*
X134184Y299600D03*
X130416D03*
X183216Y272551D03*
X186984D03*
X190384Y249900D03*
X186616D03*
X190384Y253345D03*
X186616D03*
X32384Y323600D03*
X28616D03*
X119184Y368465D03*
X115416D03*
X45016Y364400D03*
X48784D03*
X86511Y228448D03*
X90279D03*
X189317Y373100D03*
X185549D03*
X107614Y246019D03*
X111382D03*
X126542Y246047D03*
X122774D03*
X38216Y333100D03*
X41984D03*
X38216Y336800D03*
X41984D03*
X114516Y334800D03*
X118284D03*
X114516Y338300D03*
X118284D03*
X127369Y324949D03*
X131137D03*
X79221Y228455D03*
X82989D03*
X92862Y222019D03*
X89094D03*
X86511Y231968D03*
X90279D03*
X79211Y225185D03*
X82979D03*
X93416Y328000D03*
X97184D03*
X160700Y277117D03*
X164468D03*
X130416Y296300D03*
X134184D03*
X133968Y285617D03*
X130200D03*
X120700Y279617D03*
X124468D03*
X120616Y269800D03*
X124384D03*
X150116Y299300D03*
X153884D03*
X156716Y246700D03*
X160484D03*
X190384Y256845D03*
X186616D03*
X189284Y376600D03*
X185516D03*
X62566Y292900D03*
X58798D03*
X36484Y305200D03*
X32716D03*
X87084Y340300D03*
X83316D03*
X80516Y221900D03*
X84284D03*
X259616Y82400D03*
X263384D03*
X216516Y88800D03*
X220284D03*
X216516Y100800D03*
X220284D03*
X270284Y106600D03*
X266516D03*
X220284Y92800D03*
X216516D03*
X220284Y96800D03*
X216516D03*
X266516Y110200D03*
X270284D03*
X251484Y216000D03*
X247716D03*
X269084Y215300D03*
X265316D03*
X310584Y102337D03*
X306816D03*
X273016Y171400D03*
X276784D03*
X325384Y45200D03*
X321616D03*
X324616Y114699D03*
X328384D03*
X321849Y107591D03*
X318081D03*
X312849Y170591D03*
X309081D03*
X316749Y183891D03*
X312981D03*
X314221Y26923D03*
X317989D03*
X222551Y200269D03*
X226319D03*
X275216Y162200D03*
X278984D03*
X321849Y111431D03*
X318081D03*
X247784Y212500D03*
X244016D03*
X251416Y212600D03*
X255184D03*
X265284Y212200D03*
X261516D03*
X269116D03*
X272884D03*
X260116Y102900D03*
X263884D03*
X312784Y40700D03*
X309016D03*
X321884Y103300D03*
X318116D03*
X261216Y323400D03*
X264984D03*
X261216Y318200D03*
X264984D03*
X266588Y340451D03*
X262820D03*
X252412Y335649D03*
X256180D03*
X201789Y351770D03*
X228416Y314800D03*
X232184D03*
X215484D03*
X211716D03*
X304703Y348483D03*
X308471D03*
X215516Y314800D03*
X219284D03*
X228384D03*
X224616D03*
X204084D03*
X293497Y335317D03*
X289729D03*
X266316Y333000D03*
X270084D03*
X287084Y315600D03*
X283316D03*
X302479Y330157D03*
X298711D03*
X267784Y358200D03*
X264016D03*
X323584Y339500D03*
X319816D03*
X297921Y351083D03*
X301689D03*
X265484Y328000D03*
X261716D03*
X302519Y333749D03*
X298751D03*
X266499Y353316D03*
X270267D03*
G54D43*
X122720Y124600D03*
X124690D03*
X126660D03*
X128640D03*
X130610D03*
X132580D03*
Y109400D03*
X130610D03*
X128640D03*
X126660D03*
X124690D03*
X122720D03*
G54D118*
X308085Y29492D03*
X306510D03*
X304935D03*
X303360D03*
Y34650D03*
X304935D03*
X306510D03*
X308085D03*
X309660D03*
X269585Y141592D03*
X268010D03*
X266435D03*
X264860D03*
Y146750D03*
X266435D03*
X268010D03*
X269585D03*
X271160D03*
G54D127*
X249458Y17803D03*
X281781D03*
X239439D03*
X291840D03*
G54D25*
X64937Y63945D03*
G54D52*
X152756Y29726D03*
X150394Y10435D03*
X209842Y29726D03*
X212205Y10435D03*
X207707Y364274D03*
X264793D03*
X267155Y383565D03*
X205344D03*
G54D16*
X7697Y175949D03*
Y157051D03*
G54D137*
X284800Y381450D03*
Y388750D03*
G54D53*
X141560Y26879D03*
X124040D03*
Y36721D03*
X141560D03*
G54D71*
X162545Y50800D03*
X168255D03*
X293681Y325457D03*
X287971D03*
X293681Y330213D03*
X287971D03*
G54D80*
X193732Y326953D03*
X191762D03*
X189792D03*
X187822D03*
X185852D03*
Y322113D03*
X187822D03*
X189792D03*
X191762D03*
X176248Y326953D03*
X174278D03*
X172308D03*
X170338D03*
X168368D03*
Y322113D03*
X170338D03*
X172308D03*
X174278D03*
X181340Y344320D03*
X179370D03*
X177400D03*
X175430D03*
X173460D03*
Y339480D03*
X175430D03*
X177400D03*
X179370D03*
X198640Y344120D03*
X196670D03*
X194700D03*
X192730D03*
X190760D03*
Y339280D03*
X192730D03*
X194700D03*
X196670D03*
X249132Y329174D03*
X247162D03*
X245192D03*
X243222D03*
X241252D03*
Y324334D03*
X243222D03*
X245192D03*
X247162D03*
X217532Y343987D03*
X215562D03*
X213592D03*
X211622D03*
X209652D03*
Y339147D03*
X211622D03*
X213592D03*
X215562D03*
X230109Y329174D03*
X228139D03*
X226169D03*
X224199D03*
X222229D03*
Y324334D03*
X224199D03*
X226169D03*
X228139D03*
X237840Y358520D03*
X235870D03*
X233900D03*
X231930D03*
X229960D03*
Y353680D03*
X231930D03*
X233900D03*
X235870D03*
X226163Y358501D03*
X224193D03*
X222223D03*
X220253D03*
X218283D03*
Y353661D03*
X220253D03*
X222223D03*
X224193D03*
X212932Y326953D03*
X210962D03*
X208992D03*
X207022D03*
X205052D03*
Y322113D03*
X207022D03*
X208992D03*
X210962D03*
G54D62*
X84100Y184600D03*
Y180200D03*
X80900D03*
Y184600D03*
G54D35*
X26800Y181116D03*
Y184884D03*
X161851Y20312D03*
Y24080D03*
X174851Y20312D03*
Y24080D03*
X147663Y193526D03*
Y197294D03*
X90361Y171988D03*
Y175756D03*
X137000Y131116D03*
Y134884D03*
X159100Y54584D03*
Y50816D03*
X195216Y216099D03*
X151763Y193526D03*
Y197294D03*
X199016Y216099D03*
X171500Y50784D03*
Y47016D03*
X144277Y49521D03*
Y53289D03*
X75377Y175321D03*
Y179089D03*
X12300Y181016D03*
Y184784D03*
X69245Y194516D03*
Y198284D03*
X65945Y194516D03*
Y198284D03*
X119000Y131216D03*
Y134984D03*
X107199Y117884D03*
Y114116D03*
X111600Y131316D03*
Y135084D03*
X104500Y131316D03*
Y135084D03*
X108100D03*
Y131316D03*
X61352Y93333D03*
Y97101D03*
X115797Y25520D03*
Y29288D03*
Y34312D03*
Y38080D03*
X72500Y157984D03*
Y154216D03*
X58571Y194316D03*
Y198084D03*
X82729Y174684D03*
Y170916D03*
X89371Y194916D03*
Y198684D03*
X86071Y170916D03*
Y174684D03*
X62429Y198084D03*
Y194316D03*
X30200Y188984D03*
Y185216D03*
X89700Y122784D03*
Y119016D03*
X144800Y67184D03*
Y63416D03*
X107100Y125184D03*
Y121416D03*
X52800Y105816D03*
Y109584D03*
X57405Y97131D03*
Y93363D03*
X23300Y184884D03*
Y181116D03*
X148400Y67184D03*
Y63416D03*
X76900Y184316D03*
Y188084D03*
X74600Y164416D03*
Y168184D03*
X43213Y175189D03*
Y171421D03*
X42400Y178616D03*
Y182384D03*
X136114Y207161D03*
Y210929D03*
X39700Y175184D03*
Y171416D03*
X122201Y131216D03*
Y134984D03*
X115300Y131216D03*
Y134984D03*
X45767Y178616D03*
Y182384D03*
X77800Y164416D03*
Y168184D03*
X69400Y154216D03*
Y157984D03*
X58299Y189784D03*
Y186016D03*
X37300Y178716D03*
Y182484D03*
X34400Y138484D03*
Y142252D03*
Y132116D03*
Y135884D03*
X53500Y122984D03*
Y119216D03*
X77000Y147816D03*
Y151584D03*
X44500Y139084D03*
Y135316D03*
X56363Y153584D03*
Y149816D03*
X80300Y147716D03*
Y151484D03*
X70200Y147916D03*
Y151684D03*
X52937Y149816D03*
Y153584D03*
X177000Y356284D03*
Y352516D03*
X128775Y328887D03*
Y332655D03*
X152549Y239449D03*
Y235681D03*
X145503Y381797D03*
Y378029D03*
X149283Y381797D03*
Y378029D03*
X69490Y227489D03*
Y223721D03*
X53300Y290616D03*
Y294384D03*
X142612Y228059D03*
Y224291D03*
X196700Y298716D03*
Y302484D03*
X193000Y298184D03*
Y294416D03*
X189300Y298216D03*
Y301984D03*
X168700Y302284D03*
Y298516D03*
X182400Y298216D03*
Y301984D03*
X185900Y298216D03*
Y301984D03*
X195216Y219867D03*
X185900Y298184D03*
Y294416D03*
X182400Y298184D03*
Y294416D03*
X168700Y302316D03*
Y306084D03*
X189300Y298184D03*
Y294416D03*
X193000Y298216D03*
Y301984D03*
X196700Y298684D03*
Y294916D03*
X108816Y375401D03*
Y371633D03*
X81800Y301784D03*
Y298016D03*
X102757Y359303D03*
Y363071D03*
X28937Y372103D03*
Y375871D03*
X24557Y372103D03*
Y375871D03*
X148891Y226751D03*
Y230519D03*
X199016Y219867D03*
X191705Y364384D03*
Y360616D03*
X126084Y370067D03*
Y366299D03*
X126583Y292968D03*
Y289200D03*
X159901Y323316D03*
Y327084D03*
X79930Y311161D03*
Y314929D03*
X83530Y311161D03*
Y314929D03*
X74800Y294216D03*
Y297984D03*
X180365Y352516D03*
Y356284D03*
X117667Y326479D03*
Y322711D03*
X65605Y223521D03*
Y227289D03*
X78600Y298016D03*
Y301784D03*
X139172Y220511D03*
Y224279D03*
X167251Y235687D03*
Y239455D03*
X163751Y235687D03*
Y239455D03*
X145584Y288233D03*
Y292001D03*
X169600Y267484D03*
Y263716D03*
X131289Y264316D03*
Y268084D03*
X74364Y226266D03*
Y222498D03*
X255400Y118084D03*
Y114316D03*
X311363Y179297D03*
Y175529D03*
X329003Y181097D03*
Y177329D03*
X253100Y152984D03*
Y149216D03*
X232000Y145116D03*
Y148884D03*
X242200Y144316D03*
Y148084D03*
X258100Y149316D03*
Y153084D03*
X276000Y28884D03*
Y25116D03*
X233300Y28684D03*
Y24916D03*
X253900Y130916D03*
Y134684D03*
X244335Y122616D03*
Y126384D03*
X247291Y116751D03*
Y120519D03*
X231500Y115016D03*
Y118784D03*
X234700Y115516D03*
Y119284D03*
X238300Y115416D03*
Y119184D03*
X240900Y122516D03*
Y126284D03*
X222900Y164716D03*
Y168484D03*
X219500Y164716D03*
Y168484D03*
X216100Y164716D03*
Y168484D03*
X212700Y164716D03*
Y168484D03*
X209300Y164716D03*
Y168484D03*
X226300Y164716D03*
Y168484D03*
X207400Y190516D03*
Y194284D03*
X230100Y165884D03*
Y162116D03*
X328295Y107287D03*
Y111055D03*
X271800Y165016D03*
Y168784D03*
X222700Y196184D03*
Y192416D03*
X306700Y47116D03*
Y50884D03*
X324600Y107316D03*
Y111084D03*
X262527Y93521D03*
Y97289D03*
X262487Y90089D03*
Y86321D03*
X314683Y34679D03*
Y30911D03*
X271131Y151251D03*
Y155019D03*
X275731Y143651D03*
Y147419D03*
X297759Y79349D03*
Y75581D03*
X302498D03*
Y79349D03*
X257800Y327184D03*
Y323416D03*
Y314416D03*
Y318184D03*
X213900Y367316D03*
Y371084D03*
X219100Y367316D03*
Y371084D03*
X222500Y367316D03*
Y371084D03*
X227700Y367316D03*
Y371084D03*
X239600Y367316D03*
Y371084D03*
X245300Y367316D03*
Y371084D03*
X231100Y367316D03*
Y371084D03*
X236300Y367316D03*
Y371084D03*
X305284Y315599D03*
Y319367D03*
X300016Y315833D03*
Y319601D03*
X308400Y319384D03*
Y315616D03*
X296016Y319601D03*
Y315833D03*
X286543Y355097D03*
Y351329D03*
X308577Y339503D03*
Y343271D03*
X312900Y371416D03*
Y375184D03*
X325000Y332316D03*
Y336084D03*
X284589Y332216D03*
Y335984D03*
X304237Y371416D03*
Y375184D03*
X299937Y371316D03*
Y375084D03*
X295537Y371216D03*
Y374984D03*
X321637Y371516D03*
Y375284D03*
X325937Y371416D03*
Y375184D03*
X239600Y374316D03*
Y378084D03*
X245300Y374316D03*
Y378084D03*
X311700Y367084D03*
Y363316D03*
X308600Y367084D03*
Y363316D03*
X308609Y360149D03*
Y356381D03*
X260684Y353299D03*
Y357067D03*
X222500Y378084D03*
Y374316D03*
X227700Y378084D03*
Y374316D03*
X249500Y377984D03*
Y374216D03*
X231100Y378084D03*
Y374316D03*
X236300Y378084D03*
Y374316D03*
X253300Y377984D03*
Y374216D03*
X213900Y378084D03*
Y374316D03*
X219100Y378084D03*
Y374316D03*
X319600Y366984D03*
Y363216D03*
G54D44*
X135250Y121930D03*
Y119960D03*
Y117990D03*
Y116010D03*
Y114040D03*
Y112070D03*
X120050D03*
Y114040D03*
Y116010D03*
Y117990D03*
Y119960D03*
Y121930D03*
G54D119*
X303341Y32071D03*
X309679D03*
X264841Y144171D03*
X271179D03*
G54D128*
X234675Y45795D03*
X296500D03*
G54D17*
X25808Y166500D03*
X7697D03*
G54D26*
X107000Y108800D03*
X85600Y199773D03*
X107100Y302900D03*
X102400Y303200D03*
X97900Y303400D03*
X93000Y303300D03*
X82300Y304700D03*
X249200Y191000D03*
X290900Y224000D03*
G54D18*
X53151Y46834D03*
X39765D03*
Y35417D03*
G54D45*
X154900Y203700D03*
Y211300D03*
G54D27*
X15748Y196850D03*
Y15748D03*
Y320866D03*
X318898Y15748D03*
Y196850D03*
Y320866D03*
G54D72*
X163750Y38500D03*
X158650D03*
X256665Y339721D03*
X251565D03*
X262235Y344818D03*
X267335D03*
X237950Y341500D03*
X232850D03*
G54D81*
X193955Y322113D03*
X176471D03*
X181563Y339480D03*
X198863Y339280D03*
X249355Y324334D03*
X217755Y339147D03*
X230332Y324334D03*
X238063Y353680D03*
X226386Y353661D03*
X213155Y322113D03*
G54D90*
X34549Y389093D03*
X31990Y381779D03*
X37108D03*
X46149Y389165D03*
X43590Y381851D03*
X48708D03*
X100149Y374301D03*
X97590Y366987D03*
X102708D03*
X22049Y388847D03*
X19490Y381533D03*
X24608D03*
X153511Y356257D03*
X150952Y348943D03*
X156070D03*
G54D36*
X125508Y162417D03*
X119508D03*
X106318Y162303D03*
X112318D03*
X140508Y201517D03*
X134508D03*
X131500Y131700D03*
X125500D03*
X86600Y66700D03*
X80600D03*
X125476Y157547D03*
X119476D03*
X106350Y157373D03*
X112350D03*
X92476Y215547D03*
X86476D03*
X85800Y72900D03*
X79800D03*
X137672Y154255D03*
X131672D03*
X92681Y154976D03*
X98681D03*
X9600Y139339D03*
X3600D03*
X9600Y134739D03*
X3600D03*
X127408Y241917D03*
X121408D03*
X106818Y241903D03*
X112818D03*
X155584Y290117D03*
X149584D03*
X139300Y299600D03*
X145300D03*
X161584Y260617D03*
X167584D03*
X133584Y279617D03*
X127584D03*
X157384Y306117D03*
X163384D03*
X157384Y311617D03*
X163384D03*
X119584Y265617D03*
X125584D03*
X161084Y289117D03*
X167084D03*
Y282117D03*
X161084D03*
X89100Y336400D03*
X95100D03*
X278445Y378949D03*
X272445D03*
G54D129*
X311341Y45260D03*
X316459D03*
Y52740D03*
X313900D03*
X311341D03*
X217659Y200240D03*
X212541D03*
Y192760D03*
X215100D03*
X217659D03*
G54D63*
X127000Y4400D03*
G54D54*
X95863Y23993D03*
G54D138*
X284547Y234330D03*
X287697D03*
X290846D03*
X293996D03*
X297146D03*
X306594D03*
X309744D03*
X312894D03*
X316043D03*
X319193D03*
X284547Y236889D03*
X287697D03*
X290846D03*
X293996D03*
X297146D03*
X306594D03*
X309744D03*
X312894D03*
X316043D03*
X319193D03*
X284547Y239448D03*
X287697D03*
X290846D03*
X293996D03*
X297146D03*
X306594D03*
X309744D03*
X312894D03*
X316043D03*
X319193D03*
X284547Y242007D03*
X287697D03*
X290846D03*
X293996D03*
X297146D03*
X306594D03*
X309744D03*
X312894D03*
X316043D03*
X319193D03*
X284547Y244566D03*
X287697D03*
X290846D03*
X293996D03*
X297146D03*
X306594D03*
X309744D03*
X312894D03*
X316043D03*
X319193D03*
X284547Y247125D03*
X287697D03*
X290846D03*
X293996D03*
X297146D03*
X306594D03*
X309744D03*
X312894D03*
X316043D03*
X319193D03*
X284547Y249684D03*
X287697D03*
X290846D03*
X293996D03*
X297146D03*
X306594D03*
X309744D03*
X312894D03*
X316043D03*
X319193D03*
X284547Y252243D03*
X287697D03*
X290846D03*
X293996D03*
X297146D03*
X306594D03*
X309744D03*
X312894D03*
X316043D03*
X319193D03*
X284547Y254802D03*
X287697D03*
X290846D03*
X293996D03*
X297146D03*
X306594D03*
X309744D03*
X312894D03*
X316043D03*
X319193D03*
X284547Y257361D03*
X287697D03*
X290846D03*
X293996D03*
X297146D03*
X306594D03*
X309744D03*
X312894D03*
X316043D03*
X319193D03*
X284547Y265039D03*
X287697D03*
X290846D03*
X293996D03*
X297146D03*
X306594D03*
X309744D03*
X312894D03*
X316043D03*
X319193D03*
X284547Y267598D03*
X287697D03*
X290846D03*
X293996D03*
X297146D03*
X306594D03*
X309744D03*
X312894D03*
X316043D03*
X319193D03*
X284547Y270157D03*
X287697D03*
X290846D03*
X293996D03*
X297146D03*
X306594D03*
X309744D03*
X312894D03*
X316043D03*
X319193D03*
X284547Y272716D03*
X287697D03*
X290846D03*
X293996D03*
X297146D03*
X306594D03*
X309744D03*
X312894D03*
X316043D03*
X319193D03*
X284547Y275275D03*
X287697D03*
X290846D03*
X293996D03*
X297146D03*
X306594D03*
X309744D03*
X312894D03*
X316043D03*
X319193D03*
X284547Y277834D03*
X287697D03*
X290846D03*
X293996D03*
X297146D03*
X306594D03*
X309744D03*
X312894D03*
X316043D03*
X319193D03*
X284547Y280393D03*
X287697D03*
X290846D03*
X293996D03*
X297146D03*
X306594D03*
X309744D03*
X312894D03*
X316043D03*
X319193D03*
X284547Y282952D03*
X287697D03*
X290846D03*
X293996D03*
X297146D03*
X306594D03*
X309744D03*
X312894D03*
X316043D03*
X319193D03*
X284547Y285511D03*
X287697D03*
X290846D03*
X293996D03*
X297146D03*
X306594D03*
X309744D03*
X312894D03*
X316043D03*
X319193D03*
X284547Y288070D03*
X287697D03*
X290846D03*
X293996D03*
X297146D03*
X306594D03*
X309744D03*
X312894D03*
X316043D03*
X319193D03*
G54D46*
X33800Y114259D03*
X26200D03*
G54D73*
X170640Y24665D03*
Y19565D03*
X166101Y24665D03*
Y19565D03*
X174190Y57681D03*
Y62781D03*
X274200Y346750D03*
Y341650D03*
G54D37*
X140300Y208297D03*
Y214297D03*
X25600Y189000D03*
Y195000D03*
X153136Y65882D03*
Y71882D03*
X159133Y189416D03*
Y183416D03*
X167061Y199116D03*
Y193116D03*
X13450Y144550D03*
Y138550D03*
Y135550D03*
Y129550D03*
X197600Y24900D03*
Y30900D03*
X126716Y378117D03*
Y384117D03*
X54984Y377783D03*
Y383783D03*
X42900Y305200D03*
Y299200D03*
X143584Y263117D03*
Y257117D03*
X122284Y288683D03*
Y294683D03*
X156584Y263117D03*
Y257117D03*
X162384Y267317D03*
Y273317D03*
X149084Y263117D03*
Y257117D03*
X70400Y349900D03*
Y343900D03*
X258237Y130887D03*
Y136887D03*
X251400Y116800D03*
Y122800D03*
X224237Y113887D03*
Y119887D03*
X315625Y367038D03*
Y361038D03*
G54D82*
X101880Y333751D03*
X103849D03*
X105817D03*
X107785D03*
X109754D03*
Y329617D03*
X107785D03*
X105817D03*
X103849D03*
X101880D03*
X25380Y333751D03*
X27349D03*
X29317D03*
X31285D03*
X33254D03*
Y329617D03*
X31285D03*
X29317D03*
X27349D03*
X25380D03*
G54D64*
X127000Y14400D03*
Y9400D03*
G54D19*
X43308Y15732D03*
X59057D03*
X51231Y343367D03*
X43357D03*
X35483D03*
X27609D03*
X19735D03*
X21703Y349273D03*
X31546D03*
X39420D03*
X127531Y343267D03*
X119657D03*
X111783D03*
X103909D03*
X96035D03*
X98003Y349173D03*
X107846D03*
X115720D03*
G54D28*
X105900Y144000D03*
X88100Y150300D03*
X138050Y146347D03*
X151507Y153696D03*
X108326Y262073D03*
X146326Y247097D03*
X146313Y239265D03*
X100718Y262060D03*
X138005Y312950D03*
Y320550D03*
G54D139*
X266109Y233350D03*
Y235909D03*
Y238469D03*
Y241028D03*
Y243587D03*
Y246146D03*
Y248705D03*
Y251264D03*
Y253823D03*
Y256382D03*
Y258941D03*
Y261500D03*
Y264059D03*
Y266618D03*
Y269177D03*
Y271736D03*
Y274295D03*
Y276854D03*
Y279413D03*
Y281972D03*
Y284531D03*
Y287091D03*
Y289650D03*
X263550Y230791D03*
Y233350D03*
Y235909D03*
Y238469D03*
Y241028D03*
Y243587D03*
Y246146D03*
Y248705D03*
Y251264D03*
Y253823D03*
Y256382D03*
Y258941D03*
Y261500D03*
Y264059D03*
Y266618D03*
Y269177D03*
Y271736D03*
Y274295D03*
Y276854D03*
Y279413D03*
Y281972D03*
Y284531D03*
Y287091D03*
Y289650D03*
Y292209D03*
X260991Y230791D03*
Y233350D03*
Y235909D03*
Y238469D03*
Y241028D03*
Y243587D03*
Y246146D03*
Y248705D03*
Y251264D03*
Y253823D03*
Y256382D03*
Y258941D03*
Y261500D03*
Y264059D03*
Y266618D03*
Y269177D03*
Y271736D03*
Y274295D03*
Y276854D03*
Y279413D03*
Y281972D03*
Y284531D03*
Y287091D03*
Y289650D03*
Y292209D03*
X258431Y230791D03*
Y233350D03*
Y235909D03*
Y238469D03*
Y241028D03*
Y243587D03*
Y246146D03*
Y248705D03*
Y251264D03*
Y253823D03*
Y256382D03*
Y258941D03*
Y261500D03*
Y264059D03*
Y266618D03*
Y269177D03*
Y271736D03*
Y274295D03*
Y276854D03*
Y279413D03*
Y281972D03*
Y284531D03*
Y287091D03*
Y289650D03*
Y292209D03*
X255872Y230791D03*
Y233350D03*
Y235909D03*
Y238469D03*
Y241028D03*
Y243587D03*
Y246146D03*
Y248705D03*
Y251264D03*
Y253823D03*
Y256382D03*
Y258941D03*
Y261500D03*
Y264059D03*
Y266618D03*
Y269177D03*
Y271736D03*
Y274295D03*
Y276854D03*
Y279413D03*
Y281972D03*
Y284531D03*
Y287091D03*
Y289650D03*
Y292209D03*
X253313Y230791D03*
Y233350D03*
Y235909D03*
Y238469D03*
Y241028D03*
Y243587D03*
Y246146D03*
Y248705D03*
Y251264D03*
Y253823D03*
Y256382D03*
Y258941D03*
Y261500D03*
Y264059D03*
Y266618D03*
Y269177D03*
Y271736D03*
Y274295D03*
Y276854D03*
Y279413D03*
Y281972D03*
Y284531D03*
Y287091D03*
Y289650D03*
Y292209D03*
X250754Y230791D03*
Y233350D03*
Y235909D03*
Y238469D03*
Y241028D03*
Y243587D03*
Y246146D03*
Y248705D03*
Y251264D03*
Y253823D03*
Y256382D03*
Y258941D03*
Y261500D03*
Y264059D03*
Y266618D03*
Y269177D03*
Y271736D03*
Y274295D03*
Y276854D03*
Y279413D03*
Y281972D03*
Y284531D03*
Y287091D03*
Y289650D03*
Y292209D03*
X248195Y230791D03*
Y233350D03*
Y235909D03*
Y238469D03*
Y241028D03*
Y243587D03*
Y246146D03*
Y248705D03*
Y251264D03*
Y253823D03*
Y256382D03*
Y258941D03*
Y261500D03*
Y264059D03*
Y266618D03*
Y269177D03*
Y271736D03*
Y274295D03*
Y276854D03*
Y279413D03*
Y281972D03*
Y284531D03*
Y287091D03*
Y289650D03*
Y292209D03*
X245636Y230791D03*
Y233350D03*
Y235909D03*
Y238469D03*
Y241028D03*
Y243587D03*
Y246146D03*
Y248705D03*
Y251264D03*
Y253823D03*
Y256382D03*
Y258941D03*
Y261500D03*
Y264059D03*
Y266618D03*
Y269177D03*
Y271736D03*
Y274295D03*
Y276854D03*
Y279413D03*
Y281972D03*
Y284531D03*
Y287091D03*
Y289650D03*
Y292209D03*
X243077Y230791D03*
Y233350D03*
Y235909D03*
Y238469D03*
Y241028D03*
Y243587D03*
Y246146D03*
Y248705D03*
Y251264D03*
Y253823D03*
Y256382D03*
Y258941D03*
Y261500D03*
Y264059D03*
Y266618D03*
Y269177D03*
Y271736D03*
Y274295D03*
Y276854D03*
Y279413D03*
Y281972D03*
Y284531D03*
Y287091D03*
Y289650D03*
Y292209D03*
X240518Y230791D03*
Y233350D03*
Y235909D03*
Y238469D03*
Y241028D03*
Y243587D03*
Y246146D03*
Y248705D03*
Y251264D03*
Y253823D03*
Y256382D03*
Y258941D03*
Y261500D03*
Y264059D03*
Y266618D03*
Y269177D03*
Y271736D03*
Y274295D03*
Y276854D03*
Y279413D03*
Y281972D03*
Y284531D03*
Y287091D03*
Y289650D03*
Y292209D03*
X237959Y230791D03*
Y233350D03*
Y235909D03*
Y238469D03*
Y241028D03*
Y243587D03*
Y246146D03*
Y248705D03*
Y251264D03*
Y253823D03*
Y256382D03*
Y258941D03*
Y261500D03*
Y264059D03*
Y266618D03*
Y269177D03*
Y271736D03*
Y274295D03*
Y276854D03*
Y279413D03*
Y281972D03*
Y284531D03*
Y287091D03*
Y289650D03*
Y292209D03*
X235400Y230791D03*
Y233350D03*
Y235909D03*
Y238469D03*
Y241028D03*
Y243587D03*
Y246146D03*
Y248705D03*
Y251264D03*
Y253823D03*
Y256382D03*
Y258941D03*
Y261500D03*
Y264059D03*
Y266618D03*
Y269177D03*
Y271736D03*
Y274295D03*
Y276854D03*
Y279413D03*
Y281972D03*
Y284531D03*
Y287091D03*
Y289650D03*
Y292209D03*
X232841Y230791D03*
Y233350D03*
Y235909D03*
Y238469D03*
Y241028D03*
Y243587D03*
Y246146D03*
Y248705D03*
Y251264D03*
Y253823D03*
Y256382D03*
Y258941D03*
Y261500D03*
Y264059D03*
Y266618D03*
Y269177D03*
Y271736D03*
Y274295D03*
Y276854D03*
Y279413D03*
Y281972D03*
Y284531D03*
Y287091D03*
Y289650D03*
Y292209D03*
X230282Y230791D03*
Y233350D03*
Y235909D03*
Y238469D03*
Y241028D03*
Y243587D03*
Y246146D03*
Y248705D03*
Y251264D03*
Y253823D03*
Y256382D03*
Y258941D03*
Y261500D03*
Y264059D03*
Y266618D03*
Y269177D03*
Y271736D03*
Y274295D03*
Y276854D03*
Y279413D03*
Y281972D03*
Y284531D03*
Y287091D03*
Y289650D03*
Y292209D03*
X227723Y230791D03*
Y233350D03*
Y235909D03*
Y238469D03*
Y241028D03*
Y243587D03*
Y246146D03*
Y248705D03*
Y251264D03*
Y253823D03*
Y256382D03*
Y258941D03*
Y261500D03*
Y264059D03*
Y266618D03*
Y269177D03*
Y271736D03*
Y274295D03*
Y276854D03*
Y279413D03*
Y281972D03*
Y284531D03*
Y287091D03*
Y289650D03*
Y292209D03*
X225164Y230791D03*
Y233350D03*
Y235909D03*
Y238469D03*
Y241028D03*
Y243587D03*
Y246146D03*
Y248705D03*
Y251264D03*
Y253823D03*
Y256382D03*
Y258941D03*
Y261500D03*
Y264059D03*
Y266618D03*
Y269177D03*
Y271736D03*
Y274295D03*
Y276854D03*
Y279413D03*
Y281972D03*
Y284531D03*
Y287091D03*
Y289650D03*
Y292209D03*
X222605Y230791D03*
Y233350D03*
Y235909D03*
Y238469D03*
Y241028D03*
Y243587D03*
Y246146D03*
Y248705D03*
Y251264D03*
Y253823D03*
Y256382D03*
Y258941D03*
Y261500D03*
Y264059D03*
Y266618D03*
Y269177D03*
Y271736D03*
Y274295D03*
Y276854D03*
Y279413D03*
Y281972D03*
Y284531D03*
Y287091D03*
Y289650D03*
Y292209D03*
X220046Y230791D03*
Y233350D03*
Y235909D03*
Y238469D03*
Y241028D03*
Y243587D03*
Y246146D03*
Y248705D03*
Y251264D03*
Y253823D03*
Y256382D03*
Y258941D03*
Y261500D03*
Y264059D03*
Y266618D03*
Y269177D03*
Y271736D03*
Y274295D03*
Y276854D03*
Y279413D03*
Y281972D03*
Y284531D03*
Y287091D03*
Y289650D03*
Y292209D03*
X217487Y230791D03*
Y233350D03*
Y235909D03*
Y238469D03*
Y241028D03*
Y243587D03*
Y246146D03*
Y248705D03*
Y251264D03*
Y253823D03*
Y256382D03*
Y258941D03*
Y261500D03*
Y264059D03*
Y266618D03*
Y269177D03*
Y271736D03*
Y274295D03*
Y276854D03*
Y279413D03*
Y281972D03*
Y284531D03*
Y287091D03*
Y289650D03*
Y292209D03*
X214928Y230791D03*
Y233350D03*
Y235909D03*
Y238469D03*
Y241028D03*
Y243587D03*
Y246146D03*
Y248705D03*
Y251264D03*
Y253823D03*
Y256382D03*
Y258941D03*
Y261500D03*
Y264059D03*
Y266618D03*
Y269177D03*
Y271736D03*
Y274295D03*
Y276854D03*
Y279413D03*
Y281972D03*
Y284531D03*
Y287091D03*
Y289650D03*
Y292209D03*
X212369Y230791D03*
Y233350D03*
Y235909D03*
Y238469D03*
Y241028D03*
Y243587D03*
Y246146D03*
Y248705D03*
Y251264D03*
Y253823D03*
Y256382D03*
Y258941D03*
Y261500D03*
Y264059D03*
Y266618D03*
Y269177D03*
Y271736D03*
Y274295D03*
Y276854D03*
Y279413D03*
Y281972D03*
Y284531D03*
Y287091D03*
Y289650D03*
Y292209D03*
X209809Y230791D03*
Y233350D03*
Y235909D03*
Y238469D03*
Y241028D03*
Y243587D03*
Y246146D03*
Y248705D03*
Y251264D03*
Y253823D03*
Y256382D03*
Y258941D03*
Y261500D03*
Y264059D03*
Y266618D03*
Y269177D03*
Y271736D03*
Y274295D03*
Y276854D03*
Y279413D03*
Y281972D03*
Y284531D03*
Y287091D03*
Y289650D03*
Y292209D03*
X207250Y230791D03*
Y233350D03*
Y235909D03*
Y238469D03*
Y241028D03*
Y243587D03*
Y246146D03*
Y248705D03*
Y251264D03*
Y253823D03*
Y256382D03*
Y258941D03*
Y261500D03*
Y264059D03*
Y266618D03*
Y269177D03*
Y271736D03*
Y274295D03*
Y276854D03*
Y279413D03*
Y281972D03*
Y284531D03*
Y287091D03*
Y289650D03*
Y292209D03*
X204691Y233350D03*
Y235909D03*
Y238469D03*
Y241028D03*
Y243587D03*
Y246146D03*
Y248705D03*
Y251264D03*
Y253823D03*
Y256382D03*
Y258941D03*
Y261500D03*
Y264059D03*
Y266618D03*
Y269177D03*
Y271736D03*
Y274295D03*
Y276854D03*
Y279413D03*
Y281972D03*
Y284531D03*
Y287091D03*
Y289650D03*
G54D55*
X103737Y23993D03*
G54D91*
X136300Y373000D03*
Y384000D03*
G54D74*
X151100Y77812D03*
Y91788D03*
G54D83*
X36467Y360984D03*
X34499D03*
X36467Y357048D03*
X34499D03*
X112601Y362652D03*
X110633D03*
X112601Y358716D03*
X110633D03*
G54D56*
X103600Y33500D03*
X93600D03*
X76600D03*
X86600D03*
G54D65*
X50500Y134600D03*
Y129600D03*
X50400Y140400D03*
Y145400D03*
G54D38*
X189700Y36409D03*
Y24991D03*
X137300Y237797D03*
Y249215D03*
X147599Y311000D03*
Y322418D03*
X6315Y306586D03*
Y292414D03*
G54D47*
X5883Y6089D03*
Y333284D03*
X328683Y6089D03*
G54D29*
X104624Y169034D03*
Y178404D03*
X126824Y169238D03*
Y178608D03*
G54D92*
X191800Y260900D03*
X187800D03*
X191800Y264900D03*
X187800D03*
X293400Y215500D03*
X289600D03*
X290600Y319600D03*
Y315600D03*
X293400Y219500D03*
X289600D03*
X302900Y225500D03*
X298900D03*
G54D84*
X38829Y360984D03*
X114963Y362652D03*
G54D57*
X69344Y177290D03*
Y175321D03*
Y173353D03*
Y171384D03*
Y169416D03*
Y167447D03*
Y165479D03*
Y163510D03*
G54D66*
X30126Y138839D03*
X18118D03*
Y134901D03*
X30126D03*
G54D39*
X146230Y216946D03*
Y209466D03*
X302600Y301540D03*
Y294060D03*
G54D48*
X175901Y197851D03*
Y279951D03*
Y235151D03*
X305499Y192249D03*
X330899Y236849D03*
Y282051D03*
G54D75*
X163697Y230877D03*
X156217D03*
Y220561D03*
X159957D03*
X163697D03*
G54D93*
X53400Y298698D03*
Y300902D03*
X80400Y320098D03*
Y322302D03*
X82600Y320098D03*
Y322302D03*
X55600Y298698D03*
Y300902D03*
X50600Y294902D03*
Y292698D03*
X89000Y318498D03*
Y320702D03*
X51300Y329602D03*
Y327398D03*
X228031Y114733D03*
Y116937D03*
G54D76*
X31200Y312160D03*
X33759Y319640D03*
X28641D03*
X300541Y345587D03*
X297982Y338107D03*
X303100D03*
G54D49*
X175901Y191552D03*
Y204150D03*
Y286250D03*
Y273652D03*
Y241450D03*
Y228852D03*
X305499Y185950D03*
Y198548D03*
X330899Y230550D03*
Y243148D03*
Y288350D03*
Y275752D03*
G54D94*
X129959Y255900D03*
X124841D03*
X129959Y250800D03*
X124841D03*
G54D67*
X37200Y135900D03*
X41000D03*
X37200Y138500D03*
X41000D03*
G54D58*
X66490Y160656D03*
X64521D03*
X62553D03*
X60584D03*
X58616D03*
X56647D03*
X54679D03*
X52710D03*
G54D85*
X32136Y360984D03*
X108270Y362652D03*
G54D68*
X69600Y133500D03*
G54D95*
X99050Y252873D03*
X110468D03*
X273405Y371351D03*
X284823D03*
G54D86*
X32137Y357048D03*
X108271Y358716D03*
G54D59*
X49856Y163510D03*
Y165479D03*
Y167447D03*
Y169416D03*
Y171384D03*
Y173353D03*
Y175321D03*
Y177290D03*
G54D77*
X150197Y332983D03*
G54D69*
X76490Y143254D03*
X74521D03*
X72553D03*
X70584D03*
X68616D03*
X66647D03*
X64679D03*
X62710D03*
Y123746D03*
X64679D03*
X66647D03*
X68616D03*
X70584D03*
X72553D03*
X74521D03*
X76490D03*
G54D87*
X38830Y357048D03*
X114964Y358716D03*
G54D78*
X9617Y357147D03*
X61349D03*
X85917Y357047D03*
X137649D03*
G54D96*
X121598Y324969D03*
G54D88*
X121454Y378543D03*
Y375984D03*
Y373425D03*
X113580D03*
Y375984D03*
Y378543D03*
X53737Y373659D03*
Y371100D03*
Y368541D03*
X45863D03*
Y371100D03*
Y373659D03*
X185835Y366072D03*
Y363513D03*
Y360954D03*
X177961D03*
Y363513D03*
Y366072D03*
G54D79*
X49263Y349273D03*
X125563Y349173D03*
G54D97*
X121598Y326347D03*
Y327725D03*
Y329103D03*
X124354D03*
Y327725D03*
Y326347D03*
Y324969D03*
G54D89*
X117517Y375984D03*
X49800Y371100D03*
X181898Y363513D03*
G54D98*
X21400Y301500D03*
Y297500D03*
G54D99*
X74039Y240603D03*
M02*
